<svg xmlns="http://www.w3.org/2000/svg" width="1203" height="685" fill="none"><path fill="#fff" d="M374.976 23.062v-6.584h24.155v6.584h-8.415V47h-7.369V23.062h-8.371Zm33.467-10.072V47h-6.628V12.99h6.628Zm6.409 21.801c0-1.191-.218-2.107-.654-2.747-.436-.64-1.192-.959-2.267-.959-.698 0-1.308.16-1.831.48-.524.29-.931.712-1.221 1.264-.291.523-.436 1.177-.436 1.962h-1.134c0-1.598.262-3.037.785-4.316.523-1.309 1.308-2.34 2.354-3.096 1.076-.785 2.442-1.177 4.099-1.177s2.98.29 3.968.872c1.017.581 1.758 1.438 2.224 2.572.465 1.134.697 2.53.697 4.186V47h-6.584V34.791Zm21.991 12.645c-2.326 0-4.346-.422-6.061-1.264-1.686-.872-2.994-2.093-3.924-3.663-.931-1.57-1.396-3.416-1.396-5.538 0-2.15.451-4.011 1.352-5.58.901-1.57 2.195-2.777 3.881-3.62 1.715-.843 3.735-1.264 6.06-1.264 2.326 0 4.288.407 5.887 1.22 1.599.785 2.819 1.934 3.662 3.445.843 1.512 1.265 3.343 1.265 5.494v.96c0 .29-.029.537-.087.74h-18.313v-3.662h12.383l-1.57 2.006c.145-.204.262-.45.349-.742.116-.32.174-.58.174-.784 0-.872-.16-1.628-.479-2.268a3.524 3.524 0 0 0-1.352-1.482c-.581-.349-1.265-.523-2.049-.523-.989 0-1.817.218-2.486.654-.668.436-1.177 1.104-1.526 2.005-.32.873-.494 1.977-.523 3.314 0 1.221.174 2.267.523 3.14.349.872.872 1.54 1.57 2.005.697.436 1.555.654 2.572.654 1.163 0 2.151-.218 2.965-.654.843-.436 1.512-1.09 2.006-1.962l5.886 1.44c-1.046 1.976-2.47 3.458-4.273 4.447-1.773.988-3.938 1.482-6.496 1.482Zm34.404 9.157h-6.584v-29.65h6.584v29.65Zm16.395-19.622c0 2.326-.465 4.288-1.396 5.887-.901 1.599-2.078 2.805-3.531 3.619a9.161 9.161 0 0 1-4.622 1.22c-1.744 0-3.256-.435-4.535-1.307-1.25-.902-2.209-2.151-2.878-3.75-.668-1.628-1.003-3.517-1.003-5.669 0-2.18.335-4.07 1.003-5.668.669-1.599 1.628-2.834 2.878-3.706 1.279-.901 2.791-1.352 4.535-1.352a9.16 9.16 0 0 1 4.622 1.221c1.453.814 2.63 2.02 3.531 3.62.931 1.569 1.396 3.53 1.396 5.885Zm-6.933 0c0-1.046-.218-1.933-.654-2.66a4.346 4.346 0 0 0-1.744-1.656 5.12 5.12 0 0 0-2.398-.567c-.756 0-1.497.189-2.224.567-.698.349-1.279.886-1.744 1.613-.465.727-.698 1.628-.698 2.703 0 1.076.233 1.977.698 2.704.465.727 1.046 1.279 1.744 1.657a5.09 5.09 0 0 0 2.224.523 5.12 5.12 0 0 0 2.398-.567 4.346 4.346 0 0 0 1.744-1.657c.436-.727.654-1.613.654-2.66Zm17.405-10.028V47h-6.496V26.943h6.496Zm5.8 6.802a4.362 4.362 0 0 0-1.134-.829c-.378-.203-.858-.305-1.439-.305a2.88 2.88 0 0 0-1.7.523c-.495.35-.873.858-1.134 1.526-.262.669-.393 1.483-.393 2.442l-1.569-2.31c0-1.6.305-3.024.915-4.274.64-1.25 1.468-2.238 2.486-2.965 1.017-.727 2.078-1.09 3.183-1.09.726 0 1.424.145 2.093.436.668.29 1.177.698 1.526 1.221l-2.834 5.625Zm3.814 3.226c0-2.122.494-3.967 1.483-5.537.988-1.57 2.354-2.79 4.098-3.663 1.744-.872 3.707-1.308 5.887-1.308 2.18 0 4.127.436 5.842 1.308 1.744.872 3.111 2.093 4.099 3.663 1.017 1.57 1.526 3.415 1.526 5.537 0 2.093-.509 3.925-1.526 5.494-.988 1.57-2.355 2.79-4.099 3.663-1.715.872-3.662 1.308-5.842 1.308-2.18 0-4.143-.436-5.887-1.308-1.744-.872-3.11-2.093-4.098-3.663-.989-1.57-1.483-3.4-1.483-5.494Zm6.759 0c0 1.047.218 1.948.654 2.704a4.762 4.762 0 0 0 1.7 1.7c.698.407 1.483.61 2.355.61.843 0 1.613-.203 2.311-.61a4.352 4.352 0 0 0 1.7-1.7c.436-.756.654-1.657.654-2.704 0-1.046-.218-1.947-.654-2.703a4.279 4.279 0 0 0-1.7-1.744 4.505 4.505 0 0 0-2.311-.61c-.872 0-1.657.203-2.355.61s-1.264.988-1.7 1.744c-.436.756-.654 1.657-.654 2.703Zm25.675 0c0 1.076.232 2.006.697 2.791a4.948 4.948 0 0 0 1.919 1.788 5.8 5.8 0 0 0 2.703.654 7.54 7.54 0 0 0 2.311-.35 7.994 7.994 0 0 0 2.049-1.046 5.526 5.526 0 0 0 1.57-1.613v6.41c-.697.552-1.57 1.003-2.616 1.351-1.046.32-2.325.48-3.837.48-2.209 0-4.2-.436-5.974-1.308-1.744-.872-3.124-2.093-4.142-3.663-.988-1.57-1.482-3.4-1.482-5.494 0-2.122.494-3.953 1.482-5.493 1.018-1.57 2.398-2.791 4.142-3.663 1.774-.872 3.765-1.308 5.974-1.308 1.512 0 2.791.174 3.837.523 1.046.32 1.919.727 2.616 1.22v6.454a5.342 5.342 0 0 0-1.613-1.613 7.728 7.728 0 0 0-2.093-1.003 7.54 7.54 0 0 0-2.224-.349 5.51 5.51 0 0 0-2.703.698 5.165 5.165 0 0 0-1.919 1.875c-.465.785-.697 1.671-.697 2.66Zm26.211 10.465c-2.325 0-4.346-.422-6.061-1.264-1.686-.872-2.994-2.093-3.924-3.663-.93-1.57-1.395-3.416-1.395-5.538 0-2.15.45-4.011 1.351-5.58.901-1.57 2.195-2.777 3.881-3.62 1.715-.843 3.735-1.264 6.061-1.264 2.325 0 4.287.407 5.886 1.22 1.599.785 2.82 1.934 3.663 3.445.843 1.512 1.264 3.343 1.264 5.494v.96c0 .29-.029.537-.087.74h-18.313v-3.662h12.383l-1.57 2.006c.146-.204.262-.45.349-.742.116-.32.175-.58.175-.784 0-.872-.16-1.628-.48-2.268a3.518 3.518 0 0 0-1.352-1.482c-.581-.349-1.264-.523-2.049-.523-.988 0-1.817.218-2.485.654-.669.436-1.178 1.104-1.526 2.005-.32.873-.495 1.977-.524 3.314 0 1.221.175 2.267.524 3.14.348.872.872 1.54 1.569 2.005.698.436 1.555.654 2.573.654 1.163 0 2.151-.218 2.965-.654.843-.436 1.511-1.09 2.005-1.962l5.887 1.44c-1.047 1.976-2.471 3.458-4.273 4.447-1.773.988-3.939 1.482-6.497 1.482Zm15.882-7.718c1.017.843 1.933 1.512 2.747 2.006.843.465 1.584.8 2.224 1.003.639.174 1.191.262 1.656.262.669 0 1.163-.146 1.483-.436.32-.291.48-.669.48-1.134 0-.436-.131-.8-.393-1.09-.261-.32-.712-.625-1.352-.916-.61-.29-1.453-.596-2.528-.915a21.235 21.235 0 0 1-2.747-1.221 6.427 6.427 0 0 1-2.093-1.962c-.553-.814-.829-1.86-.829-3.14 0-1.22.32-2.253.959-3.096.669-.843 1.556-1.482 2.66-1.918 1.134-.436 2.427-.654 3.881-.654 1.163 0 2.238.13 3.226.392 1.018.262 1.963.61 2.835 1.047a15.76 15.76 0 0 1 2.529 1.526l-2.355 4.273a10.817 10.817 0 0 0-2.878-1.919c-1.075-.523-2.064-.785-2.965-.785-.61 0-1.075.117-1.395.35a1.115 1.115 0 0 0-.436.915c0 .436.174.8.523 1.09.378.29.901.567 1.57.828.698.233 1.541.538 2.529.916a18.75 18.75 0 0 1 2.878 1.308c.901.494 1.613 1.12 2.136 1.875.552.756.829 1.759.829 3.009 0 2.15-.669 3.779-2.006 4.883-1.308 1.076-3.154 1.613-5.538 1.613-1.453 0-2.805-.174-4.055-.523a15.88 15.88 0 0 1-3.401-1.308 23.043 23.043 0 0 1-2.921-1.918l2.747-4.36Zm19.885 0c1.017.843 1.933 1.512 2.747 2.006.843.465 1.584.8 2.224 1.003.639.174 1.192.262 1.657.262.668 0 1.162-.146 1.482-.436.32-.291.48-.669.48-1.134 0-.436-.131-.8-.393-1.09-.261-.32-.712-.625-1.351-.916-.611-.29-1.454-.596-2.529-.915a21.235 21.235 0 0 1-2.747-1.221 6.427 6.427 0 0 1-2.093-1.962c-.552-.814-.829-1.86-.829-3.14 0-1.22.32-2.253.96-3.096.668-.843 1.555-1.482 2.659-1.918 1.134-.436 2.428-.654 3.881-.654 1.163 0 2.238.13 3.227.392 1.017.262 1.962.61 2.834 1.047a15.76 15.76 0 0 1 2.529 1.526l-2.355 4.273a10.817 10.817 0 0 0-2.878-1.919c-1.075-.523-2.063-.785-2.965-.785-.61 0-1.075.117-1.395.35a1.115 1.115 0 0 0-.436.915c0 .436.175.8.523 1.09.378.29.901.567 1.57.828.698.233 1.541.538 2.529.916a18.75 18.75 0 0 1 2.878 1.308c.901.494 1.613 1.12 2.136 1.875.553.756.829 1.759.829 3.009 0 2.15-.669 3.779-2.006 4.883-1.308 1.076-3.154 1.613-5.538 1.613-1.453 0-2.805-.174-4.055-.523a15.9 15.9 0 0 1-3.401-1.308 23.043 23.043 0 0 1-2.921-1.918l2.747-4.36Zm30.69-2.747c0-2.122.494-3.967 1.483-5.537.988-1.57 2.354-2.79 4.098-3.663 1.744-.872 3.706-1.308 5.887-1.308 2.18 0 4.127.436 5.842 1.308 1.744.872 3.111 2.093 4.099 3.663 1.017 1.57 1.526 3.415 1.526 5.537 0 2.093-.509 3.925-1.526 5.494-.988 1.57-2.355 2.79-4.099 3.663-1.715.872-3.662 1.308-5.842 1.308-2.181 0-4.143-.436-5.887-1.308-1.744-.872-3.11-2.093-4.098-3.663-.989-1.57-1.483-3.4-1.483-5.494Zm6.759 0c0 1.047.218 1.948.654 2.704a4.762 4.762 0 0 0 1.7 1.7c.698.407 1.483.61 2.355.61.843 0 1.613-.203 2.311-.61a4.352 4.352 0 0 0 1.7-1.7c.436-.756.654-1.657.654-2.704 0-1.046-.218-1.947-.654-2.703a4.279 4.279 0 0 0-1.7-1.744 4.505 4.505 0 0 0-2.311-.61c-.872 0-1.657.203-2.355.61s-1.264.988-1.7 1.744c-.436.756-.654 1.657-.654 2.703Zm18.349-10.028h13.692v5.45h-13.692v-5.45Zm12.95-7.63c-.29-.378-.61-.655-.959-.83a2.149 2.149 0 0 0-1.046-.26c-.436 0-.814.101-1.134.305-.291.203-.523.523-.698.959-.174.436-.261 1.003-.261 1.7V47h-6.323V19.53c0-1.511.277-2.805.829-3.88a5.958 5.958 0 0 1 2.529-2.486c1.133-.581 2.529-.872 4.186-.872 1.017 0 1.875.131 2.572.393.698.232 1.294.523 1.788.872.494.32.886.625 1.177.915l-2.66 4.84Zm25.401 12.12L694.458 47h-7.761l4.927-32.048 12.993 18.618 13.038-18.618L722.582 47h-7.762l-1.831-15.566-8.372 12.732-8.328-12.732ZM726.228 19.4c0-1.047.378-1.89 1.134-2.53.755-.668 1.656-1.002 2.703-1.002 1.075 0 1.977.334 2.703 1.003.756.64 1.134 1.482 1.134 2.529 0 1.046-.378 1.904-1.134 2.572-.726.669-1.628 1.003-2.703 1.003-1.047 0-1.948-.334-2.703-1.003-.756-.669-1.134-1.526-1.134-2.572Zm.654 7.543h6.366V47h-6.366V26.943Zm24.826 7.848c0-1.191-.233-2.107-.698-2.747-.436-.64-1.177-.959-2.224-.959-.697 0-1.308.145-1.831.436a3.02 3.02 0 0 0-1.221 1.265c-.29.552-.436 1.22-.436 2.005V47h-6.627V26.943h6.627v3.008c.582-1.104 1.366-1.962 2.355-2.572 1.017-.61 2.267-.916 3.75-.916 2.5 0 4.316.669 5.45 2.006 1.134 1.337 1.7 3.212 1.7 5.625V47h-6.845V34.791Zm22.246 12.645c-2.326 0-4.346-.422-6.061-1.264-1.686-.872-2.994-2.093-3.924-3.663-.93-1.57-1.396-3.416-1.396-5.538 0-2.15.451-4.011 1.352-5.58.901-1.57 2.195-2.777 3.881-3.62 1.715-.843 3.735-1.264 6.06-1.264 2.326 0 4.288.407 5.887 1.22 1.599.785 2.819 1.934 3.662 3.445.843 1.512 1.265 3.343 1.265 5.494v.96c0 .29-.029.537-.087.74H766.28v-3.662h12.383l-1.57 2.006c.145-.204.262-.45.349-.742.116-.32.174-.58.174-.784 0-.872-.16-1.628-.479-2.268a3.524 3.524 0 0 0-1.352-1.482c-.581-.349-1.264-.523-2.049-.523-.989 0-1.817.218-2.486.654-.668.436-1.177 1.104-1.526 2.005-.32.873-.494 1.977-.523 3.314 0 1.221.174 2.267.523 3.14.349.872.872 1.54 1.57 2.005.698.436 1.555.654 2.572.654 1.163 0 2.152-.218 2.965-.654.843-.436 1.512-1.09 2.006-1.962l5.887 1.44c-1.047 1.976-2.471 3.458-4.274 4.447-1.773.988-3.938 1.482-6.496 1.482Zm15.434-30.958h6.845l-4.491 11.119h-4.709l2.355-11.119Zm27.69-3.488h6.584V47h-6.584V12.99Zm-16.395 23.981c0-2.267.451-4.17 1.352-5.711.93-1.541 2.122-2.718 3.575-3.532a9.318 9.318 0 0 1 4.622-1.221c1.686 0 3.169.421 4.448 1.264 1.308.843 2.34 2.05 3.095 3.62.756 1.54 1.134 3.4 1.134 5.58 0 2.152-.378 4.012-1.134 5.582-.755 1.57-1.787 2.776-3.095 3.619-1.279.843-2.762 1.264-4.448 1.264a9.319 9.319 0 0 1-4.622-1.22c-1.453-.815-2.645-1.992-3.575-3.533-.901-1.57-1.352-3.473-1.352-5.712Zm6.933 0c0 1.047.218 1.963.654 2.747a4.9 4.9 0 0 0 1.744 1.788c.727.407 1.526.61 2.398.61.756 0 1.483-.203 2.18-.61.727-.407 1.323-.988 1.788-1.744.465-.785.698-1.715.698-2.79 0-1.076-.233-1.992-.698-2.748-.465-.784-1.061-1.38-1.788-1.787a4.265 4.265 0 0 0-2.18-.61c-.872 0-1.671.217-2.398.653-.727.407-1.308 1.003-1.744 1.788-.436.756-.654 1.657-.654 2.703ZM448.52 79.478h7.369V110h-7.369V79.478Zm4.622 6.06v-6.06h5.974c2.587 0 4.752.407 6.496 1.221 1.773.785 3.111 1.919 4.012 3.401.901 1.483 1.351 3.27 1.351 5.363 0 2.035-.45 3.808-1.351 5.32-.901 1.482-2.239 2.63-4.012 3.444-1.744.785-3.909 1.178-6.496 1.178h-5.974v-6.061h5.974c1.482 0 2.645-.334 3.488-1.003.843-.669 1.264-1.628 1.264-2.878 0-1.279-.421-2.253-1.264-2.921-.843-.669-2.006-1.003-3.488-1.003h-5.974Zm27.536 4.405V110h-6.497V89.943h6.497Zm5.799 6.802a4.362 4.362 0 0 0-1.134-.829c-.378-.203-.857-.305-1.439-.305a2.88 2.88 0 0 0-1.7.523c-.494.35-.872.858-1.134 1.526-.262.669-.392 1.483-.392 2.442l-1.57-2.31c0-1.6.305-3.024.916-4.274.639-1.25 1.468-2.238 2.485-2.965 1.017-.727 2.078-1.09 3.183-1.09.727 0 1.424.146 2.093.436.668.29 1.177.698 1.526 1.221l-2.834 5.625Zm3.814 3.226c0-2.122.495-3.967 1.483-5.537.988-1.57 2.354-2.79 4.099-3.663 1.744-.872 3.706-1.308 5.886-1.308s4.128.436 5.843 1.308c1.744.872 3.11 2.093 4.098 3.663 1.018 1.57 1.526 3.415 1.526 5.537 0 2.093-.508 3.925-1.526 5.494-.988 1.57-2.354 2.791-4.098 3.663-1.715.872-3.663 1.308-5.843 1.308s-4.142-.436-5.886-1.308c-1.745-.872-3.111-2.093-4.099-3.663-.988-1.569-1.483-3.401-1.483-5.494Zm6.759 0c0 1.047.218 1.948.654 2.704a4.774 4.774 0 0 0 1.7 1.7c.698.407 1.483.611 2.355.611.843 0 1.613-.204 2.311-.611a4.349 4.349 0 0 0 1.7-1.7c.436-.756.654-1.657.654-2.704 0-1.046-.218-1.947-.654-2.703a4.273 4.273 0 0 0-1.7-1.744 4.505 4.505 0 0 0-2.311-.61c-.872 0-1.657.203-2.355.61-.697.407-1.264.988-1.7 1.744-.436.756-.654 1.657-.654 2.703Zm35.355-23.981h6.584V110h-6.584V75.99ZM516.01 99.971c0-2.267.451-4.17 1.352-5.712.93-1.54 2.122-2.717 3.575-3.531a9.318 9.318 0 0 1 4.622-1.221c1.686 0 3.169.421 4.448 1.264 1.308.843 2.34 2.05 3.095 3.62.756 1.54 1.134 3.4 1.134 5.58 0 2.151-.378 4.012-1.134 5.582-.755 1.569-1.787 2.776-3.095 3.619-1.279.843-2.762 1.264-4.448 1.264a9.318 9.318 0 0 1-4.622-1.221c-1.453-.814-2.645-1.991-3.575-3.532-.901-1.569-1.352-3.473-1.352-5.712Zm6.933 0c0 1.047.218 1.963.654 2.747a4.897 4.897 0 0 0 1.744 1.788 4.825 4.825 0 0 0 2.398.611c.756 0 1.483-.204 2.18-.611.727-.407 1.323-.988 1.788-1.744.465-.785.698-1.715.698-2.79 0-1.076-.233-1.992-.698-2.748-.465-.784-1.061-1.38-1.788-1.787a4.265 4.265 0 0 0-2.18-.61c-.872 0-1.671.217-2.398.653-.727.407-1.308 1.003-1.744 1.788-.436.756-.654 1.657-.654 2.703Zm28.045 2.181c0 1.162.218 2.078.654 2.746.436.64 1.191.96 2.267.96.727 0 1.337-.146 1.831-.436.523-.291.93-.712 1.221-1.265.291-.552.436-1.221.436-2.005v-12.21h6.584V110h-6.584v-3.009c-.61 1.076-1.41 1.933-2.398 2.573-.988.61-2.224.916-3.706.916-2.5 0-4.331-.669-5.494-2.006-1.134-1.366-1.701-3.241-1.701-5.625V89.943h6.89v12.209Zm23.728-2.18c0 1.075.232 2.005.698 2.79a4.943 4.943 0 0 0 1.918 1.788 5.8 5.8 0 0 0 2.703.654 7.55 7.55 0 0 0 2.311-.349 8.035 8.035 0 0 0 2.05-1.047 5.528 5.528 0 0 0 1.569-1.613v6.41c-.697.552-1.569 1.003-2.616 1.351-1.046.32-2.325.48-3.837.48-2.209 0-4.2-.436-5.973-1.308-1.745-.872-3.125-2.093-4.143-3.663-.988-1.569-1.482-3.401-1.482-5.494 0-2.122.494-3.953 1.482-5.493 1.018-1.57 2.398-2.791 4.143-3.663 1.773-.872 3.764-1.308 5.973-1.308 1.512 0 2.791.174 3.837.523 1.047.32 1.919.727 2.616 1.22v6.454a5.331 5.331 0 0 0-1.613-1.613 7.714 7.714 0 0 0-2.093-1.003 7.54 7.54 0 0 0-2.224-.349 5.51 5.51 0 0 0-2.703.698 5.163 5.163 0 0 0-1.918 1.875c-.466.785-.698 1.671-.698 2.66Zm13.654-10.03h13.429v5.451H588.37v-5.45Zm3.531-6.976h6.323V110h-6.323V82.966Zm26.431-3.488h7.587V110h-7.587V79.478Zm10.9 30.522h-6.017v-6.54h5.756c1.163 0 2.282-.146 3.357-.436 1.105-.291 2.064-.771 2.878-1.439.843-.669 1.512-1.555 2.006-2.66.494-1.134.741-2.529.741-4.186s-.247-3.038-.741-4.142c-.494-1.134-1.163-2.035-2.006-2.703-.814-.67-1.773-1.149-2.878-1.44a12.804 12.804 0 0 0-3.357-.435h-5.756v-6.54h6.017c3.343 0 6.236.624 8.677 1.874 2.442 1.25 4.332 3.009 5.669 5.276 1.337 2.267 2.005 4.97 2.005 8.11 0 3.11-.668 5.814-2.005 8.11-1.337 2.268-3.227 4.026-5.669 5.276-2.441 1.25-5.334 1.875-8.677 1.875Zm30.627.436c-2.326 0-4.346-.421-6.061-1.264-1.686-.873-2.994-2.093-3.924-3.663-.93-1.57-1.395-3.416-1.395-5.538 0-2.15.45-4.011 1.351-5.58.901-1.57 2.195-2.777 3.881-3.62 1.715-.843 3.735-1.264 6.061-1.264 2.325 0 4.287.407 5.886 1.22 1.599.785 2.82 1.934 3.663 3.445.843 1.512 1.264 3.343 1.264 5.494v.959c0 .291-.029.538-.087.742h-18.313v-3.663h12.383l-1.57 2.006c.146-.204.262-.45.349-.741.116-.32.174-.582.174-.785 0-.872-.159-1.628-.479-2.268a3.524 3.524 0 0 0-1.352-1.482c-.581-.349-1.264-.523-2.049-.523-.989 0-1.817.218-2.486.654-.668.436-1.177 1.104-1.526 2.005-.319.873-.494 1.977-.523 3.314 0 1.221.175 2.268.523 3.14.349.872.872 1.54 1.57 2.005.698.436 1.555.654 2.573.654 1.162 0 2.151-.218 2.965-.654.843-.436 1.511-1.09 2.005-1.962l5.887 1.439c-1.047 1.977-2.471 3.459-4.273 4.448-1.774.988-3.939 1.482-6.497 1.482Zm15.882-7.718c1.017.843 1.933 1.512 2.747 2.006.843.465 1.584.799 2.223 1.003.64.174 1.192.262 1.657.262.669 0 1.163-.146 1.483-.436.32-.291.479-.669.479-1.134 0-.436-.13-.8-.392-1.09-.262-.32-.712-.625-1.352-.916-.61-.291-1.453-.596-2.529-.916a21.197 21.197 0 0 1-2.747-1.22 6.442 6.442 0 0 1-2.093-1.963c-.552-.813-.828-1.86-.828-3.139 0-1.22.32-2.253.959-3.096.669-.843 1.555-1.482 2.66-1.918 1.134-.436 2.427-.654 3.881-.654 1.162 0 2.238.13 3.226.392 1.018.262 1.962.61 2.834 1.047.902.436 1.745.944 2.529 1.526l-2.354 4.273a10.817 10.817 0 0 0-2.878-1.919c-1.075-.523-2.064-.785-2.965-.785-.61 0-1.075.117-1.395.35a1.115 1.115 0 0 0-.436.915c0 .436.174.8.523 1.09.378.29.901.567 1.57.828.697.233 1.54.538 2.529.916 1.046.378 2.005.814 2.877 1.308.902.494 1.614 1.119 2.137 1.875.552.756.828 1.759.828 3.009 0 2.151-.668 3.779-2.005 4.883-1.308 1.076-3.154 1.613-5.538 1.613-1.453 0-2.805-.174-4.055-.523a15.912 15.912 0 0 1-3.401-1.308 23.084 23.084 0 0 1-2.921-1.918l2.747-4.361ZM694.143 82.4c0-1.047.378-1.89 1.134-2.53.756-.668 1.657-1.002 2.703-1.002 1.076 0 1.977.334 2.704 1.003.756.64 1.133 1.482 1.133 2.529 0 1.046-.377 1.903-1.133 2.572-.727.669-1.628 1.003-2.704 1.003-1.046 0-1.947-.334-2.703-1.003-.756-.668-1.134-1.526-1.134-2.572Zm.654 7.543h6.366V110h-6.366V89.943Zm11.048 21.496h6.366c.087.814.32 1.497.698 2.049.406.553.944.959 1.613 1.221.668.291 1.424.436 2.267.436.93 0 1.773-.218 2.529-.654.756-.407 1.352-1.032 1.788-1.875.465-.814.697-1.831.697-3.052V89.943h6.323v19.621c0 2.558-.509 4.636-1.526 6.235-.989 1.599-2.311 2.762-3.968 3.488-1.657.756-3.517 1.134-5.581 1.134-2.471 0-4.52-.378-6.148-1.134-1.599-.755-2.805-1.816-3.619-3.183-.814-1.337-1.294-2.892-1.439-4.665Zm-.436-11.73c0-2.267.45-4.156 1.352-5.668.93-1.511 2.122-2.645 3.575-3.4a9.879 9.879 0 0 1 4.622-1.134c1.686 0 3.168.407 4.447 1.22 1.308.785 2.34 1.934 3.096 3.445.756 1.512 1.134 3.358 1.134 5.538 0 2.151-.378 3.997-1.134 5.537-.756 1.512-1.788 2.675-3.096 3.489-1.279.784-2.761 1.177-4.447 1.177a9.875 9.875 0 0 1-4.622-1.134c-1.453-.785-2.645-1.933-3.575-3.444-.902-1.512-1.352-3.387-1.352-5.625Zm6.933 0c0 1.018.218 1.905.654 2.661a4.336 4.336 0 0 0 1.744 1.656 5.118 5.118 0 0 0 2.398.567c.756 0 1.482-.174 2.18-.523a4.644 4.644 0 0 0 1.788-1.657c.465-.727.697-1.628.697-2.703 0-.814-.145-1.526-.436-2.137a4.175 4.175 0 0 0-1.09-1.526 4.365 4.365 0 0 0-1.482-.915 4.764 4.764 0 0 0-1.657-.306 5.12 5.12 0 0 0-2.398.567 4.34 4.34 0 0 0-1.744 1.657c-.436.727-.654 1.613-.654 2.66Zm33.894-1.918c0-1.191-.232-2.107-.697-2.747-.436-.64-1.178-.959-2.224-.959-.698 0-1.308.145-1.831.436a3 3 0 0 0-1.221 1.265c-.291.552-.436 1.22-.436 2.005V110h-6.628V89.943h6.628v3.008c.581-1.104 1.366-1.962 2.354-2.572 1.018-.61 2.268-.916 3.75-.916 2.5 0 4.317.669 5.45 2.006 1.134 1.337 1.701 3.212 1.701 5.625V110h-6.846V97.791Z"/><path fill="url(#a)" transform="matrix(1 0 0 -1 35 684.311)" d="M0 0h1v467.31H0z"/><path fill="url(#b)" transform="matrix(1 0 0 -1 223.197 684.311)" d="M0 0h1v467.31H0z"/><path fill="url(#c)" transform="matrix(1 0 0 -1 411.395 684.311)" d="M0 0h1v467.31H0z"/><path fill="url(#d)" transform="matrix(1 0 0 -1 599.59 684.311)" d="M0 0h1v467.31H0z"/><path fill="url(#e)" transform="matrix(1 0 0 -1 787.787 684.311)" d="M0 0h1v467.31H0z"/><path fill="url(#f)" transform="matrix(1 0 0 -1 975.984 684.311)" d="M0 0h1v467.31H0z"/><path fill="url(#g)" transform="matrix(1 0 0 -1 1164.18 684.311)" d="M0 0h1v467.31H0z"/><rect width="196.571" height="54.533" x=".5" y="283.5" fill="#F2E72F" fill-opacity=".1" stroke="#F2E72F" rx="27.267"/><path fill="#fff" d="M60.629 310.898h2.145l5.644 7.79h-2.37l-5.42-7.79Zm-2.823-8.015h1.92v15.805h-1.92v-15.805Zm1.061 1.693v-1.693h3.23c1.023 0 1.933.195 2.731.587.813.376 1.453.918 1.92 1.625.48.708.722 1.551.722 2.529 0 .963-.241 1.806-.723 2.529-.466.707-1.106 1.257-1.919 1.648-.798.376-1.708.565-2.732.565h-3.229v-1.694h3.23c.676 0 1.271-.12 1.783-.361a2.758 2.758 0 0 0 1.219-1.039c.301-.451.452-1.001.452-1.648s-.15-1.197-.452-1.648a2.758 2.758 0 0 0-1.22-1.039c-.511-.241-1.105-.361-1.783-.361h-3.229Zm15.48 14.337c-.964 0-1.822-.225-2.575-.677a4.877 4.877 0 0 1-1.738-1.919c-.406-.813-.61-1.754-.61-2.823 0-1.083.211-2.032.633-2.844a4.77 4.77 0 0 1 1.806-1.897c.782-.452 1.686-.677 2.71-.677 1.023 0 1.896.218 2.618.654.738.422 1.302 1.032 1.694 1.829.391.798.587 1.746.587 2.845 0 .106-.008.218-.023.339v.203h-8.873v-1.535h7.45l-.722 1.038c.045-.075.09-.188.136-.338a1.62 1.62 0 0 0 .067-.407c0-.617-.128-1.151-.383-1.603a2.656 2.656 0 0 0-1.016-1.061c-.437-.256-.949-.384-1.536-.384-.692 0-1.287.151-1.784.452-.481.286-.857.707-1.128 1.264-.256.542-.392 1.212-.407 2.01 0 .812.128 1.505.384 2.077.256.572.632 1.008 1.129 1.309.497.301 1.099.452 1.806.452.708 0 1.332-.151 1.874-.452.542-.316 1.001-.79 1.377-1.422l1.468.926c-.542.873-1.227 1.535-2.054 1.987-.813.436-1.777.654-2.89.654Zm8.03-3.409c.21.316.45.61.722.881.27.27.58.489.926.654.36.151.752.226 1.174.226.511 0 .91-.113 1.196-.339.301-.24.452-.564.452-.97 0-.362-.12-.663-.361-.904a2.613 2.613 0 0 0-.88-.632c-.362-.18-.746-.346-1.152-.497-.452-.18-.911-.391-1.378-.632a3.989 3.989 0 0 1-1.151-.971c-.301-.406-.452-.91-.452-1.512 0-.617.158-1.129.474-1.536a2.968 2.968 0 0 1 1.265-.903 4.648 4.648 0 0 1 1.625-.293c.557 0 1.077.09 1.558.271.497.18.934.421 1.31.722s.67.647.88 1.039l-1.445.925a3.533 3.533 0 0 0-1.083-.97 2.727 2.727 0 0 0-1.445-.384c-.377 0-.7.083-.971.248-.271.166-.407.422-.407.768 0 .271.106.512.316.722.211.211.482.399.813.565.331.165.678.323 1.039.474a12.94 12.94 0 0 1 1.648.79c.497.271.888.602 1.174.994.301.391.452.895.452 1.512 0 .903-.332 1.656-.994 2.258-.647.602-1.505.903-2.574.903-.692 0-1.317-.12-1.874-.361a4.843 4.843 0 0 1-1.422-.971 4.664 4.664 0 0 1-.858-1.196l1.422-.881Zm12.696 3.409c-.964 0-1.822-.225-2.574-.677a4.877 4.877 0 0 1-1.739-1.919c-.406-.813-.61-1.754-.61-2.823 0-1.083.211-2.032.633-2.844a4.77 4.77 0 0 1 1.806-1.897c.783-.452 1.686-.677 2.71-.677 1.023 0 1.896.218 2.618.654.738.422 1.302 1.032 1.694 1.829.391.798.587 1.746.587 2.845 0 .106-.008.218-.023.339v.203h-8.873v-1.535h7.45l-.722 1.038c.046-.075.09-.188.136-.338.045-.166.068-.301.068-.407 0-.617-.128-1.151-.384-1.603a2.656 2.656 0 0 0-1.016-1.061c-.437-.256-.949-.384-1.536-.384-.692 0-1.287.151-1.783.452-.482.286-.858.707-1.13 1.264-.255.542-.39 1.212-.406 2.01 0 .812.128 1.505.384 2.077.256.572.632 1.008 1.13 1.309.496.301 1.098.452 1.805.452.708 0 1.332-.151 1.874-.452.542-.316 1.001-.79 1.378-1.422l1.467.926c-.542.873-1.227 1.535-2.054 1.987-.813.436-1.777.654-2.89.654Zm8.413-3.432c0 .392.091.73.271 1.016.196.286.459.505.791.655.346.136.737.203 1.174.203.557 0 1.053-.113 1.49-.338a2.611 2.611 0 0 0 1.467-2.394l.362 1.355c0 .662-.204 1.212-.61 1.648-.391.437-.881.76-1.468.971a4.928 4.928 0 0 1-1.716.316 4.217 4.217 0 0 1-1.783-.384 3.33 3.33 0 0 1-1.31-1.151c-.331-.497-.497-1.099-.497-1.806 0-1.009.354-1.814 1.062-2.416.722-.617 1.723-.926 3.003-.926.752 0 1.377.09 1.874.271.511.166.918.361 1.219.587.301.211.504.384.609.519v1.062a5.29 5.29 0 0 0-1.625-.768 6.218 6.218 0 0 0-1.784-.248c-.587 0-1.069.075-1.445.225-.361.151-.632.362-.813.633a1.71 1.71 0 0 0-.271.97Zm-.271-4.786-.88-1.332c.391-.286.926-.572 1.603-.858.692-.286 1.52-.429 2.484-.429.812 0 1.52.128 2.122.384.617.24 1.091.594 1.422 1.061.347.466.52 1.038.52 1.716v7.451h-1.807v-7.203c0-.361-.06-.655-.18-.881a1.35 1.35 0 0 0-.52-.564 2.203 2.203 0 0 0-.745-.293 4.32 4.32 0 0 0-.903-.091c-.512 0-.978.06-1.4.181-.406.12-.752.263-1.038.429a7.85 7.85 0 0 0-.678.429Zm12.135-2.394v10.387h-1.806v-10.387h1.806Zm3.138 1.987a2.81 2.81 0 0 0-.654-.383c-.196-.091-.444-.136-.745-.136-.452 0-.806.113-1.062.339-.256.226-.436.534-.542.925-.09.392-.135.836-.135 1.333h-.813c0-.828.143-1.558.429-2.191.301-.647.685-1.159 1.152-1.535.466-.376.94-.564 1.422-.564.376 0 .723.052 1.039.158.331.09.632.278.903.564l-.994 1.49Zm3.277 3.206c0 .723.151 1.363.452 1.92a3.7 3.7 0 0 0 1.264 1.332 3.562 3.562 0 0 0 1.829.474c.557 0 1.076-.083 1.558-.248a4.602 4.602 0 0 0 1.287-.7c.361-.301.617-.618.767-.949v2.258c-.361.422-.88.753-1.558.994a6.341 6.341 0 0 1-2.054.338c-1.009 0-1.919-.233-2.732-.7a5.272 5.272 0 0 1-1.942-1.919c-.466-.828-.7-1.761-.7-2.8 0-1.053.234-1.986.7-2.799a5.272 5.272 0 0 1 1.942-1.919c.813-.467 1.723-.7 2.732-.7.707 0 1.392.12 2.054.361.678.226 1.197.549 1.558.971v2.258c-.15-.347-.406-.663-.767-.949a4.209 4.209 0 0 0-1.287-.677 4.394 4.394 0 0 0-1.558-.271c-.678 0-1.287.158-1.829.474-.527.316-.948.76-1.264 1.332-.301.557-.452 1.197-.452 1.919Zm11.775-12.418v17.612h-1.806v-17.612h1.806Zm4.855 11.29c0-.858-.188-1.506-.565-1.942-.361-.437-.91-.655-1.648-.655-.527 0-.993.113-1.4.339-.391.226-.7.534-.925.925a2.767 2.767 0 0 0-.317 1.333h-.587c0-.828.159-1.558.475-2.191.316-.647.745-1.159 1.287-1.535.556-.376 1.196-.564 1.919-.564.722 0 1.347.15 1.874.451.542.301.956.753 1.242 1.355.301.602.451 1.355.451 2.258v6.548h-1.806v-6.322Z"/><rect width="221.134" height="54.533" x="164.965" y="361.461" fill="#F2E72F" fill-opacity=".1" stroke="#F2E72F" rx="27.267"/><path fill="#fff" d="M227.031 380.902h1.919v10.612c0 1.084.294 1.957.881 2.619.587.662 1.445.994 2.574.994 1.129 0 1.987-.332 2.574-.994.587-.662.88-1.535.88-2.619v-10.612h1.92v10.612c0 .783-.128 1.505-.384 2.168a4.623 4.623 0 0 1-1.084 1.715 4.917 4.917 0 0 1-1.693 1.129c-.663.271-1.4.407-2.213.407-.813 0-1.55-.136-2.213-.407a5.161 5.161 0 0 1-1.716-1.129 5.036 5.036 0 0 1-1.083-1.715 6.299 6.299 0 0 1-.362-2.168v-10.612Zm14.563 12.621c.21.317.451.61.722.881.271.271.58.489.926.655.361.15.753.226 1.174.226.512 0 .911-.113 1.197-.339.301-.241.451-.565.451-.971 0-.361-.12-.662-.361-.903a2.582 2.582 0 0 0-.881-.632 11.55 11.55 0 0 0-1.151-.497 15.719 15.719 0 0 1-1.377-.632 4 4 0 0 1-1.152-.971c-.301-.406-.451-.911-.451-1.513 0-.617.158-1.129.474-1.535a2.948 2.948 0 0 1 1.264-.903 4.629 4.629 0 0 1 1.626-.294c.557 0 1.076.091 1.558.271a4.6 4.6 0 0 1 1.309.723c.376.301.67.647.881 1.038l-1.445.926a3.556 3.556 0 0 0-1.084-.971 2.726 2.726 0 0 0-1.445-.384c-.376 0-.7.083-.971.249-.271.165-.406.421-.406.767 0 .271.105.512.316.723.211.211.481.399.813.564.331.166.677.324 1.038.474a12.89 12.89 0 0 1 1.648.791c.497.271.888.602 1.174.993.302.391.452.896.452 1.513 0 .903-.331 1.656-.993 2.258-.648.602-1.506.903-2.574.903-.693 0-1.317-.121-1.874-.361a4.872 4.872 0 0 1-1.423-.971 4.7 4.7 0 0 1-.858-1.197l1.423-.881Zm12.696 3.41c-.963 0-1.821-.226-2.574-.678a4.872 4.872 0 0 1-1.739-1.919c-.406-.813-.609-1.753-.609-2.822 0-1.084.211-2.032.632-2.845a4.769 4.769 0 0 1 1.806-1.896c.783-.452 1.686-.678 2.71-.678 1.023 0 1.896.218 2.619.655.737.421 1.302 1.031 1.693 1.829.392.798.587 1.746.587 2.845 0 .105-.007.218-.022.338v.204h-8.874v-1.536h7.451l-.722 1.039a1.55 1.55 0 0 0 .135-.339c.045-.165.068-.301.068-.406 0-.617-.128-1.152-.384-1.603a2.641 2.641 0 0 0-1.016-1.061c-.436-.256-.948-.384-1.535-.384-.693 0-1.287.15-1.784.451-.482.286-.858.708-1.129 1.265-.256.542-.391 1.211-.406 2.009 0 .813.128 1.505.384 2.077.255.572.632 1.009 1.128 1.31.497.301 1.099.451 1.807.451.707 0 1.332-.15 1.874-.451.542-.316 1.001-.79 1.377-1.423l1.468.926c-.542.873-1.227 1.535-2.055 1.987-.813.437-1.776.655-2.89.655Zm9.407-10.612v10.386h-1.806v-10.386h1.806Zm3.139 1.987a2.808 2.808 0 0 0-.655-.384c-.196-.09-.444-.135-.745-.135-.452 0-.806.113-1.062.338-.255.226-.436.535-.541.926a5.901 5.901 0 0 0-.136 1.332h-.813c0-.828.143-1.558.429-2.19.301-.647.685-1.159 1.152-1.535.466-.377.941-.565 1.422-.565.377 0 .723.053 1.039.158.331.091.632.279.903.565l-.993 1.49Zm10.737-5.599v-1.807h7.067v1.807h-7.067Zm0 6.321v-1.806h6.841v1.806h-6.841Zm-1.061-8.128h1.919v15.805h-1.919v-15.805Zm11.176-1.806h1.807v17.611h-1.807v-17.611Zm4.301 12.418c0-1.054.233-1.987.7-2.8a5.284 5.284 0 0 1 1.941-1.919c.813-.466 1.724-.7 2.732-.7 1.024 0 1.935.234 2.732.7a5.119 5.119 0 0 1 1.92 1.919c.481.813.722 1.746.722 2.8 0 1.039-.241 1.972-.722 2.8a5.112 5.112 0 0 1-1.92 1.919c-.797.467-1.708.7-2.732.7-1.008 0-1.919-.233-2.732-.7a5.277 5.277 0 0 1-1.941-1.919c-.467-.828-.7-1.761-.7-2.8Zm1.829 0c0 .723.15 1.362.451 1.919a3.702 3.702 0 0 0 1.265 1.332 3.558 3.558 0 0 0 1.828.474c.678 0 1.28-.158 1.807-.474a3.464 3.464 0 0 0 1.264-1.332c.316-.557.474-1.196.474-1.919 0-.722-.158-1.362-.474-1.919a3.268 3.268 0 0 0-1.264-1.332c-.527-.316-1.129-.474-1.807-.474-.677 0-1.287.158-1.828.474-.527.316-.949.76-1.265 1.332-.301.557-.451 1.197-.451 1.919Zm9.488-5.193h2.032l2.597 6.751 2.822-7.541 3.025 7.586 2.62-6.796h2.032l-4.516 11.176-3.138-7.563-2.958 7.563-4.516-11.176Z"/><rect width="251.036" height="54.533" x="379.623" y="436.219" fill="#F2E72F" fill-opacity=".1" stroke="#F2E72F" rx="27.267"/><path fill="#fff" d="m465.48 467.288 4.109-11.628h2.145l-6.209 16.595-4.741-12.282-4.742 12.282-6.209-16.595h2.145l4.2 11.628 4.606-12.418 4.696 12.418Zm8.179-10.499c0-.346.12-.64.361-.881a1.25 1.25 0 0 1 .88-.361c.347 0 .64.121.881.361.241.241.361.535.361.881 0 .331-.12.625-.361.881-.241.24-.534.361-.881.361a1.25 1.25 0 0 1-.88-.361 1.249 1.249 0 0 1-.361-.881Zm.338 4.29h1.807v10.386h-1.807v-10.386Zm7.333 0v10.386h-1.806v-10.386h1.806Zm3.138 1.987a2.804 2.804 0 0 0-.654-.384c-.196-.09-.445-.136-.746-.136-.451 0-.805.113-1.061.339-.256.226-.436.534-.542.926-.09.391-.135.835-.135 1.332h-.813c0-.828.143-1.558.429-2.19.301-.647.685-1.159 1.152-1.535.466-.377.94-.565 1.422-.565.376 0 .722.053 1.039.158.331.09.632.279.903.565l-.994 1.49Zm6.483 8.625c-.963 0-1.821-.226-2.574-.678a4.87 4.87 0 0 1-1.738-1.919c-.407-.813-.61-1.753-.61-2.822 0-1.084.211-2.032.632-2.845a4.778 4.778 0 0 1 1.806-1.897c.783-.451 1.686-.677 2.71-.677 1.023 0 1.896.218 2.619.655.737.421 1.302 1.031 1.693 1.829.392.797.587 1.746.587 2.845 0 .105-.007.218-.022.338v.203h-8.874v-1.535h7.451l-.722 1.039c.045-.076.09-.188.135-.339.045-.166.068-.301.068-.406 0-.618-.128-1.152-.384-1.603a2.65 2.65 0 0 0-1.016-1.062c-.436-.256-.948-.383-1.535-.383-.693 0-1.287.15-1.784.451-.482.286-.858.708-1.129 1.264-.256.542-.391 1.212-.406 2.01 0 .813.128 1.505.384 2.077.256.572.632 1.009 1.129 1.31.496.301 1.098.451 1.806.451.707 0 1.332-.15 1.874-.451.542-.316 1.001-.791 1.377-1.423l1.468.926c-.542.873-1.227 1.535-2.055 1.987-.813.436-1.776.655-2.89.655Zm6.811-10.612h5.193v1.693h-5.193v-1.693Zm5.012-5.058c-.15-.256-.331-.414-.542-.474a1.573 1.573 0 0 0-.564-.113.9.9 0 0 0-.587.203c-.151.121-.271.332-.361.633-.091.301-.136.7-.136 1.196v13.999h-1.806v-14.224c0-.828.12-1.506.361-2.033.241-.526.58-.918 1.016-1.174.452-.271.993-.406 1.626-.406.331 0 .624.045.88.135.256.091.474.204.655.339a1.8 1.8 0 0 1 .452.429l-.994 1.49Zm4.045 5.058v10.386h-1.807v-10.386h1.807Zm3.138 1.987a2.787 2.787 0 0 0-.655-.384c-.195-.09-.444-.136-.745-.136-.451 0-.805.113-1.061.339-.256.226-.437.534-.542.926-.09.391-.135.835-.135 1.332h-.813c0-.828.143-1.558.429-2.19.301-.647.685-1.159 1.151-1.535.467-.377.941-.565 1.423-.565.376 0 .722.053 1.038.158.331.09.633.279.903.565l-.993 1.49Zm3.607 5.193c0 .391.091.73.271 1.016.196.286.459.504.791.655.346.135.737.203 1.174.203.557 0 1.053-.113 1.49-.339a2.604 2.604 0 0 0 1.467-2.393l.362 1.354c0 .663-.204 1.212-.61 1.649a3.54 3.54 0 0 1-1.468.971 4.942 4.942 0 0 1-1.715.316 4.219 4.219 0 0 1-1.784-.384 3.34 3.34 0 0 1-1.31-1.152c-.331-.496-.496-1.099-.496-1.806 0-1.008.353-1.814 1.061-2.416.722-.617 1.723-.926 3.003-.926.752 0 1.377.091 1.874.271.511.166.918.362 1.219.587.301.211.504.384.61.52v1.061a5.352 5.352 0 0 0-1.626-.768 6.253 6.253 0 0 0-1.784-.248c-.587 0-1.069.075-1.445.226-.361.15-.632.361-.813.632-.18.271-.271.594-.271.971Zm-.271-4.787-.88-1.332c.391-.286.926-.572 1.603-.858.692-.286 1.52-.429 2.484-.429.812 0 1.52.128 2.122.384.617.241 1.091.594 1.422 1.061.347.467.52 1.039.52 1.716v7.451h-1.807v-7.203c0-.361-.06-.654-.18-.88a1.357 1.357 0 0 0-.519-.565 2.217 2.217 0 0 0-.746-.293 4.39 4.39 0 0 0-.903-.09c-.511 0-.978.06-1.4.18a4.858 4.858 0 0 0-1.038.429 8.371 8.371 0 0 0-.678.429Zm24.553 1.445v6.548h-1.806v-6.322c0-.888-.166-1.543-.497-1.964-.316-.422-.813-.633-1.49-.633-.497 0-.926.106-1.287.317-.361.195-.64.489-.835.88-.196.391-.294.858-.294 1.4v6.322h-1.806v-6.322c0-.888-.166-1.543-.497-1.964-.316-.422-.813-.633-1.49-.633-.497 0-.926.106-1.287.317-.361.195-.64.489-.835.88-.196.391-.294.858-.294 1.4v6.322h-1.806v-10.386h1.806v1.513c.316-.587.708-1.024 1.174-1.31.482-.286 1.046-.429 1.694-.429.722 0 1.339.173 1.851.519.527.332.911.806 1.151 1.423.362-.647.813-1.129 1.355-1.445.542-.331 1.159-.497 1.852-.497.707 0 1.309.158 1.806.474.497.316.873.783 1.129 1.4.271.602.406 1.332.406 2.19Zm7.412 6.774c-.963 0-1.821-.226-2.574-.678a4.87 4.87 0 0 1-1.738-1.919c-.407-.813-.61-1.753-.61-2.822 0-1.084.211-2.032.632-2.845a4.778 4.778 0 0 1 1.806-1.897c.783-.451 1.686-.677 2.71-.677 1.023 0 1.896.218 2.619.655.737.421 1.302 1.031 1.693 1.829.392.797.587 1.746.587 2.845 0 .105-.007.218-.022.338v.203h-8.874v-1.535h7.451l-.722 1.039c.045-.076.09-.188.135-.339.045-.166.068-.301.068-.406 0-.618-.128-1.152-.384-1.603a2.65 2.65 0 0 0-1.016-1.062c-.436-.256-.948-.383-1.535-.383-.693 0-1.287.15-1.784.451-.482.286-.858.708-1.129 1.264-.256.542-.391 1.212-.406 2.01 0 .813.128 1.505.384 2.077.255.572.632 1.009 1.129 1.31.496.301 1.098.451 1.806.451.707 0 1.332-.15 1.874-.451.542-.316 1.001-.791 1.377-1.423l1.468.926c-.542.873-1.227 1.535-2.055 1.987-.813.436-1.776.655-2.89.655Zm8.03-3.41c.211.316.451.61.722.881.271.271.58.489.926.655.361.15.753.225 1.174.225.512 0 .911-.112 1.197-.338.301-.241.451-.565.451-.971 0-.361-.12-.662-.361-.903a2.588 2.588 0 0 0-.88-.632 11.34 11.34 0 0 0-1.152-.497 16.158 16.158 0 0 1-1.377-.632 4 4 0 0 1-1.152-.971c-.301-.407-.451-.911-.451-1.513 0-.617.158-1.129.474-1.535a2.954 2.954 0 0 1 1.264-.903 4.629 4.629 0 0 1 1.626-.294c.557 0 1.076.09 1.558.271.497.181.933.421 1.309.722.377.302.67.648.881 1.039l-1.445.926a3.531 3.531 0 0 0-1.084-.971 2.726 2.726 0 0 0-1.445-.384c-.376 0-.7.083-.971.248-.271.166-.406.422-.406.768 0 .271.105.512.316.723.211.21.482.399.813.564.331.166.677.324 1.038.474a12.97 12.97 0 0 1 1.649.79c.496.271.888.603 1.174.994.301.391.451.896.451 1.513 0 .903-.331 1.655-.993 2.257-.647.603-1.505.904-2.574.904-.693 0-1.317-.121-1.874-.362a4.87 4.87 0 0 1-1.423-.97 4.7 4.7 0 0 1-.858-1.197l1.423-.881Z"/><rect width="279.871" height="54.533" x="922.141" y="590.002" fill="#F2E72F" fill-opacity=".1" stroke="#F2E72F" rx="27.267"/><path fill="#fff" d="M1001.41 609.445h1.92v15.805h-1.92v-15.805Zm4.74 15.805h-3.68v-1.919h3.68c.89 0 1.7-.136 2.44-.407a5.459 5.459 0 0 0 1.89-1.196c.53-.527.94-1.159 1.22-1.897.29-.737.43-1.565.43-2.483 0-.919-.14-1.746-.43-2.484a5.069 5.069 0 0 0-1.22-1.874 5.056 5.056 0 0 0-1.89-1.197c-.74-.286-1.55-.429-2.44-.429h-3.68v-1.919h3.68c1.53 0 2.9.331 4.09.994a7.207 7.207 0 0 1 2.8 2.777c.67 1.174 1.01 2.551 1.01 4.132 0 1.58-.34 2.965-1.01 4.154a7.26 7.26 0 0 1-2.8 2.755c-1.19.662-2.56.993-4.09.993Zm14.51.226c-.96 0-1.82-.226-2.57-.678a4.845 4.845 0 0 1-1.74-1.919c-.41-.813-.61-1.753-.61-2.822 0-1.084.21-2.032.63-2.845a4.778 4.778 0 0 1 1.81-1.896c.78-.452 1.68-.678 2.71-.678 1.02 0 1.89.218 2.61.655a4.147 4.147 0 0 1 1.7 1.829c.39.798.59 1.746.59 2.845 0 .105-.01.218-.03.338v.204h-8.87v-1.536h7.45l-.72 1.039c.04-.075.09-.188.13-.339.05-.165.07-.301.07-.406 0-.617-.13-1.152-.38-1.603a2.625 2.625 0 0 0-1.02-1.061c-.44-.256-.95-.384-1.53-.384-.7 0-1.29.15-1.79.451-.48.286-.86.708-1.13 1.265-.25.542-.39 1.211-.4 2.009 0 .813.12 1.505.38 2.077.26.572.63 1.009 1.13 1.31.5.301 1.1.451 1.81.451.7 0 1.33-.15 1.87-.451.54-.316 1-.79 1.38-1.423l1.46.926c-.54.873-1.22 1.535-2.05 1.987-.81.437-1.78.655-2.89.655Zm5.58-10.612h2.03l2.93 7.338 2.94-7.338h2.03l-4.97 11.176-4.96-11.176Zm15.32 10.612c-.96 0-1.82-.226-2.57-.678a4.845 4.845 0 0 1-1.74-1.919c-.41-.813-.61-1.753-.61-2.822 0-1.084.21-2.032.63-2.845a4.778 4.778 0 0 1 1.81-1.896c.78-.452 1.68-.678 2.71-.678 1.02 0 1.89.218 2.62.655.73.421 1.3 1.031 1.69 1.829.39.798.59 1.746.59 2.845 0 .105-.01.218-.02.338v.204h-8.88v-1.536h7.45l-.72 1.039c.05-.075.09-.188.14-.339.04-.165.06-.301.06-.406 0-.617-.12-1.152-.38-1.603a2.625 2.625 0 0 0-1.02-1.061c-.43-.256-.94-.384-1.53-.384-.69 0-1.29.15-1.79.451-.48.286-.85.708-1.12 1.265-.26.542-.4 1.211-.41 2.009 0 .813.13 1.505.38 2.077.26.572.64 1.009 1.13 1.31.5.301 1.1.451 1.81.451s1.33-.15 1.87-.451c.54-.316 1-.79 1.38-1.423l1.47.926c-.54.873-1.23 1.535-2.06 1.987-.81.437-1.77.655-2.89.655Zm7.6-17.837h1.81v17.611h-1.81v-17.611Zm4.3 12.418c0-1.054.24-1.987.7-2.8a5.308 5.308 0 0 1 1.95-1.919c.81-.466 1.72-.7 2.73-.7 1.02 0 1.93.234 2.73.7a5.155 5.155 0 0 1 1.92 1.919c.48.813.72 1.746.72 2.8 0 1.039-.24 1.972-.72 2.8a5.155 5.155 0 0 1-1.92 1.919c-.8.466-1.71.7-2.73.7-1.01 0-1.92-.234-2.73-.7a5.308 5.308 0 0 1-1.95-1.919c-.46-.828-.7-1.761-.7-2.8Zm1.83 0c0 .723.15 1.362.45 1.919.32.557.74 1.001 1.27 1.332.54.316 1.15.474 1.83.474.67 0 1.28-.158 1.8-.474.55-.331.97-.775 1.27-1.332.31-.557.47-1.196.47-1.919 0-.723-.16-1.362-.47-1.919a3.224 3.224 0 0 0-1.27-1.332c-.52-.316-1.13-.474-1.8-.474-.68 0-1.29.158-1.83.474-.53.316-.95.76-1.27 1.332-.3.557-.45 1.196-.45 1.919Zm13.1 10.16h-1.81v-15.353h1.81v15.353Zm8.69-10.16c0 1.114-.23 2.077-.7 2.89-.47.813-1.09 1.437-1.88 1.874-.76.437-1.62.655-2.57.655-.86 0-1.62-.218-2.28-.655-.65-.437-1.16-1.061-1.54-1.874-.36-.813-.54-1.776-.54-2.89 0-1.129.18-2.092.54-2.89.38-.813.89-1.438 1.54-1.874.66-.437 1.42-.655 2.28-.655.95 0 1.81.218 2.57.655.79.436 1.41 1.061 1.88 1.874.47.798.7 1.761.7 2.89Zm-1.83 0c0-.798-.17-1.475-.5-2.032a3.11 3.11 0 0 0-1.28-1.264 3.667 3.667 0 0 0-1.77-.429c-.52 0-1.04.143-1.55.429-.51.286-.94.707-1.27 1.264-.33.557-.49 1.234-.49 2.032s.16 1.475.49 2.032c.33.557.76.978 1.27 1.264.51.286 1.03.429 1.55.429.65 0 1.24-.143 1.77-.429a3.11 3.11 0 0 0 1.28-1.264c.33-.557.5-1.234.5-2.032Zm18.54-1.355v6.548h-1.8v-6.322c0-.888-.17-1.543-.5-1.964-.32-.422-.81-.632-1.49-.632-.5 0-.93.105-1.29.316-.36.195-.64.489-.83.88-.2.392-.3.858-.3 1.4v6.322h-1.8v-6.322c0-.888-.17-1.543-.5-1.964-.31-.422-.81-.632-1.49-.632-.5 0-.92.105-1.29.316-.36.195-.64.489-.83.88-.2.392-.29.858-.29 1.4v6.322h-1.81v-10.386h1.81v1.513c.31-.587.7-1.024 1.17-1.31.48-.286 1.05-.429 1.69-.429.73 0 1.34.173 1.85.52.53.331.91.805 1.16 1.422.36-.647.81-1.129 1.35-1.445.54-.331 1.16-.497 1.85-.497.71 0 1.31.158 1.81.474.49.316.87.783 1.13 1.4.27.602.4 1.332.4 2.19Zm7.42 6.774c-.97 0-1.83-.226-2.58-.678a4.845 4.845 0 0 1-1.74-1.919c-.4-.813-.61-1.753-.61-2.822 0-1.084.21-2.032.64-2.845a4.688 4.688 0 0 1 1.8-1.896c.78-.452 1.69-.678 2.71-.678s1.9.218 2.62.655c.74.421 1.3 1.031 1.69 1.829.39.798.59 1.746.59 2.845 0 .105-.01.218-.02.338v.204h-8.88v-1.536h7.46l-.73 1.039c.05-.075.09-.188.14-.339.04-.165.07-.301.07-.406 0-.617-.13-1.152-.39-1.603a2.667 2.667 0 0 0-1.01-1.061c-.44-.256-.95-.384-1.54-.384-.69 0-1.29.15-1.78.451-.48.286-.86.708-1.13 1.265-.26.542-.39 1.211-.41 2.009 0 .813.13 1.505.39 2.077.25.572.63 1.009 1.12 1.31.5.301 1.1.451 1.81.451s1.33-.15 1.88-.451c.54-.316 1-.79 1.37-1.423l1.47.926c-.54.873-1.23 1.535-2.05 1.987-.82.437-1.78.655-2.89.655Zm14.26-6.548c0-.858-.19-1.505-.57-1.942-.37-.436-.92-.654-1.65-.654-.52 0-.99.112-1.4.338-.39.211-.7.512-.92.903-.21.392-.32.843-.32 1.355v6.322h-1.8v-10.386h1.8v1.626c.35-.633.78-1.099 1.29-1.4.53-.301 1.13-.452 1.81-.452 1.09 0 1.96.369 2.59 1.107.65.722.97 1.708.97 2.957v6.548h-1.8v-6.322Zm3.62-4.064h5.19v1.693h-5.19v-1.693Zm1.69-3.613h1.81v13.999h-1.81v-13.999Z"/><rect width="274.463" height="55.533" x="640.77" y="513.678" fill="#F2E72F" rx="27.767"/><path fill="#121212" d="M732.693 533.883h1.92v10.611c0 1.084.293 1.957.88 2.62.587.662 1.445.993 2.574.993 1.129 0 1.987-.331 2.574-.993.587-.663.88-1.536.88-2.62v-10.611h1.92v10.611c0 .783-.128 1.506-.384 2.168a4.635 4.635 0 0 1-1.084 1.716 4.917 4.917 0 0 1-1.693 1.129c-.663.271-1.4.406-2.213.406-.813 0-1.55-.135-2.213-.406a5.161 5.161 0 0 1-1.716-1.129 5.066 5.066 0 0 1-1.083-1.716 6.295 6.295 0 0 1-.362-2.168v-10.611Zm14.247 0h1.919v15.805h-1.919v-15.805Zm12.303 0h1.919v15.805h-1.919v-15.805Zm4.742 15.805h-3.681v-1.92h3.681c.888 0 1.7-.135 2.438-.406a5.577 5.577 0 0 0 1.897-1.197 5.427 5.427 0 0 0 1.219-1.896c.286-.738.429-1.566.429-2.484 0-.918-.143-1.746-.429-2.484a5.203 5.203 0 0 0-1.219-1.874 5.168 5.168 0 0 0-1.897-1.196c-.738-.286-1.55-.429-2.438-.429h-3.681v-1.919h3.681c1.535 0 2.897.331 4.086.993a7.193 7.193 0 0 1 2.8 2.777c.677 1.174 1.016 2.552 1.016 4.132 0 1.581-.339 2.965-1.016 4.155a7.237 7.237 0 0 1-2.8 2.754c-1.189.662-2.551.994-4.086.994Zm14.51.225c-.963 0-1.821-.225-2.574-.677a4.877 4.877 0 0 1-1.738-1.919c-.407-.813-.61-1.754-.61-2.823 0-1.083.211-2.032.632-2.844a4.773 4.773 0 0 1 1.807-1.897c.782-.452 1.686-.677 2.709-.677 1.024 0 1.897.218 2.619.654.738.422 1.302 1.032 1.694 1.829.391.798.587 1.746.587 2.845 0 .106-.008.218-.023.339v.203h-8.873v-1.535h7.451l-.723 1.038c.045-.075.09-.188.136-.338a1.62 1.62 0 0 0 .067-.407c0-.617-.128-1.151-.384-1.603a2.647 2.647 0 0 0-1.016-1.061c-.436-.256-.948-.384-1.535-.384-.692 0-1.287.151-1.784.452-.481.286-.858.707-1.128 1.264-.256.542-.392 1.212-.407 2.01 0 .812.128 1.505.384 2.077.256.572.632 1.008 1.129 1.309.497.301 1.099.452 1.806.452.708 0 1.332-.151 1.874-.452.542-.316 1.001-.79 1.377-1.422l1.468.926c-.542.873-1.227 1.535-2.055 1.987-.812.436-1.776.654-2.89.654Zm8.03-3.409c.211.316.452.61.723.881.271.27.579.489.925.654.362.151.753.226 1.175.226.511 0 .91-.113 1.196-.339.301-.24.452-.564.452-.97a1.23 1.23 0 0 0-.361-.904 2.62 2.62 0 0 0-.881-.632c-.361-.18-.745-.346-1.152-.497-.451-.18-.91-.391-1.377-.632a3.993 3.993 0 0 1-1.151-.971c-.301-.406-.452-.91-.452-1.512 0-.617.158-1.129.474-1.536a2.968 2.968 0 0 1 1.265-.903 4.64 4.64 0 0 1 1.625-.293c.557 0 1.077.09 1.558.271.497.18.933.421 1.31.722.376.301.67.647.88 1.039l-1.445.925a3.536 3.536 0 0 0-1.083-.97 2.731 2.731 0 0 0-1.445-.384c-.377 0-.7.083-.971.248-.271.166-.407.422-.407.768 0 .271.106.512.316.722.211.211.482.399.813.565.331.165.677.323 1.039.474.602.241 1.151.504 1.648.79.497.271.888.602 1.174.994.301.391.452.895.452 1.512 0 .903-.332 1.656-.994 2.258-.647.602-1.505.903-2.574.903-.692 0-1.317-.12-1.874-.361a4.835 4.835 0 0 1-1.422-.971 4.678 4.678 0 0 1-.858-1.196l1.422-.881Zm8.678-11.492c0-.347.12-.64.361-.881.256-.241.549-.361.88-.361.347 0 .64.12.881.361s.361.534.361.881c0 .331-.12.624-.361.88a1.197 1.197 0 0 1-.881.361c-.331 0-.624-.12-.88-.361a1.246 1.246 0 0 1-.361-.88Zm.338 4.289h1.806v10.387h-1.806v-10.387Zm4.827 11.064h1.829c0 .497.135.956.406 1.377.271.437.655.783 1.151 1.039.497.271 1.084.406 1.762.406.526 0 1.046-.128 1.557-.384.512-.256.934-.662 1.265-1.219.346-.542.519-1.249.519-2.122v-10.161h1.806v10.161c0 1.189-.248 2.182-.745 2.98-.496.813-1.136 1.422-1.919 1.829a5.32 5.32 0 0 1-2.483.61c-1.009 0-1.905-.189-2.687-.565a4.35 4.35 0 0 1-1.807-1.603c-.436-.677-.654-1.46-.654-2.348Zm-.204-5.871c0-1.128.234-2.092.7-2.89a4.89 4.89 0 0 1 1.874-1.874 5.202 5.202 0 0 1 2.574-.654c.873 0 1.633.218 2.281.654.647.437 1.151 1.062 1.512 1.874.377.798.565 1.762.565 2.89 0 1.114-.188 2.078-.565 2.891-.361.812-.865 1.437-1.512 1.874-.648.436-1.408.654-2.281.654a5.202 5.202 0 0 1-2.574-.654 4.89 4.89 0 0 1-1.874-1.874c-.466-.813-.7-1.777-.7-2.891Zm1.829 0c0 .798.158 1.476.474 2.033a3.31 3.31 0 0 0 1.31 1.264 3.716 3.716 0 0 0 1.761.429c.527 0 1.046-.143 1.558-.429.512-.286.933-.708 1.264-1.264.332-.557.497-1.235.497-2.033 0-.602-.098-1.128-.293-1.58a3.423 3.423 0 0 0-.791-1.174 3.326 3.326 0 0 0-1.061-.723 3.002 3.002 0 0 0-1.174-.248c-.632 0-1.219.143-1.761.429a3.31 3.31 0 0 0-1.31 1.264c-.316.557-.474 1.235-.474 2.032Zm18.612-1.128c0-.858-.188-1.506-.565-1.942-.376-.437-.925-.655-1.648-.655-.527 0-.993.113-1.4.339-.391.21-.7.512-.925.903-.211.391-.316.843-.316 1.355v6.322h-1.807v-10.387h1.807v1.626c.346-.632.775-1.099 1.287-1.4.526-.301 1.128-.451 1.806-.451 1.099 0 1.964.368 2.596 1.106.648.723.971 1.708.971 2.958v6.548h-1.806v-6.322Z"/><path fill="#D9D9D9" d="M1164 685v-1H35v1z"/><path fill="#F2E72F" d="M877.633 464.615h-9.337c-.407.052-.82-.02-1.184-.206a.47.47 0 0 0-.384-.04c-.678.394-1.42.236-2.132.241h-8.634a1.267 1.267 0 0 1-1.268-.742 1.077 1.077 0 0 1 .216-1.327c1.45-1.149 1.666-2.776 1.813-4.422.393-4.423 1.071-8.806 1.327-13.239a4.2 4.2 0 0 0-.029-.604c-.03-.339 0-.786-.413-.84-.413-.054-.531.403-.659.688a9.047 9.047 0 0 0-.594 2.771c-.364 3.214-.565 6.447-1.106 9.641a10.075 10.075 0 0 1-7.632 8.114c-3.012.717-5.97.688-8.845-.57-3.174-1.386-4.82-3.863-5.012-7.288-.118-2.064.246-4.108.457-6.157.187-1.799.359-3.602.54-5.406a2.451 2.451 0 0 0-.855-2.368 1.204 1.204 0 0 1-.299-1.592 1.1 1.1 0 0 1 1.056-.605h10.064c.546 0 .845.526 1.229.541.383.014.683-.541 1.238-.541 7.862 0 15.725-.029 23.587.059 2.526.03 4.728 1.027 6.089 3.337a7.035 7.035 0 0 1 .781 4.422 5.9 5.9 0 0 1-3.022 4.787c-.265.152-.491.329-.26.697 1.071 1.661 1.439 3.598 2.098 5.406.217.669.472 1.325.762 1.966.236.491.457.447.707.034a6.006 6.006 0 0 0 .683-2.457c.359-3.17.713-6.344 1.018-9.519.147-1.552.398-3.1.407-4.668a2.142 2.142 0 0 0-.771-1.789 1.2 1.2 0 0 1-.491-1.474 1.256 1.256 0 0 1 1.356-.781c2.585 0 5.169.039 7.754 0a1.542 1.542 0 0 1 1.587.983 999.6 999.6 0 0 0 2.408 4.938c.089.182.103.526.403.447.197-.049.177-.339.187-.54.025-.492 0-.953.064-1.425a2.46 2.46 0 0 0-.895-2.295 1.207 1.207 0 0 1 .146-1.912c.208-.135.452-.204.7-.196h9.793a1.107 1.107 0 0 1 1.082.678 1.014 1.014 0 0 1-.128 1.268c-1.818 1.425-1.794 3.503-2.01 5.494a619.092 619.092 0 0 0-1.052 9.99 12.432 12.432 0 0 0-.103 3.047c.017.179.067.354.148.516.142.221.294.555.579.491.285-.064.177-.423.187-.649.084-1.965.162-3.892.202-5.838a1.315 1.315 0 0 1 .845-1.395 1.25 1.25 0 0 1 1.533.526c.683.874 1.474 1.602 2.629 1.783.162.034.326.052.491.055.29 0 .639 0 .752-.33.113-.329-.236-.408-.413-.555-.815-.678-1.778-1.155-2.609-1.828a6.599 6.599 0 0 1-2.457-5.754 8.2 8.2 0 0 1 6.098-7.686 13.176 13.176 0 0 1 5.524-.162 3.066 3.066 0 0 0 2.024-.364c1.013-.565 1.966 0 1.927 1.155-.103 2.491-.275 4.973-.423 7.46a1.236 1.236 0 0 1-.879 1.238 1.305 1.305 0 0 1-1.435-.492 2.79 2.79 0 0 0-2.251-1.061c-.128 0-.295-.025-.354.133-.059.157.103.241.202.314.747.551 1.503 1.091 2.24 1.646 2.993 2.266 3.504 5.897 2.3 9.121-1.577 4.216-5.936 6.059-9.995 5.572a30.214 30.214 0 0 1-2.482-.378 2.033 2.033 0 0 0-1.69.226 1.026 1.026 0 0 1-1.366-.206.584.584 0 0 0-.87-.138 1.386 1.386 0 0 1-.663.074c-2.398 0-4.806-.025-7.204 0a1.733 1.733 0 0 1-1.74-1.135c-.901-1.855-1.802-3.704-2.703-5.548-.083-.172-.103-.457-.373-.393-.192.049-.172.294-.187.491-.064.835-.137 1.671-.187 2.506a1.933 1.933 0 0 0 .693 1.691 1.342 1.342 0 0 1 .521 1.675c-.295.659-.899.723-1.553.723-3.154-.04-6.324-.035-9.498-.03Zm14.928-22.713c1.342 1.091 1.445 2.418 1.253 3.848-.098.718-.117 1.445-.186 2.167-.094.983-.197 1.966-.3 2.973 0 .231-.074.492-.344.521-.27.03-.216-.211-.27-.324a821.403 821.403 0 0 1-4.221-8.713.765.765 0 0 0-.323-.392.762.762 0 0 0-.498-.099h-6.934c-.182 0-.403-.103-.575.132a3.11 3.11 0 0 1 1.18 2.62c0 .658-.05 1.317-.118 1.965-.438 4.049-.89 8.094-1.327 12.143-.182 1.666-.462 3.287-1.877 4.423-.03.029 0 .117 0 .152h9.582c-1.332-.983-1.43-2.231-1.302-3.558.196-2.028.4-4.054.609-6.079 0-.216 0-.545.246-.584.246-.04.275.299.369.491 1.513 3.08 3.02 6.162 4.52 9.248a.823.823 0 0 0 .865.551c2.177-.03 4.354 0 6.531 0 .182 0 .398.093.605-.138-1.229-.899-1.308-2.192-1.204-3.543.049-.585.113-1.174.172-1.759.299-2.855.589-5.715.904-8.57.162-1.509.339-3.013.56-4.511a4.664 4.664 0 0 1 1.838-2.949l-9.755-.015Zm-20.87 11.195c.546-.172.983-.295 1.44-.462a4.955 4.955 0 0 0 3.376-4.634c.153-2.379-.678-4.261-2.894-5.366a7.594 7.594 0 0 0-3.44-.718c-3.897-.024-7.794 0-11.691-.024-.098 0-.23-.05-.314.147 1.253.924 1.307 2.275 1.165 3.661l-1.475 13.627c-.162 1.503-.614 2.869-1.813 3.887v.132h9.887c-1.4-1.066-1.474-2.422-1.273-3.872.128-.983.187-1.966.295-2.948.04-.369-.059-.919.261-1.047a1.477 1.477 0 0 1 1.263.339c.289.186.522.448.673.757.983 2.182 1.906 4.373.909 6.801h9.337c-1.239-.87-1.578-2.098-1.991-3.288-.412-1.189-.732-2.27-1.12-3.4-.486-1.46-1.12-2.811-2.595-3.592Zm-24.486-11.175c1.268.924 1.425 2.103 1.302 3.371-.246 2.565-.491 5.135-.767 7.7a7.998 7.998 0 0 1-.599 2.831 3.036 3.036 0 0 1-3.651 1.474c-1.219-.349-1.735-1.332-1.568-2.914.3-2.811.58-5.622.87-8.437.152-1.45.545-2.796 1.725-3.779.059-.054.152-.113.088-.216h-9.828c1.297 1.051 1.386 2.353 1.234 3.759-.335 3.106-.61 6.216-.934 9.337-.418 3.96 1.327 6.948 4.85 8.206 2.056.695 4.257.845 6.388.437 3.784-.634 6.88-3.027 7.681-7.027.491-2.403.609-4.845.909-7.268.182-1.503.349-3.007.56-4.506a4.955 4.955 0 0 1 1.73-2.948l-9.99-.02Zm55.081 21.823c.836-.722 1.686-.437 2.516-.285 1.995.369 3.995.644 5.981.059 2.973-.879 4.845-2.845 5.405-5.897.516-2.84-.491-5.11-2.879-6.742a43.145 43.145 0 0 1-1.273-.904 5.859 5.859 0 0 1-.836-.688 1.267 1.267 0 0 1 .654-2.201c1.381-.354 2.521.167 3.553 1.042.157.127.236.403.521.334.128-2.457.26-4.88.393-7.435a3.007 3.007 0 0 1-1.794.604 32.309 32.309 0 0 1-2.506-.172 8.872 8.872 0 0 0-4.521.6c-2.639 1.135-4.024 3.218-4.27 6.034-.221 2.482.894 4.305 3.002 5.583.67.419 1.318.874 1.941 1.361a1.47 1.47 0 0 1 .57 1.69 1.571 1.571 0 0 1-1.4 1.111 4.41 4.41 0 0 1-3.44-.949c-.491-.368-.85-.894-1.381-1.331-.098 2.727-.177 5.4-.26 8.177l.024.009Zm-54.944-19.263c.158-.609-.491-1.233-1.145-1.847-.103-.099-.236-.246-.403-.069-.776.816-1.523 1.602-1.695 2.835-.26 1.882-.393 3.774-.634 5.656-.152 1.214-.28 2.428-.393 3.642-.093.982.398 1.474 1.386 1.474.987 0 1.631-.659 1.843-1.818.211-1.16.245-2.202.358-3.303.216-2.049.428-4.093.683-6.57Zm18.885 13.096a10.793 10.793 0 0 0-.359 3.514 1.591 1.591 0 0 0 .659 1.135c.393.344.653.216.693-.236a8.845 8.845 0 0 0-.993-4.413Z"/><path fill="#F2E72F" d="M862.183 486.183h-49.917c-.703 0-1.4 0-2.103-.044a1.073 1.073 0 0 1-1.108-.733 1.091 1.091 0 0 1-.047-.471c0-1.863.305-3.7.491-5.548.197-2.187.418-4.369.634-6.555.187-1.917.359-3.833.565-5.745.079-.713.649-1.096 1.553-1.101h6.054c17.386 0 34.774-.014 52.163-.044 13.189 0 26.384-.083 39.573-.083 4.118 0 7.047-3.037 8.133-6.02.609-1.671.53-3.391.634-5.096.206-3.366.309-6.742.457-10.113a16.207 16.207 0 0 0 0-3.052c-.236-1.68-1.278-2.575-2.796-3.047a14.092 14.092 0 0 0-4.222-.574c-1.258 0-1.587-.492-1.533-1.735.059-1.499.3-2.973.349-4.472.044-1.297.437-1.681 1.725-1.705 3.533-.074 7.071-.044 10.604 0 2.428.024 4.207 2.364 4.266 4.314.083 2.521-.305 5.013-.492 7.519a840.164 840.164 0 0 1-.624 8.059c-.236 2.948-.478 5.882-.727 8.801l-.619 7.578c-.28 3.405-.492 6.82-.875 10.211-.3 2.516-1.086 4.914-2.948 6.791-1.529 1.553-3.465 2.221-5.568 2.551-2.948.466-5.926.299-8.889.309-14.9.025-29.819.005-44.733.005Zm-.054-1.263h46.443c2.4.083 4.803-.014 7.189-.29 3.44-.491 5.695-2.309 6.737-5.651a26.48 26.48 0 0 0 .924-5.813c.246-3.067.491-6.138.727-9.209.236-3.071.492-6.182.767-9.273.275-3.091.491-6.187.727-9.278.275-3.44.57-6.879.816-10.29a3.52 3.52 0 0 0-.939-2.767 3.518 3.518 0 0 0-2.707-1.1c-3.239.088-6.482.044-9.725 0-.629 0-.762.236-.796.757a118.515 118.515 0 0 1-.349 4.127c-.049.457.054.61.491.6a14.955 14.955 0 0 1 3.764.427c1.784.443 3.293 1.273 4 3.111.294.811.415 1.675.354 2.536-.196 4.586-.398 9.158-.604 13.715a14.09 14.09 0 0 1-.349 2.82 10.387 10.387 0 0 1-9.882 7.779c-23.435-.039-46.871.05-70.311.094-8.927 0-17.857.008-26.791.024-.491 0-.747.045-.796.659-.202 2.481-.492 4.953-.722 7.43-.29 2.978-.566 5.951-.875 8.924-.059.585.118.698.678.693 17.084-.023 34.161-.031 51.229-.025Z"/><path fill="#F2E72F" d="M819.604 464.61h-7.135a1.324 1.324 0 0 1-1.381-.772 1.166 1.166 0 0 1 .423-1.503c1.224-.983 1.415-2.369 1.572-3.769.379-3.283.752-6.565 1.062-9.858a40.06 40.06 0 0 0 .344-3.99 2.187 2.187 0 0 0-.777-1.789 1.236 1.236 0 0 1-.491-1.474c.251-.659.752-.806 1.405-.806h11.421a9.473 9.473 0 0 1 4.098.811 6.025 6.025 0 0 1 3.484 6.231 5.568 5.568 0 0 1-1.897 3.931c-.349.29-.349.492 0 .786a5.086 5.086 0 0 1 1.794 3.873 7.64 7.64 0 0 1-2.128 5.931 7.151 7.151 0 0 1-4 2.138c-2.757.491-5.553.152-7.794.26Zm8.487-12.575c.319-.089.58-.152.83-.241 2.231-.752 3.47-2.398 3.494-4.634a4.846 4.846 0 0 0-3.38-4.811 9.579 9.579 0 0 0-3.072-.442h-10.875a.711.711 0 0 0-.555.093 3.179 3.179 0 0 1 1.199 2.457 31.322 31.322 0 0 1-.221 3.254c-.383 3.572-.796 7.145-1.17 10.717-.191 1.804-.442 3.563-1.936 4.831 0 0 0 .078.03.157 4.59-.103 9.189.118 13.784-.143a6.323 6.323 0 0 0 5.897-4.786c.702-3.056-.128-5.494-3.607-6.246a2.525 2.525 0 0 1-.413-.206h-.005Z"/><path fill="#060703" d="M892.562 441.902h9.735a4.666 4.666 0 0 0-1.838 2.949 109.575 109.575 0 0 0-.56 4.511c-.315 2.855-.604 5.715-.904 8.57-.059.584-.123 1.174-.172 1.759-.103 1.351 0 2.644 1.204 3.543-.207.231-.423.138-.605.138h-6.53a.82.82 0 0 1-.865-.551 1336.297 1336.297 0 0 0-4.521-9.248c-.094-.182-.099-.526-.369-.491-.27.034-.226.368-.246.584a1984.59 1984.59 0 0 0-.609 6.079c-.128 1.327-.029 2.595 1.302 3.558h-9.582v-.153c1.415-1.14 1.695-2.761 1.877-4.422.437-4.049.89-8.094 1.327-12.143.069-.653.103-1.312.118-1.965a3.097 3.097 0 0 0-1.18-2.62c.172-.236.394-.132.575-.132h6.934a.76.76 0 0 1 .821.491 851.301 851.301 0 0 0 4.221 8.713c.054.113.049.363.27.324.221-.039.32-.29.344-.521.103-.983.207-1.965.3-2.973.069-.722.088-1.45.187-2.167.211-1.415.108-2.742-1.234-3.833Zm-20.871 11.194c1.519.792 2.133 2.143 2.629 3.568.389 1.13.733 2.275 1.121 3.401.388 1.125.752 2.417 1.99 3.287h-9.337c.983-2.428.069-4.619-.909-6.801a1.885 1.885 0 0 0-.673-.757 1.474 1.474 0 0 0-1.263-.339c-.319.128-.221.678-.26 1.047-.109.983-.168 1.965-.295 2.948-.197 1.474-.128 2.806 1.272 3.873h-9.931v-.133c1.199-1.017 1.651-2.383 1.813-3.887l1.475-13.627c.142-1.386.088-2.737-1.165-3.661.084-.196.216-.147.315-.147 3.896 0 7.793 0 11.69.024a7.607 7.607 0 0 1 3.44.718c2.216 1.105 3.047 2.988 2.894 5.366a4.953 4.953 0 0 1-3.376 4.634c-.447.182-.909.305-1.43.486Zm-5.233-2.457c.334-.039.673-.068 1.007-.127a2.08 2.08 0 0 0 .787-.25 2.073 2.073 0 0 0 .988-1.28c.07-.269.085-.549.043-.824-.083-1.214-.712-1.735-2.108-1.745a5.898 5.898 0 0 1-.678 0c-.388-.054-.491.138-.54.492a93.515 93.515 0 0 1-.29 2.83c-.123.855-.128.855.766.904h.025Zm-19.278-8.727h9.98a4.96 4.96 0 0 0-1.73 2.949c-.211 1.498-.378 3.002-.56 4.506-.3 2.422-.422 4.865-.909 7.268-.806 4-3.897 6.388-7.681 7.027a12.569 12.569 0 0 1-6.388-.438c-3.523-1.258-5.268-4.245-4.85-8.206.324-3.106.599-6.216.934-9.337.152-1.405.063-2.707-1.234-3.759h9.828c.064.103-.029.162-.088.216-1.18.983-1.573 2.329-1.725 3.779-.29 2.816-.57 5.627-.87 8.437-.167 1.583.349 2.566 1.568 2.915a3.038 3.038 0 0 0 3.651-1.475c.37-.899.573-1.858.599-2.83.261-2.565.521-5.135.767-7.701.123-1.248-.025-2.427-1.292-3.351Zm55.082 21.824.245-8.202c.531.438.88.983 1.381 1.332a4.424 4.424 0 0 0 3.44.948 1.575 1.575 0 0 0 1.401-1.11 1.478 1.478 0 0 0-.57-1.691 23.066 23.066 0 0 0-1.941-1.361c-2.109-1.277-3.224-3.101-3.003-5.582.246-2.816 1.632-4.914 4.27-6.035a8.871 8.871 0 0 1 4.521-.599 33.33 33.33 0 0 0 2.506.172 3.001 3.001 0 0 0 1.794-.605c-.133 2.556-.265 4.988-.393 7.435-.285.069-.364-.206-.521-.334-1.032-.874-2.172-1.395-3.553-1.042a1.27 1.27 0 0 0-1.027.893 1.266 1.266 0 0 0 .374 1.309c.257.254.536.485.835.688.418.309.845.609 1.273.904 2.403 1.632 3.395 3.902 2.879 6.742-.56 3.067-2.432 5.032-5.405 5.897-1.966.585-3.985.31-5.98-.059-.841-.138-1.691-.423-2.526.3Z"/><path fill="#060703" d="M862.128 484.92h-51.205c-.56 0-.737-.108-.678-.693.31-2.973.585-5.946.875-8.923.246-2.458.521-4.949.722-7.431.049-.614.295-.658.796-.658 8.931 0 17.861-.008 26.792-.025 23.44-.044 46.875-.132 70.31-.093a10.391 10.391 0 0 0 9.882-7.779c.212-.926.329-1.871.349-2.821.213-4.56.414-9.133.604-13.72a6.16 6.16 0 0 0-.353-2.535c-.708-1.838-2.217-2.669-4-3.111a14.968 14.968 0 0 0-3.765-.427c-.461 0-.565-.143-.491-.6.147-1.371.251-2.752.349-4.128.034-.521.167-.766.796-.756 3.243.044 6.487.088 9.725 0a3.502 3.502 0 0 1 2.707 1.1 3.5 3.5 0 0 1 .939 2.767c-.246 3.44-.54 6.88-.816 10.29-.245 3.091-.491 6.187-.727 9.278a740.76 740.76 0 0 1-.766 9.272c-.276 3.091-.492 6.143-.728 9.209a26.498 26.498 0 0 1-.924 5.814c-1.041 3.341-3.317 5.145-6.737 5.651a48.096 48.096 0 0 1-7.189.29h-46.443l-.024.029Zm-26.964-9.12c-.55-1.13-1.105-2.266-1.656-3.401-.123-.255-.24-.442-.589-.432-.9.024-1.799 0-2.698 0 .698 1.44.162 2.865 0 4.27-.162 1.406.024 2.949-.909 4.231h3.557c-.692-1.361-.059-2.678 0-4.005.669 1.194 1.258 2.403 1.858 3.612.084.167.103.423.364.428h2.948a1.695 1.695 0 0 1-.526-1.686c.084-.717.099-1.445.231-2.157.285-1.568 0-3.258.983-4.644h-3.558c.791 1.287.074 2.55-.005 3.784Zm63.392-3.823a1.966 1.966 0 0 1 .491 1.803c-.138 1.076-.192 2.167-.359 3.239-.186 1.174.03 2.457-.879 3.439h3.616c-.604-.815-.447-1.189-.054-4.142.639 1.312 1.239 2.535 1.838 3.759.118.251.226.457.585.447.85-.029 1.705 0 2.555 0-.697-1.444-.172-2.87 0-4.27.172-1.401-.068-2.948.919-4.231h-3.636c.447.786.462 2.658.034 3.813-.575-1.164-1.14-2.29-1.675-3.44a.618.618 0 0 0-.649-.442c-.894.044-1.774.025-2.796.025h.01Zm-39.898 4.467c.062-.045.128-.083.197-.113 1.228-.433 1.71-1.16 1.597-2.408-.088-1.018-.791-1.691-2.005-1.848-1.705-.221-3.415-.044-5.273-.108.615.594.526 1.243.467 1.862-.142 1.475-.334 2.919-.491 4.379-.084.806-.108 1.621-.816 2.275h3.892c-.821-.772-.364-1.636-.369-2.457 0-.216-.063-.565.222-.639a.609.609 0 0 1 .688.433c.383.845.732 1.7.383 2.643h3.548c-1.013-1.209-.767-2.973-2.049-4.019h.009Zm7.863-4.423a1.838 1.838 0 0 1 .427 1.351c-.088.791-.142 1.583-.231 2.369a10.557 10.557 0 0 1-.28 1.666 1.124 1.124 0 0 1-.997.765c-.148.01-.297-.01-.438-.058-.619-.142-.737-.599-.697-1.14.019-.407.063-.812.132-1.213.241-1.258-.039-2.634.929-3.745h-3.872c.624.491.526 1.111.491 1.686-.093 1.149-.226 2.294-.344 3.439a2.946 2.946 0 0 0 .949 2.762c2.231 1.882 6.069.536 6.584-2.314.089-.467.084-.949.172-1.416.261-1.39-.029-2.899.944-4.157l-3.769.005Zm-37.347 3.71c0-1.823-.771-3.125-2.152-3.656a3.978 3.978 0 0 0-4.447 1.125 5.131 5.131 0 0 0-1.204 4.482c.427 2.457 2.525 3.617 4.869 2.796 1.774-.649 2.924-2.511 2.924-4.776l.01.029Zm68.458.206c0-1.371-.31-2.353-.929-3.027-1.474-1.616-4.324-1.405-5.799.428a5.266 5.266 0 0 0-1.149 3.332c0 1.518.378 2.909 1.862 3.641a3.801 3.801 0 0 0 4.26-.491 4.944 4.944 0 0 0 1.745-3.902l.01.019Zm-20.438-4.216c-.717.28-1.366.098-2.01.094-2.629 0-4.447 1.43-4.874 4.019-.428 2.59 1.174 4.963 4.029 4.836a8.13 8.13 0 0 1 1.612-.094c.418.069.442-.103.491-.368.158-.909.305-1.818.462-2.747-1.498.865-2.786.874-3.484.049a1.937 1.937 0 0 1 .094-2.378c.776-.89 1.921-.91 3.439 0 .069-1.15.143-2.241.241-3.411Zm-56.683 5.789c-1.642.825-2.777.801-3.475-.034a1.793 1.793 0 0 1 .035-2.256 2.114 2.114 0 0 1 1.725-.791 2.559 2.559 0 0 1 1.764.747c.088-1.189.172-2.266.26-3.44-.712.246-1.381.074-2.054.069-3.209 0-5.405 2.545-4.811 5.7a3.608 3.608 0 0 0 2.87 3.066c1.017.251 2.02-.122 3.022.04.157.024.172-.099.192-.212.157-.938.309-1.892.472-2.889Zm18.422-.138v1.475c0 .442-.063.86-.063 1.292 0 .133-.172.432.157.398.865-.098 1.695.226 2.565.157a3.045 3.045 0 0 0 2.673-2.069c.398-1.282.064-2.245-1.071-3.081-.216-.157-.447-.299-.659-.491-.211-.192-.412-.388-.275-.693a.696.696 0 0 1 .678-.364c.492-.029.87.305 1.307.575.092-.944.133-1.892.123-2.84-.791.285-1.582.034-2.363.079a2.828 2.828 0 0 0-2.654 2.039c-.354 1.243 0 2.054 1.175 2.865l.491.349c.305.216.521.491.354.865a.787.787 0 0 1-.391.364.788.788 0 0 1-.533.034 2.519 2.519 0 0 1-1.514-.954Zm43.829 3.121a1.471 1.471 0 0 1-.492-1.366c.158-1.553.335-3.106.492-4.659.024-.305.142-.368.418-.368a2.801 2.801 0 0 1 1.995.683v-2.359c0-.364-.153-.457-.492-.452h-6.049c-.172 0-.408-.079-.467.157-.221.85-.413 1.705-.639 2.663a3.155 3.155 0 0 1 2.084-.702c.354 0 .536 0 .467.462-.103.624-.079 1.272-.192 1.892-.255 1.346.039 2.82-.983 4.039l3.858.01Zm-37.838-5.691c.332-.24.696-.434 1.081-.575.491-.123 1.042-.285 1.435-.034.26.172 0 .712-.045 1.091v.339c-.285 1.636-.029 3.381-.982 4.865h3.744a1.471 1.471 0 0 1-.452-1.086c.172-1.641.339-3.283.491-4.914.03-.329.177-.379.492-.384a3.04 3.04 0 0 1 1.892.639v-2.265c0-.374-.089-.491-.492-.491-1.995.019-3.988.019-5.98 0-.349 0-.536.083-.609.442a64.423 64.423 0 0 1-.566 2.373h-.009Zm43.912 5.71a1.665 1.665 0 0 1-.492-1.651c.133-1.415.27-2.835.452-4.245.113-.9.04-1.863.841-2.595h-3.843a1.8 1.8 0 0 1 .437 1.636c-.093.674-.103 1.357-.221 2.025-.28 1.617-.034 3.337-.983 4.83h3.809Zm25.346-3.833a7.046 7.046 0 0 1-.796 0c-.491-.054-.712.03-.594.605a1.314 1.314 0 0 1-.138 1.017c-.054-.039-.083-.049-.093-.069-.182-.358-.359-.722-.541-1.086a1.479 1.479 0 0 0-1.508-.462c-.109.064-.05.128-.045.212a14.594 14.594 0 0 1-.373 3.661h1.43a3.459 3.459 0 0 1 .074-1.789c.609.781.574 2.329 2.157 1.749a15.228 15.228 0 0 1 .437-3.833l-.01-.005Zm-.668-.624c1.174 0 2-.928 2.005-2.255 0-1.091-.673-1.838-1.651-1.833-1.121 0-2.005 1.007-2.01 2.285.005 1.12.619 1.803 1.666 1.803h-.01Zm-2.373-2.58c.044-.422.093-.781.122-1.14 0-.127.113-.285-.147-.358a2.418 2.418 0 0 0-3.032 1.936 1.839 1.839 0 0 0 1.43 2.123c1.233.186 1.376.073 1.612-1.288 0 0 0-.034-.044-.078-.536.226-1.116.452-1.563-.123a.77.77 0 0 1 .088-1.052c.462-.462.983-.378 1.543-.02h-.009Zm6.265 4.595c.275-1.828.373-1.474-1.12-1.474a1.856 1.856 0 0 0-1.765 1.361 2.083 2.083 0 0 0 .325 2.157c.584.669 1.381.556 2.147.516.133 0 .182-.088.236-.196.285-.595.049-.983-.595-.983-.643 0-.982-.285-.982-.776a.898.898 0 0 1 .958-.91c.294.013.577.12.806.305h-.01Zm-7.514-1.386h-1.13c-.378 0-.319.099-.319.413a12.6 12.6 0 0 1-.447 3.509h1.282c.182 0 .231 0 .221-.266-.036-1.23.096-2.461.393-3.656Zm6.433-.491c.634-.27 1.056-.609.786-1.332-.899.256-.904.266-.786 1.332Z"/><path fill="#060703" d="M828.094 452.035a2.6 2.6 0 0 0 .413.187c3.479.752 4.309 3.189 3.607 6.245a6.325 6.325 0 0 1-5.897 4.787c-4.595.26-9.194.039-13.784.142 0-.078-.044-.142-.03-.157 1.475-1.268 1.745-3.027 1.937-4.831.373-3.572.786-7.145 1.169-10.717.13-1.08.204-2.166.221-3.253a3.17 3.17 0 0 0-1.199-2.457.711.711 0 0 1 .555-.094h10.875a9.58 9.58 0 0 1 3.072.443 4.843 4.843 0 0 1 3.38 4.811c-.024 2.235-1.262 3.882-3.493 4.633-.246.109-.507.172-.826.261Zm-5.799 6.467a3.576 3.576 0 0 0 1.686-.3 2.015 2.015 0 0 0 1.071-2.152c-.137-.801-.673-1.268-1.626-1.352-.492-.044-.983 0-1.475-.029-.334 0-.437.128-.462.418-.068.786-.137 1.577-.221 2.363-.127 1.052-.132 1.052 1.027 1.052Zm.624-8.059c.414.026.83-.017 1.229-.128a2.059 2.059 0 0 0 1.474-2.108c-.054-.875-.57-1.371-1.612-1.499-.403-.049-.81 0-1.218-.039-.315-.025-.433.093-.462.408-.099 1.012-.221 2.019-.339 3.027 0 .221.029.349.28.344.25-.005.398.005.648.005v-.01Z"/><path fill="#F2E72F" d="M866.434 450.639c-.894-.024-.889-.024-.791-.924.099-.899.207-1.887.29-2.83.035-.344.152-.536.541-.492.226.013.452.013.678 0 1.395 0 2.024.531 2.108 1.745a2.062 2.062 0 0 1-1.032 2.104c-.242.135-.51.22-.786.25-.334.054-.664.083-1.008.147Z"/><path fill="#FAFAF9" d="M835.167 475.8c.079-1.234.796-2.497 0-3.774h3.558c-.983 1.385-.683 3.076-.983 4.643-.133.713-.147 1.44-.231 2.158a1.688 1.688 0 0 0 .526 1.685h-2.949c-.26 0-.28-.26-.363-.427-.6-1.209-1.189-2.418-1.858-3.612-.059 1.327-.693 2.644 0 4.005h-3.533c.934-1.283.762-2.801.909-4.231.148-1.43.678-2.831 0-4.27h2.698c.349 0 .467.176.59.432.53 1.125 1.086 2.26 1.636 3.391Zm63.38-3.824h2.786a.617.617 0 0 1 .649.443c.536 1.13 1.101 2.255 1.676 3.439.427-1.154.412-3.027-.035-3.813h3.592c-.982 1.278-.771 2.801-.919 4.231-.147 1.43-.678 2.826 0 4.27h-2.555c-.359 0-.467-.196-.585-.447-.599-1.223-1.199-2.457-1.837-3.759-.394 2.948-.551 3.327.054 4.143h-3.617c.909-.983.693-2.271.879-3.44.168-1.071.222-2.162.359-3.239a1.97 1.97 0 0 0-.447-1.828Zm-39.897 4.467c1.283 1.047 1.037 2.811 2.05 4.035h-3.548c.349-.944 0-1.799-.384-2.644a.608.608 0 0 0-.688-.432c-.285.073-.226.422-.221.638 0 .806-.452 1.671.369 2.457h-3.892c.708-.653.732-1.474.816-2.275.147-1.474.339-2.919.491-4.378.059-.619.148-1.268-.467-1.863 1.858.064 3.568-.113 5.273.108 1.214.158 1.917.831 2.005 1.848.113 1.248-.369 1.966-1.597 2.408a1.224 1.224 0 0 0-.207.098Zm-2.432-1.72c.079.212-.265.551.074.688a1.047 1.047 0 0 0 .983-.162.861.861 0 0 0 .314-.958c-.064-.334-.339-.442-.639-.491-.894-.207-.673.427-.732.918v.005Zm10.267-2.722h3.755c-.983 1.258-.684 2.767-.944 4.157-.088.467-.084.949-.172 1.416-.491 2.85-4.354 4.196-6.585 2.314a2.947 2.947 0 0 1-.948-2.762c.118-1.15.25-2.295.344-3.44.049-.574.147-1.184-.492-1.685h3.873c-.983 1.111-.688 2.486-.929 3.744-.069.402-.113.807-.133 1.214-.039.541.079.983.698 1.14a1.122 1.122 0 0 0 .864-.056 1.135 1.135 0 0 0 .571-.651c.137-.547.231-1.104.28-1.666.088-.786.143-1.578.231-2.369a1.82 1.82 0 0 0-.413-1.356Zm-37.321 3.7c0 2.255-1.15 4.118-2.948 4.747-2.344.82-4.423-.359-4.87-2.796a5.129 5.129 0 0 1 1.204-4.482 3.976 3.976 0 0 1 4.447-1.125c1.395.54 2.162 1.843 2.167 3.656Zm-5.111.983a1.67 1.67 0 0 0 0 .245c.074.521.143 1.067.811 1.155.668.089 1.042-.354 1.239-.914.258-.604.333-1.27.216-1.916-.099-.413-.231-.782-.703-.88a1.03 1.03 0 0 0-1.135.541 3.442 3.442 0 0 0-.428 1.793v-.024Zm73.569-.767a4.944 4.944 0 0 1-1.755 3.887 3.804 3.804 0 0 1-4.26.492c-1.474-.732-1.877-2.123-1.862-3.642a5.266 5.266 0 0 1 1.149-3.331c1.475-1.833 4.31-2.045 5.799-.428.619.668.934 1.651.929 3.022Zm-5.101.713c.003.246.03.491.079.732.108.349.27.673.697.742a.985.985 0 0 0 1.052-.442 3.287 3.287 0 0 0 .423-2.521.86.86 0 0 0-.683-.747.979.979 0 0 0-1.047.447 3.051 3.051 0 0 0-.521 1.789Zm-15.325-4.909c-.088 1.17-.172 2.261-.26 3.386-1.499-.885-2.644-.865-3.44 0a1.937 1.937 0 0 0-.094 2.378c.698.826 1.966.816 3.484-.049-.157.929-.304 1.838-.462 2.747-.049.266-.073.438-.491.369a8.206 8.206 0 0 0-1.612.093c-2.855.128-4.467-2.196-4.029-4.835.437-2.639 2.245-4.035 4.874-4.02.664.029 1.313.211 2.03-.069Zm-56.686 5.788c-.163.983-.315 1.966-.492 2.9 0 .113-.034.235-.192.211-.982-.162-2.004.211-3.022-.039a3.619 3.619 0 0 1-2.869-3.067c-.585-3.155 1.602-5.715 4.81-5.7.674 0 1.342.177 2.054-.069-.088 1.165-.172 2.241-.26 3.44a2.559 2.559 0 0 0-1.764-.747 2.113 2.113 0 0 0-1.725.791 1.792 1.792 0 0 0-.034 2.256c.717.825 1.852.85 3.494.024Zm18.421-.137c.368.506.911.856 1.523.983a.797.797 0 0 0 .534-.033.796.796 0 0 0 .39-.365c.167-.374-.049-.649-.354-.865l-.491-.349c-1.194-.811-1.528-1.622-1.174-2.865a2.827 2.827 0 0 1 2.653-2.039c.781-.044 1.573.206 2.364-.079a26.94 26.94 0 0 1-.123 2.841c-.437-.271-.801-.605-1.307-.575a.681.681 0 0 0-.394.079.682.682 0 0 0-.284.284c-.138.305.059.521.275.693.216.172.442.315.658.492 1.135.835 1.475 1.798 1.072 3.081a3.049 3.049 0 0 1-2.674 2.068c-.869.069-1.7-.255-2.565-.157-.329.035-.157-.265-.157-.398 0-.432.049-.86.064-1.292.015-.433-.01-.904-.01-1.504Zm43.832 3.12h-3.848c.983-1.218.708-2.692.983-4.039.113-.619.088-1.268.191-1.892.069-.442-.113-.491-.466-.462a3.154 3.154 0 0 0-2.084.703c.226-.958.418-1.813.639-2.663.059-.236.295-.158.467-.158h6.049c.339 0 .491.089.491.452v2.359a2.809 2.809 0 0 0-1.995-.683c-.275 0-.393.064-.417.369-.148 1.553-.325 3.105-.492 4.658a1.48 1.48 0 0 0 .482 1.356Zm-37.827-5.69c.201-.855.398-1.617.56-2.388.073-.359.26-.448.609-.443h5.981c.398 0 .491.128.491.492v2.265a3.04 3.04 0 0 0-1.892-.639c-.305 0-.452.054-.491.384-.153 1.641-.32 3.282-.492 4.914a1.476 1.476 0 0 0 .452 1.086h-3.744c.953-1.475.698-3.229.983-4.865v-.339c.029-.379.304-.919.044-1.091-.393-.251-.949-.089-1.435.034-.381.147-.74.345-1.066.59Zm43.914 5.71h-3.829c.954-1.474.708-3.213.983-4.83.118-.668.128-1.351.221-2.025a1.8 1.8 0 0 0-.437-1.636h3.843c-.801.732-.727 1.695-.84 2.595-.182 1.41-.32 2.83-.453 4.245a1.677 1.677 0 0 0 .512 1.651Zm25.345-3.828a15.251 15.251 0 0 0-.423 3.848c-1.582.58-1.548-.983-2.157-1.749a3.466 3.466 0 0 0-.074 1.788h-1.43c.279-1.199.404-2.429.374-3.66 0-.084-.064-.148.044-.212a1.48 1.48 0 0 1 1.504.447c.182.364.358.728.54 1.086l.094.069a1.324 1.324 0 0 0 .137-1.017c-.118-.575.118-.658.595-.604.265.016.531.018.796.004Zm-.668-.629c-1.032 0-1.661-.683-1.656-1.803 0-1.278.89-2.285 2.01-2.285.983 0 1.656.742 1.651 1.833-.005 1.327-.83 2.25-2.005 2.255Zm.703-2.211c-.044-.275.024-.688-.442-.659-.58.04-.566.546-.605.983-.029.325 0 .742.393.728.595-.04.595-.58.654-1.052Zm-3.08-.369c-.56-.359-1.081-.442-1.533 0a.765.765 0 0 0-.089 1.052c.447.575 1.027.349 1.563.123.024.044.049.063.044.078-.236 1.361-.378 1.474-1.612 1.288a1.842 1.842 0 0 1-1.43-2.123 2.416 2.416 0 0 1 3.032-1.936c.261.073.158.231.148.358-.03.379-.079.738-.123 1.16Zm6.268 4.595a1.373 1.373 0 0 0-.786-.27.89.89 0 0 0-.678.245.885.885 0 0 0-.209.303.878.878 0 0 0-.071.361c0 .491.383.796.983.777.599-.02.879.368.594.982-.054.108-.103.187-.236.197-.766.039-1.562.152-2.147-.516a2.073 2.073 0 0 1-.324-2.157 1.856 1.856 0 0 1 1.764-1.362c1.484-.039 1.386-.388 1.11 1.44Zm-7.523-1.386a13.482 13.482 0 0 0-.393 3.651c0 .246-.04.265-.221.265h-1.283c.314-1.142.464-2.324.447-3.508 0-.315-.034-.438.32-.413.353.024.766.005 1.13.005Zm6.432-.491c-.118-1.052-.113-1.061.786-1.332.28.708-.152 1.047-.786 1.332Z"/><path fill="#F2E72F" d="M822.295 458.502c-1.16 0-1.155 0-1.047-1.051.084-.787.153-1.578.222-2.364.024-.29.127-.437.462-.418.491.035.982 0 1.474.03.953.083 1.474.55 1.626 1.351a2.013 2.013 0 0 1-1.071 2.152 3.572 3.572 0 0 1-1.666.3Zm.628-8.049h-.659c-.201 0-.305-.123-.28-.344.118-1.007.241-2.015.339-3.027.03-.315.148-.433.462-.408.408.03.816 0 1.219.039 1.042.128 1.557.624 1.612 1.499a2.06 2.06 0 0 1-1.475 2.108 3.686 3.686 0 0 1-1.218.133Z"/><path fill="#060703" d="M856.219 474.719c.059-.492-.163-1.131.712-.939.3.064.575.172.639.491a.872.872 0 0 1-.003.53.872.872 0 0 1-.312.429 1.043 1.043 0 0 1-.471.204 1.043 1.043 0 0 1-.511-.042c-.305-.118.024-.457-.054-.673Zm-32.166 1.99a3.447 3.447 0 0 1 .448-1.769 1.028 1.028 0 0 1 1.135-.541c.491.099.604.467.703.88a3.35 3.35 0 0 1-.217 1.917c-.196.56-.545.982-1.238.914-.693-.069-.737-.634-.811-1.155a1.56 1.56 0 0 1-.02-.246Zm68.47-.079a3.034 3.034 0 0 1 .521-1.788.978.978 0 0 1 1.046-.448.865.865 0 0 1 .683.747c.103.427.118.871.045 1.304a3.257 3.257 0 0 1-.467 1.217.993.993 0 0 1-.455.39.993.993 0 0 1-.597.053c-.427-.069-.59-.394-.698-.742a3.932 3.932 0 0 1-.078-.733Zm21.705-2.786c-.059.491-.059 1.012-.653 1.032-.384 0-.423-.403-.393-.727.039-.418.024-.924.604-.983.467-.01.398.403.442.678Z"/><defs><linearGradient id="a" x1=".5" x2=".5" y1="0" y2="467.31" gradientUnits="userSpaceOnUse"><stop stop-color="#D9D9D9"/><stop offset="1" stop-color="#D9D9D9" stop-opacity="0"/></linearGradient><linearGradient id="b" x1=".5" x2=".5" y1="0" y2="467.31" gradientUnits="userSpaceOnUse"><stop stop-color="#D9D9D9"/><stop offset="1" stop-color="#D9D9D9" stop-opacity="0"/></linearGradient><linearGradient id="c" x1=".5" x2=".5" y1="0" y2="467.31" gradientUnits="userSpaceOnUse"><stop stop-color="#D9D9D9"/><stop offset="1" stop-color="#D9D9D9" stop-opacity="0"/></linearGradient><linearGradient id="d" x1=".5" x2=".5" y1="0" y2="467.31" gradientUnits="userSpaceOnUse"><stop stop-color="#D9D9D9"/><stop offset="1" stop-color="#D9D9D9" stop-opacity="0"/></linearGradient><linearGradient id="e" x1=".5" x2=".5" y1="0" y2="467.31" gradientUnits="userSpaceOnUse"><stop stop-color="#D9D9D9"/><stop offset="1" stop-color="#D9D9D9" stop-opacity="0"/></linearGradient><linearGradient id="f" x1=".5" x2=".5" y1="0" y2="467.31" gradientUnits="userSpaceOnUse"><stop stop-color="#D9D9D9"/><stop offset="1" stop-color="#D9D9D9" stop-opacity="0"/></linearGradient><linearGradient id="g" x1=".5" x2=".5" y1="0" y2="467.31" gradientUnits="userSpaceOnUse"><stop stop-color="#D9D9D9"/><stop offset="1" stop-color="#D9D9D9" stop-opacity="0"/></linearGradient></defs></svg>