<svg xmlns="http://www.w3.org/2000/svg" width="1307" height="617" fill="none" viewBox="0 0 1307 617"><rect width="1307" height="1" y="489" fill="url(#paint0_linear_465_154)"/><path stroke="#8A8A8A" d="M400 508V571.484C400 575.902 396.418 579.484 392 579.484H317C312.582 579.484 309 583.065 309 587.484V617"/><circle cx="401.5" cy="492.5" r="16.5" fill="#481756" fill-opacity=".54"/><circle cx="401.5" cy="492.5" r="7.5" fill="#fff"/><circle cx="853.5" cy="492.5" r="16.5" fill="#481756"/><circle cx="853.5" cy="492.5" r="7.5" fill="#fff"/><path stroke="#EEEFF3" d="M854 509V571.5C854 575.918 850.418 579.5 846 579.5H771C766.582 579.5 763 583.082 763 587.5V616.5"/><path stroke="#8A8A8A" d="M1029.51 476.93L1029.21 414.43C1029.19 410.012 1032.76 406.414 1037.18 406.393L1112.17 406.039C1116.59 406.018 1120.16 402.419 1120.14 398.001L1120 369.001"/><circle cx="1028.5" cy="489.5" r="16.5" fill="#481756" fill-opacity=".54"/><circle cx="1028.5" cy="489.5" r="7.5" fill="#fff"/><rect width="193" height="40" x="1029" y="329" fill="#fff" rx="20"/><path fill="#1F1F1F" d="M1070.81 341.194H1072.73V357H1070.81V341.194ZM1075.55 357H1071.87V355.081H1075.55C1076.44 355.081 1077.25 354.945 1077.99 354.674C1078.72 354.388 1079.36 353.989 1079.88 353.478C1080.41 352.951 1080.82 352.318 1081.1 351.581C1081.39 350.843 1081.53 350.015 1081.53 349.097C1081.53 348.179 1081.39 347.351 1081.1 346.613C1080.82 345.876 1080.41 345.251 1079.88 344.739C1079.36 344.212 1078.72 343.813 1077.99 343.542C1077.25 343.256 1076.44 343.113 1075.55 343.113H1071.87V341.194H1075.55C1077.08 341.194 1078.45 341.525 1079.64 342.188C1080.82 342.85 1081.76 343.776 1082.44 344.965C1083.11 346.139 1083.45 347.516 1083.45 349.097C1083.45 350.678 1083.11 352.063 1082.44 353.252C1081.76 354.426 1080.82 355.344 1079.64 356.006C1078.45 356.669 1077.08 357 1075.55 357ZM1090.06 357.226C1089.1 357.226 1088.24 357 1087.49 356.548C1086.75 356.082 1086.17 355.442 1085.75 354.629C1085.34 353.816 1085.14 352.875 1085.14 351.807C1085.14 350.723 1085.35 349.774 1085.77 348.962C1086.21 348.149 1086.81 347.516 1087.58 347.065C1088.36 346.613 1089.26 346.387 1090.29 346.387C1091.31 346.387 1092.18 346.606 1092.91 347.042C1093.64 347.464 1094.21 348.073 1094.6 348.871C1094.99 349.669 1095.19 350.617 1095.19 351.716C1095.19 351.822 1095.18 351.935 1095.16 352.055C1095.16 352.16 1095.16 352.228 1095.16 352.258H1086.29V350.723H1093.74L1093.02 351.761C1093.06 351.686 1093.11 351.573 1093.15 351.423C1093.2 351.257 1093.22 351.122 1093.22 351.016C1093.22 350.399 1093.09 349.865 1092.84 349.413C1092.6 348.962 1092.26 348.608 1091.82 348.352C1091.38 348.096 1090.87 347.968 1090.29 347.968C1089.59 347.968 1089 348.119 1088.5 348.42C1088.02 348.706 1087.64 349.127 1087.37 349.684C1087.12 350.226 1086.98 350.896 1086.97 351.694C1086.97 352.507 1087.09 353.199 1087.35 353.771C1087.61 354.343 1087.98 354.78 1088.48 355.081C1088.98 355.382 1089.58 355.532 1090.29 355.532C1090.99 355.532 1091.62 355.382 1092.16 355.081C1092.7 354.765 1093.16 354.29 1093.54 353.658L1095.01 354.584C1094.46 355.457 1093.78 356.119 1092.95 356.571C1092.14 357.008 1091.17 357.226 1090.06 357.226ZM1095.64 346.613H1097.67L1100.6 353.952L1103.54 346.613H1105.57L1100.6 357.79L1095.64 346.613ZM1106.04 351.807C1106.04 350.753 1106.28 349.82 1106.74 349.007C1107.22 348.194 1107.87 347.554 1108.68 347.087C1109.5 346.621 1110.41 346.387 1111.42 346.387C1112.44 346.387 1113.35 346.621 1114.15 347.087C1114.96 347.554 1115.6 348.194 1116.07 349.007C1116.55 349.82 1116.79 350.753 1116.79 351.807C1116.79 352.845 1116.55 353.779 1116.07 354.607C1115.6 355.419 1114.96 356.059 1114.15 356.526C1113.35 356.992 1112.44 357.226 1111.42 357.226C1110.41 357.226 1109.5 356.992 1108.68 356.526C1107.87 356.059 1107.22 355.419 1106.74 354.607C1106.28 353.779 1106.04 352.845 1106.04 351.807ZM1107.87 351.807C1107.87 352.529 1108.02 353.169 1108.32 353.726C1108.64 354.283 1109.06 354.727 1109.59 355.058C1110.13 355.374 1110.74 355.532 1111.42 355.532C1112.09 355.532 1112.7 355.374 1113.22 355.058C1113.76 354.727 1114.19 354.283 1114.49 353.726C1114.8 353.169 1114.96 352.529 1114.96 351.807C1114.96 351.084 1114.8 350.444 1114.49 349.887C1114.19 349.315 1113.76 348.871 1113.22 348.555C1112.7 348.239 1112.09 348.081 1111.42 348.081C1110.74 348.081 1110.13 348.239 1109.59 348.555C1109.06 348.871 1108.64 349.315 1108.32 349.887C1108.02 350.444 1107.87 351.084 1107.87 351.807ZM1119.27 339.388H1121.08V357H1119.27V339.388ZM1126.17 361.968H1124.36V346.613H1126.17V361.968ZM1134.86 351.807C1134.86 352.921 1134.63 353.884 1134.16 354.697C1133.7 355.51 1133.07 356.134 1132.29 356.571C1131.52 357.008 1130.66 357.226 1129.71 357.226C1128.86 357.226 1128.1 357.008 1127.43 356.571C1126.79 356.134 1126.27 355.51 1125.9 354.697C1125.54 353.884 1125.36 352.921 1125.36 351.807C1125.36 350.678 1125.54 349.714 1125.9 348.916C1126.27 348.103 1126.79 347.479 1127.43 347.042C1128.1 346.606 1128.86 346.387 1129.71 346.387C1130.66 346.387 1131.52 346.606 1132.29 347.042C1133.07 347.479 1133.7 348.103 1134.16 348.916C1134.63 349.714 1134.86 350.678 1134.86 351.807ZM1133.03 351.807C1133.03 351.009 1132.87 350.331 1132.54 349.774C1132.22 349.217 1131.79 348.796 1131.25 348.51C1130.72 348.224 1130.14 348.081 1129.49 348.081C1128.96 348.081 1128.44 348.224 1127.93 348.51C1127.42 348.796 1127 349.217 1126.67 349.774C1126.33 350.331 1126.17 351.009 1126.17 351.807C1126.17 352.604 1126.33 353.282 1126.67 353.839C1127 354.396 1127.42 354.817 1127.93 355.103C1128.44 355.389 1128.96 355.532 1129.49 355.532C1130.14 355.532 1130.72 355.389 1131.25 355.103C1131.79 354.817 1132.22 354.396 1132.54 353.839C1132.87 353.282 1133.03 352.604 1133.03 351.807ZM1151.58 350.452V357H1149.77V350.678C1149.77 349.789 1149.61 349.135 1149.28 348.713C1148.96 348.292 1148.46 348.081 1147.78 348.081C1147.29 348.081 1146.86 348.186 1146.5 348.397C1146.14 348.593 1145.86 348.886 1145.66 349.278C1145.47 349.669 1145.37 350.136 1145.37 350.678V357H1143.56V350.678C1143.56 349.789 1143.4 349.135 1143.07 348.713C1142.75 348.292 1142.25 348.081 1141.58 348.081C1141.08 348.081 1140.65 348.186 1140.29 348.397C1139.93 348.593 1139.65 348.886 1139.45 349.278C1139.26 349.669 1139.16 350.136 1139.16 350.678V357H1137.35V346.613H1139.16V348.126C1139.48 347.539 1139.87 347.102 1140.33 346.816C1140.82 346.53 1141.38 346.387 1142.03 346.387C1142.75 346.387 1143.37 346.561 1143.88 346.907C1144.41 347.238 1144.79 347.712 1145.03 348.329C1145.39 347.682 1145.84 347.2 1146.39 346.884C1146.93 346.553 1147.54 346.387 1148.24 346.387C1148.94 346.387 1149.55 346.545 1150.04 346.862C1150.54 347.178 1150.92 347.644 1151.17 348.262C1151.44 348.864 1151.58 349.594 1151.58 350.452ZM1158.99 357.226C1158.03 357.226 1157.17 357 1156.42 356.548C1155.68 356.082 1155.1 355.442 1154.68 354.629C1154.27 353.816 1154.07 352.875 1154.07 351.807C1154.07 350.723 1154.28 349.774 1154.7 348.962C1155.14 348.149 1155.74 347.516 1156.51 347.065C1157.29 346.613 1158.19 346.387 1159.22 346.387C1160.24 346.387 1161.11 346.606 1161.84 347.042C1162.57 347.464 1163.14 348.073 1163.53 348.871C1163.92 349.669 1164.12 350.617 1164.12 351.716C1164.12 351.822 1164.11 351.935 1164.09 352.055C1164.09 352.16 1164.09 352.228 1164.09 352.258H1155.22V350.723H1162.67L1161.95 351.761C1161.99 351.686 1162.04 351.573 1162.08 351.423C1162.13 351.257 1162.15 351.122 1162.15 351.016C1162.15 350.399 1162.02 349.865 1161.77 349.413C1161.53 348.962 1161.19 348.608 1160.75 348.352C1160.32 348.096 1159.8 347.968 1159.22 347.968C1158.52 347.968 1157.93 348.119 1157.43 348.42C1156.95 348.706 1156.57 349.127 1156.3 349.684C1156.05 350.226 1155.91 350.896 1155.9 351.694C1155.9 352.507 1156.03 353.199 1156.28 353.771C1156.54 354.343 1156.91 354.78 1157.41 355.081C1157.91 355.382 1158.51 355.532 1159.22 355.532C1159.92 355.532 1160.55 355.382 1161.09 355.081C1161.63 354.765 1162.09 354.29 1162.47 353.658L1163.94 354.584C1163.39 355.457 1162.71 356.119 1161.88 356.571C1161.07 357.008 1160.1 357.226 1158.99 357.226ZM1173.25 350.678C1173.25 349.82 1173.07 349.172 1172.69 348.736C1172.31 348.299 1171.76 348.081 1171.04 348.081C1170.51 348.081 1170.05 348.194 1169.64 348.42C1169.25 348.63 1168.94 348.931 1168.71 349.323C1168.5 349.714 1168.4 350.166 1168.4 350.678V357H1166.59V346.613H1168.4V348.239C1168.74 347.607 1169.17 347.14 1169.69 346.839C1170.21 346.538 1170.81 346.387 1171.49 346.387C1172.59 346.387 1173.46 346.756 1174.09 347.494C1174.74 348.216 1175.06 349.202 1175.06 350.452V357H1173.25V350.678ZM1176.88 346.613H1182.07V348.307H1176.88V346.613ZM1178.57 343H1180.37V357H1178.57V343Z"/><path stroke="#8A8A8A" d="M578.509 479.93L578.214 417.43C578.193 413.012 581.758 409.414 586.176 409.393L661.175 409.039C665.593 409.018 669.158 405.419 669.137 401.001L669 372.001"/><circle cx="577.5" cy="492.5" r="16.5" fill="#481756" fill-opacity=".54"/><circle cx="577.5" cy="492.5" r="7.5" fill="#fff"/><rect width="157" height="40" x="591" y="332" fill="#fff" rx="20"/><path fill="#1F1F1F" d="M630.874 355.823L634.983 344.194H637.128L630.919 360.79L626.177 348.507L621.435 360.79L615.226 344.194H617.371L621.571 355.823L626.177 343.404L630.874 355.823ZM639.053 345.323C639.053 344.977 639.173 344.683 639.414 344.442C639.67 344.202 639.964 344.081 640.295 344.081C640.641 344.081 640.935 344.202 641.176 344.442C641.416 344.683 641.537 344.977 641.537 345.323C641.537 345.654 641.416 345.948 641.176 346.204C640.935 346.444 640.641 346.565 640.295 346.565C639.964 346.565 639.67 346.444 639.414 346.204C639.173 345.948 639.053 345.654 639.053 345.323ZM639.392 349.613H641.198V360H639.392V349.613ZM646.725 349.613V360H644.918V349.613H646.725ZM649.864 351.6C649.623 351.42 649.404 351.292 649.209 351.216C649.013 351.126 648.765 351.081 648.464 351.081C648.012 351.081 647.658 351.194 647.402 351.42C647.146 351.645 646.966 351.954 646.86 352.345C646.77 352.737 646.725 353.181 646.725 353.678H645.912C645.912 352.85 646.055 352.12 646.341 351.487C646.642 350.84 647.026 350.328 647.493 349.952C647.959 349.576 648.433 349.387 648.915 349.387C649.291 349.387 649.638 349.44 649.954 349.545C650.285 349.636 650.586 349.824 650.857 350.11L649.864 351.6ZM656.347 360.226C655.383 360.226 654.525 360 653.773 359.548C653.035 359.082 652.456 358.442 652.034 357.629C651.628 356.816 651.424 355.875 651.424 354.807C651.424 353.723 651.635 352.774 652.057 351.962C652.493 351.149 653.095 350.516 653.863 350.065C654.646 349.613 655.549 349.387 656.573 349.387C657.596 349.387 658.469 349.606 659.192 350.042C659.929 350.464 660.494 351.073 660.885 351.871C661.277 352.669 661.472 353.617 661.472 354.716C661.472 354.822 661.465 354.935 661.45 355.055C661.45 355.16 661.45 355.228 661.45 355.258H652.576V353.723H660.027L659.305 354.761C659.35 354.686 659.395 354.573 659.44 354.423C659.485 354.257 659.508 354.122 659.508 354.016C659.508 353.399 659.38 352.865 659.124 352.413C658.883 351.962 658.545 351.608 658.108 351.352C657.671 351.096 657.16 350.968 656.573 350.968C655.88 350.968 655.286 351.119 654.789 351.42C654.307 351.706 653.931 352.127 653.66 352.684C653.404 353.226 653.268 353.896 653.253 354.694C653.253 355.507 653.381 356.199 653.637 356.771C653.893 357.343 654.269 357.78 654.766 358.081C655.263 358.382 655.865 358.532 656.573 358.532C657.28 358.532 657.905 358.382 658.447 358.081C658.989 357.765 659.448 357.29 659.824 356.658L661.292 357.584C660.75 358.457 660.065 359.119 659.237 359.571C658.424 360.008 657.461 360.226 656.347 360.226ZM669.928 349.613H675.121V351.307H669.928V349.613ZM674.94 344.555C674.79 344.299 674.609 344.141 674.398 344.081C674.203 344.006 674.015 343.968 673.834 343.968C673.608 343.968 673.412 344.036 673.247 344.171C673.096 344.292 672.976 344.503 672.886 344.804C672.795 345.105 672.75 345.504 672.75 346V360H670.944V345.775C670.944 344.947 671.064 344.269 671.305 343.742C671.546 343.216 671.885 342.824 672.321 342.568C672.773 342.297 673.315 342.162 673.947 342.162C674.278 342.162 674.572 342.207 674.827 342.297C675.083 342.388 675.302 342.5 675.482 342.636C675.678 342.771 675.829 342.914 675.934 343.065L674.94 344.555ZM678.985 349.613V360H677.179V349.613H678.985ZM682.124 351.6C681.883 351.42 681.665 351.292 681.469 351.216C681.273 351.126 681.025 351.081 680.724 351.081C680.272 351.081 679.918 351.194 679.663 351.42C679.407 351.645 679.226 351.954 679.121 352.345C679.03 352.737 678.985 353.181 678.985 353.678H678.172C678.172 352.85 678.315 352.12 678.601 351.487C678.902 350.84 679.286 350.328 679.753 349.952C680.22 349.576 680.694 349.387 681.175 349.387C681.552 349.387 681.898 349.44 682.214 349.545C682.545 349.636 682.846 349.824 683.117 350.11L682.124 351.6ZM685.731 356.794C685.731 357.185 685.822 357.524 686.002 357.81C686.198 358.096 686.462 358.314 686.793 358.465C687.139 358.6 687.53 358.668 687.967 358.668C688.524 358.668 689.021 358.555 689.457 358.329C689.909 358.103 690.263 357.787 690.518 357.381C690.789 356.959 690.925 356.478 690.925 355.936L691.286 357.29C691.286 357.953 691.083 358.502 690.677 358.939C690.285 359.375 689.796 359.699 689.209 359.91C688.637 360.12 688.065 360.226 687.493 360.226C686.86 360.226 686.266 360.098 685.709 359.842C685.167 359.571 684.73 359.187 684.399 358.69C684.068 358.194 683.903 357.591 683.903 356.884C683.903 355.875 684.256 355.07 684.964 354.468C685.686 353.851 686.687 353.542 687.967 353.542C688.72 353.542 689.344 353.632 689.841 353.813C690.353 353.979 690.759 354.174 691.06 354.4C691.361 354.611 691.565 354.784 691.67 354.919V355.981C691.143 355.619 690.601 355.364 690.044 355.213C689.487 355.047 688.893 354.965 688.26 354.965C687.673 354.965 687.192 355.04 686.815 355.19C686.454 355.341 686.183 355.552 686.002 355.823C685.822 356.094 685.731 356.417 685.731 356.794ZM685.461 352.007L684.58 350.674C684.971 350.388 685.506 350.102 686.183 349.816C686.876 349.53 687.703 349.387 688.667 349.387C689.48 349.387 690.187 349.515 690.789 349.771C691.407 350.012 691.881 350.366 692.212 350.833C692.558 351.299 692.731 351.871 692.731 352.549V360H690.925V352.797C690.925 352.436 690.865 352.142 690.744 351.916C690.624 351.676 690.451 351.487 690.225 351.352C690.014 351.216 689.766 351.119 689.48 351.058C689.194 350.998 688.893 350.968 688.577 350.968C688.065 350.968 687.598 351.028 687.177 351.149C686.77 351.269 686.424 351.412 686.138 351.578C685.852 351.743 685.626 351.886 685.461 352.007ZM710.015 353.452V360H708.209V353.678C708.209 352.789 708.043 352.135 707.712 351.713C707.396 351.292 706.899 351.081 706.222 351.081C705.725 351.081 705.296 351.186 704.935 351.397C704.573 351.593 704.295 351.886 704.099 352.278C703.903 352.669 703.806 353.136 703.806 353.678V360H701.999V353.678C701.999 352.789 701.834 352.135 701.502 351.713C701.186 351.292 700.69 351.081 700.012 351.081C699.515 351.081 699.086 351.186 698.725 351.397C698.364 351.593 698.085 351.886 697.89 352.278C697.694 352.669 697.596 353.136 697.596 353.678V360H695.79V349.613H697.596V351.126C697.912 350.539 698.304 350.102 698.77 349.816C699.252 349.53 699.816 349.387 700.464 349.387C701.186 349.387 701.803 349.561 702.315 349.907C702.842 350.238 703.226 350.712 703.467 351.329C703.828 350.682 704.28 350.2 704.822 349.884C705.364 349.553 705.981 349.387 706.673 349.387C707.381 349.387 707.983 349.545 708.48 349.862C708.976 350.178 709.353 350.644 709.609 351.262C709.88 351.864 710.015 352.594 710.015 353.452ZM717.427 360.226C716.464 360.226 715.606 360 714.853 359.548C714.116 359.082 713.536 358.442 713.115 357.629C712.708 356.816 712.505 355.875 712.505 354.807C712.505 353.723 712.716 352.774 713.137 351.962C713.574 351.149 714.176 350.516 714.944 350.065C715.726 349.613 716.63 349.387 717.653 349.387C718.677 349.387 719.55 349.606 720.273 350.042C721.01 350.464 721.575 351.073 721.966 351.871C722.357 352.669 722.553 353.617 722.553 354.716C722.553 354.822 722.546 354.935 722.531 355.055C722.531 355.16 722.531 355.228 722.531 355.258H713.657V353.723H721.108L720.385 354.761C720.431 354.686 720.476 354.573 720.521 354.423C720.566 354.257 720.589 354.122 720.589 354.016C720.589 353.399 720.461 352.865 720.205 352.413C719.964 351.962 719.625 351.608 719.189 351.352C718.752 351.096 718.24 350.968 717.653 350.968C716.961 350.968 716.366 351.119 715.869 351.42C715.388 351.706 715.011 352.127 714.74 352.684C714.485 353.226 714.349 353.896 714.334 354.694C714.334 355.507 714.462 356.199 714.718 356.771C714.974 357.343 715.35 357.78 715.847 358.081C716.344 358.382 716.946 358.532 717.653 358.532C718.361 358.532 718.985 358.382 719.527 358.081C720.069 357.765 720.528 357.29 720.905 356.658L722.372 357.584C721.831 358.457 721.146 359.119 720.318 359.571C719.505 360.008 718.541 360.226 717.427 360.226Z"/><path fill="#fff" d="M427.976 23.0622V16.4782H452.131V23.0622H443.716V47H436.347V23.0622H427.976ZM461.443 12.99V47H454.815V12.99H461.443ZM467.852 34.7913C467.852 33.5995 467.634 32.6838 467.198 32.0443C466.762 31.4048 466.006 31.0851 464.931 31.0851C464.233 31.0851 463.623 31.2449 463.1 31.5647C462.576 31.8554 462.169 32.2769 461.879 32.8292C461.588 33.3524 461.443 34.0064 461.443 34.7913H460.309C460.309 33.1925 460.571 31.7536 461.094 30.4746C461.617 29.1665 462.402 28.1346 463.448 27.3788C464.524 26.594 465.89 26.2016 467.547 26.2016C469.204 26.2016 470.527 26.4922 471.515 27.0736C472.532 27.655 473.273 28.5125 473.739 29.6462C474.204 30.7798 474.436 32.1751 474.436 33.832V47H467.852V34.7913ZM489.843 47.436C487.517 47.436 485.497 47.0145 483.782 46.1716C482.096 45.2995 480.788 44.0786 479.858 42.5089C478.927 40.9392 478.462 39.0934 478.462 36.9714C478.462 34.8203 478.913 32.96 479.814 31.3903C480.715 29.8206 482.009 28.6142 483.695 27.7713C485.41 26.9283 487.43 26.5068 489.755 26.5068C492.081 26.5068 494.043 26.9137 495.642 27.7277C497.241 28.5125 498.461 29.6607 499.304 31.1723C500.147 32.6838 500.569 34.5151 500.569 36.6662C500.569 36.9859 500.569 37.3057 500.569 37.6254C500.569 37.9161 500.54 38.1632 500.482 38.3667H482.169V34.7041H494.552L492.982 36.7098C493.127 36.5063 493.244 36.2592 493.331 35.9685C493.447 35.6488 493.505 35.3872 493.505 35.1837C493.505 34.3116 493.345 33.5559 493.026 32.9164C492.706 32.2769 492.255 31.7827 491.674 31.4339C491.093 31.0851 490.409 30.9106 489.625 30.9106C488.636 30.9106 487.808 31.1287 487.139 31.5647C486.471 32.0007 485.962 32.6693 485.613 33.5704C485.293 34.4425 485.119 35.5471 485.09 36.8842C485.09 38.1051 485.264 39.1515 485.613 40.0236C485.962 40.8956 486.485 41.5642 487.183 42.0293C487.88 42.4653 488.738 42.6833 489.755 42.6833C490.918 42.6833 491.906 42.4653 492.72 42.0293C493.563 41.5933 494.232 40.9392 494.726 40.0672L500.612 41.5061C499.566 43.4827 498.142 44.9652 496.339 45.9535C494.566 46.9419 492.401 47.436 489.843 47.436ZM524.247 56.5926H517.663V26.9428H524.247V56.5926ZM540.642 36.9714C540.642 39.2969 540.177 41.259 539.246 42.8578C538.345 44.4565 537.168 45.6629 535.715 46.4768C534.29 47.2907 532.75 47.6976 531.093 47.6976C529.349 47.6976 527.837 47.2616 526.558 46.3896C525.308 45.4884 524.349 44.2385 523.68 42.6397C523.012 41.0119 522.677 39.1225 522.677 36.9714C522.677 34.7913 523.012 32.9018 523.68 31.3031C524.349 29.7043 525.308 28.4689 526.558 27.5968C527.837 26.6957 529.349 26.2452 531.093 26.2452C532.75 26.2452 534.29 26.6521 535.715 27.466C537.168 28.28 538.345 29.4863 539.246 31.0851C540.177 32.6547 540.642 34.6169 540.642 36.9714ZM533.709 36.9714C533.709 35.9249 533.491 35.0384 533.055 34.3116C532.619 33.5849 532.037 33.0326 531.311 32.6547C530.584 32.2769 529.785 32.0879 528.913 32.0879C528.157 32.0879 527.416 32.2769 526.689 32.6547C525.991 33.0036 525.41 33.5413 524.945 34.268C524.48 34.9948 524.247 35.8959 524.247 36.9714C524.247 38.0469 524.48 38.9481 524.945 39.6748C525.41 40.4015 525.991 40.9538 526.689 41.3317C527.416 41.6805 528.157 41.8549 528.913 41.8549C529.785 41.8549 530.584 41.6659 531.311 41.2881C532.037 40.9102 532.619 40.3579 533.055 39.6312C533.491 38.9045 533.709 38.0179 533.709 36.9714ZM551.114 26.9428V47H544.618V26.9428H551.114ZM556.914 33.7448C556.565 33.396 556.187 33.1198 555.78 32.9164C555.402 32.7129 554.922 32.6111 554.341 32.6111C553.702 32.6111 553.135 32.7856 552.641 33.1344C552.146 33.4832 551.768 33.9919 551.507 34.6605C551.245 35.329 551.114 36.143 551.114 37.1022L549.545 34.7913C549.545 33.1925 549.85 31.7682 550.46 30.5182C551.1 29.2683 551.928 28.28 552.946 27.5532C553.963 26.8265 555.024 26.4632 556.129 26.4632C556.855 26.4632 557.553 26.6085 558.222 26.8992C558.89 27.1899 559.399 27.5968 559.748 28.1201L556.914 33.7448ZM560.728 36.9714C560.728 34.8494 561.222 33.0036 562.211 31.4339C563.199 29.8642 564.565 28.6433 566.309 27.7713C568.053 26.8992 570.016 26.4632 572.196 26.4632C574.376 26.4632 576.323 26.8992 578.038 27.7713C579.782 28.6433 581.149 29.8642 582.137 31.4339C583.154 33.0036 583.663 34.8494 583.663 36.9714C583.663 39.0643 583.154 40.8956 582.137 42.4653C581.149 44.035 579.782 45.2559 578.038 46.1279C576.323 47 574.376 47.436 572.196 47.436C570.016 47.436 568.053 47 566.309 46.1279C564.565 45.2559 563.199 44.035 562.211 42.4653C561.222 40.8956 560.728 39.0643 560.728 36.9714ZM567.487 36.9714C567.487 38.0179 567.705 38.919 568.141 39.6748C568.577 40.4015 569.143 40.9683 569.841 41.3753C570.539 41.7822 571.324 41.9857 572.196 41.9857C573.039 41.9857 573.809 41.7822 574.507 41.3753C575.233 40.9683 575.8 40.4015 576.207 39.6748C576.643 38.919 576.861 38.0179 576.861 36.9714C576.861 35.9249 576.643 35.0238 576.207 34.268C575.8 33.5123 575.233 32.9309 574.507 32.5239C573.809 32.117 573.039 31.9135 572.196 31.9135C571.324 31.9135 570.539 32.117 569.841 32.5239C569.143 32.9309 568.577 33.5123 568.141 34.268C567.705 35.0238 567.487 35.9249 567.487 36.9714ZM593.162 36.9714C593.162 38.0469 593.394 38.9771 593.859 39.762C594.324 40.5177 594.964 41.1136 595.778 41.5497C596.621 41.9857 597.522 42.2037 598.481 42.2037C599.295 42.2037 600.065 42.0874 600.792 41.8549C601.548 41.5933 602.231 41.2445 602.841 40.8084C603.481 40.3724 604.004 39.8346 604.411 39.1951V45.6047C603.714 46.157 602.841 46.6076 601.795 46.9564C600.749 47.2761 599.47 47.436 597.958 47.436C595.749 47.436 593.758 47 591.984 46.1279C590.24 45.2559 588.86 44.035 587.842 42.4653C586.854 40.8956 586.36 39.0643 586.36 36.9714C586.36 34.8494 586.854 33.0181 587.842 31.4775C588.86 29.9078 590.24 28.6869 591.984 27.8149C593.758 26.9428 595.749 26.5068 597.958 26.5068C599.47 26.5068 600.749 26.6812 601.795 27.03C602.841 27.3498 603.714 27.7567 604.411 28.2509V34.7041C604.004 34.0646 603.466 33.5268 602.798 33.0908C602.158 32.6547 601.461 32.3205 600.705 32.0879C599.949 31.8554 599.208 31.7391 598.481 31.7391C597.522 31.7391 596.621 31.9716 595.778 32.4367C594.964 32.9018 594.324 33.5268 593.859 34.3116C593.394 35.0965 593.162 35.9831 593.162 36.9714ZM619.373 47.436C617.048 47.436 615.027 47.0145 613.312 46.1716C611.626 45.2995 610.318 44.0786 609.388 42.5089C608.458 40.9392 607.993 39.0934 607.993 36.9714C607.993 34.8203 608.443 32.96 609.344 31.3903C610.245 29.8206 611.539 28.6142 613.225 27.7713C614.94 26.9283 616.96 26.5068 619.286 26.5068C621.611 26.5068 623.573 26.9137 625.172 27.7277C626.771 28.5125 627.992 29.6607 628.835 31.1723C629.678 32.6838 630.099 34.5151 630.099 36.6662C630.099 36.9859 630.099 37.3057 630.099 37.6254C630.099 37.9161 630.07 38.1632 630.012 38.3667H611.699V34.7041H624.082L622.512 36.7098C622.658 36.5063 622.774 36.2592 622.861 35.9685C622.977 35.6488 623.036 35.3872 623.036 35.1837C623.036 34.3116 622.876 33.5559 622.556 32.9164C622.236 32.2769 621.786 31.7827 621.204 31.4339C620.623 31.0851 619.94 30.9106 619.155 30.9106C618.167 30.9106 617.338 31.1287 616.67 31.5647C616.001 32.0007 615.492 32.6693 615.144 33.5704C614.824 34.4425 614.649 35.5471 614.62 36.8842C614.62 38.1051 614.795 39.1515 615.144 40.0236C615.492 40.8956 616.016 41.5642 616.713 42.0293C617.411 42.4653 618.268 42.6833 619.286 42.6833C620.449 42.6833 621.437 42.4653 622.251 42.0293C623.094 41.5933 623.762 40.9392 624.256 40.0672L630.143 41.5061C629.096 43.4827 627.672 44.9652 625.87 45.9535C624.097 46.9419 621.931 47.436 619.373 47.436ZM635.255 39.7184C636.272 40.5613 637.188 41.2299 638.002 41.7241C638.845 42.1892 639.586 42.5235 640.226 42.7269C640.865 42.9014 641.417 42.9886 641.882 42.9886C642.551 42.9886 643.045 42.8432 643.365 42.5525C643.685 42.2619 643.845 41.884 643.845 41.4189C643.845 40.9828 643.714 40.6195 643.452 40.3288C643.191 40.0091 642.74 39.7038 642.1 39.4131C641.49 39.1225 640.647 38.8172 639.572 38.4975C638.612 38.1487 637.697 37.7417 636.825 37.2766C635.982 36.7825 635.284 36.1284 634.732 35.3145C634.179 34.5006 633.903 33.4541 633.903 32.1751C633.903 30.9542 634.223 29.9223 634.862 29.0793C635.531 28.2363 636.418 27.5968 637.522 27.1608C638.656 26.7248 639.949 26.5068 641.403 26.5068C642.566 26.5068 643.641 26.6376 644.629 26.8992C645.647 27.1608 646.592 27.5096 647.464 27.9457C648.365 28.3817 649.208 28.8904 649.993 29.4718L647.638 33.7448C646.795 32.96 645.836 32.3205 644.76 31.8263C643.685 31.3031 642.696 31.0414 641.795 31.0414C641.185 31.0414 640.72 31.1577 640.4 31.3903C640.109 31.6228 639.964 31.928 639.964 32.3059C639.964 32.742 640.138 33.1053 640.487 33.396C640.865 33.6867 641.388 33.9628 642.057 34.2244C642.755 34.457 643.598 34.7622 644.586 35.1401C645.632 35.518 646.592 35.954 647.464 36.4482C648.365 36.9423 649.077 37.5673 649.6 38.3231C650.152 39.0789 650.429 40.0817 650.429 41.3317C650.429 43.4827 649.76 45.1106 648.423 46.2152C647.115 47.2907 645.269 47.8284 642.885 47.8284C641.432 47.8284 640.08 47.654 638.83 47.3052C637.609 46.9855 636.476 46.5494 635.429 45.9971C634.383 45.4158 633.409 44.7763 632.508 44.0786L635.255 39.7184ZM655.14 39.7184C656.157 40.5613 657.073 41.2299 657.887 41.7241C658.73 42.1892 659.471 42.5235 660.111 42.7269C660.75 42.9014 661.303 42.9886 661.768 42.9886C662.436 42.9886 662.93 42.8432 663.25 42.5525C663.57 42.2619 663.73 41.884 663.73 41.4189C663.73 40.9828 663.599 40.6195 663.337 40.3288C663.076 40.0091 662.625 39.7038 661.986 39.4131C661.375 39.1225 660.532 38.8172 659.457 38.4975C658.497 38.1487 657.582 37.7417 656.71 37.2766C655.867 36.7825 655.169 36.1284 654.617 35.3145C654.065 34.5006 653.788 33.4541 653.788 32.1751C653.788 30.9542 654.108 29.9223 654.748 29.0793C655.416 28.2363 656.303 27.5968 657.407 27.1608C658.541 26.7248 659.835 26.5068 661.288 26.5068C662.451 26.5068 663.526 26.6376 664.515 26.8992C665.532 27.1608 666.477 27.5096 667.349 27.9457C668.25 28.3817 669.093 28.8904 669.878 29.4718L667.523 33.7448C666.68 32.96 665.721 32.3205 664.645 31.8263C663.57 31.3031 662.582 31.0414 661.68 31.0414C661.07 31.0414 660.605 31.1577 660.285 31.3903C659.994 31.6228 659.849 31.928 659.849 32.3059C659.849 32.742 660.024 33.1053 660.372 33.396C660.75 33.6867 661.273 33.9628 661.942 34.2244C662.64 34.457 663.483 34.7622 664.471 35.1401C665.517 35.518 666.477 35.954 667.349 36.4482C668.25 36.9423 668.962 37.5673 669.485 38.3231C670.038 39.0789 670.314 40.0817 670.314 41.3317C670.314 43.4827 669.645 45.1106 668.308 46.2152C667 47.2907 665.154 47.8284 662.77 47.8284C661.317 47.8284 659.965 47.654 658.715 47.3052C657.495 46.9855 656.361 46.5494 655.314 45.9971C654.268 45.4158 653.294 44.7763 652.393 44.0786L655.14 39.7184ZM685.83 36.9714C685.83 34.8494 686.324 33.0036 687.313 31.4339C688.301 29.8642 689.667 28.6433 691.411 27.7713C693.155 26.8992 695.117 26.4632 697.298 26.4632C699.478 26.4632 701.425 26.8992 703.14 27.7713C704.884 28.6433 706.251 29.8642 707.239 31.4339C708.256 33.0036 708.765 34.8494 708.765 36.9714C708.765 39.0643 708.256 40.8956 707.239 42.4653C706.251 44.035 704.884 45.2559 703.14 46.1279C701.425 47 699.478 47.436 697.298 47.436C695.117 47.436 693.155 47 691.411 46.1279C689.667 45.2559 688.301 44.035 687.313 42.4653C686.324 40.8956 685.83 39.0643 685.83 36.9714ZM692.589 36.9714C692.589 38.0179 692.807 38.919 693.243 39.6748C693.679 40.4015 694.245 40.9683 694.943 41.3753C695.641 41.7822 696.426 41.9857 697.298 41.9857C698.141 41.9857 698.911 41.7822 699.609 41.3753C700.335 40.9683 700.902 40.4015 701.309 39.6748C701.745 38.919 701.963 38.0179 701.963 36.9714C701.963 35.9249 701.745 35.0238 701.309 34.268C700.902 33.5123 700.335 32.9309 699.609 32.5239C698.911 32.117 698.141 31.9135 697.298 31.9135C696.426 31.9135 695.641 32.117 694.943 32.5239C694.245 32.9309 693.679 33.5123 693.243 34.268C692.807 35.0238 692.589 35.9249 692.589 36.9714ZM710.938 26.9428H724.63V32.3931H710.938V26.9428ZM723.888 19.3123C723.598 18.9345 723.278 18.6583 722.929 18.4839C722.609 18.3095 722.261 18.2223 721.883 18.2223C721.447 18.2223 721.069 18.324 720.749 18.5275C720.458 18.731 720.226 19.0507 720.051 19.4868C719.877 19.9228 719.79 20.4896 719.79 21.1873V47H713.467V19.5304C713.467 18.0188 713.744 16.7253 714.296 15.6497C714.877 14.5742 715.72 13.7458 716.825 13.1644C717.958 12.583 719.354 12.2923 721.011 12.2923C722.028 12.2923 722.886 12.4231 723.583 12.6848C724.281 12.9173 724.877 13.208 725.371 13.5568C725.865 13.8766 726.257 14.1818 726.548 14.4725L723.888 19.3123ZM749.289 31.4339L747.458 47H739.697L744.624 14.9521L757.617 33.5704L770.655 14.9521L775.582 47H767.82L765.989 31.4339L757.617 44.1658L749.289 31.4339ZM779.228 19.3996C779.228 18.3531 779.606 17.5101 780.362 16.8706C781.117 16.202 782.018 15.8677 783.065 15.8677C784.14 15.8677 785.042 16.202 785.768 16.8706C786.524 17.5101 786.902 18.3531 786.902 19.3996C786.902 20.446 786.524 21.3035 785.768 21.9721C785.042 22.6407 784.14 22.975 783.065 22.975C782.018 22.975 781.117 22.6407 780.362 21.9721C779.606 21.3035 779.228 20.446 779.228 19.3996ZM779.882 26.9428H786.248V47H779.882V26.9428ZM804.708 34.7913C804.708 33.5995 804.475 32.6838 804.01 32.0443C803.574 31.4048 802.833 31.0851 801.786 31.0851C801.089 31.0851 800.478 31.2304 799.955 31.5211C799.432 31.8118 799.025 32.2333 798.734 32.7856C798.444 33.3379 798.298 34.0064 798.298 34.7913V47H791.671V26.9428H798.298V29.9514C798.88 28.8468 799.664 27.9893 800.653 27.3788C801.67 26.7684 802.92 26.4632 804.403 26.4632C806.903 26.4632 808.719 27.1317 809.853 28.4689C810.987 29.806 811.553 31.681 811.553 34.0936V47H804.708V34.7913ZM826.954 47.436C824.628 47.436 822.608 47.0145 820.893 46.1716C819.207 45.2995 817.899 44.0786 816.969 42.5089C816.039 40.9392 815.573 39.0934 815.573 36.9714C815.573 34.8203 816.024 32.96 816.925 31.3903C817.826 29.8206 819.12 28.6142 820.806 27.7713C822.521 26.9283 824.541 26.5068 826.866 26.5068C829.192 26.5068 831.154 26.9137 832.753 27.7277C834.352 28.5125 835.572 29.6607 836.415 31.1723C837.258 32.6838 837.68 34.5151 837.68 36.6662C837.68 36.9859 837.68 37.3057 837.68 37.6254C837.68 37.9161 837.651 38.1632 837.593 38.3667H819.28V34.7041H831.663L830.093 36.7098C830.238 36.5063 830.355 36.2592 830.442 35.9685C830.558 35.6488 830.616 35.3872 830.616 35.1837C830.616 34.3116 830.456 33.5559 830.137 32.9164C829.817 32.2769 829.366 31.7827 828.785 31.4339C828.204 31.0851 827.521 30.9106 826.736 30.9106C825.747 30.9106 824.919 31.1287 824.25 31.5647C823.582 32.0007 823.073 32.6693 822.724 33.5704C822.404 34.4425 822.23 35.5471 822.201 36.8842C822.201 38.1051 822.375 39.1515 822.724 40.0236C823.073 40.8956 823.596 41.5642 824.294 42.0293C824.992 42.4653 825.849 42.6833 826.866 42.6833C828.029 42.6833 829.018 42.4653 829.831 42.0293C830.674 41.5933 831.343 40.9392 831.837 40.0672L837.724 41.5061C836.677 43.4827 835.253 44.9652 833.45 45.9535C831.677 46.9419 829.512 47.436 826.954 47.436ZM842.388 16.4782H849.233L844.742 27.5968H840.033L842.388 16.4782ZM870.078 12.99H876.662V47H870.078V12.99ZM853.683 36.9714C853.683 34.7041 854.134 32.8001 855.035 31.2595C855.965 29.7188 857.157 28.5416 858.61 27.7277C860.064 26.9137 861.604 26.5068 863.232 26.5068C864.918 26.5068 866.401 26.9283 867.68 27.7713C868.988 28.6142 870.02 29.8206 870.775 31.3903C871.531 32.9309 871.909 34.7913 871.909 36.9714C871.909 39.1225 871.531 40.9828 870.775 42.5525C870.02 44.1222 868.988 45.3286 867.68 46.1716C866.401 47.0145 864.918 47.436 863.232 47.436C861.604 47.436 860.064 47.0291 858.61 46.2152C857.157 45.4012 855.965 44.224 855.035 42.6833C854.134 41.1136 853.683 39.2097 853.683 36.9714ZM860.616 36.9714C860.616 38.0179 860.834 38.9335 861.27 39.7184C861.706 40.4741 862.287 41.07 863.014 41.5061C863.741 41.913 864.54 42.1165 865.412 42.1165C866.168 42.1165 866.895 41.913 867.592 41.5061C868.319 41.0991 868.915 40.5177 869.38 39.762C869.845 38.9771 870.078 38.0469 870.078 36.9714C870.078 35.8959 869.845 34.9802 869.38 34.2244C868.915 33.4396 868.319 32.8437 867.592 32.4367C866.895 32.0298 866.168 31.8263 865.412 31.8263C864.54 31.8263 863.741 32.0443 863.014 32.4803C862.287 32.8873 861.706 33.4832 861.27 34.268C860.834 35.0238 860.616 35.9249 860.616 36.9714ZM501.52 79.4782H508.889V110H501.52V79.4782ZM506.142 85.5389V79.4782H512.116C514.703 79.4782 516.868 79.8851 518.612 80.6991C520.385 81.4839 521.723 82.6176 522.624 84.1001C523.525 85.5825 523.975 87.3703 523.975 89.4632C523.975 91.498 523.525 93.2711 522.624 94.7827C521.723 96.2652 520.385 97.4134 518.612 98.2273C516.868 99.0121 514.703 99.4046 512.116 99.4046H506.142V93.3438H512.116C513.598 93.3438 514.761 93.0095 515.604 92.3409C516.447 91.6724 516.868 90.7131 516.868 89.4632C516.868 88.1842 516.447 87.2104 515.604 86.5418C514.761 85.8732 513.598 85.5389 512.116 85.5389H506.142ZM533.678 89.9428V110H527.181V89.9428H533.678ZM539.477 96.7448C539.128 96.396 538.75 96.1198 538.343 95.9164C537.965 95.7129 537.486 95.6111 536.904 95.6111C536.265 95.6111 535.698 95.7856 535.204 96.1344C534.71 96.4832 534.332 96.9919 534.07 97.6605C533.808 98.329 533.678 99.143 533.678 100.102L532.108 97.7913C532.108 96.1925 532.413 94.7682 533.024 93.5182C533.663 92.2683 534.492 91.28 535.509 90.5532C536.526 89.8265 537.587 89.4632 538.692 89.4632C539.419 89.4632 540.116 89.6085 540.785 89.8992C541.453 90.1899 541.962 90.5968 542.311 91.1201L539.477 96.7448ZM543.291 99.9714C543.291 97.8494 543.786 96.0036 544.774 94.4339C545.762 92.8642 547.128 91.6433 548.873 90.7713C550.617 89.8992 552.579 89.4632 554.759 89.4632C556.939 89.4632 558.887 89.8992 560.602 90.7713C562.346 91.6433 563.712 92.8642 564.7 94.4339C565.718 96.0036 566.226 97.8494 566.226 99.9714C566.226 102.064 565.718 103.896 564.7 105.465C563.712 107.035 562.346 108.256 560.602 109.128C558.887 110 556.939 110.436 554.759 110.436C552.579 110.436 550.617 110 548.873 109.128C547.128 108.256 545.762 107.035 544.774 105.465C543.786 103.896 543.291 102.064 543.291 99.9714ZM550.05 99.9714C550.05 101.018 550.268 101.919 550.704 102.675C551.14 103.401 551.707 103.968 552.404 104.375C553.102 104.782 553.887 104.986 554.759 104.986C555.602 104.986 556.372 104.782 557.07 104.375C557.797 103.968 558.363 103.401 558.77 102.675C559.206 101.919 559.424 101.018 559.424 99.9714C559.424 98.9249 559.206 98.0238 558.77 97.268C558.363 96.5123 557.797 95.9309 557.07 95.5239C556.372 95.117 555.602 94.9135 554.759 94.9135C553.887 94.9135 553.102 95.117 552.404 95.5239C551.707 95.9309 551.14 96.5123 550.704 97.268C550.268 98.0238 550.05 98.9249 550.05 99.9714ZM585.405 75.99H591.989V110H585.405V75.99ZM569.01 99.9714C569.01 97.7041 569.461 95.8001 570.362 94.2595C571.292 92.7188 572.484 91.5416 573.937 90.7277C575.391 89.9137 576.931 89.5068 578.559 89.5068C580.245 89.5068 581.728 89.9283 583.007 90.7713C584.315 91.6142 585.347 92.8206 586.102 94.3903C586.858 95.9309 587.236 97.7913 587.236 99.9714C587.236 102.122 586.858 103.983 586.102 105.553C585.347 107.122 584.315 108.329 583.007 109.172C581.728 110.015 580.245 110.436 578.559 110.436C576.931 110.436 575.391 110.029 573.937 109.215C572.484 108.401 571.292 107.224 570.362 105.683C569.461 104.114 569.01 102.21 569.01 99.9714ZM575.943 99.9714C575.943 101.018 576.161 101.934 576.597 102.718C577.033 103.474 577.614 104.07 578.341 104.506C579.068 104.913 579.867 105.117 580.739 105.117C581.495 105.117 582.222 104.913 582.919 104.506C583.646 104.099 584.242 103.518 584.707 102.762C585.172 101.977 585.405 101.047 585.405 99.9714C585.405 98.8959 585.172 97.9802 584.707 97.2244C584.242 96.4396 583.646 95.8437 582.919 95.4367C582.222 95.0298 581.495 94.8263 580.739 94.8263C579.867 94.8263 579.068 95.0443 578.341 95.4803C577.614 95.8873 577.033 96.4832 576.597 97.268C576.161 98.0238 575.943 98.9249 575.943 99.9714ZM603.988 102.152C603.988 103.314 604.206 104.23 604.642 104.898C605.078 105.538 605.833 105.858 606.909 105.858C607.636 105.858 608.246 105.712 608.74 105.422C609.263 105.131 609.67 104.71 609.961 104.157C610.252 103.605 610.397 102.936 610.397 102.152V89.9428H616.981V110H610.397V106.991C609.787 108.067 608.987 108.924 607.999 109.564C607.011 110.174 605.775 110.48 604.293 110.48C601.793 110.48 599.962 109.811 598.799 108.474C597.665 107.108 597.098 105.233 597.098 102.849V89.9428H603.988V102.152ZM627.716 99.9714C627.716 101.047 627.948 101.977 628.414 102.762C628.879 103.518 629.518 104.114 630.332 104.55C631.175 104.986 632.076 105.204 633.035 105.204C633.849 105.204 634.62 105.087 635.346 104.855C636.102 104.593 636.785 104.244 637.396 103.808C638.035 103.372 638.558 102.835 638.965 102.195V108.605C638.268 109.157 637.396 109.608 636.349 109.956C635.303 110.276 634.024 110.436 632.512 110.436C630.303 110.436 628.312 110 626.539 109.128C624.794 108.256 623.414 107.035 622.396 105.465C621.408 103.896 620.914 102.064 620.914 99.9714C620.914 97.8494 621.408 96.0181 622.396 94.4775C623.414 92.9078 624.794 91.6869 626.539 90.8149C628.312 89.9428 630.303 89.5068 632.512 89.5068C634.024 89.5068 635.303 89.6812 636.349 90.03C637.396 90.3498 638.268 90.7567 638.965 91.2509V97.7041C638.558 97.0646 638.021 96.5268 637.352 96.0908C636.713 95.6547 636.015 95.3205 635.259 95.0879C634.503 94.8554 633.762 94.7391 633.035 94.7391C632.076 94.7391 631.175 94.9716 630.332 95.4367C629.518 95.9018 628.879 96.5268 628.414 97.3116C627.948 98.0965 627.716 98.9831 627.716 99.9714ZM641.37 89.9428H654.799V95.3931H641.37V89.9428ZM644.901 82.9664H651.224V110H644.901V82.9664ZM671.332 79.4782H678.919V110H671.332V79.4782ZM682.232 110H676.215V103.46H681.971C683.134 103.46 684.253 103.314 685.328 103.024C686.433 102.733 687.392 102.253 688.206 101.585C689.049 100.916 689.718 100.03 690.212 98.9249C690.706 97.7913 690.953 96.396 690.953 94.7391C690.953 93.0822 690.706 91.7014 690.212 90.5968C689.718 89.4632 689.049 88.5621 688.206 87.8935C687.392 87.2249 686.433 86.7453 685.328 86.4546C684.253 86.1639 683.134 86.0186 681.971 86.0186H676.215V79.4782H682.232C685.575 79.4782 688.468 80.1032 690.909 81.3531C693.351 82.603 695.241 84.3617 696.578 86.629C697.915 88.8963 698.583 91.5997 698.583 94.7391C698.583 97.8494 697.915 100.553 696.578 102.849C695.241 105.117 693.351 106.875 690.909 108.125C688.468 109.375 685.575 110 682.232 110ZM712.859 110.436C710.533 110.436 708.513 110.015 706.798 109.172C705.112 108.299 703.804 107.079 702.874 105.509C701.944 103.939 701.479 102.093 701.479 99.9714C701.479 97.8203 701.929 95.96 702.83 94.3903C703.731 92.8206 705.025 91.6142 706.711 90.7713C708.426 89.9283 710.446 89.5068 712.772 89.5068C715.097 89.5068 717.059 89.9137 718.658 90.7277C720.257 91.5125 721.478 92.6607 722.321 94.1723C723.164 95.6838 723.585 97.5151 723.585 99.6662C723.585 99.9859 723.585 100.306 723.585 100.625C723.585 100.916 723.556 101.163 723.498 101.367H705.185V97.7041H717.568L715.998 99.7098C716.144 99.5063 716.26 99.2592 716.347 98.9685C716.463 98.6488 716.521 98.3872 716.521 98.1837C716.521 97.3116 716.362 96.5559 716.042 95.9164C715.722 95.2769 715.271 94.7827 714.69 94.4339C714.109 94.0851 713.426 93.9106 712.641 93.9106C711.652 93.9106 710.824 94.1287 710.155 94.5647C709.487 95.0007 708.978 95.6693 708.629 96.5704C708.31 97.4425 708.135 98.5471 708.106 99.8842C708.106 101.105 708.281 102.152 708.629 103.024C708.978 103.896 709.501 104.564 710.199 105.029C710.897 105.465 711.754 105.683 712.772 105.683C713.934 105.683 714.923 105.465 715.737 105.029C716.58 104.593 717.248 103.939 717.742 103.067L723.629 104.506C722.582 106.483 721.158 107.965 719.356 108.954C717.582 109.942 715.417 110.436 712.859 110.436ZM728.741 102.718C729.758 103.561 730.674 104.23 731.488 104.724C732.331 105.189 733.072 105.523 733.711 105.727C734.351 105.901 734.903 105.989 735.368 105.989C736.037 105.989 736.531 105.843 736.851 105.553C737.171 105.262 737.33 104.884 737.33 104.419C737.33 103.983 737.2 103.619 736.938 103.329C736.676 103.009 736.226 102.704 735.586 102.413C734.976 102.122 734.133 101.817 733.057 101.497C732.098 101.149 731.182 100.742 730.31 100.277C729.467 99.7825 728.77 99.1284 728.217 98.3145C727.665 97.5006 727.389 96.4541 727.389 95.1751C727.389 93.9542 727.709 92.9223 728.348 92.0793C729.017 91.2363 729.903 90.5968 731.008 90.1608C732.142 89.7248 733.435 89.5068 734.889 89.5068C736.051 89.5068 737.127 89.6376 738.115 89.8992C739.133 90.1608 740.077 90.5096 740.949 90.9457C741.851 91.3817 742.694 91.8904 743.478 92.4718L741.124 96.7448C740.281 95.96 739.322 95.3205 738.246 94.8263C737.171 94.3031 736.182 94.0414 735.281 94.0414C734.671 94.0414 734.206 94.1577 733.886 94.3903C733.595 94.6228 733.45 94.928 733.45 95.3059C733.45 95.742 733.624 96.1053 733.973 96.396C734.351 96.6867 734.874 96.9628 735.543 97.2244C736.24 97.457 737.083 97.7622 738.072 98.1401C739.118 98.518 740.077 98.954 740.949 99.4482C741.851 99.9423 742.563 100.567 743.086 101.323C743.638 102.079 743.914 103.082 743.914 104.332C743.914 106.483 743.246 108.111 741.909 109.215C740.601 110.291 738.755 110.828 736.371 110.828C734.918 110.828 733.566 110.654 732.316 110.305C731.095 109.985 729.962 109.549 728.915 108.997C727.869 108.416 726.895 107.776 725.994 107.079L728.741 102.718ZM747.143 82.3996C747.143 81.3531 747.521 80.5101 748.277 79.8706C749.033 79.202 749.934 78.8677 750.98 78.8677C752.056 78.8677 752.957 79.202 753.684 79.8706C754.44 80.5101 754.817 81.3531 754.817 82.3996C754.817 83.446 754.44 84.3035 753.684 84.9721C752.957 85.6407 752.056 85.975 750.98 85.975C749.934 85.975 749.033 85.6407 748.277 84.9721C747.521 84.3035 747.143 83.446 747.143 82.3996ZM747.797 89.9428H754.163V110H747.797V89.9428ZM758.845 111.439H765.211C765.298 112.253 765.531 112.936 765.909 113.488C766.315 114.041 766.853 114.447 767.522 114.709C768.19 115 768.946 115.145 769.789 115.145C770.719 115.145 771.562 114.927 772.318 114.491C773.074 114.084 773.67 113.459 774.106 112.616C774.571 111.802 774.803 110.785 774.803 109.564V89.9428H781.126V109.564C781.126 112.122 780.617 114.2 779.6 115.799C778.611 117.398 777.289 118.561 775.632 119.287C773.975 120.043 772.115 120.421 770.051 120.421C767.58 120.421 765.531 120.043 763.903 119.287C762.304 118.532 761.098 117.471 760.284 116.104C759.47 114.767 758.99 113.212 758.845 111.439ZM758.409 99.7098C758.409 97.4425 758.859 95.553 759.761 94.0414C760.691 92.5299 761.883 91.3962 763.336 90.6404C764.789 89.8847 766.33 89.5068 767.958 89.5068C769.644 89.5068 771.126 89.9137 772.405 90.7277C773.713 91.5125 774.745 92.6607 775.501 94.1723C776.257 95.6838 776.635 97.5297 776.635 99.7098C776.635 101.861 776.257 103.707 775.501 105.247C774.745 106.759 773.713 107.922 772.405 108.736C771.126 109.52 769.644 109.913 767.958 109.913C766.33 109.913 764.789 109.535 763.336 108.779C761.883 107.994 760.691 106.846 759.761 105.335C758.859 103.823 758.409 101.948 758.409 99.7098ZM765.342 99.7098C765.342 100.727 765.56 101.614 765.996 102.37C766.432 103.096 767.013 103.649 767.74 104.026C768.467 104.404 769.266 104.593 770.138 104.593C770.894 104.593 771.62 104.419 772.318 104.07C773.045 103.692 773.641 103.14 774.106 102.413C774.571 101.686 774.803 100.785 774.803 99.7098C774.803 98.8959 774.658 98.1837 774.367 97.5733C774.106 96.9628 773.742 96.4541 773.277 96.0472C772.841 95.6402 772.347 95.335 771.795 95.1315C771.243 94.928 770.69 94.8263 770.138 94.8263C769.266 94.8263 768.467 95.0152 767.74 95.3931C767.013 95.771 766.432 96.3233 765.996 97.05C765.56 97.7767 765.342 98.6633 765.342 99.7098ZM799.236 97.7913C799.236 96.5995 799.004 95.6838 798.539 95.0443C798.103 94.4048 797.361 94.0851 796.315 94.0851C795.617 94.0851 795.007 94.2304 794.484 94.5211C793.96 94.8118 793.553 95.2333 793.263 95.7856C792.972 96.3379 792.827 97.0064 792.827 97.7913V110H786.199V89.9428H792.827V92.9514C793.408 91.8468 794.193 90.9893 795.181 90.3788C796.199 89.7684 797.449 89.4632 798.931 89.4632C801.431 89.4632 803.248 90.1317 804.381 91.4689C805.515 92.806 806.082 94.681 806.082 97.0936V110H799.236V97.7913Z"/><defs><linearGradient id="paint0_linear_465_154" x1="0" x2="1290.5" y1="489.955" y2="489.992" gradientUnits="userSpaceOnUse"><stop stop-color="#fff"/><stop offset="1" stop-color="#fff" stop-opacity="0"/></linearGradient></defs></svg>