<svg width="1096" height="632" viewBox="0 0 1096 632" fill="none" xmlns="http://www.w3.org/2000/svg">
<path d="M322.976 23.0622V16.4782H347.131V23.0622H338.716V47H331.347V23.0622H322.976ZM356.443 12.99V47H349.815V12.99H356.443ZM362.852 34.7913C362.852 33.5995 362.634 32.6838 362.198 32.0443C361.762 31.4048 361.006 31.0851 359.931 31.0851C359.233 31.0851 358.623 31.2449 358.1 31.5647C357.576 31.8554 357.169 32.2769 356.879 32.8292C356.588 33.3524 356.443 34.0064 356.443 34.7913H355.309C355.309 33.1925 355.571 31.7536 356.094 30.4746C356.617 29.1665 357.402 28.1346 358.448 27.3788C359.524 26.594 360.89 26.2016 362.547 26.2016C364.204 26.2016 365.527 26.4922 366.515 27.0736C367.532 27.655 368.273 28.5125 368.739 29.6462C369.204 30.7798 369.436 32.1751 369.436 33.832V47H362.852V34.7913ZM384.843 47.436C382.517 47.436 380.497 47.0145 378.782 46.1716C377.096 45.2995 375.788 44.0786 374.858 42.5089C373.927 40.9392 373.462 39.0934 373.462 36.9714C373.462 34.8203 373.913 32.96 374.814 31.3903C375.715 29.8206 377.009 28.6142 378.695 27.7713C380.41 26.9283 382.43 26.5068 384.755 26.5068C387.081 26.5068 389.043 26.9137 390.642 27.7277C392.241 28.5125 393.461 29.6607 394.304 31.1723C395.147 32.6838 395.569 34.5151 395.569 36.6662C395.569 36.9859 395.569 37.3057 395.569 37.6254C395.569 37.9161 395.54 38.1632 395.482 38.3667H377.169V34.7041H389.552L387.982 36.7098C388.127 36.5063 388.244 36.2592 388.331 35.9685C388.447 35.6488 388.505 35.3872 388.505 35.1837C388.505 34.3116 388.345 33.5559 388.026 32.9164C387.706 32.2769 387.255 31.7827 386.674 31.4339C386.093 31.0851 385.409 30.9106 384.625 30.9106C383.636 30.9106 382.808 31.1287 382.139 31.5647C381.471 32.0007 380.962 32.6693 380.613 33.5704C380.293 34.4425 380.119 35.5471 380.09 36.8842C380.09 38.1051 380.264 39.1515 380.613 40.0236C380.962 40.8956 381.485 41.5642 382.183 42.0293C382.88 42.4653 383.738 42.6833 384.755 42.6833C385.918 42.6833 386.906 42.4653 387.72 42.0293C388.563 41.5933 389.232 40.9392 389.726 40.0672L395.612 41.5061C394.566 43.4827 393.142 44.9652 391.339 45.9535C389.566 46.9419 387.401 47.436 384.843 47.436ZM419.247 56.5926H412.663V26.9428H419.247V56.5926ZM435.642 36.9714C435.642 39.2969 435.177 41.259 434.246 42.8578C433.345 44.4565 432.168 45.6629 430.715 46.4768C429.29 47.2907 427.75 47.6976 426.093 47.6976C424.349 47.6976 422.837 47.2616 421.558 46.3896C420.308 45.4884 419.349 44.2385 418.68 42.6397C418.012 41.0119 417.677 39.1225 417.677 36.9714C417.677 34.7913 418.012 32.9018 418.68 31.3031C419.349 29.7043 420.308 28.4689 421.558 27.5968C422.837 26.6957 424.349 26.2452 426.093 26.2452C427.75 26.2452 429.29 26.6521 430.715 27.466C432.168 28.28 433.345 29.4863 434.246 31.0851C435.177 32.6547 435.642 34.6169 435.642 36.9714ZM428.709 36.9714C428.709 35.9249 428.491 35.0384 428.055 34.3116C427.619 33.5849 427.037 33.0326 426.311 32.6547C425.584 32.2769 424.785 32.0879 423.913 32.0879C423.157 32.0879 422.416 32.2769 421.689 32.6547C420.991 33.0036 420.41 33.5413 419.945 34.268C419.48 34.9948 419.247 35.8959 419.247 36.9714C419.247 38.0469 419.48 38.9481 419.945 39.6748C420.41 40.4015 420.991 40.9538 421.689 41.3317C422.416 41.6805 423.157 41.8549 423.913 41.8549C424.785 41.8549 425.584 41.6659 426.311 41.2881C427.037 40.9102 427.619 40.3579 428.055 39.6312C428.491 38.9045 428.709 38.0179 428.709 36.9714ZM446.114 26.9428V47H439.618V26.9428H446.114ZM451.914 33.7448C451.565 33.396 451.187 33.1198 450.78 32.9164C450.402 32.7129 449.922 32.6111 449.341 32.6111C448.702 32.6111 448.135 32.7856 447.641 33.1344C447.146 33.4832 446.768 33.9919 446.507 34.6605C446.245 35.329 446.114 36.143 446.114 37.1022L444.545 34.7913C444.545 33.1925 444.85 31.7682 445.46 30.5182C446.1 29.2683 446.928 28.28 447.946 27.5532C448.963 26.8265 450.024 26.4632 451.129 26.4632C451.855 26.4632 452.553 26.6085 453.222 26.8992C453.89 27.1899 454.399 27.5968 454.748 28.1201L451.914 33.7448ZM455.728 36.9714C455.728 34.8494 456.222 33.0036 457.211 31.4339C458.199 29.8642 459.565 28.6433 461.309 27.7713C463.053 26.8992 465.016 26.4632 467.196 26.4632C469.376 26.4632 471.323 26.8992 473.038 27.7713C474.782 28.6433 476.149 29.8642 477.137 31.4339C478.154 33.0036 478.663 34.8494 478.663 36.9714C478.663 39.0643 478.154 40.8956 477.137 42.4653C476.149 44.035 474.782 45.2559 473.038 46.1279C471.323 47 469.376 47.436 467.196 47.436C465.016 47.436 463.053 47 461.309 46.1279C459.565 45.2559 458.199 44.035 457.211 42.4653C456.222 40.8956 455.728 39.0643 455.728 36.9714ZM462.487 36.9714C462.487 38.0179 462.705 38.919 463.141 39.6748C463.577 40.4015 464.143 40.9683 464.841 41.3753C465.539 41.7822 466.324 41.9857 467.196 41.9857C468.039 41.9857 468.809 41.7822 469.507 41.3753C470.233 40.9683 470.8 40.4015 471.207 39.6748C471.643 38.919 471.861 38.0179 471.861 36.9714C471.861 35.9249 471.643 35.0238 471.207 34.268C470.8 33.5123 470.233 32.9309 469.507 32.5239C468.809 32.117 468.039 31.9135 467.196 31.9135C466.324 31.9135 465.539 32.117 464.841 32.5239C464.143 32.9309 463.577 33.5123 463.141 34.268C462.705 35.0238 462.487 35.9249 462.487 36.9714ZM488.162 36.9714C488.162 38.0469 488.394 38.9771 488.859 39.762C489.324 40.5177 489.964 41.1136 490.778 41.5497C491.621 41.9857 492.522 42.2037 493.481 42.2037C494.295 42.2037 495.065 42.0874 495.792 41.8549C496.548 41.5933 497.231 41.2445 497.841 40.8084C498.481 40.3724 499.004 39.8346 499.411 39.1951V45.6047C498.714 46.157 497.841 46.6076 496.795 46.9564C495.749 47.2761 494.47 47.436 492.958 47.436C490.749 47.436 488.758 47 486.984 46.1279C485.24 45.2559 483.86 44.035 482.842 42.4653C481.854 40.8956 481.36 39.0643 481.36 36.9714C481.36 34.8494 481.854 33.0181 482.842 31.4775C483.86 29.9078 485.24 28.6869 486.984 27.8149C488.758 26.9428 490.749 26.5068 492.958 26.5068C494.47 26.5068 495.749 26.6812 496.795 27.03C497.841 27.3498 498.714 27.7567 499.411 28.2509V34.7041C499.004 34.0646 498.466 33.5268 497.798 33.0908C497.158 32.6547 496.461 32.3205 495.705 32.0879C494.949 31.8554 494.208 31.7391 493.481 31.7391C492.522 31.7391 491.621 31.9716 490.778 32.4367C489.964 32.9018 489.324 33.5268 488.859 34.3116C488.394 35.0965 488.162 35.9831 488.162 36.9714ZM514.373 47.436C512.048 47.436 510.027 47.0145 508.312 46.1716C506.626 45.2995 505.318 44.0786 504.388 42.5089C503.458 40.9392 502.993 39.0934 502.993 36.9714C502.993 34.8203 503.443 32.96 504.344 31.3903C505.245 29.8206 506.539 28.6142 508.225 27.7713C509.94 26.9283 511.96 26.5068 514.286 26.5068C516.611 26.5068 518.573 26.9137 520.172 27.7277C521.771 28.5125 522.992 29.6607 523.835 31.1723C524.678 32.6838 525.099 34.5151 525.099 36.6662C525.099 36.9859 525.099 37.3057 525.099 37.6254C525.099 37.9161 525.07 38.1632 525.012 38.3667H506.699V34.7041H519.082L517.512 36.7098C517.658 36.5063 517.774 36.2592 517.861 35.9685C517.977 35.6488 518.036 35.3872 518.036 35.1837C518.036 34.3116 517.876 33.5559 517.556 32.9164C517.236 32.2769 516.786 31.7827 516.204 31.4339C515.623 31.0851 514.94 30.9106 514.155 30.9106C513.167 30.9106 512.338 31.1287 511.67 31.5647C511.001 32.0007 510.492 32.6693 510.144 33.5704C509.824 34.4425 509.649 35.5471 509.62 36.8842C509.62 38.1051 509.795 39.1515 510.144 40.0236C510.492 40.8956 511.016 41.5642 511.713 42.0293C512.411 42.4653 513.268 42.6833 514.286 42.6833C515.449 42.6833 516.437 42.4653 517.251 42.0293C518.094 41.5933 518.762 40.9392 519.256 40.0672L525.143 41.5061C524.096 43.4827 522.672 44.9652 520.87 45.9535C519.097 46.9419 516.931 47.436 514.373 47.436ZM530.255 39.7184C531.272 40.5613 532.188 41.2299 533.002 41.7241C533.845 42.1892 534.586 42.5235 535.226 42.7269C535.865 42.9014 536.417 42.9886 536.882 42.9886C537.551 42.9886 538.045 42.8432 538.365 42.5525C538.685 42.2619 538.845 41.884 538.845 41.4189C538.845 40.9828 538.714 40.6195 538.452 40.3288C538.191 40.0091 537.74 39.7038 537.1 39.4131C536.49 39.1225 535.647 38.8172 534.572 38.4975C533.612 38.1487 532.697 37.7417 531.825 37.2766C530.982 36.7825 530.284 36.1284 529.732 35.3145C529.179 34.5006 528.903 33.4541 528.903 32.1751C528.903 30.9542 529.223 29.9223 529.862 29.0793C530.531 28.2363 531.418 27.5968 532.522 27.1608C533.656 26.7248 534.949 26.5068 536.403 26.5068C537.566 26.5068 538.641 26.6376 539.629 26.8992C540.647 27.1608 541.592 27.5096 542.464 27.9457C543.365 28.3817 544.208 28.8904 544.993 29.4718L542.638 33.7448C541.795 32.96 540.836 32.3205 539.76 31.8263C538.685 31.3031 537.696 31.0414 536.795 31.0414C536.185 31.0414 535.72 31.1577 535.4 31.3903C535.109 31.6228 534.964 31.928 534.964 32.3059C534.964 32.742 535.138 33.1053 535.487 33.396C535.865 33.6867 536.388 33.9628 537.057 34.2244C537.755 34.457 538.598 34.7622 539.586 35.1401C540.632 35.518 541.592 35.954 542.464 36.4482C543.365 36.9423 544.077 37.5673 544.6 38.3231C545.152 39.0789 545.429 40.0817 545.429 41.3317C545.429 43.4827 544.76 45.1106 543.423 46.2152C542.115 47.2907 540.269 47.8284 537.885 47.8284C536.432 47.8284 535.08 47.654 533.83 47.3052C532.609 46.9855 531.476 46.5494 530.429 45.9971C529.383 45.4158 528.409 44.7763 527.508 44.0786L530.255 39.7184ZM550.14 39.7184C551.157 40.5613 552.073 41.2299 552.887 41.7241C553.73 42.1892 554.471 42.5235 555.111 42.7269C555.75 42.9014 556.303 42.9886 556.768 42.9886C557.436 42.9886 557.93 42.8432 558.25 42.5525C558.57 42.2619 558.73 41.884 558.73 41.4189C558.73 40.9828 558.599 40.6195 558.337 40.3288C558.076 40.0091 557.625 39.7038 556.986 39.4131C556.375 39.1225 555.532 38.8172 554.457 38.4975C553.497 38.1487 552.582 37.7417 551.71 37.2766C550.867 36.7825 550.169 36.1284 549.617 35.3145C549.065 34.5006 548.788 33.4541 548.788 32.1751C548.788 30.9542 549.108 29.9223 549.748 29.0793C550.416 28.2363 551.303 27.5968 552.407 27.1608C553.541 26.7248 554.835 26.5068 556.288 26.5068C557.451 26.5068 558.526 26.6376 559.515 26.8992C560.532 27.1608 561.477 27.5096 562.349 27.9457C563.25 28.3817 564.093 28.8904 564.878 29.4718L562.523 33.7448C561.68 32.96 560.721 32.3205 559.645 31.8263C558.57 31.3031 557.582 31.0414 556.68 31.0414C556.07 31.0414 555.605 31.1577 555.285 31.3903C554.994 31.6228 554.849 31.928 554.849 32.3059C554.849 32.742 555.024 33.1053 555.372 33.396C555.75 33.6867 556.273 33.9628 556.942 34.2244C557.64 34.457 558.483 34.7622 559.471 35.1401C560.517 35.518 561.477 35.954 562.349 36.4482C563.25 36.9423 563.962 37.5673 564.485 38.3231C565.038 39.0789 565.314 40.0817 565.314 41.3317C565.314 43.4827 564.645 45.1106 563.308 46.2152C562 47.2907 560.154 47.8284 557.77 47.8284C556.317 47.8284 554.965 47.654 553.715 47.3052C552.495 46.9855 551.361 46.5494 550.314 45.9971C549.268 45.4158 548.294 44.7763 547.393 44.0786L550.14 39.7184ZM580.83 36.9714C580.83 34.8494 581.324 33.0036 582.313 31.4339C583.301 29.8642 584.667 28.6433 586.411 27.7713C588.155 26.8992 590.117 26.4632 592.298 26.4632C594.478 26.4632 596.425 26.8992 598.14 27.7713C599.884 28.6433 601.251 29.8642 602.239 31.4339C603.256 33.0036 603.765 34.8494 603.765 36.9714C603.765 39.0643 603.256 40.8956 602.239 42.4653C601.251 44.035 599.884 45.2559 598.14 46.1279C596.425 47 594.478 47.436 592.298 47.436C590.117 47.436 588.155 47 586.411 46.1279C584.667 45.2559 583.301 44.035 582.313 42.4653C581.324 40.8956 580.83 39.0643 580.83 36.9714ZM587.589 36.9714C587.589 38.0179 587.807 38.919 588.243 39.6748C588.679 40.4015 589.245 40.9683 589.943 41.3753C590.641 41.7822 591.426 41.9857 592.298 41.9857C593.141 41.9857 593.911 41.7822 594.609 41.3753C595.335 40.9683 595.902 40.4015 596.309 39.6748C596.745 38.919 596.963 38.0179 596.963 36.9714C596.963 35.9249 596.745 35.0238 596.309 34.268C595.902 33.5123 595.335 32.9309 594.609 32.5239C593.911 32.117 593.141 31.9135 592.298 31.9135C591.426 31.9135 590.641 32.117 589.943 32.5239C589.245 32.9309 588.679 33.5123 588.243 34.268C587.807 35.0238 587.589 35.9249 587.589 36.9714ZM605.938 26.9428H619.63V32.3931H605.938V26.9428ZM618.888 19.3123C618.598 18.9345 618.278 18.6583 617.929 18.4839C617.609 18.3095 617.261 18.2223 616.883 18.2223C616.447 18.2223 616.069 18.324 615.749 18.5275C615.458 18.731 615.226 19.0507 615.051 19.4868C614.877 19.9228 614.79 20.4896 614.79 21.1873V47H608.467V19.5304C608.467 18.0188 608.744 16.7253 609.296 15.6497C609.877 14.5742 610.72 13.7458 611.825 13.1644C612.958 12.583 614.354 12.2923 616.011 12.2923C617.028 12.2923 617.886 12.4231 618.583 12.6848C619.281 12.9173 619.877 13.208 620.371 13.5568C620.865 13.8766 621.257 14.1818 621.548 14.4725L618.888 19.3123ZM644.289 31.4339L642.458 47H634.697L639.624 14.9521L652.617 33.5704L665.655 14.9521L670.582 47H662.82L660.989 31.4339L652.617 44.1658L644.289 31.4339ZM674.228 19.3996C674.228 18.3531 674.606 17.5101 675.362 16.8706C676.117 16.202 677.018 15.8677 678.065 15.8677C679.14 15.8677 680.042 16.202 680.768 16.8706C681.524 17.5101 681.902 18.3531 681.902 19.3996C681.902 20.446 681.524 21.3035 680.768 21.9721C680.042 22.6407 679.14 22.975 678.065 22.975C677.018 22.975 676.117 22.6407 675.362 21.9721C674.606 21.3035 674.228 20.446 674.228 19.3996ZM674.882 26.9428H681.248V47H674.882V26.9428ZM699.708 34.7913C699.708 33.5995 699.475 32.6838 699.01 32.0443C698.574 31.4048 697.833 31.0851 696.786 31.0851C696.089 31.0851 695.478 31.2304 694.955 31.5211C694.432 31.8118 694.025 32.2333 693.734 32.7856C693.444 33.3379 693.298 34.0064 693.298 34.7913V47H686.671V26.9428H693.298V29.9514C693.88 28.8468 694.664 27.9893 695.653 27.3788C696.67 26.7684 697.92 26.4632 699.403 26.4632C701.903 26.4632 703.719 27.1317 704.853 28.4689C705.987 29.806 706.553 31.681 706.553 34.0936V47H699.708V34.7913ZM721.954 47.436C719.628 47.436 717.608 47.0145 715.893 46.1716C714.207 45.2995 712.899 44.0786 711.969 42.5089C711.039 40.9392 710.573 39.0934 710.573 36.9714C710.573 34.8203 711.024 32.96 711.925 31.3903C712.826 29.8206 714.12 28.6142 715.806 27.7713C717.521 26.9283 719.541 26.5068 721.866 26.5068C724.192 26.5068 726.154 26.9137 727.753 27.7277C729.352 28.5125 730.572 29.6607 731.415 31.1723C732.258 32.6838 732.68 34.5151 732.68 36.6662C732.68 36.9859 732.68 37.3057 732.68 37.6254C732.68 37.9161 732.651 38.1632 732.593 38.3667H714.28V34.7041H726.663L725.093 36.7098C725.238 36.5063 725.355 36.2592 725.442 35.9685C725.558 35.6488 725.616 35.3872 725.616 35.1837C725.616 34.3116 725.456 33.5559 725.137 32.9164C724.817 32.2769 724.366 31.7827 723.785 31.4339C723.204 31.0851 722.521 30.9106 721.736 30.9106C720.747 30.9106 719.919 31.1287 719.25 31.5647C718.582 32.0007 718.073 32.6693 717.724 33.5704C717.404 34.4425 717.23 35.5471 717.201 36.8842C717.201 38.1051 717.375 39.1515 717.724 40.0236C718.073 40.8956 718.596 41.5642 719.294 42.0293C719.992 42.4653 720.849 42.6833 721.866 42.6833C723.029 42.6833 724.018 42.4653 724.831 42.0293C725.674 41.5933 726.343 40.9392 726.837 40.0672L732.724 41.5061C731.677 43.4827 730.253 44.9652 728.45 45.9535C726.677 46.9419 724.512 47.436 721.954 47.436ZM737.388 16.4782H744.233L739.742 27.5968H735.033L737.388 16.4782ZM765.078 12.99H771.662V47H765.078V12.99ZM748.683 36.9714C748.683 34.7041 749.134 32.8001 750.035 31.2595C750.965 29.7188 752.157 28.5416 753.61 27.7277C755.064 26.9137 756.604 26.5068 758.232 26.5068C759.918 26.5068 761.401 26.9283 762.68 27.7713C763.988 28.6142 765.02 29.8206 765.775 31.3903C766.531 32.9309 766.909 34.7913 766.909 36.9714C766.909 39.1225 766.531 40.9828 765.775 42.5525C765.02 44.1222 763.988 45.3286 762.68 46.1716C761.401 47.0145 759.918 47.436 758.232 47.436C756.604 47.436 755.064 47.0291 753.61 46.2152C752.157 45.4012 750.965 44.224 750.035 42.6833C749.134 41.1136 748.683 39.2097 748.683 36.9714ZM755.616 36.9714C755.616 38.0179 755.834 38.9335 756.27 39.7184C756.706 40.4741 757.287 41.07 758.014 41.5061C758.741 41.913 759.54 42.1165 760.412 42.1165C761.168 42.1165 761.895 41.913 762.592 41.5061C763.319 41.0991 763.915 40.5177 764.38 39.762C764.845 38.9771 765.078 38.0469 765.078 36.9714C765.078 35.8959 764.845 34.9802 764.38 34.2244C763.915 33.4396 763.319 32.8437 762.592 32.4367C761.895 32.0298 761.168 31.8263 760.412 31.8263C759.54 31.8263 758.741 32.0443 758.014 32.4803C757.287 32.8873 756.706 33.4832 756.27 34.268C755.834 35.0238 755.616 35.9249 755.616 36.9714ZM396.52 79.4782H403.889V110H396.52V79.4782ZM401.142 85.5389V79.4782H407.116C409.703 79.4782 411.868 79.8851 413.612 80.6991C415.385 81.4839 416.723 82.6176 417.624 84.1001C418.525 85.5825 418.975 87.3703 418.975 89.4632C418.975 91.498 418.525 93.2711 417.624 94.7827C416.723 96.2652 415.385 97.4134 413.612 98.2273C411.868 99.0121 409.703 99.4046 407.116 99.4046H401.142V93.3438H407.116C408.598 93.3438 409.761 93.0095 410.604 92.3409C411.447 91.6724 411.868 90.7131 411.868 89.4632C411.868 88.1842 411.447 87.2104 410.604 86.5418C409.761 85.8732 408.598 85.5389 407.116 85.5389H401.142ZM428.678 89.9428V110H422.181V89.9428H428.678ZM434.477 96.7448C434.128 96.396 433.75 96.1198 433.343 95.9164C432.965 95.7129 432.486 95.6111 431.904 95.6111C431.265 95.6111 430.698 95.7856 430.204 96.1344C429.71 96.4832 429.332 96.9919 429.07 97.6605C428.808 98.329 428.678 99.143 428.678 100.102L427.108 97.7913C427.108 96.1925 427.413 94.7682 428.024 93.5182C428.663 92.2683 429.492 91.28 430.509 90.5532C431.526 89.8265 432.587 89.4632 433.692 89.4632C434.419 89.4632 435.116 89.6085 435.785 89.8992C436.453 90.1899 436.962 90.5968 437.311 91.1201L434.477 96.7448ZM438.291 99.9714C438.291 97.8494 438.786 96.0036 439.774 94.4339C440.762 92.8642 442.128 91.6433 443.873 90.7713C445.617 89.8992 447.579 89.4632 449.759 89.4632C451.939 89.4632 453.887 89.8992 455.602 90.7713C457.346 91.6433 458.712 92.8642 459.7 94.4339C460.718 96.0036 461.226 97.8494 461.226 99.9714C461.226 102.064 460.718 103.896 459.7 105.465C458.712 107.035 457.346 108.256 455.602 109.128C453.887 110 451.939 110.436 449.759 110.436C447.579 110.436 445.617 110 443.873 109.128C442.128 108.256 440.762 107.035 439.774 105.465C438.786 103.896 438.291 102.064 438.291 99.9714ZM445.05 99.9714C445.05 101.018 445.268 101.919 445.704 102.675C446.14 103.401 446.707 103.968 447.404 104.375C448.102 104.782 448.887 104.986 449.759 104.986C450.602 104.986 451.372 104.782 452.07 104.375C452.797 103.968 453.363 103.401 453.77 102.675C454.206 101.919 454.424 101.018 454.424 99.9714C454.424 98.9249 454.206 98.0238 453.77 97.268C453.363 96.5123 452.797 95.9309 452.07 95.5239C451.372 95.117 450.602 94.9135 449.759 94.9135C448.887 94.9135 448.102 95.117 447.404 95.5239C446.707 95.9309 446.14 96.5123 445.704 97.268C445.268 98.0238 445.05 98.9249 445.05 99.9714ZM480.405 75.99H486.989V110H480.405V75.99ZM464.01 99.9714C464.01 97.7041 464.461 95.8001 465.362 94.2595C466.292 92.7188 467.484 91.5416 468.937 90.7277C470.391 89.9137 471.931 89.5068 473.559 89.5068C475.245 89.5068 476.728 89.9283 478.007 90.7713C479.315 91.6142 480.347 92.8206 481.102 94.3903C481.858 95.9309 482.236 97.7913 482.236 99.9714C482.236 102.122 481.858 103.983 481.102 105.553C480.347 107.122 479.315 108.329 478.007 109.172C476.728 110.015 475.245 110.436 473.559 110.436C471.931 110.436 470.391 110.029 468.937 109.215C467.484 108.401 466.292 107.224 465.362 105.683C464.461 104.114 464.01 102.21 464.01 99.9714ZM470.943 99.9714C470.943 101.018 471.161 101.934 471.597 102.718C472.033 103.474 472.614 104.07 473.341 104.506C474.068 104.913 474.867 105.117 475.739 105.117C476.495 105.117 477.222 104.913 477.919 104.506C478.646 104.099 479.242 103.518 479.707 102.762C480.172 101.977 480.405 101.047 480.405 99.9714C480.405 98.8959 480.172 97.9802 479.707 97.2244C479.242 96.4396 478.646 95.8437 477.919 95.4367C477.222 95.0298 476.495 94.8263 475.739 94.8263C474.867 94.8263 474.068 95.0443 473.341 95.4803C472.614 95.8873 472.033 96.4832 471.597 97.268C471.161 98.0238 470.943 98.9249 470.943 99.9714ZM498.988 102.152C498.988 103.314 499.206 104.23 499.642 104.898C500.078 105.538 500.833 105.858 501.909 105.858C502.636 105.858 503.246 105.712 503.74 105.422C504.263 105.131 504.67 104.71 504.961 104.157C505.252 103.605 505.397 102.936 505.397 102.152V89.9428H511.981V110H505.397V106.991C504.787 108.067 503.987 108.924 502.999 109.564C502.011 110.174 500.775 110.48 499.293 110.48C496.793 110.48 494.962 109.811 493.799 108.474C492.665 107.108 492.098 105.233 492.098 102.849V89.9428H498.988V102.152ZM522.716 99.9714C522.716 101.047 522.948 101.977 523.414 102.762C523.879 103.518 524.518 104.114 525.332 104.55C526.175 104.986 527.076 105.204 528.035 105.204C528.849 105.204 529.62 105.087 530.346 104.855C531.102 104.593 531.785 104.244 532.396 103.808C533.035 103.372 533.558 102.835 533.965 102.195V108.605C533.268 109.157 532.396 109.608 531.349 109.956C530.303 110.276 529.024 110.436 527.512 110.436C525.303 110.436 523.312 110 521.539 109.128C519.794 108.256 518.414 107.035 517.396 105.465C516.408 103.896 515.914 102.064 515.914 99.9714C515.914 97.8494 516.408 96.0181 517.396 94.4775C518.414 92.9078 519.794 91.6869 521.539 90.8149C523.312 89.9428 525.303 89.5068 527.512 89.5068C529.024 89.5068 530.303 89.6812 531.349 90.03C532.396 90.3498 533.268 90.7567 533.965 91.2509V97.7041C533.558 97.0646 533.021 96.5268 532.352 96.0908C531.713 95.6547 531.015 95.3205 530.259 95.0879C529.503 94.8554 528.762 94.7391 528.035 94.7391C527.076 94.7391 526.175 94.9716 525.332 95.4367C524.518 95.9018 523.879 96.5268 523.414 97.3116C522.948 98.0965 522.716 98.9831 522.716 99.9714ZM536.37 89.9428H549.799V95.3931H536.37V89.9428ZM539.901 82.9664H546.224V110H539.901V82.9664ZM566.332 79.4782H573.919V110H566.332V79.4782ZM577.232 110H571.215V103.46H576.971C578.134 103.46 579.253 103.314 580.328 103.024C581.433 102.733 582.392 102.253 583.206 101.585C584.049 100.916 584.718 100.03 585.212 98.9249C585.706 97.7913 585.953 96.396 585.953 94.7391C585.953 93.0822 585.706 91.7014 585.212 90.5968C584.718 89.4632 584.049 88.5621 583.206 87.8935C582.392 87.2249 581.433 86.7453 580.328 86.4546C579.253 86.1639 578.134 86.0186 576.971 86.0186H571.215V79.4782H577.232C580.575 79.4782 583.468 80.1032 585.909 81.3531C588.351 82.603 590.241 84.3617 591.578 86.629C592.915 88.8963 593.583 91.5997 593.583 94.7391C593.583 97.8494 592.915 100.553 591.578 102.849C590.241 105.117 588.351 106.875 585.909 108.125C583.468 109.375 580.575 110 577.232 110ZM607.859 110.436C605.533 110.436 603.513 110.015 601.798 109.172C600.112 108.299 598.804 107.079 597.874 105.509C596.944 103.939 596.479 102.093 596.479 99.9714C596.479 97.8203 596.929 95.96 597.83 94.3903C598.731 92.8206 600.025 91.6142 601.711 90.7713C603.426 89.9283 605.446 89.5068 607.772 89.5068C610.097 89.5068 612.059 89.9137 613.658 90.7277C615.257 91.5125 616.478 92.6607 617.321 94.1723C618.164 95.6838 618.585 97.5151 618.585 99.6662C618.585 99.9859 618.585 100.306 618.585 100.625C618.585 100.916 618.556 101.163 618.498 101.367H600.185V97.7041H612.568L610.998 99.7098C611.144 99.5063 611.26 99.2592 611.347 98.9685C611.463 98.6488 611.521 98.3872 611.521 98.1837C611.521 97.3116 611.362 96.5559 611.042 95.9164C610.722 95.2769 610.271 94.7827 609.69 94.4339C609.109 94.0851 608.426 93.9106 607.641 93.9106C606.652 93.9106 605.824 94.1287 605.155 94.5647C604.487 95.0007 603.978 95.6693 603.629 96.5704C603.31 97.4425 603.135 98.5471 603.106 99.8842C603.106 101.105 603.281 102.152 603.629 103.024C603.978 103.896 604.501 104.564 605.199 105.029C605.897 105.465 606.754 105.683 607.772 105.683C608.934 105.683 609.923 105.465 610.737 105.029C611.58 104.593 612.248 103.939 612.742 103.067L618.629 104.506C617.582 106.483 616.158 107.965 614.356 108.954C612.582 109.942 610.417 110.436 607.859 110.436ZM623.741 102.718C624.758 103.561 625.674 104.23 626.488 104.724C627.331 105.189 628.072 105.523 628.711 105.727C629.351 105.901 629.903 105.989 630.368 105.989C631.037 105.989 631.531 105.843 631.851 105.553C632.171 105.262 632.33 104.884 632.33 104.419C632.33 103.983 632.2 103.619 631.938 103.329C631.676 103.009 631.226 102.704 630.586 102.413C629.976 102.122 629.133 101.817 628.057 101.497C627.098 101.149 626.182 100.742 625.31 100.277C624.467 99.7825 623.77 99.1284 623.217 98.3145C622.665 97.5006 622.389 96.4541 622.389 95.1751C622.389 93.9542 622.709 92.9223 623.348 92.0793C624.017 91.2363 624.903 90.5968 626.008 90.1608C627.142 89.7248 628.435 89.5068 629.889 89.5068C631.051 89.5068 632.127 89.6376 633.115 89.8992C634.133 90.1608 635.077 90.5096 635.949 90.9457C636.851 91.3817 637.694 91.8904 638.478 92.4718L636.124 96.7448C635.281 95.96 634.322 95.3205 633.246 94.8263C632.171 94.3031 631.182 94.0414 630.281 94.0414C629.671 94.0414 629.206 94.1577 628.886 94.3903C628.595 94.6228 628.45 94.928 628.45 95.3059C628.45 95.742 628.624 96.1053 628.973 96.396C629.351 96.6867 629.874 96.9628 630.543 97.2244C631.24 97.457 632.083 97.7622 633.072 98.1401C634.118 98.518 635.077 98.954 635.949 99.4482C636.851 99.9423 637.563 100.567 638.086 101.323C638.638 102.079 638.914 103.082 638.914 104.332C638.914 106.483 638.246 108.111 636.909 109.215C635.601 110.291 633.755 110.828 631.371 110.828C629.918 110.828 628.566 110.654 627.316 110.305C626.095 109.985 624.962 109.549 623.915 108.997C622.869 108.416 621.895 107.776 620.994 107.079L623.741 102.718ZM642.143 82.3996C642.143 81.3531 642.521 80.5101 643.277 79.8706C644.033 79.202 644.934 78.8677 645.98 78.8677C647.056 78.8677 647.957 79.202 648.684 79.8706C649.44 80.5101 649.817 81.3531 649.817 82.3996C649.817 83.446 649.44 84.3035 648.684 84.9721C647.957 85.6407 647.056 85.975 645.98 85.975C644.934 85.975 644.033 85.6407 643.277 84.9721C642.521 84.3035 642.143 83.446 642.143 82.3996ZM642.797 89.9428H649.163V110H642.797V89.9428ZM653.845 111.439H660.211C660.298 112.253 660.531 112.936 660.909 113.488C661.315 114.041 661.853 114.447 662.522 114.709C663.19 115 663.946 115.145 664.789 115.145C665.719 115.145 666.562 114.927 667.318 114.491C668.074 114.084 668.67 113.459 669.106 112.616C669.571 111.802 669.803 110.785 669.803 109.564V89.9428H676.126V109.564C676.126 112.122 675.617 114.2 674.6 115.799C673.611 117.398 672.289 118.561 670.632 119.287C668.975 120.043 667.115 120.421 665.051 120.421C662.58 120.421 660.531 120.043 658.903 119.287C657.304 118.532 656.098 117.471 655.284 116.104C654.47 114.767 653.99 113.212 653.845 111.439ZM653.409 99.7098C653.409 97.4425 653.859 95.553 654.761 94.0414C655.691 92.5299 656.883 91.3962 658.336 90.6404C659.789 89.8847 661.33 89.5068 662.958 89.5068C664.644 89.5068 666.126 89.9137 667.405 90.7277C668.713 91.5125 669.745 92.6607 670.501 94.1723C671.257 95.6838 671.635 97.5297 671.635 99.7098C671.635 101.861 671.257 103.707 670.501 105.247C669.745 106.759 668.713 107.922 667.405 108.736C666.126 109.52 664.644 109.913 662.958 109.913C661.33 109.913 659.789 109.535 658.336 108.779C656.883 107.994 655.691 106.846 654.761 105.335C653.859 103.823 653.409 101.948 653.409 99.7098ZM660.342 99.7098C660.342 100.727 660.56 101.614 660.996 102.37C661.432 103.096 662.013 103.649 662.74 104.026C663.467 104.404 664.266 104.593 665.138 104.593C665.894 104.593 666.62 104.419 667.318 104.07C668.045 103.692 668.641 103.14 669.106 102.413C669.571 101.686 669.803 100.785 669.803 99.7098C669.803 98.8959 669.658 98.1837 669.367 97.5733C669.106 96.9628 668.742 96.4541 668.277 96.0472C667.841 95.6402 667.347 95.335 666.795 95.1315C666.243 94.928 665.69 94.8263 665.138 94.8263C664.266 94.8263 663.467 95.0152 662.74 95.3931C662.013 95.771 661.432 96.3233 660.996 97.05C660.56 97.7767 660.342 98.6633 660.342 99.7098ZM694.236 97.7913C694.236 96.5995 694.004 95.6838 693.539 95.0443C693.103 94.4048 692.361 94.0851 691.315 94.0851C690.617 94.0851 690.007 94.2304 689.484 94.5211C688.96 94.8118 688.553 95.2333 688.263 95.7856C687.972 96.3379 687.827 97.0064 687.827 97.7913V110H681.199V89.9428H687.827V92.9514C688.408 91.8468 689.193 90.9893 690.181 90.3788C691.199 89.7684 692.449 89.4632 693.931 89.4632C696.431 89.4632 698.248 90.1317 699.381 91.4689C700.515 92.806 701.082 94.681 701.082 97.0936V110H694.236V97.7913Z" fill="white"/>
<circle cx="170" cy="462" r="169.5" fill="#232323" stroke="#DDDEDE"/>
<circle cx="807" cy="473" r="152.5" fill="#041E68" stroke="#DDDEDE"/>
<circle cx="383" cy="470" r="112.5" fill="#232323" stroke="#DDDEDE"/>
<circle cx="1002" cy="469" r="93.5" fill="#232323" stroke="#DDDEDE"/>
<circle cx="572.5" cy="469.5" r="132" fill="#232323" stroke="#DDDEDE"/>
<path d="M131.629 461.21H133.773L139.418 469H137.047L131.629 461.21ZM128.806 453.195H130.725V469H128.806V453.195ZM129.867 454.889V453.195H133.096C134.12 453.195 135.03 453.391 135.828 453.782C136.641 454.159 137.281 454.7 137.747 455.408C138.229 456.115 138.47 456.958 138.47 457.937C138.47 458.9 138.229 459.743 137.747 460.465C137.281 461.173 136.641 461.722 135.828 462.114C135.03 462.49 134.12 462.678 133.096 462.678H129.867V460.985H133.096C133.773 460.985 134.368 460.864 134.88 460.623C135.407 460.383 135.813 460.036 136.099 459.585C136.4 459.133 136.551 458.584 136.551 457.937C136.551 457.289 136.4 456.74 136.099 456.288C135.813 455.837 135.407 455.491 134.88 455.25C134.368 455.009 133.773 454.889 133.096 454.889H129.867ZM145.346 469.226C144.383 469.226 143.525 469 142.773 468.548C142.035 468.082 141.455 467.442 141.034 466.629C140.628 465.816 140.424 464.876 140.424 463.807C140.424 462.723 140.635 461.775 141.057 460.962C141.493 460.149 142.095 459.517 142.863 459.066C143.646 458.614 144.549 458.388 145.572 458.388C146.596 458.388 147.469 458.606 148.191 459.043C148.929 459.464 149.493 460.074 149.885 460.872C150.276 461.67 150.472 462.618 150.472 463.717C150.472 463.822 150.464 463.935 150.449 464.055C150.449 464.161 150.449 464.228 150.449 464.259H141.576V462.723H149.027L148.304 463.762C148.349 463.687 148.395 463.574 148.44 463.423C148.485 463.258 148.507 463.122 148.507 463.017C148.507 462.4 148.379 461.865 148.124 461.414C147.883 460.962 147.544 460.608 147.108 460.353C146.671 460.097 146.159 459.969 145.572 459.969C144.88 459.969 144.285 460.119 143.789 460.42C143.307 460.706 142.931 461.128 142.66 461.685C142.404 462.227 142.268 462.896 142.253 463.694C142.253 464.507 142.381 465.199 142.637 465.771C142.893 466.343 143.269 466.78 143.766 467.081C144.263 467.382 144.865 467.532 145.572 467.532C146.28 467.532 146.904 467.382 147.446 467.081C147.988 466.765 148.447 466.291 148.823 465.658L150.291 466.584C149.749 467.457 149.064 468.119 148.236 468.571C147.424 469.008 146.46 469.226 145.346 469.226ZM153.376 465.816C153.587 466.133 153.828 466.426 154.099 466.697C154.37 466.968 154.678 467.186 155.025 467.352C155.386 467.502 155.777 467.578 156.199 467.578C156.71 467.578 157.109 467.465 157.395 467.239C157.696 466.998 157.847 466.674 157.847 466.268C157.847 465.907 157.726 465.606 157.486 465.365C157.26 465.109 156.966 464.898 156.605 464.733C156.244 464.552 155.86 464.387 155.454 464.236C155.002 464.055 154.543 463.845 154.076 463.604C153.625 463.348 153.241 463.024 152.925 462.633C152.624 462.227 152.473 461.722 152.473 461.12C152.473 460.503 152.631 459.991 152.947 459.585C153.279 459.178 153.7 458.877 154.212 458.682C154.739 458.486 155.28 458.388 155.837 458.388C156.394 458.388 156.914 458.479 157.395 458.659C157.892 458.84 158.329 459.081 158.705 459.382C159.081 459.683 159.375 460.029 159.585 460.42L158.14 461.346C157.854 460.955 157.493 460.631 157.057 460.375C156.635 460.119 156.153 459.991 155.612 459.991C155.235 459.991 154.912 460.074 154.641 460.24C154.37 460.405 154.234 460.661 154.234 461.007C154.234 461.278 154.34 461.519 154.55 461.73C154.761 461.941 155.032 462.129 155.363 462.294C155.694 462.46 156.041 462.618 156.402 462.768C157.004 463.009 157.553 463.273 158.05 463.559C158.547 463.83 158.938 464.161 159.224 464.552C159.525 464.943 159.676 465.448 159.676 466.065C159.676 466.968 159.345 467.721 158.682 468.323C158.035 468.925 157.177 469.226 156.108 469.226C155.416 469.226 154.791 469.105 154.234 468.865C153.677 468.609 153.203 468.285 152.812 467.894C152.436 467.502 152.15 467.103 151.954 466.697L153.376 465.816ZM166.073 469.226C165.109 469.226 164.251 469 163.499 468.548C162.761 468.082 162.182 467.442 161.76 466.629C161.354 465.816 161.151 464.876 161.151 463.807C161.151 462.723 161.361 461.775 161.783 460.962C162.219 460.149 162.821 459.517 163.589 459.066C164.372 458.614 165.275 458.388 166.298 458.388C167.322 458.388 168.195 458.606 168.917 459.043C169.655 459.464 170.219 460.074 170.611 460.872C171.002 461.67 171.198 462.618 171.198 463.717C171.198 463.822 171.19 463.935 171.175 464.055C171.175 464.161 171.175 464.228 171.175 464.259H162.302V462.723H169.753L169.03 463.762C169.075 463.687 169.121 463.574 169.166 463.423C169.211 463.258 169.234 463.122 169.234 463.017C169.234 462.4 169.106 461.865 168.85 461.414C168.609 460.962 168.27 460.608 167.834 460.353C167.397 460.097 166.885 459.969 166.298 459.969C165.606 459.969 165.011 460.119 164.515 460.42C164.033 460.706 163.657 461.128 163.386 461.685C163.13 462.227 162.994 462.896 162.979 463.694C162.979 464.507 163.107 465.199 163.363 465.771C163.619 466.343 163.995 466.78 164.492 467.081C164.989 467.382 165.591 467.532 166.298 467.532C167.006 467.532 167.63 467.382 168.172 467.081C168.714 466.765 169.173 466.291 169.55 465.658L171.017 466.584C170.475 467.457 169.79 468.119 168.963 468.571C168.15 469.008 167.186 469.226 166.073 469.226ZM174.486 465.794C174.486 466.185 174.577 466.524 174.757 466.81C174.953 467.096 175.216 467.314 175.548 467.465C175.894 467.6 176.285 467.668 176.722 467.668C177.279 467.668 177.775 467.555 178.212 467.329C178.663 467.103 179.017 466.787 179.273 466.381C179.544 465.959 179.679 465.478 179.679 464.936L180.041 466.291C180.041 466.953 179.837 467.502 179.431 467.939C179.04 468.375 178.55 468.699 177.963 468.91C177.391 469.12 176.819 469.226 176.247 469.226C175.615 469.226 175.021 469.098 174.464 468.842C173.922 468.571 173.485 468.187 173.154 467.69C172.823 467.194 172.657 466.592 172.657 465.884C172.657 464.876 173.011 464.07 173.719 463.468C174.441 462.851 175.442 462.543 176.722 462.543C177.474 462.543 178.099 462.633 178.596 462.814C179.107 462.979 179.514 463.175 179.815 463.401C180.116 463.611 180.319 463.784 180.424 463.92V464.981C179.898 464.62 179.356 464.364 178.799 464.213C178.242 464.048 177.647 463.965 177.015 463.965C176.428 463.965 175.946 464.04 175.57 464.191C175.209 464.341 174.938 464.552 174.757 464.823C174.577 465.094 174.486 465.418 174.486 465.794ZM174.215 461.007L173.335 459.675C173.726 459.389 174.261 459.103 174.938 458.817C175.63 458.531 176.458 458.388 177.422 458.388C178.234 458.388 178.942 458.516 179.544 458.772C180.161 459.013 180.635 459.367 180.966 459.833C181.313 460.3 181.486 460.872 181.486 461.549V469H179.679V461.798C179.679 461.436 179.619 461.143 179.499 460.917C179.378 460.676 179.205 460.488 178.979 460.353C178.769 460.217 178.52 460.119 178.234 460.059C177.948 459.999 177.647 459.969 177.331 459.969C176.819 459.969 176.353 460.029 175.931 460.149C175.525 460.27 175.179 460.413 174.893 460.578C174.607 460.744 174.381 460.887 174.215 461.007ZM186.35 458.614V469H184.544V458.614H186.35ZM189.488 460.601C189.248 460.42 189.029 460.292 188.834 460.217C188.638 460.127 188.39 460.082 188.089 460.082C187.637 460.082 187.283 460.194 187.027 460.42C186.771 460.646 186.591 460.955 186.485 461.346C186.395 461.737 186.35 462.181 186.35 462.678H185.537C185.537 461.85 185.68 461.12 185.966 460.488C186.267 459.841 186.651 459.329 187.118 458.953C187.584 458.576 188.058 458.388 188.54 458.388C188.916 458.388 189.263 458.441 189.579 458.546C189.91 458.637 190.211 458.825 190.482 459.111L189.488 460.601ZM192.765 463.807C192.765 464.53 192.916 465.169 193.217 465.726C193.533 466.283 193.954 466.727 194.481 467.058C195.023 467.374 195.632 467.532 196.31 467.532C196.867 467.532 197.386 467.45 197.868 467.284C198.364 467.103 198.793 466.87 199.155 466.584C199.516 466.283 199.772 465.967 199.922 465.636V467.894C199.561 468.315 199.042 468.646 198.364 468.887C197.702 469.113 197.017 469.226 196.31 469.226C195.301 469.226 194.391 468.992 193.578 468.526C192.765 468.059 192.118 467.42 191.636 466.607C191.17 465.779 190.936 464.846 190.936 463.807C190.936 462.753 191.17 461.82 191.636 461.007C192.118 460.194 192.765 459.555 193.578 459.088C194.391 458.622 195.301 458.388 196.31 458.388C197.017 458.388 197.702 458.509 198.364 458.749C199.042 458.975 199.561 459.299 199.922 459.72V461.978C199.772 461.632 199.516 461.316 199.155 461.03C198.793 460.744 198.364 460.518 197.868 460.353C197.386 460.172 196.867 460.082 196.31 460.082C195.632 460.082 195.023 460.24 194.481 460.556C193.954 460.872 193.533 461.316 193.217 461.888C192.916 462.445 192.765 463.084 192.765 463.807ZM204.54 451.389V469H202.734V451.389H204.54ZM209.395 462.678C209.395 461.82 209.207 461.173 208.83 460.736C208.469 460.3 207.92 460.082 207.182 460.082C206.655 460.082 206.189 460.194 205.782 460.42C205.391 460.646 205.082 460.955 204.857 461.346C204.646 461.737 204.54 462.181 204.54 462.678H203.953C203.953 461.85 204.112 461.12 204.428 460.488C204.744 459.841 205.173 459.329 205.715 458.953C206.271 458.576 206.911 458.388 207.634 458.388C208.356 458.388 208.981 458.539 209.508 458.84C210.05 459.141 210.464 459.592 210.75 460.194C211.051 460.797 211.201 461.549 211.201 462.452V469H209.395V462.678Z" fill="white"/>
<path d="M337.693 461.195H339.613V471.807C339.613 472.891 339.906 473.764 340.493 474.426C341.08 475.088 341.938 475.42 343.067 475.42C344.196 475.42 345.054 475.088 345.641 474.426C346.228 473.764 346.521 472.891 346.521 471.807V461.195H348.441V471.807C348.441 472.59 348.313 473.312 348.057 473.975C347.816 474.637 347.455 475.209 346.973 475.69C346.506 476.172 345.942 476.548 345.28 476.819C344.617 477.09 343.88 477.226 343.067 477.226C342.254 477.226 341.517 477.09 340.854 476.819C340.192 476.548 339.62 476.172 339.138 475.69C338.672 475.209 338.311 474.637 338.055 473.975C337.814 473.312 337.693 472.59 337.693 471.807V461.195ZM352.256 473.816C352.467 474.133 352.707 474.426 352.978 474.697C353.249 474.968 353.558 475.186 353.904 475.352C354.265 475.502 354.657 475.578 355.078 475.578C355.59 475.578 355.989 475.465 356.275 475.239C356.576 474.998 356.726 474.674 356.726 474.268C356.726 473.907 356.606 473.606 356.365 473.365C356.139 473.109 355.846 472.898 355.485 472.733C355.123 472.552 354.739 472.387 354.333 472.236C353.881 472.055 353.422 471.845 352.956 471.604C352.504 471.348 352.12 471.024 351.804 470.633C351.503 470.227 351.353 469.722 351.353 469.12C351.353 468.503 351.511 467.991 351.827 467.585C352.158 467.178 352.579 466.877 353.091 466.682C353.618 466.486 354.16 466.388 354.717 466.388C355.274 466.388 355.793 466.479 356.275 466.659C356.771 466.84 357.208 467.081 357.584 467.382C357.961 467.683 358.254 468.029 358.465 468.42L357.02 469.346C356.734 468.955 356.373 468.631 355.936 468.375C355.515 468.119 355.033 467.991 354.491 467.991C354.115 467.991 353.791 468.074 353.52 468.24C353.249 468.405 353.114 468.661 353.114 469.007C353.114 469.278 353.219 469.519 353.43 469.73C353.641 469.941 353.912 470.129 354.243 470.294C354.574 470.46 354.92 470.618 355.281 470.768C355.883 471.009 356.433 471.273 356.93 471.559C357.426 471.83 357.818 472.161 358.104 472.552C358.405 472.943 358.555 473.448 358.555 474.065C358.555 474.968 358.224 475.721 357.562 476.323C356.914 476.925 356.057 477.226 354.988 477.226C354.295 477.226 353.671 477.105 353.114 476.865C352.557 476.609 352.083 476.285 351.691 475.894C351.315 475.502 351.029 475.103 350.833 474.697L352.256 473.816ZM364.952 477.226C363.989 477.226 363.131 477 362.378 476.548C361.641 476.082 361.061 475.442 360.64 474.629C360.233 473.816 360.03 472.876 360.03 471.807C360.03 470.723 360.241 469.775 360.662 468.962C361.099 468.149 361.701 467.517 362.468 467.066C363.251 466.614 364.154 466.388 365.178 466.388C366.201 466.388 367.074 466.606 367.797 467.043C368.534 467.464 369.099 468.074 369.49 468.872C369.882 469.67 370.077 470.618 370.077 471.717C370.077 471.822 370.07 471.935 370.055 472.055C370.055 472.161 370.055 472.228 370.055 472.259H361.181V470.723H368.632L367.91 471.762C367.955 471.687 368 471.574 368.045 471.423C368.09 471.258 368.113 471.122 368.113 471.017C368.113 470.4 367.985 469.865 367.729 469.414C367.488 468.962 367.15 468.608 366.713 468.353C366.277 468.097 365.765 467.969 365.178 467.969C364.485 467.969 363.891 468.119 363.394 468.42C362.912 468.706 362.536 469.128 362.265 469.685C362.009 470.227 361.874 470.896 361.859 471.694C361.859 472.507 361.987 473.199 362.243 473.771C362.499 474.343 362.875 474.78 363.372 475.081C363.868 475.382 364.47 475.532 365.178 475.532C365.885 475.532 366.51 475.382 367.052 475.081C367.594 474.765 368.053 474.291 368.429 473.658L369.897 474.584C369.355 475.457 368.67 476.119 367.842 476.571C367.029 477.008 366.066 477.226 364.952 477.226ZM374.359 466.614V477H372.553V466.614H374.359ZM377.498 468.601C377.257 468.42 377.039 468.292 376.843 468.217C376.647 468.127 376.399 468.082 376.098 468.082C375.646 468.082 375.292 468.194 375.037 468.42C374.781 468.646 374.6 468.955 374.495 469.346C374.404 469.737 374.359 470.181 374.359 470.678H373.546C373.546 469.85 373.689 469.12 373.975 468.488C374.276 467.841 374.66 467.329 375.127 466.953C375.594 466.576 376.068 466.388 376.549 466.388C376.926 466.388 377.272 466.441 377.588 466.546C377.919 466.637 378.22 466.825 378.491 467.111L377.498 468.601ZM388.235 463.001V461.195H395.302V463.001H388.235ZM388.235 469.323V467.517H395.077V469.323H388.235ZM387.174 461.195H389.093V477H387.174V461.195ZM398.35 459.389H400.157V477H398.35V459.389ZM402.651 471.807C402.651 470.753 402.884 469.82 403.351 469.007C403.832 468.194 404.48 467.555 405.293 467.088C406.105 466.622 407.016 466.388 408.025 466.388C409.048 466.388 409.959 466.622 410.756 467.088C411.569 467.555 412.209 468.194 412.676 469.007C413.157 469.82 413.398 470.753 413.398 471.807C413.398 472.846 413.157 473.779 412.676 474.607C412.209 475.42 411.569 476.059 410.756 476.526C409.959 476.992 409.048 477.226 408.025 477.226C407.016 477.226 406.105 476.992 405.293 476.526C404.48 476.059 403.832 475.42 403.351 474.607C402.884 473.779 402.651 472.846 402.651 471.807ZM404.48 471.807C404.48 472.53 404.63 473.169 404.931 473.726C405.247 474.283 405.669 474.727 406.196 475.058C406.738 475.374 407.347 475.532 408.025 475.532C408.702 475.532 409.304 475.374 409.831 475.058C410.373 474.727 410.794 474.283 411.095 473.726C411.411 473.169 411.569 472.53 411.569 471.807C411.569 471.084 411.411 470.445 411.095 469.888C410.794 469.316 410.373 468.872 409.831 468.556C409.304 468.24 408.702 468.082 408.025 468.082C407.347 468.082 406.738 468.24 406.196 468.556C405.669 468.872 405.247 469.316 404.931 469.888C404.63 470.445 404.48 471.084 404.48 471.807ZM413.968 466.614H416L418.597 473.365L421.419 465.824L424.445 473.41L427.064 466.614H429.096L424.58 477.79L421.442 470.227L418.484 477.79L413.968 466.614Z" fill="white"/>
<path d="M532.873 472.823L536.982 461.195H539.127L532.918 477.79L528.176 465.508L523.435 477.79L517.226 461.195H519.371L523.57 472.823L528.176 460.405L532.873 472.823ZM541.051 462.324C541.051 461.978 541.172 461.684 541.412 461.444C541.668 461.203 541.962 461.082 542.293 461.082C542.639 461.082 542.933 461.203 543.174 461.444C543.414 461.684 543.535 461.978 543.535 462.324C543.535 462.655 543.414 462.949 543.174 463.205C542.933 463.446 542.639 463.566 542.293 463.566C541.962 463.566 541.668 463.446 541.412 463.205C541.172 462.949 541.051 462.655 541.051 462.324ZM541.39 466.614H543.196V477H541.39V466.614ZM548.722 466.614V477H546.916V466.614H548.722ZM551.861 468.601C551.62 468.42 551.402 468.292 551.206 468.217C551.01 468.127 550.762 468.082 550.461 468.082C550.009 468.082 549.656 468.194 549.4 468.42C549.144 468.646 548.963 468.955 548.858 469.346C548.768 469.737 548.722 470.181 548.722 470.678H547.91C547.91 469.85 548.053 469.12 548.339 468.488C548.64 467.841 549.024 467.329 549.49 466.953C549.957 466.576 550.431 466.388 550.913 466.388C551.289 466.388 551.635 466.441 551.951 466.546C552.282 466.637 552.583 466.825 552.854 467.111L551.861 468.601ZM558.344 477.226C557.38 477.226 556.522 477 555.77 476.548C555.032 476.082 554.453 475.442 554.031 474.629C553.625 473.816 553.422 472.876 553.422 471.807C553.422 470.723 553.632 469.775 554.054 468.962C554.49 468.149 555.092 467.517 555.86 467.066C556.643 466.614 557.546 466.388 558.569 466.388C559.593 466.388 560.466 466.606 561.189 467.043C561.926 467.464 562.491 468.074 562.882 468.872C563.273 469.67 563.469 470.618 563.469 471.717C563.469 471.822 563.461 471.935 563.446 472.055C563.446 472.161 563.446 472.228 563.446 472.259H554.573V470.723H562.024L561.301 471.762C561.347 471.687 561.392 471.574 561.437 471.423C561.482 471.258 561.505 471.122 561.505 471.017C561.505 470.4 561.377 469.865 561.121 469.414C560.88 468.962 560.541 468.608 560.105 468.353C559.668 468.097 559.156 467.969 558.569 467.969C557.877 467.969 557.282 468.119 556.786 468.42C556.304 468.706 555.928 469.128 555.657 469.685C555.401 470.227 555.265 470.896 555.25 471.694C555.25 472.507 555.378 473.199 555.634 473.771C555.89 474.343 556.266 474.78 556.763 475.081C557.26 475.382 557.862 475.532 558.569 475.532C559.277 475.532 559.902 475.382 560.443 475.081C560.985 474.765 561.444 474.291 561.821 473.658L563.288 474.584C562.746 475.457 562.062 476.119 561.234 476.571C560.421 477.008 559.458 477.226 558.344 477.226ZM565.154 466.614H570.347V468.307H565.154V466.614ZM570.167 461.556C570.016 461.301 569.836 461.143 569.625 461.082C569.429 461.007 569.241 460.969 569.06 460.969C568.835 460.969 568.639 461.037 568.473 461.173C568.323 461.293 568.202 461.504 568.112 461.805C568.022 462.106 567.977 462.505 567.977 463.001V477H566.17V462.776C566.17 461.948 566.291 461.27 566.532 460.744C566.772 460.217 567.111 459.825 567.548 459.57C567.999 459.299 568.541 459.163 569.173 459.163C569.504 459.163 569.798 459.208 570.054 459.299C570.31 459.389 570.528 459.502 570.709 459.637C570.904 459.773 571.055 459.916 571.16 460.066L570.167 461.556ZM574.211 466.614V477H572.405V466.614H574.211ZM577.35 468.601C577.109 468.42 576.891 468.292 576.695 468.217C576.499 468.127 576.251 468.082 575.95 468.082C575.498 468.082 575.144 468.194 574.889 468.42C574.633 468.646 574.452 468.955 574.347 469.346C574.256 469.737 574.211 470.181 574.211 470.678H573.398C573.398 469.85 573.541 469.12 573.827 468.488C574.128 467.841 574.512 467.329 574.979 466.953C575.446 466.576 575.92 466.388 576.401 466.388C576.778 466.388 577.124 466.441 577.44 466.546C577.771 466.637 578.072 466.825 578.343 467.111L577.35 468.601ZM580.957 473.794C580.957 474.185 581.047 474.524 581.228 474.81C581.424 475.096 581.687 475.314 582.018 475.465C582.364 475.6 582.756 475.668 583.192 475.668C583.749 475.668 584.246 475.555 584.682 475.329C585.134 475.103 585.488 474.787 585.744 474.381C586.015 473.959 586.15 473.478 586.15 472.936L586.511 474.291C586.511 474.953 586.308 475.502 585.902 475.939C585.51 476.375 585.021 476.699 584.434 476.91C583.862 477.12 583.29 477.226 582.718 477.226C582.086 477.226 581.491 477.098 580.934 476.842C580.393 476.571 579.956 476.187 579.625 475.69C579.294 475.194 579.128 474.592 579.128 473.884C579.128 472.876 579.482 472.07 580.189 471.468C580.912 470.851 581.913 470.543 583.192 470.543C583.945 470.543 584.57 470.633 585.066 470.814C585.578 470.979 585.984 471.175 586.285 471.401C586.587 471.611 586.79 471.784 586.895 471.92V472.981C586.368 472.62 585.826 472.364 585.269 472.213C584.713 472.048 584.118 471.965 583.486 471.965C582.899 471.965 582.417 472.04 582.041 472.191C581.68 472.341 581.409 472.552 581.228 472.823C581.047 473.094 580.957 473.418 580.957 473.794ZM580.686 469.007L579.806 467.675C580.197 467.389 580.731 467.103 581.409 466.817C582.101 466.531 582.929 466.388 583.892 466.388C584.705 466.388 585.412 466.516 586.015 466.772C586.632 467.013 587.106 467.367 587.437 467.833C587.783 468.3 587.956 468.872 587.956 469.549V477H586.15V469.798C586.15 469.436 586.09 469.143 585.969 468.917C585.849 468.676 585.676 468.488 585.45 468.353C585.239 468.217 584.991 468.119 584.705 468.059C584.419 467.999 584.118 467.969 583.802 467.969C583.29 467.969 582.823 468.029 582.402 468.149C581.996 468.27 581.649 468.413 581.363 468.578C581.077 468.744 580.852 468.887 580.686 469.007ZM605.239 470.452V477H603.432V470.678C603.432 469.79 603.267 469.135 602.936 468.714C602.62 468.292 602.123 468.082 601.446 468.082C600.949 468.082 600.52 468.187 600.159 468.398C599.797 468.593 599.519 468.887 599.323 469.278C599.128 469.67 599.03 470.136 599.03 470.678V477H597.223V470.678C597.223 469.79 597.058 469.135 596.727 468.714C596.411 468.292 595.914 468.082 595.237 468.082C594.74 468.082 594.311 468.187 593.95 468.398C593.588 468.593 593.31 468.887 593.114 469.278C592.919 469.67 592.821 470.136 592.821 470.678V477H591.014V466.614H592.821V468.127C593.137 467.54 593.528 467.103 593.995 466.817C594.476 466.531 595.041 466.388 595.688 466.388C596.411 466.388 597.028 466.561 597.54 466.908C598.066 467.239 598.45 467.713 598.691 468.33C599.052 467.683 599.504 467.201 600.046 466.885C600.588 466.554 601.205 466.388 601.897 466.388C602.605 466.388 603.207 466.546 603.703 466.862C604.2 467.178 604.576 467.645 604.832 468.262C605.103 468.864 605.239 469.594 605.239 470.452ZM612.651 477.226C611.687 477.226 610.829 477 610.077 476.548C609.339 476.082 608.76 475.442 608.338 474.629C607.932 473.816 607.728 472.876 607.728 471.807C607.728 470.723 607.939 469.775 608.361 468.962C608.797 468.149 609.399 467.517 610.167 467.066C610.95 466.614 611.853 466.388 612.876 466.388C613.9 466.388 614.773 466.606 615.495 467.043C616.233 467.464 616.797 468.074 617.189 468.872C617.58 469.67 617.776 470.618 617.776 471.717C617.776 471.822 617.768 471.935 617.753 472.055C617.753 472.161 617.753 472.228 617.753 472.259H608.88V470.723H616.331L615.608 471.762C615.653 471.687 615.699 471.574 615.744 471.423C615.789 471.258 615.812 471.122 615.812 471.017C615.812 470.4 615.684 469.865 615.428 469.414C615.187 468.962 614.848 468.608 614.412 468.353C613.975 468.097 613.463 467.969 612.876 467.969C612.184 467.969 611.589 468.119 611.093 468.42C610.611 468.706 610.235 469.128 609.964 469.685C609.708 470.227 609.572 470.896 609.557 471.694C609.557 472.507 609.685 473.199 609.941 473.771C610.197 474.343 610.573 474.78 611.07 475.081C611.567 475.382 612.169 475.532 612.876 475.532C613.584 475.532 614.208 475.382 614.75 475.081C615.292 474.765 615.751 474.291 616.128 473.658L617.595 474.584C617.053 475.457 616.368 476.119 615.541 476.571C614.728 477.008 613.764 477.226 612.651 477.226ZM620.68 473.816C620.891 474.133 621.132 474.426 621.403 474.697C621.674 474.968 621.982 475.186 622.329 475.352C622.69 475.502 623.081 475.578 623.503 475.578C624.015 475.578 624.413 475.465 624.699 475.239C625 474.998 625.151 474.674 625.151 474.268C625.151 473.907 625.031 473.606 624.79 473.365C624.564 473.109 624.27 472.898 623.909 472.733C623.548 472.552 623.164 472.387 622.758 472.236C622.306 472.055 621.847 471.845 621.38 471.604C620.929 471.348 620.545 471.024 620.229 470.633C619.928 470.227 619.777 469.722 619.777 469.12C619.777 468.503 619.935 467.991 620.251 467.585C620.583 467.178 621.004 466.877 621.516 466.682C622.043 466.486 622.585 466.388 623.142 466.388C623.698 466.388 624.218 466.479 624.699 466.659C625.196 466.84 625.633 467.081 626.009 467.382C626.385 467.683 626.679 468.029 626.89 468.42L625.444 469.346C625.159 468.955 624.797 468.631 624.361 468.375C623.939 468.119 623.458 467.991 622.916 467.991C622.539 467.991 622.216 468.074 621.945 468.24C621.674 468.405 621.538 468.661 621.538 469.007C621.538 469.278 621.644 469.519 621.855 469.73C622.065 469.941 622.336 470.129 622.667 470.294C622.999 470.46 623.345 470.618 623.706 470.768C624.308 471.009 624.857 471.273 625.354 471.559C625.851 471.83 626.242 472.161 626.528 472.552C626.829 472.943 626.98 473.448 626.98 474.065C626.98 474.968 626.649 475.721 625.986 476.323C625.339 476.925 624.481 477.226 623.412 477.226C622.72 477.226 622.095 477.105 621.538 476.865C620.982 476.609 620.507 476.285 620.116 475.894C619.74 475.502 619.454 475.103 619.258 474.697L620.68 473.816Z" fill="white"/>
<path d="M941.806 460.195H943.725V476H941.806V460.195ZM946.548 476H942.867V474.081H946.548C947.436 474.081 948.249 473.945 948.986 473.674C949.724 473.388 950.356 472.99 950.883 472.478C951.41 471.951 951.816 471.319 952.102 470.581C952.388 469.844 952.531 469.016 952.531 468.098C952.531 467.179 952.388 466.352 952.102 465.614C951.816 464.876 951.41 464.252 950.883 463.74C950.356 463.213 949.724 462.814 948.986 462.543C948.249 462.257 947.436 462.114 946.548 462.114H942.867V460.195H946.548C948.083 460.195 949.445 460.526 950.634 461.189C951.823 461.851 952.757 462.777 953.434 463.966C954.111 465.14 954.45 466.517 954.45 468.098C954.45 469.678 954.111 471.063 953.434 472.252C952.757 473.426 951.823 474.344 950.634 475.007C949.445 475.669 948.083 476 946.548 476ZM961.058 476.226C960.095 476.226 959.237 476 958.485 475.548C957.747 475.082 957.167 474.442 956.746 473.629C956.34 472.816 956.136 471.876 956.136 470.807C956.136 469.723 956.347 468.775 956.769 467.962C957.205 467.149 957.807 466.517 958.575 466.066C959.358 465.614 960.261 465.388 961.284 465.388C962.308 465.388 963.181 465.606 963.903 466.043C964.641 466.464 965.205 467.074 965.597 467.872C965.988 468.67 966.184 469.618 966.184 470.717C966.184 470.822 966.176 470.935 966.161 471.055C966.161 471.161 966.161 471.228 966.161 471.259H957.288V469.723H964.739L964.016 470.762C964.061 470.687 964.107 470.574 964.152 470.423C964.197 470.258 964.219 470.122 964.219 470.017C964.219 469.4 964.091 468.865 963.836 468.414C963.595 467.962 963.256 467.608 962.82 467.353C962.383 467.097 961.871 466.969 961.284 466.969C960.592 466.969 959.997 467.119 959.501 467.42C959.019 467.706 958.643 468.128 958.372 468.685C958.116 469.227 957.98 469.896 957.965 470.694C957.965 471.507 958.093 472.199 958.349 472.771C958.605 473.343 958.981 473.78 959.478 474.081C959.975 474.382 960.577 474.532 961.284 474.532C961.992 474.532 962.616 474.382 963.158 474.081C963.7 473.765 964.159 473.291 964.536 472.658L966.003 473.584C965.461 474.457 964.776 475.119 963.948 475.571C963.136 476.008 962.172 476.226 961.058 476.226ZM966.635 465.614H968.667L971.603 472.952L974.538 465.614H976.57L971.603 476.79L966.635 465.614ZM981.961 476.226C980.998 476.226 980.14 476 979.387 475.548C978.65 475.082 978.07 474.442 977.649 473.629C977.242 472.816 977.039 471.876 977.039 470.807C977.039 469.723 977.25 468.775 977.671 467.962C978.108 467.149 978.71 466.517 979.477 466.066C980.26 465.614 981.163 465.388 982.187 465.388C983.21 465.388 984.083 465.606 984.806 466.043C985.543 466.464 986.108 467.074 986.499 467.872C986.891 468.67 987.086 469.618 987.086 470.717C987.086 470.822 987.079 470.935 987.064 471.055C987.064 471.161 987.064 471.228 987.064 471.259H978.19V469.723H985.641L984.919 470.762C984.964 470.687 985.009 470.574 985.054 470.423C985.099 470.258 985.122 470.122 985.122 470.017C985.122 469.4 984.994 468.865 984.738 468.414C984.497 467.962 984.159 467.608 983.722 467.353C983.286 467.097 982.774 466.969 982.187 466.969C981.494 466.969 980.9 467.119 980.403 467.42C979.921 467.706 979.545 468.128 979.274 468.685C979.018 469.227 978.883 469.896 978.868 470.694C978.868 471.507 978.996 472.199 979.252 472.771C979.508 473.343 979.884 473.78 980.381 474.081C980.877 474.382 981.479 474.532 982.187 474.532C982.894 474.532 983.519 474.382 984.061 474.081C984.603 473.765 985.062 473.291 985.438 472.658L986.906 473.584C986.364 474.457 985.679 475.119 984.851 475.571C984.038 476.008 983.075 476.226 981.961 476.226ZM989.562 458.389H991.368V476H989.562V458.389ZM993.862 470.807C993.862 469.753 994.096 468.82 994.562 468.007C995.044 467.194 995.691 466.555 996.504 466.088C997.317 465.622 998.228 465.388 999.236 465.388C1000.26 465.388 1001.17 465.622 1001.97 466.088C1002.78 466.555 1003.42 467.194 1003.89 468.007C1004.37 468.82 1004.61 469.753 1004.61 470.807C1004.61 471.846 1004.37 472.779 1003.89 473.607C1003.42 474.42 1002.78 475.059 1001.97 475.526C1001.17 475.992 1000.26 476.226 999.236 476.226C998.228 476.226 997.317 475.992 996.504 475.526C995.691 475.059 995.044 474.42 994.562 473.607C994.096 472.779 993.862 471.846 993.862 470.807ZM995.691 470.807C995.691 471.53 995.842 472.169 996.143 472.726C996.459 473.283 996.88 473.727 997.407 474.058C997.949 474.374 998.559 474.532 999.236 474.532C999.913 474.532 1000.52 474.374 1001.04 474.058C1001.58 473.727 1002.01 473.283 1002.31 472.726C1002.62 472.169 1002.78 471.53 1002.78 470.807C1002.78 470.084 1002.62 469.445 1002.31 468.888C1002.01 468.316 1001.58 467.872 1001.04 467.556C1000.52 467.24 999.913 467.082 999.236 467.082C998.559 467.082 997.949 467.24 997.407 467.556C996.88 467.872 996.459 468.316 996.143 468.888C995.842 469.445 995.691 470.084 995.691 470.807ZM1008.78 480.967H1006.98V465.614H1008.78V480.967ZM1017.48 470.807C1017.48 471.921 1017.24 472.884 1016.78 473.697C1016.31 474.51 1015.69 475.134 1014.9 475.571C1014.14 476.008 1013.28 476.226 1012.33 476.226C1011.47 476.226 1010.71 476.008 1010.05 475.571C1009.4 475.134 1008.89 474.51 1008.51 473.697C1008.15 472.884 1007.97 471.921 1007.97 470.807C1007.97 469.678 1008.15 468.715 1008.51 467.917C1008.89 467.104 1009.4 466.479 1010.05 466.043C1010.71 465.606 1011.47 465.388 1012.33 465.388C1013.28 465.388 1014.14 465.606 1014.9 466.043C1015.69 466.479 1016.31 467.104 1016.78 467.917C1017.24 468.715 1017.48 469.678 1017.48 470.807ZM1015.65 470.807C1015.65 470.009 1015.48 469.332 1015.15 468.775C1014.84 468.218 1014.41 467.797 1013.86 467.511C1013.34 467.225 1012.75 467.082 1012.1 467.082C1011.58 467.082 1011.06 467.225 1010.55 467.511C1010.03 467.797 1009.61 468.218 1009.28 468.775C1008.95 469.332 1008.78 470.009 1008.78 470.807C1008.78 471.605 1008.95 472.282 1009.28 472.839C1009.61 473.396 1010.03 473.817 1010.55 474.103C1011.06 474.389 1011.58 474.532 1012.1 474.532C1012.75 474.532 1013.34 474.389 1013.86 474.103C1014.41 473.817 1014.84 473.396 1015.15 472.839C1015.48 472.282 1015.65 471.605 1015.65 470.807ZM1034.19 469.452V476H1032.39V469.678C1032.39 468.79 1032.22 468.135 1031.89 467.714C1031.57 467.292 1031.08 467.082 1030.4 467.082C1029.9 467.082 1029.47 467.187 1029.11 467.398C1028.75 467.593 1028.47 467.887 1028.28 468.278C1028.08 468.67 1027.98 469.136 1027.98 469.678V476H1026.18V469.678C1026.18 468.79 1026.01 468.135 1025.68 467.714C1025.36 467.292 1024.87 467.082 1024.19 467.082C1023.69 467.082 1023.26 467.187 1022.9 467.398C1022.54 467.593 1022.26 467.887 1022.07 468.278C1021.87 468.67 1021.77 469.136 1021.77 469.678V476H1019.97V465.614H1021.77V467.127C1022.09 466.54 1022.48 466.103 1022.95 465.817C1023.43 465.531 1023.99 465.388 1024.64 465.388C1025.36 465.388 1025.98 465.561 1026.49 465.908C1027.02 466.239 1027.4 466.713 1027.64 467.33C1028.01 466.683 1028.46 466.201 1029 465.885C1029.54 465.554 1030.16 465.388 1030.85 465.388C1031.56 465.388 1032.16 465.546 1032.66 465.862C1033.15 466.178 1033.53 466.645 1033.79 467.262C1034.06 467.864 1034.19 468.594 1034.19 469.452ZM1041.6 476.226C1040.64 476.226 1039.78 476 1039.03 475.548C1038.29 475.082 1037.71 474.442 1037.29 473.629C1036.88 472.816 1036.68 471.876 1036.68 470.807C1036.68 469.723 1036.89 468.775 1037.31 467.962C1037.75 467.149 1038.35 466.517 1039.12 466.066C1039.9 465.614 1040.81 465.388 1041.83 465.388C1042.85 465.388 1043.73 465.606 1044.45 466.043C1045.19 466.464 1045.75 467.074 1046.14 467.872C1046.53 468.67 1046.73 469.618 1046.73 470.717C1046.73 470.822 1046.72 470.935 1046.71 471.055C1046.71 471.161 1046.71 471.228 1046.71 471.259H1037.83V469.723H1045.28L1044.56 470.762C1044.61 470.687 1044.65 470.574 1044.7 470.423C1044.74 470.258 1044.76 470.122 1044.76 470.017C1044.76 469.4 1044.64 468.865 1044.38 468.414C1044.14 467.962 1043.8 467.608 1043.36 467.353C1042.93 467.097 1042.42 466.969 1041.83 466.969C1041.14 466.969 1040.54 467.119 1040.05 467.42C1039.56 467.706 1039.19 468.128 1038.92 468.685C1038.66 469.227 1038.53 469.896 1038.51 470.694C1038.51 471.507 1038.64 472.199 1038.89 472.771C1039.15 473.343 1039.53 473.78 1040.02 474.081C1040.52 474.382 1041.12 474.532 1041.83 474.532C1042.54 474.532 1043.16 474.382 1043.7 474.081C1044.25 473.765 1044.7 473.291 1045.08 472.658L1046.55 473.584C1046.01 474.457 1045.32 475.119 1044.49 475.571C1043.68 476.008 1042.72 476.226 1041.6 476.226ZM1055.87 469.678C1055.87 468.82 1055.68 468.173 1055.3 467.736C1054.92 467.3 1054.38 467.082 1053.65 467.082C1053.13 467.082 1052.66 467.194 1052.25 467.42C1051.86 467.631 1051.55 467.932 1051.33 468.323C1051.12 468.715 1051.01 469.166 1051.01 469.678V476H1049.2V465.614H1051.01V467.24C1051.36 466.607 1051.79 466.141 1052.3 465.84C1052.82 465.539 1053.43 465.388 1054.1 465.388C1055.2 465.388 1056.07 465.757 1056.7 466.495C1057.35 467.217 1057.67 468.203 1057.67 469.452V476H1055.87V469.678ZM1059.49 465.614H1064.68V467.307H1059.49V465.614ZM1061.18 462.001H1062.99V476H1061.18V462.001Z" fill="white"/>
<path d="M756.558 465.195H760.374V475.536C760.374 476.334 760.584 476.981 761.006 477.478C761.427 477.975 762.059 478.223 762.902 478.223C763.76 478.223 764.4 477.975 764.822 477.478C765.243 476.981 765.454 476.334 765.454 475.536V465.195H769.269V475.807C769.269 476.8 769.104 477.666 768.773 478.403C768.457 479.141 768.005 479.751 767.418 480.232C766.846 480.699 766.169 481.053 765.386 481.294C764.618 481.534 763.79 481.655 762.902 481.655C762.014 481.655 761.186 481.534 760.419 481.294C759.651 481.053 758.974 480.699 758.387 480.232C757.815 479.751 757.363 479.141 757.032 478.403C756.716 477.666 756.558 476.8 756.558 475.807V465.195ZM772.502 465.195H776.386V481H772.502V465.195ZM786.503 465.195H790.432V481H786.503V465.195ZM792.148 481H789.032V477.613H792.012C792.614 477.613 793.194 477.538 793.751 477.387C794.323 477.237 794.82 476.989 795.241 476.642C795.678 476.296 796.024 475.837 796.28 475.265C796.535 474.678 796.663 473.956 796.663 473.098C796.663 472.24 796.535 471.525 796.28 470.953C796.024 470.366 795.678 469.899 795.241 469.553C794.82 469.207 794.323 468.958 793.751 468.808C793.194 468.657 792.614 468.582 792.012 468.582H789.032V465.195H792.148C793.879 465.195 795.376 465.519 796.641 466.166C797.905 466.813 798.884 467.724 799.576 468.898C800.268 470.072 800.615 471.472 800.615 473.098C800.615 474.708 800.268 476.108 799.576 477.297C798.884 478.471 797.905 479.382 796.641 480.029C795.376 480.676 793.879 481 792.148 481ZM808.007 481.226C806.803 481.226 805.756 481.008 804.868 480.571C803.995 480.119 803.318 479.487 802.836 478.674C802.355 477.862 802.114 476.906 802.114 475.807C802.114 474.693 802.347 473.73 802.814 472.917C803.28 472.104 803.95 471.479 804.823 471.043C805.711 470.606 806.757 470.388 807.962 470.388C809.166 470.388 810.182 470.599 811.01 471.02C811.838 471.427 812.47 472.021 812.906 472.804C813.343 473.587 813.561 474.535 813.561 475.649C813.561 475.815 813.561 475.98 813.561 476.146C813.561 476.296 813.546 476.424 813.516 476.53H804.033V474.633H810.445L809.632 475.672C809.708 475.566 809.768 475.438 809.813 475.288C809.873 475.122 809.903 474.987 809.903 474.881C809.903 474.43 809.821 474.038 809.655 473.707C809.489 473.376 809.256 473.12 808.955 472.94C808.654 472.759 808.3 472.669 807.894 472.669C807.382 472.669 806.953 472.782 806.607 473.007C806.261 473.233 805.997 473.579 805.817 474.046C805.651 474.497 805.561 475.069 805.546 475.762C805.546 476.394 805.636 476.936 805.817 477.387C805.997 477.839 806.268 478.185 806.629 478.426C806.991 478.652 807.435 478.765 807.962 478.765C808.564 478.765 809.075 478.652 809.497 478.426C809.933 478.2 810.28 477.862 810.535 477.41L813.584 478.155C813.042 479.179 812.304 479.946 811.371 480.458C810.453 480.97 809.331 481.226 808.007 481.226ZM816.231 477.229C816.758 477.666 817.232 478.012 817.653 478.268C818.09 478.509 818.473 478.682 818.805 478.787C819.136 478.878 819.422 478.923 819.663 478.923C820.009 478.923 820.265 478.848 820.43 478.697C820.596 478.546 820.679 478.351 820.679 478.11C820.679 477.884 820.611 477.696 820.475 477.546C820.34 477.38 820.107 477.222 819.775 477.071C819.459 476.921 819.023 476.763 818.466 476.597C817.969 476.417 817.495 476.206 817.044 475.965C816.607 475.709 816.246 475.37 815.96 474.949C815.674 474.528 815.531 473.986 815.531 473.323C815.531 472.691 815.696 472.157 816.027 471.72C816.374 471.284 816.833 470.953 817.405 470.727C817.992 470.501 818.662 470.388 819.414 470.388C820.016 470.388 820.573 470.456 821.085 470.591C821.612 470.727 822.101 470.908 822.553 471.133C823.019 471.359 823.456 471.622 823.862 471.924L822.643 474.136C822.206 473.73 821.71 473.399 821.153 473.143C820.596 472.872 820.084 472.736 819.617 472.736C819.301 472.736 819.06 472.797 818.895 472.917C818.744 473.037 818.669 473.195 818.669 473.391C818.669 473.617 818.759 473.805 818.94 473.956C819.136 474.106 819.407 474.249 819.753 474.385C820.114 474.505 820.551 474.663 821.062 474.859C821.604 475.054 822.101 475.28 822.553 475.536C823.019 475.792 823.388 476.116 823.659 476.507C823.945 476.898 824.088 477.418 824.088 478.065C824.088 479.179 823.742 480.022 823.049 480.594C822.372 481.151 821.416 481.429 820.182 481.429C819.429 481.429 818.729 481.339 818.082 481.158C817.45 480.992 816.863 480.767 816.321 480.481C815.779 480.18 815.275 479.849 814.808 479.487L816.231 477.229ZM825.76 466.708C825.76 466.166 825.956 465.73 826.347 465.398C826.738 465.052 827.205 464.879 827.747 464.879C828.304 464.879 828.77 465.052 829.147 465.398C829.538 465.73 829.734 466.166 829.734 466.708C829.734 467.25 829.538 467.694 829.147 468.04C828.77 468.386 828.304 468.559 827.747 468.559C827.205 468.559 826.738 468.386 826.347 468.04C825.956 467.694 825.76 467.25 825.76 466.708ZM826.099 470.614H829.395V481H826.099V470.614ZM831.819 481.745H835.116C835.161 482.167 835.281 482.52 835.477 482.806C835.688 483.092 835.966 483.303 836.312 483.438C836.658 483.589 837.05 483.664 837.486 483.664C837.968 483.664 838.405 483.551 838.796 483.326C839.187 483.115 839.496 482.791 839.722 482.355C839.962 481.933 840.083 481.406 840.083 480.774V470.614H843.357V480.774C843.357 482.099 843.093 483.175 842.566 484.003C842.055 484.831 841.37 485.433 840.512 485.809C839.654 486.201 838.691 486.396 837.622 486.396C836.342 486.396 835.281 486.201 834.438 485.809C833.61 485.418 832.986 484.868 832.564 484.161C832.143 483.469 831.894 482.663 831.819 481.745ZM831.593 475.672C831.593 474.497 831.827 473.519 832.293 472.736C832.775 471.954 833.392 471.367 834.145 470.975C834.897 470.584 835.695 470.388 836.538 470.388C837.411 470.388 838.179 470.599 838.841 471.02C839.518 471.427 840.053 472.021 840.444 472.804C840.835 473.587 841.031 474.543 841.031 475.672C841.031 476.785 840.835 477.741 840.444 478.539C840.053 479.322 839.518 479.924 838.841 480.345C838.179 480.752 837.411 480.955 836.538 480.955C835.695 480.955 834.897 480.759 834.145 480.368C833.392 479.961 832.775 479.367 832.293 478.584C831.827 477.801 831.593 476.831 831.593 475.672ZM835.183 475.672C835.183 476.198 835.296 476.657 835.522 477.049C835.748 477.425 836.049 477.711 836.425 477.907C836.801 478.102 837.215 478.2 837.667 478.2C838.058 478.2 838.435 478.11 838.796 477.929C839.172 477.734 839.481 477.448 839.722 477.071C839.962 476.695 840.083 476.228 840.083 475.672C840.083 475.25 840.008 474.881 839.857 474.565C839.722 474.249 839.533 473.986 839.293 473.775C839.067 473.564 838.811 473.406 838.525 473.301C838.239 473.195 837.953 473.143 837.667 473.143C837.215 473.143 836.801 473.241 836.425 473.436C836.049 473.632 835.748 473.918 835.522 474.294C835.296 474.671 835.183 475.13 835.183 475.672ZM852.735 474.678C852.735 474.061 852.614 473.587 852.373 473.256C852.148 472.925 851.764 472.759 851.222 472.759C850.861 472.759 850.545 472.834 850.274 472.985C850.003 473.135 849.792 473.353 849.641 473.639C849.491 473.925 849.416 474.272 849.416 474.678V481H845.984V470.614H849.416V472.172C849.717 471.6 850.123 471.156 850.635 470.84C851.162 470.524 851.809 470.366 852.577 470.366C853.871 470.366 854.812 470.712 855.399 471.404C855.986 472.097 856.279 473.068 856.279 474.317V481H852.735V474.678Z" fill="white"/>
</svg>
