<svg width="1203" height="678" viewBox="0 0 1203 678" fill="none" xmlns="http://www.w3.org/2000/svg">
<path d="M37 212C69.2908 271.894 159.143 391.683 260.228 391.683C267.091 421.889 303.469 478.469 394.071 463.141C484.672 447.814 438.373 456.755 403.898 463.141C495.623 500.942 699.85 567.43 782.964 530.975C783.727 549.451 868.996 573.996 935.108 590.275C982.132 601.853 1017.99 643.309 1060.61 666.323C1072.48 672.736 1086.83 677 1104 677" stroke="white"/>
<path d="M375.976 23.0622V16.4782H400.131V23.0622H391.716V47H384.347V23.0622H375.976ZM409.443 12.99V47H402.815V12.99H409.443ZM415.852 34.7913C415.852 33.5995 415.634 32.6838 415.198 32.0443C414.762 31.4048 414.006 31.0851 412.931 31.0851C412.233 31.0851 411.623 31.2449 411.1 31.5647C410.576 31.8554 410.169 32.2769 409.879 32.8292C409.588 33.3524 409.443 34.0064 409.443 34.7913H408.309C408.309 33.1925 408.571 31.7536 409.094 30.4746C409.617 29.1665 410.402 28.1346 411.448 27.3788C412.524 26.594 413.89 26.2016 415.547 26.2016C417.204 26.2016 418.527 26.4922 419.515 27.0736C420.532 27.655 421.273 28.5125 421.739 29.6462C422.204 30.7798 422.436 32.1751 422.436 33.832V47H415.852V34.7913ZM437.843 47.436C435.517 47.436 433.497 47.0145 431.782 46.1716C430.096 45.2995 428.788 44.0786 427.858 42.5089C426.927 40.9392 426.462 39.0934 426.462 36.9714C426.462 34.8203 426.913 32.96 427.814 31.3903C428.715 29.8206 430.009 28.6142 431.695 27.7713C433.41 26.9283 435.43 26.5068 437.755 26.5068C440.081 26.5068 442.043 26.9137 443.642 27.7277C445.241 28.5125 446.461 29.6607 447.304 31.1723C448.147 32.6838 448.569 34.5151 448.569 36.6662C448.569 36.9859 448.569 37.3057 448.569 37.6254C448.569 37.9161 448.54 38.1632 448.482 38.3667H430.169V34.7041H442.552L440.982 36.7098C441.127 36.5063 441.244 36.2592 441.331 35.9685C441.447 35.6488 441.505 35.3872 441.505 35.1837C441.505 34.3116 441.345 33.5559 441.026 32.9164C440.706 32.2769 440.255 31.7827 439.674 31.4339C439.093 31.0851 438.409 30.9106 437.625 30.9106C436.636 30.9106 435.808 31.1287 435.139 31.5647C434.471 32.0007 433.962 32.6693 433.613 33.5704C433.293 34.4425 433.119 35.5471 433.09 36.8842C433.09 38.1051 433.264 39.1515 433.613 40.0236C433.962 40.8956 434.485 41.5642 435.183 42.0293C435.88 42.4653 436.738 42.6833 437.755 42.6833C438.918 42.6833 439.906 42.4653 440.72 42.0293C441.563 41.5933 442.232 40.9392 442.726 40.0672L448.612 41.5061C447.566 43.4827 446.142 44.9652 444.339 45.9535C442.566 46.9419 440.401 47.436 437.843 47.436ZM472.247 56.5926H465.663V26.9428H472.247V56.5926ZM488.642 36.9714C488.642 39.2969 488.177 41.259 487.246 42.8578C486.345 44.4565 485.168 45.6629 483.715 46.4768C482.29 47.2907 480.75 47.6976 479.093 47.6976C477.349 47.6976 475.837 47.2616 474.558 46.3896C473.308 45.4884 472.349 44.2385 471.68 42.6397C471.012 41.0119 470.677 39.1225 470.677 36.9714C470.677 34.7913 471.012 32.9018 471.68 31.3031C472.349 29.7043 473.308 28.4689 474.558 27.5968C475.837 26.6957 477.349 26.2452 479.093 26.2452C480.75 26.2452 482.29 26.6521 483.715 27.466C485.168 28.28 486.345 29.4863 487.246 31.0851C488.177 32.6547 488.642 34.6169 488.642 36.9714ZM481.709 36.9714C481.709 35.9249 481.491 35.0384 481.055 34.3116C480.619 33.5849 480.037 33.0326 479.311 32.6547C478.584 32.2769 477.785 32.0879 476.913 32.0879C476.157 32.0879 475.416 32.2769 474.689 32.6547C473.991 33.0036 473.41 33.5413 472.945 34.268C472.48 34.9948 472.247 35.8959 472.247 36.9714C472.247 38.0469 472.48 38.9481 472.945 39.6748C473.41 40.4015 473.991 40.9538 474.689 41.3317C475.416 41.6805 476.157 41.8549 476.913 41.8549C477.785 41.8549 478.584 41.6659 479.311 41.2881C480.037 40.9102 480.619 40.3579 481.055 39.6312C481.491 38.9045 481.709 38.0179 481.709 36.9714ZM499.114 26.9428V47H492.618V26.9428H499.114ZM504.914 33.7448C504.565 33.396 504.187 33.1198 503.78 32.9164C503.402 32.7129 502.922 32.6111 502.341 32.6111C501.702 32.6111 501.135 32.7856 500.641 33.1344C500.146 33.4832 499.768 33.9919 499.507 34.6605C499.245 35.329 499.114 36.143 499.114 37.1022L497.545 34.7913C497.545 33.1925 497.85 31.7682 498.46 30.5182C499.1 29.2683 499.928 28.28 500.946 27.5532C501.963 26.8265 503.024 26.4632 504.129 26.4632C504.855 26.4632 505.553 26.6085 506.222 26.8992C506.89 27.1899 507.399 27.5968 507.748 28.1201L504.914 33.7448ZM508.728 36.9714C508.728 34.8494 509.222 33.0036 510.211 31.4339C511.199 29.8642 512.565 28.6433 514.309 27.7713C516.053 26.8992 518.016 26.4632 520.196 26.4632C522.376 26.4632 524.323 26.8992 526.038 27.7713C527.782 28.6433 529.149 29.8642 530.137 31.4339C531.154 33.0036 531.663 34.8494 531.663 36.9714C531.663 39.0643 531.154 40.8956 530.137 42.4653C529.149 44.035 527.782 45.2559 526.038 46.1279C524.323 47 522.376 47.436 520.196 47.436C518.016 47.436 516.053 47 514.309 46.1279C512.565 45.2559 511.199 44.035 510.211 42.4653C509.222 40.8956 508.728 39.0643 508.728 36.9714ZM515.487 36.9714C515.487 38.0179 515.705 38.919 516.141 39.6748C516.577 40.4015 517.143 40.9683 517.841 41.3753C518.539 41.7822 519.324 41.9857 520.196 41.9857C521.039 41.9857 521.809 41.7822 522.507 41.3753C523.233 40.9683 523.8 40.4015 524.207 39.6748C524.643 38.919 524.861 38.0179 524.861 36.9714C524.861 35.9249 524.643 35.0238 524.207 34.268C523.8 33.5123 523.233 32.9309 522.507 32.5239C521.809 32.117 521.039 31.9135 520.196 31.9135C519.324 31.9135 518.539 32.117 517.841 32.5239C517.143 32.9309 516.577 33.5123 516.141 34.268C515.705 35.0238 515.487 35.9249 515.487 36.9714ZM541.162 36.9714C541.162 38.0469 541.394 38.9771 541.859 39.762C542.324 40.5177 542.964 41.1136 543.778 41.5497C544.621 41.9857 545.522 42.2037 546.481 42.2037C547.295 42.2037 548.065 42.0874 548.792 41.8549C549.548 41.5933 550.231 41.2445 550.841 40.8084C551.481 40.3724 552.004 39.8346 552.411 39.1951V45.6047C551.714 46.157 550.841 46.6076 549.795 46.9564C548.749 47.2761 547.47 47.436 545.958 47.436C543.749 47.436 541.758 47 539.984 46.1279C538.24 45.2559 536.86 44.035 535.842 42.4653C534.854 40.8956 534.36 39.0643 534.36 36.9714C534.36 34.8494 534.854 33.0181 535.842 31.4775C536.86 29.9078 538.24 28.6869 539.984 27.8149C541.758 26.9428 543.749 26.5068 545.958 26.5068C547.47 26.5068 548.749 26.6812 549.795 27.03C550.841 27.3498 551.714 27.7567 552.411 28.2509V34.7041C552.004 34.0646 551.466 33.5268 550.798 33.0908C550.158 32.6547 549.461 32.3205 548.705 32.0879C547.949 31.8554 547.208 31.7391 546.481 31.7391C545.522 31.7391 544.621 31.9716 543.778 32.4367C542.964 32.9018 542.324 33.5268 541.859 34.3116C541.394 35.0965 541.162 35.9831 541.162 36.9714ZM567.373 47.436C565.048 47.436 563.027 47.0145 561.312 46.1716C559.626 45.2995 558.318 44.0786 557.388 42.5089C556.458 40.9392 555.993 39.0934 555.993 36.9714C555.993 34.8203 556.443 32.96 557.344 31.3903C558.245 29.8206 559.539 28.6142 561.225 27.7713C562.94 26.9283 564.96 26.5068 567.286 26.5068C569.611 26.5068 571.573 26.9137 573.172 27.7277C574.771 28.5125 575.992 29.6607 576.835 31.1723C577.678 32.6838 578.099 34.5151 578.099 36.6662C578.099 36.9859 578.099 37.3057 578.099 37.6254C578.099 37.9161 578.07 38.1632 578.012 38.3667H559.699V34.7041H572.082L570.512 36.7098C570.658 36.5063 570.774 36.2592 570.861 35.9685C570.977 35.6488 571.036 35.3872 571.036 35.1837C571.036 34.3116 570.876 33.5559 570.556 32.9164C570.236 32.2769 569.786 31.7827 569.204 31.4339C568.623 31.0851 567.94 30.9106 567.155 30.9106C566.167 30.9106 565.338 31.1287 564.67 31.5647C564.001 32.0007 563.492 32.6693 563.144 33.5704C562.824 34.4425 562.649 35.5471 562.62 36.8842C562.62 38.1051 562.795 39.1515 563.144 40.0236C563.492 40.8956 564.016 41.5642 564.713 42.0293C565.411 42.4653 566.268 42.6833 567.286 42.6833C568.449 42.6833 569.437 42.4653 570.251 42.0293C571.094 41.5933 571.762 40.9392 572.256 40.0672L578.143 41.5061C577.096 43.4827 575.672 44.9652 573.87 45.9535C572.097 46.9419 569.931 47.436 567.373 47.436ZM583.255 39.7184C584.272 40.5613 585.188 41.2299 586.002 41.7241C586.845 42.1892 587.586 42.5235 588.226 42.7269C588.865 42.9014 589.417 42.9886 589.882 42.9886C590.551 42.9886 591.045 42.8432 591.365 42.5525C591.685 42.2619 591.845 41.884 591.845 41.4189C591.845 40.9828 591.714 40.6195 591.452 40.3288C591.191 40.0091 590.74 39.7038 590.1 39.4131C589.49 39.1225 588.647 38.8172 587.572 38.4975C586.612 38.1487 585.697 37.7417 584.825 37.2766C583.982 36.7825 583.284 36.1284 582.732 35.3145C582.179 34.5006 581.903 33.4541 581.903 32.1751C581.903 30.9542 582.223 29.9223 582.862 29.0793C583.531 28.2363 584.418 27.5968 585.522 27.1608C586.656 26.7248 587.949 26.5068 589.403 26.5068C590.566 26.5068 591.641 26.6376 592.629 26.8992C593.647 27.1608 594.592 27.5096 595.464 27.9457C596.365 28.3817 597.208 28.8904 597.993 29.4718L595.638 33.7448C594.795 32.96 593.836 32.3205 592.76 31.8263C591.685 31.3031 590.696 31.0414 589.795 31.0414C589.185 31.0414 588.72 31.1577 588.4 31.3903C588.109 31.6228 587.964 31.928 587.964 32.3059C587.964 32.742 588.138 33.1053 588.487 33.396C588.865 33.6867 589.388 33.9628 590.057 34.2244C590.755 34.457 591.598 34.7622 592.586 35.1401C593.632 35.518 594.592 35.954 595.464 36.4482C596.365 36.9423 597.077 37.5673 597.6 38.3231C598.152 39.0789 598.429 40.0817 598.429 41.3317C598.429 43.4827 597.76 45.1106 596.423 46.2152C595.115 47.2907 593.269 47.8284 590.885 47.8284C589.432 47.8284 588.08 47.654 586.83 47.3052C585.609 46.9855 584.476 46.5494 583.429 45.9971C582.383 45.4158 581.409 44.7763 580.508 44.0786L583.255 39.7184ZM603.14 39.7184C604.157 40.5613 605.073 41.2299 605.887 41.7241C606.73 42.1892 607.471 42.5235 608.111 42.7269C608.75 42.9014 609.303 42.9886 609.768 42.9886C610.436 42.9886 610.93 42.8432 611.25 42.5525C611.57 42.2619 611.73 41.884 611.73 41.4189C611.73 40.9828 611.599 40.6195 611.337 40.3288C611.076 40.0091 610.625 39.7038 609.986 39.4131C609.375 39.1225 608.532 38.8172 607.457 38.4975C606.497 38.1487 605.582 37.7417 604.71 37.2766C603.867 36.7825 603.169 36.1284 602.617 35.3145C602.065 34.5006 601.788 33.4541 601.788 32.1751C601.788 30.9542 602.108 29.9223 602.748 29.0793C603.416 28.2363 604.303 27.5968 605.407 27.1608C606.541 26.7248 607.835 26.5068 609.288 26.5068C610.451 26.5068 611.526 26.6376 612.515 26.8992C613.532 27.1608 614.477 27.5096 615.349 27.9457C616.25 28.3817 617.093 28.8904 617.878 29.4718L615.523 33.7448C614.68 32.96 613.721 32.3205 612.645 31.8263C611.57 31.3031 610.582 31.0414 609.68 31.0414C609.07 31.0414 608.605 31.1577 608.285 31.3903C607.994 31.6228 607.849 31.928 607.849 32.3059C607.849 32.742 608.024 33.1053 608.372 33.396C608.75 33.6867 609.273 33.9628 609.942 34.2244C610.64 34.457 611.483 34.7622 612.471 35.1401C613.517 35.518 614.477 35.954 615.349 36.4482C616.25 36.9423 616.962 37.5673 617.485 38.3231C618.038 39.0789 618.314 40.0817 618.314 41.3317C618.314 43.4827 617.645 45.1106 616.308 46.2152C615 47.2907 613.154 47.8284 610.77 47.8284C609.317 47.8284 607.965 47.654 606.715 47.3052C605.495 46.9855 604.361 46.5494 603.314 45.9971C602.268 45.4158 601.294 44.7763 600.393 44.0786L603.14 39.7184ZM633.83 36.9714C633.83 34.8494 634.324 33.0036 635.313 31.4339C636.301 29.8642 637.667 28.6433 639.411 27.7713C641.155 26.8992 643.117 26.4632 645.298 26.4632C647.478 26.4632 649.425 26.8992 651.14 27.7713C652.884 28.6433 654.251 29.8642 655.239 31.4339C656.256 33.0036 656.765 34.8494 656.765 36.9714C656.765 39.0643 656.256 40.8956 655.239 42.4653C654.251 44.035 652.884 45.2559 651.14 46.1279C649.425 47 647.478 47.436 645.298 47.436C643.117 47.436 641.155 47 639.411 46.1279C637.667 45.2559 636.301 44.035 635.313 42.4653C634.324 40.8956 633.83 39.0643 633.83 36.9714ZM640.589 36.9714C640.589 38.0179 640.807 38.919 641.243 39.6748C641.679 40.4015 642.245 40.9683 642.943 41.3753C643.641 41.7822 644.426 41.9857 645.298 41.9857C646.141 41.9857 646.911 41.7822 647.609 41.3753C648.335 40.9683 648.902 40.4015 649.309 39.6748C649.745 38.919 649.963 38.0179 649.963 36.9714C649.963 35.9249 649.745 35.0238 649.309 34.268C648.902 33.5123 648.335 32.9309 647.609 32.5239C646.911 32.117 646.141 31.9135 645.298 31.9135C644.426 31.9135 643.641 32.117 642.943 32.5239C642.245 32.9309 641.679 33.5123 641.243 34.268C640.807 35.0238 640.589 35.9249 640.589 36.9714ZM658.938 26.9428H672.63V32.3931H658.938V26.9428ZM671.888 19.3123C671.598 18.9345 671.278 18.6583 670.929 18.4839C670.609 18.3095 670.261 18.2223 669.883 18.2223C669.447 18.2223 669.069 18.324 668.749 18.5275C668.458 18.731 668.226 19.0507 668.051 19.4868C667.877 19.9228 667.79 20.4896 667.79 21.1873V47H661.467V19.5304C661.467 18.0188 661.744 16.7253 662.296 15.6497C662.877 14.5742 663.72 13.7458 664.825 13.1644C665.958 12.583 667.354 12.2923 669.011 12.2923C670.028 12.2923 670.886 12.4231 671.583 12.6848C672.281 12.9173 672.877 13.208 673.371 13.5568C673.865 13.8766 674.257 14.1818 674.548 14.4725L671.888 19.3123ZM697.289 31.4339L695.458 47H687.697L692.624 14.9521L705.617 33.5704L718.655 14.9521L723.582 47H715.82L713.989 31.4339L705.617 44.1658L697.289 31.4339ZM727.228 19.3996C727.228 18.3531 727.606 17.5101 728.362 16.8706C729.117 16.202 730.018 15.8677 731.065 15.8677C732.14 15.8677 733.042 16.202 733.768 16.8706C734.524 17.5101 734.902 18.3531 734.902 19.3996C734.902 20.446 734.524 21.3035 733.768 21.9721C733.042 22.6407 732.14 22.975 731.065 22.975C730.018 22.975 729.117 22.6407 728.362 21.9721C727.606 21.3035 727.228 20.446 727.228 19.3996ZM727.882 26.9428H734.248V47H727.882V26.9428ZM752.708 34.7913C752.708 33.5995 752.475 32.6838 752.01 32.0443C751.574 31.4048 750.833 31.0851 749.786 31.0851C749.089 31.0851 748.478 31.2304 747.955 31.5211C747.432 31.8118 747.025 32.2333 746.734 32.7856C746.444 33.3379 746.298 34.0064 746.298 34.7913V47H739.671V26.9428H746.298V29.9514C746.88 28.8468 747.664 27.9893 748.653 27.3788C749.67 26.7684 750.92 26.4632 752.403 26.4632C754.903 26.4632 756.719 27.1317 757.853 28.4689C758.987 29.806 759.553 31.681 759.553 34.0936V47H752.708V34.7913ZM774.954 47.436C772.628 47.436 770.608 47.0145 768.893 46.1716C767.207 45.2995 765.899 44.0786 764.969 42.5089C764.039 40.9392 763.573 39.0934 763.573 36.9714C763.573 34.8203 764.024 32.96 764.925 31.3903C765.826 29.8206 767.12 28.6142 768.806 27.7713C770.521 26.9283 772.541 26.5068 774.866 26.5068C777.192 26.5068 779.154 26.9137 780.753 27.7277C782.352 28.5125 783.572 29.6607 784.415 31.1723C785.258 32.6838 785.68 34.5151 785.68 36.6662C785.68 36.9859 785.68 37.3057 785.68 37.6254C785.68 37.9161 785.651 38.1632 785.593 38.3667H767.28V34.7041H779.663L778.093 36.7098C778.238 36.5063 778.355 36.2592 778.442 35.9685C778.558 35.6488 778.616 35.3872 778.616 35.1837C778.616 34.3116 778.456 33.5559 778.137 32.9164C777.817 32.2769 777.366 31.7827 776.785 31.4339C776.204 31.0851 775.521 30.9106 774.736 30.9106C773.747 30.9106 772.919 31.1287 772.25 31.5647C771.582 32.0007 771.073 32.6693 770.724 33.5704C770.404 34.4425 770.23 35.5471 770.201 36.8842C770.201 38.1051 770.375 39.1515 770.724 40.0236C771.073 40.8956 771.596 41.5642 772.294 42.0293C772.992 42.4653 773.849 42.6833 774.866 42.6833C776.029 42.6833 777.018 42.4653 777.831 42.0293C778.674 41.5933 779.343 40.9392 779.837 40.0672L785.724 41.5061C784.677 43.4827 783.253 44.9652 781.45 45.9535C779.677 46.9419 777.512 47.436 774.954 47.436ZM790.388 16.4782H797.233L792.742 27.5968H788.033L790.388 16.4782ZM818.078 12.99H824.662V47H818.078V12.99ZM801.683 36.9714C801.683 34.7041 802.134 32.8001 803.035 31.2595C803.965 29.7188 805.157 28.5416 806.61 27.7277C808.064 26.9137 809.604 26.5068 811.232 26.5068C812.918 26.5068 814.401 26.9283 815.68 27.7713C816.988 28.6142 818.02 29.8206 818.775 31.3903C819.531 32.9309 819.909 34.7913 819.909 36.9714C819.909 39.1225 819.531 40.9828 818.775 42.5525C818.02 44.1222 816.988 45.3286 815.68 46.1716C814.401 47.0145 812.918 47.436 811.232 47.436C809.604 47.436 808.064 47.0291 806.61 46.2152C805.157 45.4012 803.965 44.224 803.035 42.6833C802.134 41.1136 801.683 39.2097 801.683 36.9714ZM808.616 36.9714C808.616 38.0179 808.834 38.9335 809.27 39.7184C809.706 40.4741 810.287 41.07 811.014 41.5061C811.741 41.913 812.54 42.1165 813.412 42.1165C814.168 42.1165 814.895 41.913 815.592 41.5061C816.319 41.0991 816.915 40.5177 817.38 39.762C817.845 38.9771 818.078 38.0469 818.078 36.9714C818.078 35.8959 817.845 34.9802 817.38 34.2244C816.915 33.4396 816.319 32.8437 815.592 32.4367C814.895 32.0298 814.168 31.8263 813.412 31.8263C812.54 31.8263 811.741 32.0443 811.014 32.4803C810.287 32.8873 809.706 33.4832 809.27 34.268C808.834 35.0238 808.616 35.9249 808.616 36.9714ZM449.52 79.4782H456.889V110H449.52V79.4782ZM454.142 85.5389V79.4782H460.116C462.703 79.4782 464.868 79.8851 466.612 80.6991C468.385 81.4839 469.723 82.6176 470.624 84.1001C471.525 85.5825 471.975 87.3703 471.975 89.4632C471.975 91.498 471.525 93.2711 470.624 94.7827C469.723 96.2652 468.385 97.4134 466.612 98.2273C464.868 99.0121 462.703 99.4046 460.116 99.4046H454.142V93.3438H460.116C461.598 93.3438 462.761 93.0095 463.604 92.3409C464.447 91.6724 464.868 90.7131 464.868 89.4632C464.868 88.1842 464.447 87.2104 463.604 86.5418C462.761 85.8732 461.598 85.5389 460.116 85.5389H454.142ZM481.678 89.9428V110H475.181V89.9428H481.678ZM487.477 96.7448C487.128 96.396 486.75 96.1198 486.343 95.9164C485.965 95.7129 485.486 95.6111 484.904 95.6111C484.265 95.6111 483.698 95.7856 483.204 96.1344C482.71 96.4832 482.332 96.9919 482.07 97.6605C481.808 98.329 481.678 99.143 481.678 100.102L480.108 97.7913C480.108 96.1925 480.413 94.7682 481.024 93.5182C481.663 92.2683 482.492 91.28 483.509 90.5532C484.526 89.8265 485.587 89.4632 486.692 89.4632C487.419 89.4632 488.116 89.6085 488.785 89.8992C489.453 90.1899 489.962 90.5968 490.311 91.1201L487.477 96.7448ZM491.291 99.9714C491.291 97.8494 491.786 96.0036 492.774 94.4339C493.762 92.8642 495.128 91.6433 496.873 90.7713C498.617 89.8992 500.579 89.4632 502.759 89.4632C504.939 89.4632 506.887 89.8992 508.602 90.7713C510.346 91.6433 511.712 92.8642 512.7 94.4339C513.718 96.0036 514.226 97.8494 514.226 99.9714C514.226 102.064 513.718 103.896 512.7 105.465C511.712 107.035 510.346 108.256 508.602 109.128C506.887 110 504.939 110.436 502.759 110.436C500.579 110.436 498.617 110 496.873 109.128C495.128 108.256 493.762 107.035 492.774 105.465C491.786 103.896 491.291 102.064 491.291 99.9714ZM498.05 99.9714C498.05 101.018 498.268 101.919 498.704 102.675C499.14 103.401 499.707 103.968 500.404 104.375C501.102 104.782 501.887 104.986 502.759 104.986C503.602 104.986 504.372 104.782 505.07 104.375C505.797 103.968 506.363 103.401 506.77 102.675C507.206 101.919 507.424 101.018 507.424 99.9714C507.424 98.9249 507.206 98.0238 506.77 97.268C506.363 96.5123 505.797 95.9309 505.07 95.5239C504.372 95.117 503.602 94.9135 502.759 94.9135C501.887 94.9135 501.102 95.117 500.404 95.5239C499.707 95.9309 499.14 96.5123 498.704 97.268C498.268 98.0238 498.05 98.9249 498.05 99.9714ZM533.405 75.99H539.989V110H533.405V75.99ZM517.01 99.9714C517.01 97.7041 517.461 95.8001 518.362 94.2595C519.292 92.7188 520.484 91.5416 521.937 90.7277C523.391 89.9137 524.931 89.5068 526.559 89.5068C528.245 89.5068 529.728 89.9283 531.007 90.7713C532.315 91.6142 533.347 92.8206 534.102 94.3903C534.858 95.9309 535.236 97.7913 535.236 99.9714C535.236 102.122 534.858 103.983 534.102 105.553C533.347 107.122 532.315 108.329 531.007 109.172C529.728 110.015 528.245 110.436 526.559 110.436C524.931 110.436 523.391 110.029 521.937 109.215C520.484 108.401 519.292 107.224 518.362 105.683C517.461 104.114 517.01 102.21 517.01 99.9714ZM523.943 99.9714C523.943 101.018 524.161 101.934 524.597 102.718C525.033 103.474 525.614 104.07 526.341 104.506C527.068 104.913 527.867 105.117 528.739 105.117C529.495 105.117 530.222 104.913 530.919 104.506C531.646 104.099 532.242 103.518 532.707 102.762C533.172 101.977 533.405 101.047 533.405 99.9714C533.405 98.8959 533.172 97.9802 532.707 97.2244C532.242 96.4396 531.646 95.8437 530.919 95.4367C530.222 95.0298 529.495 94.8263 528.739 94.8263C527.867 94.8263 527.068 95.0443 526.341 95.4803C525.614 95.8873 525.033 96.4832 524.597 97.268C524.161 98.0238 523.943 98.9249 523.943 99.9714ZM551.988 102.152C551.988 103.314 552.206 104.23 552.642 104.898C553.078 105.538 553.833 105.858 554.909 105.858C555.636 105.858 556.246 105.712 556.74 105.422C557.263 105.131 557.67 104.71 557.961 104.157C558.252 103.605 558.397 102.936 558.397 102.152V89.9428H564.981V110H558.397V106.991C557.787 108.067 556.987 108.924 555.999 109.564C555.011 110.174 553.775 110.48 552.293 110.48C549.793 110.48 547.962 109.811 546.799 108.474C545.665 107.108 545.098 105.233 545.098 102.849V89.9428H551.988V102.152ZM575.716 99.9714C575.716 101.047 575.948 101.977 576.414 102.762C576.879 103.518 577.518 104.114 578.332 104.55C579.175 104.986 580.076 105.204 581.035 105.204C581.849 105.204 582.62 105.087 583.346 104.855C584.102 104.593 584.785 104.244 585.396 103.808C586.035 103.372 586.558 102.835 586.965 102.195V108.605C586.268 109.157 585.396 109.608 584.349 109.956C583.303 110.276 582.024 110.436 580.512 110.436C578.303 110.436 576.312 110 574.539 109.128C572.794 108.256 571.414 107.035 570.396 105.465C569.408 103.896 568.914 102.064 568.914 99.9714C568.914 97.8494 569.408 96.0181 570.396 94.4775C571.414 92.9078 572.794 91.6869 574.539 90.8149C576.312 89.9428 578.303 89.5068 580.512 89.5068C582.024 89.5068 583.303 89.6812 584.349 90.03C585.396 90.3498 586.268 90.7567 586.965 91.2509V97.7041C586.558 97.0646 586.021 96.5268 585.352 96.0908C584.713 95.6547 584.015 95.3205 583.259 95.0879C582.503 94.8554 581.762 94.7391 581.035 94.7391C580.076 94.7391 579.175 94.9716 578.332 95.4367C577.518 95.9018 576.879 96.5268 576.414 97.3116C575.948 98.0965 575.716 98.9831 575.716 99.9714ZM589.37 89.9428H602.799V95.3931H589.37V89.9428ZM592.901 82.9664H599.224V110H592.901V82.9664ZM619.332 79.4782H626.919V110H619.332V79.4782ZM630.232 110H624.215V103.46H629.971C631.134 103.46 632.253 103.314 633.328 103.024C634.433 102.733 635.392 102.253 636.206 101.585C637.049 100.916 637.718 100.03 638.212 98.9249C638.706 97.7913 638.953 96.396 638.953 94.7391C638.953 93.0822 638.706 91.7014 638.212 90.5968C637.718 89.4632 637.049 88.5621 636.206 87.8935C635.392 87.2249 634.433 86.7453 633.328 86.4546C632.253 86.1639 631.134 86.0186 629.971 86.0186H624.215V79.4782H630.232C633.575 79.4782 636.468 80.1032 638.909 81.3531C641.351 82.603 643.241 84.3617 644.578 86.629C645.915 88.8963 646.583 91.5997 646.583 94.7391C646.583 97.8494 645.915 100.553 644.578 102.849C643.241 105.117 641.351 106.875 638.909 108.125C636.468 109.375 633.575 110 630.232 110ZM660.859 110.436C658.533 110.436 656.513 110.015 654.798 109.172C653.112 108.299 651.804 107.079 650.874 105.509C649.944 103.939 649.479 102.093 649.479 99.9714C649.479 97.8203 649.929 95.96 650.83 94.3903C651.731 92.8206 653.025 91.6142 654.711 90.7713C656.426 89.9283 658.446 89.5068 660.772 89.5068C663.097 89.5068 665.059 89.9137 666.658 90.7277C668.257 91.5125 669.478 92.6607 670.321 94.1723C671.164 95.6838 671.585 97.5151 671.585 99.6662C671.585 99.9859 671.585 100.306 671.585 100.625C671.585 100.916 671.556 101.163 671.498 101.367H653.185V97.7041H665.568L663.998 99.7098C664.144 99.5063 664.26 99.2592 664.347 98.9685C664.463 98.6488 664.521 98.3872 664.521 98.1837C664.521 97.3116 664.362 96.5559 664.042 95.9164C663.722 95.2769 663.271 94.7827 662.69 94.4339C662.109 94.0851 661.426 93.9106 660.641 93.9106C659.652 93.9106 658.824 94.1287 658.155 94.5647C657.487 95.0007 656.978 95.6693 656.629 96.5704C656.31 97.4425 656.135 98.5471 656.106 99.8842C656.106 101.105 656.281 102.152 656.629 103.024C656.978 103.896 657.501 104.564 658.199 105.029C658.897 105.465 659.754 105.683 660.772 105.683C661.934 105.683 662.923 105.465 663.737 105.029C664.58 104.593 665.248 103.939 665.742 103.067L671.629 104.506C670.582 106.483 669.158 107.965 667.356 108.954C665.582 109.942 663.417 110.436 660.859 110.436ZM676.741 102.718C677.758 103.561 678.674 104.23 679.488 104.724C680.331 105.189 681.072 105.523 681.711 105.727C682.351 105.901 682.903 105.989 683.368 105.989C684.037 105.989 684.531 105.843 684.851 105.553C685.171 105.262 685.33 104.884 685.33 104.419C685.33 103.983 685.2 103.619 684.938 103.329C684.676 103.009 684.226 102.704 683.586 102.413C682.976 102.122 682.133 101.817 681.057 101.497C680.098 101.149 679.182 100.742 678.31 100.277C677.467 99.7825 676.77 99.1284 676.217 98.3145C675.665 97.5006 675.389 96.4541 675.389 95.1751C675.389 93.9542 675.709 92.9223 676.348 92.0793C677.017 91.2363 677.903 90.5968 679.008 90.1608C680.142 89.7248 681.435 89.5068 682.889 89.5068C684.051 89.5068 685.127 89.6376 686.115 89.8992C687.133 90.1608 688.077 90.5096 688.949 90.9457C689.851 91.3817 690.694 91.8904 691.478 92.4718L689.124 96.7448C688.281 95.96 687.322 95.3205 686.246 94.8263C685.171 94.3031 684.182 94.0414 683.281 94.0414C682.671 94.0414 682.206 94.1577 681.886 94.3903C681.595 94.6228 681.45 94.928 681.45 95.3059C681.45 95.742 681.624 96.1053 681.973 96.396C682.351 96.6867 682.874 96.9628 683.543 97.2244C684.24 97.457 685.083 97.7622 686.072 98.1401C687.118 98.518 688.077 98.954 688.949 99.4482C689.851 99.9423 690.563 100.567 691.086 101.323C691.638 102.079 691.914 103.082 691.914 104.332C691.914 106.483 691.246 108.111 689.909 109.215C688.601 110.291 686.755 110.828 684.371 110.828C682.918 110.828 681.566 110.654 680.316 110.305C679.095 109.985 677.962 109.549 676.915 108.997C675.869 108.416 674.895 107.776 673.994 107.079L676.741 102.718ZM695.143 82.3996C695.143 81.3531 695.521 80.5101 696.277 79.8706C697.033 79.202 697.934 78.8677 698.98 78.8677C700.056 78.8677 700.957 79.202 701.684 79.8706C702.44 80.5101 702.817 81.3531 702.817 82.3996C702.817 83.446 702.44 84.3035 701.684 84.9721C700.957 85.6407 700.056 85.975 698.98 85.975C697.934 85.975 697.033 85.6407 696.277 84.9721C695.521 84.3035 695.143 83.446 695.143 82.3996ZM695.797 89.9428H702.163V110H695.797V89.9428ZM706.845 111.439H713.211C713.298 112.253 713.531 112.936 713.909 113.488C714.315 114.041 714.853 114.447 715.522 114.709C716.19 115 716.946 115.145 717.789 115.145C718.719 115.145 719.562 114.927 720.318 114.491C721.074 114.084 721.67 113.459 722.106 112.616C722.571 111.802 722.803 110.785 722.803 109.564V89.9428H729.126V109.564C729.126 112.122 728.617 114.2 727.6 115.799C726.611 117.398 725.289 118.561 723.632 119.287C721.975 120.043 720.115 120.421 718.051 120.421C715.58 120.421 713.531 120.043 711.903 119.287C710.304 118.532 709.098 117.471 708.284 116.104C707.47 114.767 706.99 113.212 706.845 111.439ZM706.409 99.7098C706.409 97.4425 706.859 95.553 707.761 94.0414C708.691 92.5299 709.883 91.3962 711.336 90.6404C712.789 89.8847 714.33 89.5068 715.958 89.5068C717.644 89.5068 719.126 89.9137 720.405 90.7277C721.713 91.5125 722.745 92.6607 723.501 94.1723C724.257 95.6838 724.635 97.5297 724.635 99.7098C724.635 101.861 724.257 103.707 723.501 105.247C722.745 106.759 721.713 107.922 720.405 108.736C719.126 109.52 717.644 109.913 715.958 109.913C714.33 109.913 712.789 109.535 711.336 108.779C709.883 107.994 708.691 106.846 707.761 105.335C706.859 103.823 706.409 101.948 706.409 99.7098ZM713.342 99.7098C713.342 100.727 713.56 101.614 713.996 102.37C714.432 103.096 715.013 103.649 715.74 104.026C716.467 104.404 717.266 104.593 718.138 104.593C718.894 104.593 719.62 104.419 720.318 104.07C721.045 103.692 721.641 103.14 722.106 102.413C722.571 101.686 722.803 100.785 722.803 99.7098C722.803 98.8959 722.658 98.1837 722.367 97.5733C722.106 96.9628 721.742 96.4541 721.277 96.0472C720.841 95.6402 720.347 95.335 719.795 95.1315C719.243 94.928 718.69 94.8263 718.138 94.8263C717.266 94.8263 716.467 95.0152 715.74 95.3931C715.013 95.771 714.432 96.3233 713.996 97.05C713.56 97.7767 713.342 98.6633 713.342 99.7098ZM747.236 97.7913C747.236 96.5995 747.004 95.6838 746.539 95.0443C746.103 94.4048 745.361 94.0851 744.315 94.0851C743.617 94.0851 743.007 94.2304 742.484 94.5211C741.96 94.8118 741.553 95.2333 741.263 95.7856C740.972 96.3379 740.827 97.0064 740.827 97.7913V110H734.199V89.9428H740.827V92.9514C741.408 91.8468 742.193 90.9893 743.181 90.3788C744.199 89.7684 745.449 89.4632 746.931 89.4632C749.431 89.4632 751.248 90.1317 752.381 91.4689C753.515 92.806 754.082 94.681 754.082 97.0936V110H747.236V97.7913Z" fill="white"/>
<rect x="0.5" y="277.5" width="196.571" height="54.5334" rx="27.2667" fill="#1E2128" stroke="#244582"/>
<path d="M60.6285 304.898H62.7735L68.418 312.688H66.0473L60.6285 304.898ZM57.8063 296.883H59.7254V312.688H57.8063V296.883ZM58.8674 298.576V296.883H62.0961C63.1197 296.883 64.0303 297.078 64.8281 297.47C65.6409 297.846 66.2806 298.388 66.7473 299.095C67.2289 299.803 67.4698 300.646 67.4698 301.624C67.4698 302.587 67.2289 303.43 66.7473 304.153C66.2806 304.86 65.6409 305.41 64.8281 305.801C64.0303 306.177 63.1197 306.366 62.0961 306.366H58.8674V304.672H62.0961C62.7735 304.672 63.368 304.552 63.8798 304.311C64.4066 304.07 64.8131 303.724 65.099 303.272C65.4001 302.821 65.5506 302.271 65.5506 301.624C65.5506 300.977 65.4001 300.427 65.099 299.976C64.8131 299.524 64.4066 299.178 63.8798 298.937C63.368 298.696 62.7735 298.576 62.0961 298.576H58.8674ZM74.3464 312.913C73.3831 312.913 72.5251 312.688 71.7725 312.236C71.035 311.769 70.4554 311.13 70.034 310.317C69.6276 309.504 69.4244 308.563 69.4244 307.494C69.4244 306.411 69.6351 305.462 70.0566 304.65C70.4931 303.837 71.0952 303.205 71.8628 302.753C72.6455 302.301 73.5487 302.076 74.5722 302.076C75.5958 302.076 76.4688 302.294 77.1913 302.73C77.9289 303.152 78.4933 303.762 78.8847 304.559C79.276 305.357 79.4717 306.305 79.4717 307.404C79.4717 307.51 79.4642 307.622 79.4491 307.743C79.4491 307.848 79.4491 307.916 79.4491 307.946H70.5759V306.411H78.0267L77.3042 307.449C77.3493 307.374 77.3945 307.261 77.4397 307.111C77.4848 306.945 77.5074 306.81 77.5074 306.704C77.5074 306.087 77.3794 305.553 77.1236 305.101C76.8827 304.65 76.5441 304.296 76.1075 304.04C75.671 303.784 75.1593 303.656 74.5722 303.656C73.8798 303.656 73.2853 303.807 72.7885 304.108C72.3069 304.394 71.9306 304.815 71.6596 305.372C71.4037 305.914 71.2683 306.584 71.2532 307.382C71.2532 308.194 71.3812 308.887 71.637 309.459C71.8929 310.031 72.2692 310.467 72.766 310.768C73.2627 311.069 73.8648 311.22 74.5722 311.22C75.2797 311.22 75.9043 311.069 76.4462 310.768C76.9881 310.452 77.4472 309.978 77.8235 309.346L79.2911 310.272C78.7492 311.145 78.0643 311.807 77.2365 312.259C76.4236 312.695 75.4603 312.913 74.3464 312.913ZM82.3764 309.504C82.5871 309.82 82.8279 310.114 83.0989 310.385C83.3698 310.655 83.6784 310.874 84.0246 311.039C84.3858 311.19 84.7772 311.265 85.1986 311.265C85.7104 311.265 86.1093 311.152 86.3953 310.926C86.6963 310.686 86.8469 310.362 86.8469 309.956C86.8469 309.594 86.7264 309.293 86.4856 309.052C86.2598 308.797 85.9663 308.586 85.6051 308.42C85.2438 308.24 84.86 308.074 84.4536 307.923C84.002 307.743 83.5429 307.532 83.0763 307.291C82.6247 307.035 82.2409 306.712 81.9248 306.32C81.6238 305.914 81.4732 305.41 81.4732 304.808C81.4732 304.191 81.6313 303.679 81.9474 303.272C82.2785 302.866 82.7 302.565 83.2118 302.369C83.7386 302.174 84.2805 302.076 84.8374 302.076C85.3943 302.076 85.9136 302.166 86.3953 302.347C86.892 302.527 87.3285 302.768 87.7048 303.069C88.0811 303.37 88.3747 303.716 88.5854 304.108L87.1404 305.033C86.8544 304.642 86.4931 304.318 86.0566 304.063C85.6352 303.807 85.1535 303.679 84.6116 303.679C84.2353 303.679 83.9117 303.762 83.6407 303.927C83.3698 304.093 83.2343 304.349 83.2343 304.695C83.2343 304.966 83.3397 305.207 83.5504 305.417C83.7612 305.628 84.0321 305.816 84.3632 305.982C84.6944 306.147 85.0406 306.305 85.4018 306.456C86.0039 306.697 86.5533 306.96 87.0501 307.246C87.5468 307.517 87.9381 307.848 88.2241 308.24C88.5252 308.631 88.6757 309.135 88.6757 309.752C88.6757 310.655 88.3445 311.408 87.6823 312.01C87.035 312.612 86.177 312.913 85.1083 312.913C84.4159 312.913 83.7913 312.793 83.2343 312.552C82.6774 312.296 82.2033 311.973 81.8119 311.581C81.4356 311.19 81.1496 310.791 80.9539 310.385L82.3764 309.504ZM95.0726 312.913C94.1092 312.913 93.2513 312.688 92.4987 312.236C91.7611 311.769 91.1816 311.13 90.7601 310.317C90.3537 309.504 90.1505 308.563 90.1505 307.494C90.1505 306.411 90.3612 305.462 90.7827 304.65C91.2192 303.837 91.8213 303.205 92.589 302.753C93.3717 302.301 94.2748 302.076 95.2984 302.076C96.3219 302.076 97.1949 302.294 97.9174 302.73C98.655 303.152 99.2195 303.762 99.6108 304.559C100.002 305.357 100.198 306.305 100.198 307.404C100.198 307.51 100.19 307.622 100.175 307.743C100.175 307.848 100.175 307.916 100.175 307.946H91.302V306.411H98.7528L98.0303 307.449C98.0755 307.374 98.1206 307.261 98.1658 307.111C98.211 306.945 98.2335 306.81 98.2335 306.704C98.2335 306.087 98.1056 305.553 97.8497 305.101C97.6089 304.65 97.2702 304.296 96.8337 304.04C96.3972 303.784 95.8854 303.656 95.2984 303.656C94.606 303.656 94.0114 303.807 93.5147 304.108C93.033 304.394 92.6567 304.815 92.3858 305.372C92.1299 305.914 91.9944 306.584 91.9794 307.382C91.9794 308.194 92.1073 308.887 92.3632 309.459C92.6191 310.031 92.9954 310.467 93.4921 310.768C93.9888 311.069 94.5909 311.22 95.2984 311.22C96.0058 311.22 96.6305 311.069 97.1724 310.768C97.7142 310.452 98.1733 309.978 98.5496 309.346L100.017 310.272C99.4753 311.145 98.7905 311.807 97.9626 312.259C97.1498 312.695 96.1864 312.913 95.0726 312.913ZM103.486 309.481C103.486 309.873 103.577 310.211 103.757 310.497C103.953 310.783 104.216 311.002 104.548 311.152C104.894 311.288 105.285 311.355 105.722 311.355C106.279 311.355 106.775 311.242 107.212 311.017C107.663 310.791 108.017 310.475 108.273 310.068C108.544 309.647 108.679 309.165 108.679 308.623L109.041 309.978C109.041 310.64 108.837 311.19 108.431 311.626C108.04 312.063 107.55 312.386 106.963 312.597C106.391 312.808 105.819 312.913 105.247 312.913C104.615 312.913 104.021 312.785 103.464 312.529C102.922 312.259 102.485 311.875 102.154 311.378C101.823 310.881 101.657 310.279 101.657 309.572C101.657 308.563 102.011 307.758 102.719 307.156C103.441 306.539 104.442 306.23 105.722 306.23C106.474 306.23 107.099 306.32 107.596 306.501C108.107 306.667 108.514 306.862 108.815 307.088C109.116 307.299 109.319 307.472 109.424 307.607V308.669C108.898 308.307 108.356 308.051 107.799 307.901C107.242 307.735 106.647 307.653 106.015 307.653C105.428 307.653 104.946 307.728 104.57 307.878C104.209 308.029 103.938 308.24 103.757 308.511C103.577 308.781 103.486 309.105 103.486 309.481ZM103.215 304.695L102.335 303.363C102.726 303.077 103.261 302.791 103.938 302.505C104.63 302.219 105.458 302.076 106.422 302.076C107.234 302.076 107.942 302.204 108.544 302.46C109.161 302.7 109.635 303.054 109.966 303.521C110.313 303.987 110.486 304.559 110.486 305.237V312.688H108.679V305.485C108.679 305.124 108.619 304.83 108.499 304.604C108.378 304.364 108.205 304.175 107.979 304.04C107.769 303.905 107.52 303.807 107.234 303.747C106.948 303.686 106.647 303.656 106.331 303.656C105.819 303.656 105.353 303.716 104.931 303.837C104.525 303.957 104.179 304.1 103.893 304.266C103.607 304.431 103.381 304.574 103.215 304.695ZM115.35 302.301V312.688H113.544V302.301H115.35ZM118.488 304.288C118.248 304.108 118.029 303.98 117.834 303.905C117.638 303.814 117.39 303.769 117.089 303.769C116.637 303.769 116.283 303.882 116.027 304.108C115.771 304.334 115.591 304.642 115.485 305.033C115.395 305.425 115.35 305.869 115.35 306.366H114.537C114.537 305.538 114.68 304.808 114.966 304.175C115.267 303.528 115.651 303.016 116.118 302.64C116.584 302.264 117.058 302.076 117.54 302.076C117.916 302.076 118.263 302.128 118.579 302.234C118.91 302.324 119.211 302.512 119.482 302.798L118.488 304.288ZM121.765 307.494C121.765 308.217 121.916 308.857 122.217 309.414C122.533 309.971 122.954 310.415 123.481 310.746C124.023 311.062 124.632 311.22 125.31 311.22C125.867 311.22 126.386 311.137 126.868 310.972C127.364 310.791 127.793 310.558 128.155 310.272C128.516 309.971 128.772 309.654 128.922 309.323V311.581C128.561 312.003 128.042 312.334 127.364 312.575C126.702 312.8 126.017 312.913 125.31 312.913C124.301 312.913 123.391 312.68 122.578 312.213C121.765 311.747 121.118 311.107 120.636 310.294C120.17 309.466 119.936 308.533 119.936 307.494C119.936 306.441 120.17 305.508 120.636 304.695C121.118 303.882 121.765 303.242 122.578 302.776C123.391 302.309 124.301 302.076 125.31 302.076C126.017 302.076 126.702 302.196 127.364 302.437C128.042 302.663 128.561 302.986 128.922 303.408V305.666C128.772 305.319 128.516 305.003 128.155 304.717C127.793 304.431 127.364 304.206 126.868 304.04C126.386 303.859 125.867 303.769 125.31 303.769C124.632 303.769 124.023 303.927 123.481 304.243C122.954 304.559 122.533 305.003 122.217 305.575C121.916 306.132 121.765 306.772 121.765 307.494ZM133.54 295.076V312.688H131.734V295.076H133.54ZM138.395 306.366C138.395 305.508 138.207 304.86 137.83 304.424C137.469 303.987 136.92 303.769 136.182 303.769C135.655 303.769 135.189 303.882 134.782 304.108C134.391 304.334 134.082 304.642 133.857 305.033C133.646 305.425 133.54 305.869 133.54 306.366H132.953C132.953 305.538 133.112 304.808 133.428 304.175C133.744 303.528 134.173 303.016 134.715 302.64C135.271 302.264 135.911 302.076 136.634 302.076C137.356 302.076 137.981 302.226 138.508 302.527C139.05 302.828 139.464 303.28 139.75 303.882C140.051 304.484 140.201 305.237 140.201 306.14V312.688H138.395V306.366Z" fill="white"/>
<rect x="164.965" y="355.461" width="221.134" height="54.5334" rx="27.2667" fill="#1E2128" stroke="#244582"/>
<path d="M227.031 374.902H228.95V385.514C228.95 386.598 229.244 387.471 229.831 388.133C230.418 388.795 231.276 389.127 232.405 389.127C233.534 389.127 234.392 388.795 234.979 388.133C235.566 387.471 235.859 386.598 235.859 385.514V374.902H237.779V385.514C237.779 386.297 237.651 387.019 237.395 387.682C237.154 388.344 236.793 388.916 236.311 389.397C235.844 389.879 235.28 390.255 234.618 390.526C233.955 390.797 233.218 390.933 232.405 390.933C231.592 390.933 230.855 390.797 230.192 390.526C229.53 390.255 228.958 389.879 228.476 389.397C228.01 388.916 227.648 388.344 227.393 387.682C227.152 387.019 227.031 386.297 227.031 385.514V374.902ZM241.594 387.523C241.804 387.84 242.045 388.133 242.316 388.404C242.587 388.675 242.896 388.893 243.242 389.059C243.603 389.209 243.995 389.285 244.416 389.285C244.928 389.285 245.327 389.172 245.613 388.946C245.914 388.705 246.064 388.381 246.064 387.975C246.064 387.614 245.944 387.313 245.703 387.072C245.477 386.816 245.184 386.605 244.822 386.44C244.461 386.259 244.077 386.094 243.671 385.943C243.219 385.762 242.76 385.552 242.294 385.311C241.842 385.055 241.458 384.731 241.142 384.34C240.841 383.934 240.691 383.429 240.691 382.827C240.691 382.21 240.849 381.698 241.165 381.292C241.496 380.885 241.917 380.584 242.429 380.389C242.956 380.193 243.498 380.095 244.055 380.095C244.612 380.095 245.131 380.186 245.613 380.366C246.109 380.547 246.546 380.788 246.922 381.089C247.298 381.39 247.592 381.736 247.803 382.127L246.358 383.053C246.072 382.662 245.71 382.338 245.274 382.082C244.853 381.826 244.371 381.698 243.829 381.698C243.453 381.698 243.129 381.781 242.858 381.947C242.587 382.112 242.452 382.368 242.452 382.714C242.452 382.985 242.557 383.226 242.768 383.437C242.979 383.648 243.249 383.836 243.581 384.001C243.912 384.167 244.258 384.325 244.619 384.475C245.221 384.716 245.771 384.98 246.267 385.266C246.764 385.537 247.155 385.868 247.441 386.259C247.743 386.65 247.893 387.155 247.893 387.772C247.893 388.675 247.562 389.428 246.9 390.03C246.252 390.632 245.394 390.933 244.326 390.933C243.633 390.933 243.009 390.812 242.452 390.572C241.895 390.316 241.421 389.992 241.029 389.601C240.653 389.209 240.367 388.81 240.171 388.404L241.594 387.523ZM254.29 390.933C253.327 390.933 252.469 390.707 251.716 390.255C250.978 389.789 250.399 389.149 249.977 388.336C249.571 387.523 249.368 386.583 249.368 385.514C249.368 384.43 249.579 383.482 250 382.669C250.437 381.856 251.039 381.224 251.806 380.773C252.589 380.321 253.492 380.095 254.516 380.095C255.539 380.095 256.412 380.313 257.135 380.75C257.872 381.171 258.437 381.781 258.828 382.579C259.22 383.377 259.415 384.325 259.415 385.424C259.415 385.529 259.408 385.642 259.393 385.762C259.393 385.868 259.393 385.935 259.393 385.966H250.519V384.43H257.97L257.248 385.469C257.293 385.394 257.338 385.281 257.383 385.13C257.428 384.965 257.451 384.829 257.451 384.724C257.451 384.107 257.323 383.572 257.067 383.121C256.826 382.669 256.488 382.315 256.051 382.06C255.615 381.804 255.103 381.676 254.516 381.676C253.823 381.676 253.229 381.826 252.732 382.127C252.25 382.413 251.874 382.835 251.603 383.392C251.347 383.934 251.212 384.603 251.197 385.401C251.197 386.214 251.325 386.906 251.581 387.478C251.836 388.05 252.213 388.487 252.709 388.788C253.206 389.089 253.808 389.239 254.516 389.239C255.223 389.239 255.848 389.089 256.39 388.788C256.932 388.472 257.391 387.998 257.767 387.365L259.235 388.291C258.693 389.164 258.008 389.826 257.18 390.278C256.367 390.715 255.404 390.933 254.29 390.933ZM263.697 380.321V390.707H261.891V380.321H263.697ZM266.836 382.308C266.595 382.127 266.376 381.999 266.181 381.924C265.985 381.834 265.737 381.789 265.436 381.789C264.984 381.789 264.63 381.902 264.374 382.127C264.119 382.353 263.938 382.662 263.833 383.053C263.742 383.444 263.697 383.888 263.697 384.385H262.884C262.884 383.557 263.027 382.827 263.313 382.195C263.614 381.548 263.998 381.036 264.465 380.66C264.931 380.283 265.406 380.095 265.887 380.095C266.264 380.095 266.61 380.148 266.926 380.253C267.257 380.344 267.558 380.532 267.829 380.818L266.836 382.308ZM277.573 376.709V374.902H284.64V376.709H277.573ZM277.573 383.03V381.224H284.414V383.03H277.573ZM276.512 374.902H278.431V390.707H276.512V374.902ZM287.688 373.096H289.495V390.707H287.688V373.096ZM291.989 385.514C291.989 384.46 292.222 383.527 292.689 382.714C293.17 381.902 293.818 381.262 294.63 380.795C295.443 380.329 296.354 380.095 297.362 380.095C298.386 380.095 299.297 380.329 300.094 380.795C300.907 381.262 301.547 381.902 302.014 382.714C302.495 383.527 302.736 384.46 302.736 385.514C302.736 386.553 302.495 387.486 302.014 388.314C301.547 389.127 300.907 389.766 300.094 390.233C299.297 390.7 298.386 390.933 297.362 390.933C296.354 390.933 295.443 390.7 294.63 390.233C293.818 389.766 293.17 389.127 292.689 388.314C292.222 387.486 291.989 386.553 291.989 385.514ZM293.818 385.514C293.818 386.237 293.968 386.876 294.269 387.433C294.585 387.99 295.007 388.434 295.534 388.765C296.075 389.081 296.685 389.239 297.362 389.239C298.04 389.239 298.642 389.081 299.169 388.765C299.711 388.434 300.132 387.99 300.433 387.433C300.749 386.876 300.907 386.237 300.907 385.514C300.907 384.792 300.749 384.152 300.433 383.595C300.132 383.023 299.711 382.579 299.169 382.263C298.642 381.947 298.04 381.789 297.362 381.789C296.685 381.789 296.075 381.947 295.534 382.263C295.007 382.579 294.585 383.023 294.269 383.595C293.968 384.152 293.818 384.792 293.818 385.514ZM303.306 380.321H305.338L307.935 387.072L310.757 379.531L313.782 387.117L316.402 380.321H318.434L313.918 391.497L310.78 383.934L307.822 391.497L303.306 380.321Z" fill="white"/>
<rect x="379.622" y="430.219" width="251.036" height="54.5334" rx="27.2667" fill="#1E2128" stroke="#244582"/>
<path d="M465.479 461.288L469.588 449.66H471.733L465.524 466.255L460.783 453.973L456.041 466.255L449.832 449.66H451.977L456.177 461.288L460.783 448.87L465.479 461.288ZM473.658 450.789C473.658 450.443 473.778 450.149 474.019 449.908C474.275 449.668 474.568 449.547 474.899 449.547C475.246 449.547 475.539 449.668 475.78 449.908C476.021 450.149 476.141 450.443 476.141 450.789C476.141 451.12 476.021 451.414 475.78 451.67C475.539 451.91 475.246 452.031 474.899 452.031C474.568 452.031 474.275 451.91 474.019 451.67C473.778 451.414 473.658 451.12 473.658 450.789ZM473.996 455.079H475.803V465.465H473.996V455.079ZM481.329 455.079V465.465H479.523V455.079H481.329ZM484.467 457.066C484.226 456.885 484.008 456.757 483.813 456.682C483.617 456.592 483.368 456.546 483.067 456.546C482.616 456.546 482.262 456.659 482.006 456.885C481.75 457.111 481.57 457.419 481.464 457.811C481.374 458.202 481.329 458.646 481.329 459.143H480.516C480.516 458.315 480.659 457.585 480.945 456.953C481.246 456.306 481.63 455.794 482.097 455.418C482.563 455.041 483.037 454.853 483.519 454.853C483.895 454.853 484.242 454.906 484.558 455.011C484.889 455.101 485.19 455.29 485.461 455.576L484.467 457.066ZM490.95 465.691C489.987 465.691 489.129 465.465 488.376 465.013C487.639 464.547 487.059 463.907 486.638 463.094C486.231 462.281 486.028 461.341 486.028 460.272C486.028 459.188 486.239 458.24 486.66 457.427C487.097 456.614 487.699 455.982 488.466 455.53C489.249 455.079 490.152 454.853 491.176 454.853C492.199 454.853 493.072 455.071 493.795 455.508C494.533 455.929 495.097 456.539 495.488 457.337C495.88 458.134 496.075 459.083 496.075 460.182C496.075 460.287 496.068 460.4 496.053 460.52C496.053 460.626 496.053 460.693 496.053 460.723H487.18V459.188H494.63L493.908 460.227C493.953 460.151 493.998 460.039 494.043 459.888C494.088 459.722 494.111 459.587 494.111 459.482C494.111 458.864 493.983 458.33 493.727 457.879C493.486 457.427 493.148 457.073 492.711 456.817C492.275 456.561 491.763 456.434 491.176 456.434C490.483 456.434 489.889 456.584 489.392 456.885C488.911 457.171 488.534 457.593 488.263 458.149C488.007 458.691 487.872 459.361 487.857 460.159C487.857 460.972 487.985 461.664 488.241 462.236C488.497 462.808 488.873 463.245 489.37 463.546C489.866 463.847 490.468 463.997 491.176 463.997C491.883 463.997 492.508 463.847 493.05 463.546C493.592 463.23 494.051 462.755 494.427 462.123L495.895 463.049C495.353 463.922 494.668 464.584 493.84 465.036C493.027 465.472 492.064 465.691 490.95 465.691ZM497.761 455.079H502.954V456.772H497.761V455.079ZM502.773 450.021C502.623 449.765 502.442 449.607 502.231 449.547C502.036 449.472 501.847 449.434 501.667 449.434C501.441 449.434 501.245 449.502 501.08 449.637C500.929 449.758 500.809 449.969 500.719 450.27C500.628 450.571 500.583 450.97 500.583 451.466V465.465H498.777V451.241C498.777 450.413 498.897 449.735 499.138 449.208C499.379 448.682 499.718 448.29 500.154 448.034C500.606 447.763 501.148 447.628 501.78 447.628C502.111 447.628 502.404 447.673 502.66 447.763C502.916 447.854 503.134 447.967 503.315 448.102C503.511 448.238 503.661 448.381 503.767 448.531L502.773 450.021ZM506.818 455.079V465.465H505.011V455.079H506.818ZM509.956 457.066C509.715 456.885 509.497 456.757 509.301 456.682C509.106 456.592 508.857 456.546 508.556 456.546C508.105 456.546 507.751 456.659 507.495 456.885C507.239 457.111 507.059 457.419 506.953 457.811C506.863 458.202 506.818 458.646 506.818 459.143H506.005C506.005 458.315 506.148 457.585 506.434 456.953C506.735 456.306 507.119 455.794 507.585 455.418C508.052 455.041 508.526 454.853 509.008 454.853C509.384 454.853 509.73 454.906 510.046 455.011C510.378 455.101 510.679 455.29 510.949 455.576L509.956 457.066ZM513.563 462.259C513.563 462.65 513.654 462.989 513.834 463.275C514.03 463.561 514.293 463.779 514.625 463.93C514.971 464.065 515.362 464.133 515.799 464.133C516.356 464.133 516.852 464.02 517.289 463.794C517.74 463.568 518.094 463.252 518.35 462.846C518.621 462.424 518.756 461.943 518.756 461.401L519.118 462.755C519.118 463.418 518.915 463.967 518.508 464.404C518.117 464.84 517.628 465.164 517.041 465.375C516.469 465.585 515.897 465.691 515.325 465.691C514.692 465.691 514.098 465.563 513.541 465.307C512.999 465.036 512.562 464.652 512.231 464.155C511.9 463.659 511.735 463.056 511.735 462.349C511.735 461.341 512.088 460.535 512.796 459.933C513.518 459.316 514.519 459.007 515.799 459.007C516.551 459.007 517.176 459.098 517.673 459.278C518.184 459.444 518.591 459.64 518.892 459.865C519.193 460.076 519.396 460.249 519.502 460.385V461.446C518.975 461.085 518.433 460.829 517.876 460.678C517.319 460.513 516.724 460.43 516.092 460.43C515.505 460.43 515.024 460.505 514.647 460.656C514.286 460.806 514.015 461.017 513.834 461.288C513.654 461.559 513.563 461.882 513.563 462.259ZM513.293 457.472L512.412 456.14C512.803 455.854 513.338 455.568 514.015 455.282C514.707 454.996 515.535 454.853 516.499 454.853C517.311 454.853 518.019 454.981 518.621 455.237C519.238 455.478 519.712 455.831 520.043 456.298C520.39 456.765 520.563 457.337 520.563 458.014V465.465H518.756V458.262C518.756 457.901 518.696 457.608 518.576 457.382C518.455 457.141 518.282 456.953 518.057 456.817C517.846 456.682 517.597 456.584 517.311 456.524C517.025 456.464 516.724 456.434 516.408 456.434C515.897 456.434 515.43 456.494 515.008 456.614C514.602 456.735 514.256 456.878 513.97 457.043C513.684 457.209 513.458 457.352 513.293 457.472ZM537.845 458.917V465.465H536.039V459.143C536.039 458.255 535.873 457.6 535.542 457.179C535.226 456.757 534.729 456.546 534.052 456.546C533.555 456.546 533.126 456.652 532.765 456.863C532.404 457.058 532.125 457.352 531.93 457.743C531.734 458.134 531.636 458.601 531.636 459.143V465.465H529.83V459.143C529.83 458.255 529.664 457.6 529.333 457.179C529.017 456.757 528.52 456.546 527.843 456.546C527.346 456.546 526.917 456.652 526.556 456.863C526.195 457.058 525.916 457.352 525.721 457.743C525.525 458.134 525.427 458.601 525.427 459.143V465.465H523.621V455.079H525.427V456.592C525.743 456.005 526.135 455.568 526.601 455.282C527.083 454.996 527.647 454.853 528.295 454.853C529.017 454.853 529.634 455.026 530.146 455.372C530.673 455.704 531.057 456.178 531.297 456.795C531.659 456.148 532.11 455.666 532.652 455.35C533.194 455.019 533.811 454.853 534.504 454.853C535.211 454.853 535.813 455.011 536.31 455.327C536.807 455.643 537.183 456.11 537.439 456.727C537.71 457.329 537.845 458.059 537.845 458.917ZM545.257 465.691C544.294 465.691 543.436 465.465 542.683 465.013C541.946 464.547 541.366 463.907 540.945 463.094C540.538 462.281 540.335 461.341 540.335 460.272C540.335 459.188 540.546 458.24 540.967 457.427C541.404 456.614 542.006 455.982 542.773 455.53C543.556 455.079 544.459 454.853 545.483 454.853C546.506 454.853 547.379 455.071 548.102 455.508C548.839 455.929 549.404 456.539 549.795 457.337C550.187 458.134 550.382 459.083 550.382 460.182C550.382 460.287 550.375 460.4 550.36 460.52C550.36 460.626 550.36 460.693 550.36 460.723H541.486V459.188H548.937L548.215 460.227C548.26 460.151 548.305 460.039 548.35 459.888C548.395 459.722 548.418 459.587 548.418 459.482C548.418 458.864 548.29 458.33 548.034 457.879C547.793 457.427 547.455 457.073 547.018 456.817C546.582 456.561 546.07 456.434 545.483 456.434C544.79 456.434 544.196 456.584 543.699 456.885C543.217 457.171 542.841 457.593 542.57 458.149C542.314 458.691 542.179 459.361 542.164 460.159C542.164 460.972 542.292 461.664 542.548 462.236C542.803 462.808 543.18 463.245 543.677 463.546C544.173 463.847 544.775 463.997 545.483 463.997C546.19 463.997 546.815 463.847 547.357 463.546C547.899 463.23 548.358 462.755 548.734 462.123L550.202 463.049C549.66 463.922 548.975 464.584 548.147 465.036C547.334 465.472 546.371 465.691 545.257 465.691ZM553.287 462.281C553.498 462.597 553.738 462.891 554.009 463.162C554.28 463.433 554.589 463.651 554.935 463.817C555.296 463.967 555.688 464.042 556.109 464.042C556.621 464.042 557.02 463.93 557.306 463.704C557.607 463.463 557.757 463.139 557.757 462.733C557.757 462.372 557.637 462.071 557.396 461.83C557.17 461.574 556.877 461.363 556.516 461.198C556.154 461.017 555.771 460.851 555.364 460.701C554.913 460.52 554.453 460.309 553.987 460.069C553.535 459.813 553.151 459.489 552.835 459.098C552.534 458.691 552.384 458.187 552.384 457.585C552.384 456.968 552.542 456.456 552.858 456.05C553.189 455.643 553.611 455.342 554.122 455.147C554.649 454.951 555.191 454.853 555.748 454.853C556.305 454.853 556.824 454.943 557.306 455.124C557.803 455.305 558.239 455.545 558.615 455.846C558.992 456.148 559.285 456.494 559.496 456.885L558.051 457.811C557.765 457.419 557.404 457.096 556.967 456.84C556.546 456.584 556.064 456.456 555.522 456.456C555.146 456.456 554.822 456.539 554.551 456.704C554.28 456.87 554.145 457.126 554.145 457.472C554.145 457.743 554.25 457.984 554.461 458.195C554.672 458.405 554.943 458.594 555.274 458.759C555.605 458.925 555.951 459.083 556.312 459.233C556.914 459.474 557.464 459.737 557.961 460.023C558.457 460.294 558.849 460.626 559.135 461.017C559.436 461.408 559.586 461.913 559.586 462.53C559.586 463.433 559.255 464.185 558.593 464.787C557.946 465.39 557.088 465.691 556.019 465.691C555.326 465.691 554.702 465.57 554.145 465.329C553.588 465.073 553.114 464.75 552.722 464.359C552.346 463.967 552.06 463.568 551.864 463.162L553.287 462.281Z" fill="white"/>
<rect x="922.141" y="584.002" width="279.871" height="54.5334" rx="27.2667" fill="#1E2128" stroke="#244582"/>
<path d="M1001.41 603.445H1003.33V619.25H1001.41V603.445ZM1006.15 619.25H1002.47V617.331H1006.15C1007.04 617.331 1007.85 617.195 1008.59 616.924C1009.33 616.638 1009.96 616.24 1010.48 615.728C1011.01 615.201 1011.42 614.569 1011.7 613.831C1011.99 613.094 1012.13 612.266 1012.13 611.348C1012.13 610.429 1011.99 609.602 1011.7 608.864C1011.42 608.126 1011.01 607.502 1010.48 606.99C1009.96 606.463 1009.33 606.064 1008.59 605.793C1007.85 605.507 1007.04 605.364 1006.15 605.364H1002.47V603.445H1006.15C1007.68 603.445 1009.05 603.776 1010.24 604.439C1011.43 605.101 1012.36 606.027 1013.04 607.216C1013.71 608.39 1014.05 609.767 1014.05 611.348C1014.05 612.928 1013.71 614.313 1013.04 615.502C1012.36 616.676 1011.43 617.594 1010.24 618.257C1009.05 618.919 1007.68 619.25 1006.15 619.25ZM1020.66 619.476C1019.7 619.476 1018.84 619.25 1018.09 618.798C1017.35 618.332 1016.77 617.692 1016.35 616.879C1015.94 616.066 1015.74 615.126 1015.74 614.057C1015.74 612.973 1015.95 612.025 1016.37 611.212C1016.81 610.399 1017.41 609.767 1018.18 609.316C1018.96 608.864 1019.86 608.638 1020.89 608.638C1021.91 608.638 1022.78 608.856 1023.5 609.293C1024.24 609.714 1024.81 610.324 1025.2 611.122C1025.59 611.92 1025.79 612.868 1025.79 613.967C1025.79 614.072 1025.78 614.185 1025.76 614.305C1025.76 614.411 1025.76 614.478 1025.76 614.509H1016.89V612.973H1024.34L1023.62 614.012C1023.66 613.937 1023.71 613.824 1023.75 613.673C1023.8 613.508 1023.82 613.372 1023.82 613.267C1023.82 612.65 1023.69 612.115 1023.44 611.664C1023.2 611.212 1022.86 610.858 1022.42 610.603C1021.98 610.347 1021.47 610.219 1020.89 610.219C1020.19 610.219 1019.6 610.369 1019.1 610.67C1018.62 610.956 1018.24 611.378 1017.97 611.935C1017.72 612.477 1017.58 613.146 1017.57 613.944C1017.57 614.757 1017.69 615.449 1017.95 616.021C1018.21 616.593 1018.58 617.03 1019.08 617.331C1019.58 617.632 1020.18 617.782 1020.89 617.782C1021.59 617.782 1022.22 617.632 1022.76 617.331C1023.3 617.015 1023.76 616.541 1024.14 615.908L1025.6 616.834C1025.06 617.707 1024.38 618.369 1023.55 618.821C1022.74 619.258 1021.77 619.476 1020.66 619.476ZM1026.24 608.864H1028.27L1031.2 616.202L1034.14 608.864H1036.17L1031.2 620.04L1026.24 608.864ZM1041.56 619.476C1040.6 619.476 1039.74 619.25 1038.99 618.798C1038.25 618.332 1037.67 617.692 1037.25 616.879C1036.84 616.066 1036.64 615.126 1036.64 614.057C1036.64 612.973 1036.85 612.025 1037.27 611.212C1037.71 610.399 1038.31 609.767 1039.08 609.316C1039.86 608.864 1040.76 608.638 1041.79 608.638C1042.81 608.638 1043.68 608.856 1044.41 609.293C1045.14 609.714 1045.71 610.324 1046.1 611.122C1046.49 611.92 1046.69 612.868 1046.69 613.967C1046.69 614.072 1046.68 614.185 1046.67 614.305C1046.67 614.411 1046.67 614.478 1046.67 614.509H1037.79V612.973H1045.24L1044.52 614.012C1044.57 613.937 1044.61 613.824 1044.66 613.673C1044.7 613.508 1044.72 613.372 1044.72 613.267C1044.72 612.65 1044.6 612.115 1044.34 611.664C1044.1 611.212 1043.76 610.858 1043.32 610.603C1042.89 610.347 1042.38 610.219 1041.79 610.219C1041.1 610.219 1040.5 610.369 1040 610.67C1039.52 610.956 1039.15 611.378 1038.88 611.935C1038.62 612.477 1038.48 613.146 1038.47 613.944C1038.47 614.757 1038.6 615.449 1038.85 616.021C1039.11 616.593 1039.49 617.03 1039.98 617.331C1040.48 617.632 1041.08 617.782 1041.79 617.782C1042.5 617.782 1043.12 617.632 1043.66 617.331C1044.2 617.015 1044.66 616.541 1045.04 615.908L1046.51 616.834C1045.97 617.707 1045.28 618.369 1044.45 618.821C1043.64 619.258 1042.68 619.476 1041.56 619.476ZM1049.16 601.639H1050.97V619.25H1049.16V601.639ZM1053.46 614.057C1053.46 613.003 1053.7 612.07 1054.16 611.257C1054.65 610.444 1055.29 609.805 1056.11 609.338C1056.92 608.872 1057.83 608.638 1058.84 608.638C1059.86 608.638 1060.77 608.872 1061.57 609.338C1062.38 609.805 1063.02 610.444 1063.49 611.257C1063.97 612.07 1064.21 613.003 1064.21 614.057C1064.21 615.096 1063.97 616.029 1063.49 616.857C1063.02 617.67 1062.38 618.309 1061.57 618.776C1060.77 619.242 1059.86 619.476 1058.84 619.476C1057.83 619.476 1056.92 619.242 1056.11 618.776C1055.29 618.309 1054.65 617.67 1054.16 616.857C1053.7 616.029 1053.46 615.096 1053.46 614.057ZM1055.29 614.057C1055.29 614.78 1055.44 615.419 1055.74 615.976C1056.06 616.533 1056.48 616.977 1057.01 617.308C1057.55 617.624 1058.16 617.782 1058.84 617.782C1059.51 617.782 1060.12 617.624 1060.64 617.308C1061.19 616.977 1061.61 616.533 1061.91 615.976C1062.22 615.419 1062.38 614.78 1062.38 614.057C1062.38 613.334 1062.22 612.695 1061.91 612.138C1061.61 611.566 1061.19 611.122 1060.64 610.806C1060.12 610.49 1059.51 610.332 1058.84 610.332C1058.16 610.332 1057.55 610.49 1057.01 610.806C1056.48 611.122 1056.06 611.566 1055.74 612.138C1055.44 612.695 1055.29 613.334 1055.29 614.057ZM1068.39 624.217H1066.58V608.864H1068.39V624.217ZM1077.08 614.057C1077.08 615.171 1076.85 616.134 1076.38 616.947C1075.91 617.76 1075.29 618.384 1074.5 618.821C1073.74 619.258 1072.88 619.476 1071.93 619.476C1071.07 619.476 1070.31 619.258 1069.65 618.821C1069 618.384 1068.49 617.76 1068.11 616.947C1067.75 616.134 1067.57 615.171 1067.57 614.057C1067.57 612.928 1067.75 611.965 1068.11 611.167C1068.49 610.354 1069 609.729 1069.65 609.293C1070.31 608.856 1071.07 608.638 1071.93 608.638C1072.88 608.638 1073.74 608.856 1074.5 609.293C1075.29 609.729 1075.91 610.354 1076.38 611.167C1076.85 611.965 1077.08 612.928 1077.08 614.057ZM1075.25 614.057C1075.25 613.259 1075.08 612.582 1074.75 612.025C1074.44 611.468 1074.01 611.047 1073.47 610.761C1072.94 610.475 1072.35 610.332 1071.7 610.332C1071.18 610.332 1070.66 610.475 1070.15 610.761C1069.64 611.047 1069.21 611.468 1068.88 612.025C1068.55 612.582 1068.39 613.259 1068.39 614.057C1068.39 614.855 1068.55 615.532 1068.88 616.089C1069.21 616.646 1069.64 617.067 1070.15 617.353C1070.66 617.639 1071.18 617.782 1071.7 617.782C1072.35 617.782 1072.94 617.639 1073.47 617.353C1074.01 617.067 1074.44 616.646 1074.75 616.089C1075.08 615.532 1075.25 614.855 1075.25 614.057ZM1093.79 612.702V619.25H1091.99V612.928C1091.99 612.04 1091.82 611.385 1091.49 610.964C1091.17 610.542 1090.68 610.332 1090 610.332C1089.5 610.332 1089.07 610.437 1088.71 610.648C1088.35 610.843 1088.07 611.137 1087.88 611.528C1087.68 611.92 1087.58 612.386 1087.58 612.928V619.25H1085.78V612.928C1085.78 612.04 1085.61 611.385 1085.28 610.964C1084.97 610.542 1084.47 610.332 1083.79 610.332C1083.29 610.332 1082.87 610.437 1082.5 610.648C1082.14 610.843 1081.86 611.137 1081.67 611.528C1081.47 611.92 1081.38 612.386 1081.38 612.928V619.25H1079.57V608.864H1081.38V610.377C1081.69 609.79 1082.08 609.353 1082.55 609.067C1083.03 608.781 1083.6 608.638 1084.24 608.638C1084.97 608.638 1085.58 608.811 1086.09 609.158C1086.62 609.489 1087 609.963 1087.25 610.58C1087.61 609.933 1088.06 609.451 1088.6 609.135C1089.14 608.804 1089.76 608.638 1090.45 608.638C1091.16 608.638 1091.76 608.796 1092.26 609.112C1092.75 609.428 1093.13 609.895 1093.39 610.512C1093.66 611.114 1093.79 611.844 1093.79 612.702ZM1101.21 619.476C1100.24 619.476 1099.38 619.25 1098.63 618.798C1097.89 618.332 1097.31 617.692 1096.89 616.879C1096.49 616.066 1096.28 615.126 1096.28 614.057C1096.28 612.973 1096.49 612.025 1096.92 611.212C1097.35 610.399 1097.95 609.767 1098.72 609.316C1099.5 608.864 1100.41 608.638 1101.43 608.638C1102.45 608.638 1103.33 608.856 1104.05 609.293C1104.79 609.714 1105.35 610.324 1105.74 611.122C1106.13 611.92 1106.33 612.868 1106.33 613.967C1106.33 614.072 1106.32 614.185 1106.31 614.305C1106.31 614.411 1106.31 614.478 1106.31 614.509H1097.43V612.973H1104.89L1104.16 614.012C1104.21 613.937 1104.25 613.824 1104.3 613.673C1104.34 613.508 1104.37 613.372 1104.37 613.267C1104.37 612.65 1104.24 612.115 1103.98 611.664C1103.74 611.212 1103.4 610.858 1102.97 610.603C1102.53 610.347 1102.02 610.219 1101.43 610.219C1100.74 610.219 1100.14 610.369 1099.65 610.67C1099.17 610.956 1098.79 611.378 1098.52 611.935C1098.26 612.477 1098.13 613.146 1098.11 613.944C1098.11 614.757 1098.24 615.449 1098.5 616.021C1098.75 616.593 1099.13 617.03 1099.62 617.331C1100.12 617.632 1100.72 617.782 1101.43 617.782C1102.14 617.782 1102.76 617.632 1103.31 617.331C1103.85 617.015 1104.31 616.541 1104.68 615.908L1106.15 616.834C1105.61 617.707 1104.92 618.369 1104.1 618.821C1103.28 619.258 1102.32 619.476 1101.21 619.476ZM1115.47 612.928C1115.47 612.07 1115.28 611.423 1114.9 610.986C1114.53 610.55 1113.98 610.332 1113.25 610.332C1112.73 610.332 1112.26 610.444 1111.85 610.67C1111.46 610.881 1111.15 611.182 1110.93 611.573C1110.72 611.965 1110.61 612.416 1110.61 612.928V619.25H1108.81V608.864H1110.61V610.49C1110.96 609.857 1111.39 609.391 1111.9 609.09C1112.43 608.789 1113.03 608.638 1113.71 608.638C1114.8 608.638 1115.67 609.007 1116.3 609.745C1116.95 610.467 1117.27 611.453 1117.27 612.702V619.25H1115.47V612.928ZM1119.09 608.864H1124.28V610.557H1119.09V608.864ZM1120.78 605.251H1122.59V619.25H1120.78V605.251Z" fill="white"/>
<rect x="640.771" y="507.678" width="274.463" height="55.5334" rx="27.7667" fill="#244582"/>
<path d="M732.693 527.883H734.613V538.494C734.613 539.578 734.906 540.451 735.493 541.114C736.08 541.776 736.938 542.107 738.067 542.107C739.196 542.107 740.054 541.776 740.641 541.114C741.228 540.451 741.521 539.578 741.521 538.494V527.883H743.441V538.494C743.441 539.277 743.313 540 743.057 540.662C742.816 541.324 742.455 541.896 741.973 542.378C741.506 542.86 740.942 543.236 740.28 543.507C739.617 543.778 738.88 543.913 738.067 543.913C737.254 543.913 736.517 543.778 735.854 543.507C735.192 543.236 734.62 542.86 734.138 542.378C733.672 541.896 733.311 541.324 733.055 540.662C732.814 540 732.693 539.277 732.693 538.494V527.883ZM746.94 527.883H748.859V543.688H746.94V527.883ZM759.243 527.883H761.162V543.688H759.243V527.883ZM763.985 543.688H760.304V541.768H763.985C764.873 541.768 765.685 541.633 766.423 541.362C767.161 541.076 767.793 540.677 768.32 540.165C768.846 539.638 769.253 539.006 769.539 538.269C769.825 537.531 769.968 536.703 769.968 535.785C769.968 534.867 769.825 534.039 769.539 533.301C769.253 532.564 768.846 531.939 768.32 531.427C767.793 530.901 767.161 530.502 766.423 530.231C765.685 529.945 764.873 529.802 763.985 529.802H760.304V527.883H763.985C765.52 527.883 766.882 528.214 768.071 528.876C769.26 529.538 770.194 530.464 770.871 531.653C771.548 532.827 771.887 534.205 771.887 535.785C771.887 537.366 771.548 538.75 770.871 539.94C770.194 541.114 769.26 542.032 768.071 542.694C766.882 543.356 765.52 543.688 763.985 543.688ZM778.495 543.913C777.532 543.913 776.674 543.688 775.921 543.236C775.184 542.769 774.604 542.13 774.183 541.317C773.776 540.504 773.573 539.563 773.573 538.494C773.573 537.411 773.784 536.462 774.205 535.65C774.642 534.837 775.244 534.205 776.012 533.753C776.794 533.301 777.698 533.076 778.721 533.076C779.745 533.076 780.618 533.294 781.34 533.73C782.078 534.152 782.642 534.762 783.034 535.559C783.425 536.357 783.621 537.305 783.621 538.404C783.621 538.51 783.613 538.622 783.598 538.743C783.598 538.848 783.598 538.916 783.598 538.946H774.725V537.411H782.176L781.453 538.449C781.498 538.374 781.543 538.261 781.589 538.111C781.634 537.945 781.656 537.81 781.656 537.704C781.656 537.087 781.528 536.553 781.272 536.101C781.032 535.65 780.693 535.296 780.256 535.04C779.82 534.784 779.308 534.656 778.721 534.656C778.029 534.656 777.434 534.807 776.937 535.108C776.456 535.394 776.079 535.815 775.809 536.372C775.553 536.914 775.417 537.584 775.402 538.382C775.402 539.194 775.53 539.887 775.786 540.459C776.042 541.031 776.418 541.467 776.915 541.768C777.412 542.069 778.014 542.22 778.721 542.22C779.429 542.22 780.053 542.069 780.595 541.768C781.137 541.452 781.596 540.978 781.972 540.346L783.44 541.272C782.898 542.145 782.213 542.807 781.385 543.259C780.573 543.695 779.609 543.913 778.495 543.913ZM786.525 540.504C786.736 540.82 786.977 541.114 787.248 541.385C787.519 541.655 787.827 541.874 788.173 542.039C788.535 542.19 788.926 542.265 789.348 542.265C789.859 542.265 790.258 542.152 790.544 541.926C790.845 541.686 790.996 541.362 790.996 540.956C790.996 540.594 790.875 540.293 790.635 540.052C790.409 539.797 790.115 539.586 789.754 539.42C789.393 539.24 789.009 539.074 788.602 538.923C788.151 538.743 787.692 538.532 787.225 538.291C786.774 538.035 786.39 537.712 786.074 537.32C785.773 536.914 785.622 536.41 785.622 535.808C785.622 535.191 785.78 534.679 786.096 534.272C786.427 533.866 786.849 533.565 787.361 533.369C787.887 533.174 788.429 533.076 788.986 533.076C789.543 533.076 790.063 533.166 790.544 533.347C791.041 533.527 791.477 533.768 791.854 534.069C792.23 534.37 792.524 534.716 792.734 535.108L791.289 536.033C791.003 535.642 790.642 535.318 790.206 535.063C789.784 534.807 789.302 534.679 788.761 534.679C788.384 534.679 788.061 534.762 787.79 534.927C787.519 535.093 787.383 535.349 787.383 535.695C787.383 535.966 787.489 536.207 787.699 536.417C787.91 536.628 788.181 536.816 788.512 536.982C788.843 537.147 789.189 537.305 789.551 537.456C790.153 537.697 790.702 537.96 791.199 538.246C791.696 538.517 792.087 538.848 792.373 539.24C792.674 539.631 792.825 540.135 792.825 540.752C792.825 541.655 792.493 542.408 791.831 543.01C791.184 543.612 790.326 543.913 789.257 543.913C788.565 543.913 787.94 543.793 787.383 543.552C786.826 543.296 786.352 542.973 785.961 542.581C785.585 542.19 785.299 541.791 785.103 541.385L786.525 540.504ZM795.203 529.012C795.203 528.665 795.323 528.372 795.564 528.131C795.82 527.89 796.113 527.77 796.444 527.77C796.791 527.77 797.084 527.89 797.325 528.131C797.566 528.372 797.686 528.665 797.686 529.012C797.686 529.343 797.566 529.636 797.325 529.892C797.084 530.133 796.791 530.253 796.444 530.253C796.113 530.253 795.82 530.133 795.564 529.892C795.323 529.636 795.203 529.343 795.203 529.012ZM795.541 533.301H797.347V543.688H795.541V533.301ZM800.368 544.365H802.197C802.197 544.862 802.332 545.321 802.603 545.742C802.874 546.179 803.258 546.525 803.754 546.781C804.251 547.052 804.838 547.187 805.516 547.187C806.042 547.187 806.562 547.059 807.073 546.803C807.585 546.547 808.007 546.141 808.338 545.584C808.684 545.042 808.857 544.335 808.857 543.462V533.301H810.663V543.462C810.663 544.651 810.415 545.644 809.918 546.442C809.422 547.255 808.782 547.864 807.999 548.271C807.216 548.677 806.389 548.881 805.516 548.881C804.507 548.881 803.611 548.692 802.829 548.316C802.061 547.94 801.459 547.405 801.022 546.713C800.586 546.036 800.368 545.253 800.368 544.365ZM800.164 538.494C800.164 537.366 800.398 536.402 800.864 535.604C801.331 534.792 801.956 534.167 802.738 533.73C803.521 533.294 804.379 533.076 805.312 533.076C806.185 533.076 806.945 533.294 807.593 533.73C808.24 534.167 808.744 534.792 809.105 535.604C809.482 536.402 809.67 537.366 809.67 538.494C809.67 539.608 809.482 540.572 809.105 541.385C808.744 542.197 808.24 542.822 807.593 543.259C806.945 543.695 806.185 543.913 805.312 543.913C804.379 543.913 803.521 543.695 802.738 543.259C801.956 542.822 801.331 542.197 800.864 541.385C800.398 540.572 800.164 539.608 800.164 538.494ZM801.993 538.494C801.993 539.292 802.151 539.97 802.467 540.527C802.799 541.083 803.235 541.505 803.777 541.791C804.319 542.077 804.906 542.22 805.538 542.22C806.065 542.22 806.584 542.077 807.096 541.791C807.608 541.505 808.029 541.083 808.36 540.527C808.692 539.97 808.857 539.292 808.857 538.494C808.857 537.892 808.759 537.366 808.564 536.914C808.368 536.447 808.105 536.056 807.773 535.74C807.457 535.424 807.104 535.183 806.712 535.017C806.321 534.852 805.929 534.769 805.538 534.769C804.906 534.769 804.319 534.912 803.777 535.198C803.235 535.484 802.799 535.906 802.467 536.462C802.151 537.019 801.993 537.697 801.993 538.494ZM820.605 537.366C820.605 536.508 820.417 535.86 820.04 535.424C819.664 534.987 819.115 534.769 818.392 534.769C817.865 534.769 817.399 534.882 816.992 535.108C816.601 535.318 816.292 535.62 816.067 536.011C815.856 536.402 815.751 536.854 815.751 537.366V543.688H813.944V533.301H815.751V534.927C816.097 534.295 816.526 533.828 817.038 533.527C817.564 533.226 818.166 533.076 818.844 533.076C819.943 533.076 820.808 533.444 821.44 534.182C822.088 534.905 822.411 535.89 822.411 537.14V543.688H820.605V537.366Z" fill="white"/>
<circle cx="867.31" cy="446.027" r="48.6898" fill="#244582"/>
<path d="M874.476 413.842C875.037 414.197 875.411 414.393 875.71 414.608C876.118 414.81 876.459 415.123 876.695 415.513C876.93 415.902 877.049 416.35 877.037 416.805C876.935 420.039 877.037 423.272 877.037 426.497C877.08 426.777 877.169 427.049 877.299 427.301C877.621 427.244 877.934 427.15 878.234 427.02C878.708 426.801 879.238 426.732 879.752 426.822C880.267 426.912 880.741 427.157 881.113 427.525C881.506 428.1 881.747 428.766 881.814 429.46C881.87 437.638 881.87 445.816 881.879 454.004C881.879 455.714 881.879 457.434 881.879 459.154C881.832 459.629 881.937 460.107 882.178 460.518C882.612 460.851 883.103 461.101 883.627 461.257L885.44 462.126C885.61 462.204 885.785 462.273 885.963 462.332C886.608 462.509 886.991 462.855 886.991 463.509C886.991 468.865 886.991 474.211 886.991 479.567C886.991 480.342 886.524 480.277 885.973 480.277H854.849C854.849 479.959 854.793 479.688 854.793 479.426V452.069C854.754 451.495 854.886 450.923 855.172 450.424C855.458 449.925 855.886 449.522 856.4 449.265C856.992 449.11 857.613 449.11 858.204 449.265C858.651 449.378 859.084 449.541 859.494 449.751C859.494 449.275 859.559 448.975 859.569 448.686C859.569 444.723 859.569 440.76 859.569 436.797C859.569 435.759 859.737 435.629 860.812 435.245C861.358 434.989 861.886 434.696 862.391 434.367C862.823 434.066 863.309 433.851 863.821 433.731C864.7 433.638 864.672 433.142 864.672 432.6C864.672 429.74 864.672 426.886 864.672 424.039C864.672 418.356 864.672 412.674 864.672 406.991C864.672 406.795 864.672 406.598 864.728 406.252C865.504 406.795 866.223 407.243 866.868 407.776C867.037 407.916 867.018 408.281 867.018 408.552C867.018 416.029 867.018 423.528 867.018 431.049V431.656C867.018 432.17 867.41 432.152 867.775 432.012C868.181 431.914 868.56 431.729 868.887 431.469C869.219 431.137 869.429 430.702 869.485 430.236C869.541 427.516 869.485 424.787 869.485 422.057C869.485 418.45 869.485 414.833 869.485 411.225C869.485 410.963 869.485 410.701 869.485 410.29C870.168 410.757 870.738 411.122 871.271 411.533C871.476 411.682 871.64 411.88 871.749 412.108C871.859 412.337 871.909 412.589 871.897 412.842C871.897 417.534 871.897 422.229 871.897 426.927C871.897 427.862 872.065 428.796 872.168 429.796C872.68 429.456 873.225 429.168 873.794 428.936C874.364 428.75 874.308 428.394 874.308 428.002V418.992C874.308 417.599 874.308 416.188 874.308 414.823C874.308 414.552 874.308 414.281 874.364 413.748M867.607 464.687C866.971 464.341 866.41 464.023 865.831 463.752C864.952 463.313 864.055 462.902 863.158 462.491C862.933 462.388 862.69 462.322 862.457 462.238C862.35 462.453 862.278 462.683 862.242 462.92C862.242 464.509 862.242 466.098 862.307 467.687C862.307 468.426 862.307 469.155 862.307 469.884C862.307 470.454 862.532 470.818 863.242 470.734C863.952 470.65 864.7 470.734 865.429 470.734H878.458C878.897 470.734 879.393 470.809 879.393 470.164C879.393 467.818 879.393 465.491 879.393 463.117C879.402 462.999 879.386 462.88 879.348 462.768C879.309 462.657 879.249 462.554 879.169 462.466C879.089 462.379 878.993 462.308 878.885 462.26C878.777 462.211 878.661 462.184 878.542 462.182C878.381 462.158 878.226 462.104 878.084 462.023C877.533 461.733 877.009 461.397 876.439 461.145C875.505 460.724 874.57 460.388 873.635 459.958C872.701 459.528 871.869 458.967 870.943 458.528C870.018 458.088 869.074 457.743 868.139 457.35C867.682 457.163 867.205 456.976 866.775 456.752C866.345 456.527 865.737 456.107 865.186 455.817C864.251 455.406 863.317 455.079 862.382 454.649C861.447 454.219 860.513 453.658 859.578 453.172C859.27 453.004 858.942 452.864 858.643 452.695C858.535 452.637 858.416 452.6 858.293 452.587C858.17 452.575 858.046 452.586 857.928 452.622C857.81 452.658 857.7 452.716 857.604 452.795C857.509 452.873 857.43 452.97 857.372 453.079C857.218 453.473 857.129 453.889 857.111 454.312C857.111 461.434 857.111 468.556 857.111 475.679C857.111 476.669 857.223 476.781 858.298 476.781C866.616 476.781 874.938 476.781 883.262 476.781C884.075 476.781 884.328 476.529 884.318 475.847C884.318 472.445 884.318 469.033 884.318 465.622C884.318 464.911 883.851 464.612 883.309 464.332C883.1 464.262 882.888 464.202 882.673 464.154C882.44 464.07 882.215 463.967 881.982 463.865C881.907 464.096 881.853 464.334 881.823 464.575C881.823 467.379 881.823 470.229 881.823 473.052C881.823 473.697 881.608 473.865 880.888 473.865C874.171 473.865 867.448 473.865 860.718 473.865C859.971 473.865 859.784 473.669 859.784 473.005C859.784 468.332 859.784 463.565 859.784 458.845C859.784 457.574 859.784 457.546 860.98 458.023C861.915 458.378 862.756 458.789 863.616 459.219C864.476 459.649 865.345 460.21 866.233 460.659C867.41 461.247 868.616 461.79 869.897 462.388L867.644 464.724M874.542 432.142C873.551 432.554 872.747 432.881 871.962 433.236C871.42 433.479 870.915 433.787 870.373 434.04C869.831 434.292 869.205 434.47 868.654 434.741C867.719 435.189 866.915 435.675 865.999 436.133C865.083 436.591 863.999 436.834 863.111 437.348C862.737 437.563 862.176 437.797 862.176 438.507C862.251 442.489 862.176 446.48 862.242 450.471C862.259 450.625 862.306 450.773 862.381 450.908C862.457 451.043 862.559 451.161 862.681 451.256C863.045 451.498 863.43 451.708 863.831 451.882C864.354 452.153 864.868 452.462 865.41 452.714C866.345 453.125 867.28 453.471 868.214 453.91C869.504 454.527 870.757 455.238 872.056 455.845C873.355 456.453 874.729 456.995 876.056 457.593C876.617 457.845 877.122 458.219 877.692 458.528C878.262 458.836 878.738 458.93 879.411 459.191V458.135C879.411 449.349 879.411 440.56 879.411 431.768C879.435 431.57 879.435 431.369 879.411 431.17C879.369 431.01 879.291 430.862 879.183 430.736C879.075 430.61 878.94 430.511 878.788 430.444C878.636 430.378 878.472 430.346 878.306 430.352C878.141 430.358 877.978 430.401 877.832 430.479C877.559 430.608 877.328 430.81 877.163 431.062C876.998 431.314 876.906 431.607 876.897 431.909C876.953 438.853 876.897 445.798 876.897 452.742C876.897 453.06 876.897 453.368 876.841 453.91C876.505 453.66 876.152 453.432 875.785 453.228C874.85 452.817 873.85 452.452 872.897 452.06C872.439 451.864 871.962 451.639 871.56 451.424C871.158 451.209 870.439 450.826 869.859 450.564C869.28 450.303 868.728 450.144 868.177 449.891C867.625 449.639 866.896 449.181 866.195 448.957C864.943 448.527 864.663 448.265 864.691 447.003C864.747 444.583 864.831 442.171 864.906 439.75C864.901 439.623 864.92 439.497 864.962 439.377C864.985 439.255 865.052 439.146 865.149 439.068C865.878 438.685 866.625 438.311 867.373 437.947L869.336 437.012L871.738 435.881V444.994C871.336 444.872 871.018 444.76 870.682 444.685C870.322 444.632 869.992 444.452 869.752 444.178C869.513 443.904 869.378 443.554 869.373 443.19C869.373 442.48 869.373 441.769 869.317 441.068C869.297 440.951 869.248 440.841 869.175 440.748C869.101 440.655 869.006 440.582 868.897 440.536C868.411 440.47 867.317 441.47 867.308 441.994C867.308 443.24 867.308 444.502 867.308 445.779C867.308 445.947 867.308 446.218 867.439 446.265C868.28 446.686 869.149 447.078 870.028 447.443C870.626 447.695 871.261 447.891 871.897 448.134C872.327 448.312 872.738 448.555 873.177 448.723C873.542 448.842 873.914 448.942 874.29 449.022C874.419 448.744 874.507 448.448 874.551 448.144C874.551 443.19 874.551 438.246 874.551 433.292V432.17" fill="white"/>
</svg>
