<svg xmlns="http://www.w3.org/2000/svg" width="1203" height="678" fill="none"><path stroke="#fff" d="M37 212c32.29 59.894 122.143 179.683 223.228 179.683 6.863 30.206 43.241 86.786 133.843 71.458 90.601-15.327 44.302-6.386 9.827 0 91.725 37.801 295.952 104.289 379.066 67.834.763 18.476 86.032 43.021 152.144 59.3 47.024 11.578 82.882 53.034 125.502 76.048C1072.48 672.736 1086.83 677 1104 677"/><path fill="#fff" d="M375.976 23.062v-6.584h24.155v6.584h-8.415V47h-7.369V23.062h-8.371Zm33.467-10.072V47h-6.628V12.99h6.628Zm6.409 21.801c0-1.191-.218-2.107-.654-2.747-.436-.64-1.192-.959-2.267-.959-.698 0-1.308.16-1.831.48-.524.29-.931.712-1.221 1.264-.291.523-.436 1.177-.436 1.962h-1.134c0-1.598.262-3.037.785-4.316.523-1.309 1.308-2.34 2.354-3.096 1.076-.785 2.442-1.177 4.099-1.177s2.98.29 3.968.872c1.017.581 1.758 1.438 2.224 2.572.465 1.134.697 2.53.697 4.186V47h-6.584V34.791Zm21.991 12.645c-2.326 0-4.346-.422-6.061-1.264-1.686-.872-2.994-2.093-3.924-3.663-.931-1.57-1.396-3.416-1.396-5.538 0-2.15.451-4.011 1.352-5.58.901-1.57 2.195-2.777 3.881-3.62 1.715-.843 3.735-1.264 6.06-1.264 2.326 0 4.288.407 5.887 1.22 1.599.785 2.819 1.934 3.662 3.445.843 1.512 1.265 3.343 1.265 5.494v.96c0 .29-.029.537-.087.74h-18.313v-3.662h12.383l-1.57 2.006c.145-.204.262-.45.349-.742.116-.32.174-.58.174-.784 0-.872-.16-1.628-.479-2.268a3.524 3.524 0 0 0-1.352-1.482c-.581-.349-1.265-.523-2.049-.523-.989 0-1.817.218-2.486.654-.668.436-1.177 1.104-1.526 2.005-.32.873-.494 1.977-.523 3.314 0 1.221.174 2.267.523 3.14.349.872.872 1.54 1.57 2.005.697.436 1.555.654 2.572.654 1.163 0 2.151-.218 2.965-.654.843-.436 1.512-1.09 2.006-1.962l5.886 1.44c-1.046 1.976-2.47 3.458-4.273 4.447-1.773.988-3.938 1.482-6.496 1.482Zm34.404 9.157h-6.584v-29.65h6.584v29.65Zm16.395-19.622c0 2.326-.465 4.288-1.396 5.887-.901 1.599-2.078 2.805-3.531 3.619a9.161 9.161 0 0 1-4.622 1.22c-1.744 0-3.256-.435-4.535-1.307-1.25-.902-2.209-2.151-2.878-3.75-.668-1.628-1.003-3.517-1.003-5.669 0-2.18.335-4.07 1.003-5.668.669-1.599 1.628-2.834 2.878-3.706 1.279-.901 2.791-1.352 4.535-1.352a9.16 9.16 0 0 1 4.622 1.221c1.453.814 2.63 2.02 3.531 3.62.931 1.569 1.396 3.53 1.396 5.885Zm-6.933 0c0-1.046-.218-1.933-.654-2.66a4.346 4.346 0 0 0-1.744-1.656 5.12 5.12 0 0 0-2.398-.567c-.756 0-1.497.189-2.224.567-.698.349-1.279.886-1.744 1.613-.465.727-.698 1.628-.698 2.703 0 1.076.233 1.977.698 2.704.465.727 1.046 1.279 1.744 1.657a5.09 5.09 0 0 0 2.224.523 5.12 5.12 0 0 0 2.398-.567 4.346 4.346 0 0 0 1.744-1.657c.436-.727.654-1.613.654-2.66Zm17.405-10.028V47h-6.496V26.943h6.496Zm5.8 6.802a4.362 4.362 0 0 0-1.134-.829c-.378-.203-.858-.305-1.439-.305a2.88 2.88 0 0 0-1.7.523c-.495.35-.873.858-1.134 1.526-.262.669-.393 1.483-.393 2.442l-1.569-2.31c0-1.6.305-3.024.915-4.274.64-1.25 1.468-2.238 2.486-2.965 1.017-.727 2.078-1.09 3.183-1.09.726 0 1.424.145 2.093.436.668.29 1.177.698 1.526 1.221l-2.834 5.625Zm3.814 3.226c0-2.122.494-3.967 1.483-5.537.988-1.57 2.354-2.79 4.098-3.663 1.744-.872 3.707-1.308 5.887-1.308 2.18 0 4.127.436 5.842 1.308 1.744.872 3.111 2.093 4.099 3.663 1.017 1.57 1.526 3.415 1.526 5.537 0 2.093-.509 3.925-1.526 5.494-.988 1.57-2.355 2.79-4.099 3.663-1.715.872-3.662 1.308-5.842 1.308-2.18 0-4.143-.436-5.887-1.308-1.744-.872-3.11-2.093-4.098-3.663-.989-1.57-1.483-3.4-1.483-5.494Zm6.759 0c0 1.047.218 1.948.654 2.704a4.762 4.762 0 0 0 1.7 1.7c.698.407 1.483.61 2.355.61.843 0 1.613-.203 2.311-.61a4.352 4.352 0 0 0 1.7-1.7c.436-.756.654-1.657.654-2.704 0-1.046-.218-1.947-.654-2.703a4.279 4.279 0 0 0-1.7-1.744 4.505 4.505 0 0 0-2.311-.61c-.872 0-1.657.203-2.355.61s-1.264.988-1.7 1.744c-.436.756-.654 1.657-.654 2.703Zm25.675 0c0 1.076.232 2.006.697 2.791a4.948 4.948 0 0 0 1.919 1.788 5.8 5.8 0 0 0 2.703.654 7.54 7.54 0 0 0 2.311-.35 7.994 7.994 0 0 0 2.049-1.046 5.526 5.526 0 0 0 1.57-1.613v6.41c-.697.552-1.57 1.003-2.616 1.351-1.046.32-2.325.48-3.837.48-2.209 0-4.2-.436-5.974-1.308-1.744-.872-3.124-2.093-4.142-3.663-.988-1.57-1.482-3.4-1.482-5.494 0-2.122.494-3.953 1.482-5.493 1.018-1.57 2.398-2.791 4.142-3.663 1.774-.872 3.765-1.308 5.974-1.308 1.512 0 2.791.174 3.837.523 1.046.32 1.919.727 2.616 1.22v6.454a5.342 5.342 0 0 0-1.613-1.613 7.728 7.728 0 0 0-2.093-1.003 7.54 7.54 0 0 0-2.224-.349 5.51 5.51 0 0 0-2.703.698 5.165 5.165 0 0 0-1.919 1.875c-.465.785-.697 1.671-.697 2.66Zm26.211 10.465c-2.325 0-4.346-.422-6.061-1.264-1.686-.872-2.994-2.093-3.924-3.663-.93-1.57-1.395-3.416-1.395-5.538 0-2.15.45-4.011 1.351-5.58.901-1.57 2.195-2.777 3.881-3.62 1.715-.843 3.735-1.264 6.061-1.264 2.325 0 4.287.407 5.886 1.22 1.599.785 2.82 1.934 3.663 3.445.843 1.512 1.264 3.343 1.264 5.494v.96c0 .29-.029.537-.087.74h-18.313v-3.662h12.383l-1.57 2.006c.146-.204.262-.45.349-.742.116-.32.175-.58.175-.784 0-.872-.16-1.628-.48-2.268a3.518 3.518 0 0 0-1.352-1.482c-.581-.349-1.264-.523-2.049-.523-.988 0-1.817.218-2.485.654-.669.436-1.178 1.104-1.526 2.005-.32.873-.495 1.977-.524 3.314 0 1.221.175 2.267.524 3.14.348.872.872 1.54 1.569 2.005.698.436 1.555.654 2.573.654 1.163 0 2.151-.218 2.965-.654.843-.436 1.511-1.09 2.005-1.962l5.887 1.44c-1.047 1.976-2.471 3.458-4.273 4.447-1.773.988-3.939 1.482-6.497 1.482Zm15.882-7.718c1.017.843 1.933 1.512 2.747 2.006.843.465 1.584.8 2.224 1.003.639.174 1.191.262 1.656.262.669 0 1.163-.146 1.483-.436.32-.291.48-.669.48-1.134 0-.436-.131-.8-.393-1.09-.261-.32-.712-.625-1.352-.916-.61-.29-1.453-.596-2.528-.915a21.235 21.235 0 0 1-2.747-1.221 6.427 6.427 0 0 1-2.093-1.962c-.553-.814-.829-1.86-.829-3.14 0-1.22.32-2.253.959-3.096.669-.843 1.556-1.482 2.66-1.918 1.134-.436 2.427-.654 3.881-.654 1.163 0 2.238.13 3.226.392 1.018.262 1.963.61 2.835 1.047a15.76 15.76 0 0 1 2.529 1.526l-2.355 4.273a10.817 10.817 0 0 0-2.878-1.919c-1.075-.523-2.064-.785-2.965-.785-.61 0-1.075.117-1.395.35a1.115 1.115 0 0 0-.436.915c0 .436.174.8.523 1.09.378.29.901.567 1.57.828.698.233 1.541.538 2.529.916a18.75 18.75 0 0 1 2.878 1.308c.901.494 1.613 1.12 2.136 1.875.552.756.829 1.759.829 3.009 0 2.15-.669 3.779-2.006 4.883-1.308 1.076-3.154 1.613-5.538 1.613-1.453 0-2.805-.174-4.055-.523a15.88 15.88 0 0 1-3.401-1.308 23.043 23.043 0 0 1-2.921-1.918l2.747-4.36Zm19.885 0c1.017.843 1.933 1.512 2.747 2.006.843.465 1.584.8 2.224 1.003.639.174 1.192.262 1.657.262.668 0 1.162-.146 1.482-.436.32-.291.48-.669.48-1.134 0-.436-.131-.8-.393-1.09-.261-.32-.712-.625-1.351-.916-.611-.29-1.454-.596-2.529-.915a21.235 21.235 0 0 1-2.747-1.221 6.427 6.427 0 0 1-2.093-1.962c-.552-.814-.829-1.86-.829-3.14 0-1.22.32-2.253.96-3.096.668-.843 1.555-1.482 2.659-1.918 1.134-.436 2.428-.654 3.881-.654 1.163 0 2.238.13 3.227.392 1.017.262 1.962.61 2.834 1.047a15.76 15.76 0 0 1 2.529 1.526l-2.355 4.273a10.817 10.817 0 0 0-2.878-1.919c-1.075-.523-2.063-.785-2.965-.785-.61 0-1.075.117-1.395.35a1.115 1.115 0 0 0-.436.915c0 .436.175.8.523 1.09.378.29.901.567 1.57.828.698.233 1.541.538 2.529.916a18.75 18.75 0 0 1 2.878 1.308c.901.494 1.613 1.12 2.136 1.875.553.756.829 1.759.829 3.009 0 2.15-.669 3.779-2.006 4.883-1.308 1.076-3.154 1.613-5.538 1.613-1.453 0-2.805-.174-4.055-.523a15.9 15.9 0 0 1-3.401-1.308 23.043 23.043 0 0 1-2.921-1.918l2.747-4.36Zm30.69-2.747c0-2.122.494-3.967 1.483-5.537.988-1.57 2.354-2.79 4.098-3.663 1.744-.872 3.706-1.308 5.887-1.308 2.18 0 4.127.436 5.842 1.308 1.744.872 3.111 2.093 4.099 3.663 1.017 1.57 1.526 3.415 1.526 5.537 0 2.093-.509 3.925-1.526 5.494-.988 1.57-2.355 2.79-4.099 3.663-1.715.872-3.662 1.308-5.842 1.308-2.181 0-4.143-.436-5.887-1.308-1.744-.872-3.11-2.093-4.098-3.663-.989-1.57-1.483-3.4-1.483-5.494Zm6.759 0c0 1.047.218 1.948.654 2.704a4.762 4.762 0 0 0 1.7 1.7c.698.407 1.483.61 2.355.61.843 0 1.613-.203 2.311-.61a4.352 4.352 0 0 0 1.7-1.7c.436-.756.654-1.657.654-2.704 0-1.046-.218-1.947-.654-2.703a4.279 4.279 0 0 0-1.7-1.744 4.505 4.505 0 0 0-2.311-.61c-.872 0-1.657.203-2.355.61s-1.264.988-1.7 1.744c-.436.756-.654 1.657-.654 2.703Zm18.349-10.028h13.692v5.45h-13.692v-5.45Zm12.95-7.63c-.29-.378-.61-.655-.959-.83a2.149 2.149 0 0 0-1.046-.26c-.436 0-.814.101-1.134.305-.291.203-.523.523-.698.959-.174.436-.261 1.003-.261 1.7V47h-6.323V19.53c0-1.511.277-2.805.829-3.88a5.958 5.958 0 0 1 2.529-2.486c1.133-.581 2.529-.872 4.186-.872 1.017 0 1.875.131 2.572.393.698.232 1.294.523 1.788.872.494.32.886.625 1.177.915l-2.66 4.84Zm25.401 12.12L695.458 47h-7.761l4.927-32.048 12.993 18.618 13.038-18.618L723.582 47h-7.762l-1.831-15.566-8.372 12.732-8.328-12.732ZM727.228 19.4c0-1.047.378-1.89 1.134-2.53.755-.668 1.656-1.002 2.703-1.002 1.075 0 1.977.334 2.703 1.003.756.64 1.134 1.482 1.134 2.529 0 1.046-.378 1.904-1.134 2.572-.726.669-1.628 1.003-2.703 1.003-1.047 0-1.948-.334-2.703-1.003-.756-.669-1.134-1.526-1.134-2.572Zm.654 7.543h6.366V47h-6.366V26.943Zm24.826 7.848c0-1.191-.233-2.107-.698-2.747-.436-.64-1.177-.959-2.224-.959-.697 0-1.308.145-1.831.436a3.02 3.02 0 0 0-1.221 1.265c-.29.552-.436 1.22-.436 2.005V47h-6.627V26.943h6.627v3.008c.582-1.104 1.366-1.962 2.355-2.572 1.017-.61 2.267-.916 3.75-.916 2.5 0 4.316.669 5.45 2.006 1.134 1.337 1.7 3.212 1.7 5.625V47h-6.845V34.791Zm22.246 12.645c-2.326 0-4.346-.422-6.061-1.264-1.686-.872-2.994-2.093-3.924-3.663-.93-1.57-1.396-3.416-1.396-5.538 0-2.15.451-4.011 1.352-5.58.901-1.57 2.195-2.777 3.881-3.62 1.715-.843 3.735-1.264 6.06-1.264 2.326 0 4.288.407 5.887 1.22 1.599.785 2.819 1.934 3.662 3.445.843 1.512 1.265 3.343 1.265 5.494v.96c0 .29-.029.537-.087.74H767.28v-3.662h12.383l-1.57 2.006c.145-.204.262-.45.349-.742.116-.32.174-.58.174-.784 0-.872-.16-1.628-.479-2.268a3.524 3.524 0 0 0-1.352-1.482c-.581-.349-1.264-.523-2.049-.523-.989 0-1.817.218-2.486.654-.668.436-1.177 1.104-1.526 2.005-.32.873-.494 1.977-.523 3.314 0 1.221.174 2.267.523 3.14.349.872.872 1.54 1.57 2.005.698.436 1.555.654 2.572.654 1.163 0 2.152-.218 2.965-.654.843-.436 1.512-1.09 2.006-1.962l5.887 1.44c-1.047 1.976-2.471 3.458-4.274 4.447-1.773.988-3.938 1.482-6.496 1.482Zm15.434-30.958h6.845l-4.491 11.119h-4.709l2.355-11.119Zm27.69-3.488h6.584V47h-6.584V12.99Zm-16.395 23.981c0-2.267.451-4.17 1.352-5.711.93-1.541 2.122-2.718 3.575-3.532a9.318 9.318 0 0 1 4.622-1.221c1.686 0 3.169.421 4.448 1.264 1.308.843 2.34 2.05 3.095 3.62.756 1.54 1.134 3.4 1.134 5.58 0 2.152-.378 4.012-1.134 5.582-.755 1.57-1.787 2.776-3.095 3.619-1.279.843-2.762 1.264-4.448 1.264a9.319 9.319 0 0 1-4.622-1.22c-1.453-.815-2.645-1.992-3.575-3.533-.901-1.57-1.352-3.473-1.352-5.712Zm6.933 0c0 1.047.218 1.963.654 2.747a4.9 4.9 0 0 0 1.744 1.788c.727.407 1.526.61 2.398.61.756 0 1.483-.203 2.18-.61.727-.407 1.323-.988 1.788-1.744.465-.785.698-1.715.698-2.79 0-1.076-.233-1.992-.698-2.748-.465-.784-1.061-1.38-1.788-1.787a4.265 4.265 0 0 0-2.18-.61c-.872 0-1.671.217-2.398.653-.727.407-1.308 1.003-1.744 1.788-.436.756-.654 1.657-.654 2.703ZM449.52 79.478h7.369V110h-7.369V79.478Zm4.622 6.06v-6.06h5.974c2.587 0 4.752.407 6.496 1.221 1.773.785 3.111 1.919 4.012 3.401.901 1.483 1.351 3.27 1.351 5.363 0 2.035-.45 3.808-1.351 5.32-.901 1.482-2.239 2.63-4.012 3.444-1.744.785-3.909 1.178-6.496 1.178h-5.974v-6.061h5.974c1.482 0 2.645-.334 3.488-1.003.843-.669 1.264-1.628 1.264-2.878 0-1.279-.421-2.253-1.264-2.921-.843-.669-2.006-1.003-3.488-1.003h-5.974Zm27.536 4.405V110h-6.497V89.943h6.497Zm5.799 6.802a4.362 4.362 0 0 0-1.134-.829c-.378-.203-.857-.305-1.439-.305a2.88 2.88 0 0 0-1.7.523c-.494.35-.872.858-1.134 1.526-.262.669-.392 1.483-.392 2.442l-1.57-2.31c0-1.6.305-3.024.916-4.274.639-1.25 1.468-2.238 2.485-2.965 1.017-.727 2.078-1.09 3.183-1.09.727 0 1.424.146 2.093.436.668.29 1.177.698 1.526 1.221l-2.834 5.625Zm3.814 3.226c0-2.122.495-3.967 1.483-5.537.988-1.57 2.354-2.79 4.099-3.663 1.744-.872 3.706-1.308 5.886-1.308s4.128.436 5.843 1.308c1.744.872 3.11 2.093 4.098 3.663 1.018 1.57 1.526 3.415 1.526 5.537 0 2.093-.508 3.925-1.526 5.494-.988 1.57-2.354 2.791-4.098 3.663-1.715.872-3.663 1.308-5.843 1.308s-4.142-.436-5.886-1.308c-1.745-.872-3.111-2.093-4.099-3.663-.988-1.569-1.483-3.401-1.483-5.494Zm6.759 0c0 1.047.218 1.948.654 2.704a4.774 4.774 0 0 0 1.7 1.7c.698.407 1.483.611 2.355.611.843 0 1.613-.204 2.311-.611a4.349 4.349 0 0 0 1.7-1.7c.436-.756.654-1.657.654-2.704 0-1.046-.218-1.947-.654-2.703a4.273 4.273 0 0 0-1.7-1.744 4.505 4.505 0 0 0-2.311-.61c-.872 0-1.657.203-2.355.61-.697.407-1.264.988-1.7 1.744-.436.756-.654 1.657-.654 2.703Zm35.355-23.981h6.584V110h-6.584V75.99ZM517.01 99.971c0-2.267.451-4.17 1.352-5.712.93-1.54 2.122-2.717 3.575-3.531a9.318 9.318 0 0 1 4.622-1.221c1.686 0 3.169.421 4.448 1.264 1.308.843 2.34 2.05 3.095 3.62.756 1.54 1.134 3.4 1.134 5.58 0 2.151-.378 4.012-1.134 5.582-.755 1.569-1.787 2.776-3.095 3.619-1.279.843-2.762 1.264-4.448 1.264a9.318 9.318 0 0 1-4.622-1.221c-1.453-.814-2.645-1.991-3.575-3.532-.901-1.569-1.352-3.473-1.352-5.712Zm6.933 0c0 1.047.218 1.963.654 2.747a4.897 4.897 0 0 0 1.744 1.788 4.825 4.825 0 0 0 2.398.611c.756 0 1.483-.204 2.18-.611.727-.407 1.323-.988 1.788-1.744.465-.785.698-1.715.698-2.79 0-1.076-.233-1.992-.698-2.748-.465-.784-1.061-1.38-1.788-1.787a4.265 4.265 0 0 0-2.18-.61c-.872 0-1.671.217-2.398.653-.727.407-1.308 1.003-1.744 1.788-.436.756-.654 1.657-.654 2.703Zm28.045 2.181c0 1.162.218 2.078.654 2.746.436.64 1.191.96 2.267.96.727 0 1.337-.146 1.831-.436.523-.291.93-.712 1.221-1.265.291-.552.436-1.221.436-2.005v-12.21h6.584V110h-6.584v-3.009c-.61 1.076-1.41 1.933-2.398 2.573-.988.61-2.224.916-3.706.916-2.5 0-4.331-.669-5.494-2.006-1.134-1.366-1.701-3.241-1.701-5.625V89.943h6.89v12.209Zm23.728-2.18c0 1.075.232 2.005.698 2.79a4.943 4.943 0 0 0 1.918 1.788 5.8 5.8 0 0 0 2.703.654 7.55 7.55 0 0 0 2.311-.349 8.035 8.035 0 0 0 2.05-1.047 5.528 5.528 0 0 0 1.569-1.613v6.41c-.697.552-1.569 1.003-2.616 1.351-1.046.32-2.325.48-3.837.48-2.209 0-4.2-.436-5.973-1.308-1.745-.872-3.125-2.093-4.143-3.663-.988-1.569-1.482-3.401-1.482-5.494 0-2.122.494-3.953 1.482-5.493 1.018-1.57 2.398-2.791 4.143-3.663 1.773-.872 3.764-1.308 5.973-1.308 1.512 0 2.791.174 3.837.523 1.047.32 1.919.727 2.616 1.22v6.454a5.331 5.331 0 0 0-1.613-1.613 7.714 7.714 0 0 0-2.093-1.003 7.54 7.54 0 0 0-2.224-.349 5.51 5.51 0 0 0-2.703.698 5.163 5.163 0 0 0-1.918 1.875c-.466.785-.698 1.671-.698 2.66Zm13.654-10.03h13.429v5.451H589.37v-5.45Zm3.531-6.976h6.323V110h-6.323V82.966Zm26.431-3.488h7.587V110h-7.587V79.478Zm10.9 30.522h-6.017v-6.54h5.756c1.163 0 2.282-.146 3.357-.436 1.105-.291 2.064-.771 2.878-1.439.843-.669 1.512-1.555 2.006-2.66.494-1.134.741-2.529.741-4.186s-.247-3.038-.741-4.142c-.494-1.134-1.163-2.035-2.006-2.703-.814-.67-1.773-1.149-2.878-1.44a12.804 12.804 0 0 0-3.357-.435h-5.756v-6.54h6.017c3.343 0 6.236.624 8.677 1.874 2.442 1.25 4.332 3.009 5.669 5.276 1.337 2.267 2.005 4.97 2.005 8.11 0 3.11-.668 5.814-2.005 8.11-1.337 2.268-3.227 4.026-5.669 5.276-2.441 1.25-5.334 1.875-8.677 1.875Zm30.627.436c-2.326 0-4.346-.421-6.061-1.264-1.686-.873-2.994-2.093-3.924-3.663-.93-1.57-1.395-3.416-1.395-5.538 0-2.15.45-4.011 1.351-5.58.901-1.57 2.195-2.777 3.881-3.62 1.715-.843 3.735-1.264 6.061-1.264 2.325 0 4.287.407 5.886 1.22 1.599.785 2.82 1.934 3.663 3.445.843 1.512 1.264 3.343 1.264 5.494v.959c0 .291-.029.538-.087.742h-18.313v-3.663h12.383l-1.57 2.006c.146-.204.262-.45.349-.741.116-.32.174-.582.174-.785 0-.872-.159-1.628-.479-2.268a3.524 3.524 0 0 0-1.352-1.482c-.581-.349-1.264-.523-2.049-.523-.989 0-1.817.218-2.486.654-.668.436-1.177 1.104-1.526 2.005-.319.873-.494 1.977-.523 3.314 0 1.221.175 2.268.523 3.14.349.872.872 1.54 1.57 2.005.698.436 1.555.654 2.573.654 1.162 0 2.151-.218 2.965-.654.843-.436 1.511-1.09 2.005-1.962l5.887 1.439c-1.047 1.977-2.471 3.459-4.273 4.448-1.774.988-3.939 1.482-6.497 1.482Zm15.882-7.718c1.017.843 1.933 1.512 2.747 2.006.843.465 1.584.799 2.223 1.003.64.174 1.192.262 1.657.262.669 0 1.163-.146 1.483-.436.32-.291.479-.669.479-1.134 0-.436-.13-.8-.392-1.09-.262-.32-.712-.625-1.352-.916-.61-.291-1.453-.596-2.529-.916a21.197 21.197 0 0 1-2.747-1.22 6.442 6.442 0 0 1-2.093-1.963c-.552-.813-.828-1.86-.828-3.139 0-1.22.32-2.253.959-3.096.669-.843 1.555-1.482 2.66-1.918 1.134-.436 2.427-.654 3.881-.654 1.162 0 2.238.13 3.226.392 1.018.262 1.962.61 2.834 1.047.902.436 1.745.944 2.529 1.526l-2.354 4.273a10.817 10.817 0 0 0-2.878-1.919c-1.075-.523-2.064-.785-2.965-.785-.61 0-1.075.117-1.395.35a1.115 1.115 0 0 0-.436.915c0 .436.174.8.523 1.09.378.29.901.567 1.57.828.697.233 1.54.538 2.529.916 1.046.378 2.005.814 2.877 1.308.902.494 1.614 1.119 2.137 1.875.552.756.828 1.759.828 3.009 0 2.151-.668 3.779-2.005 4.883-1.308 1.076-3.154 1.613-5.538 1.613-1.453 0-2.805-.174-4.055-.523a15.912 15.912 0 0 1-3.401-1.308 23.084 23.084 0 0 1-2.921-1.918l2.747-4.361ZM695.143 82.4c0-1.047.378-1.89 1.134-2.53.756-.668 1.657-1.002 2.703-1.002 1.076 0 1.977.334 2.704 1.003.756.64 1.133 1.482 1.133 2.529 0 1.046-.377 1.903-1.133 2.572-.727.669-1.628 1.003-2.704 1.003-1.046 0-1.947-.334-2.703-1.003-.756-.668-1.134-1.526-1.134-2.572Zm.654 7.543h6.366V110h-6.366V89.943Zm11.048 21.496h6.366c.087.814.32 1.497.698 2.049.406.553.944.959 1.613 1.221.668.291 1.424.436 2.267.436.93 0 1.773-.218 2.529-.654.756-.407 1.352-1.032 1.788-1.875.465-.814.697-1.831.697-3.052V89.943h6.323v19.621c0 2.558-.509 4.636-1.526 6.235-.989 1.599-2.311 2.762-3.968 3.488-1.657.756-3.517 1.134-5.581 1.134-2.471 0-4.52-.378-6.148-1.134-1.599-.755-2.805-1.816-3.619-3.183-.814-1.337-1.294-2.892-1.439-4.665Zm-.436-11.73c0-2.267.45-4.156 1.352-5.668.93-1.511 2.122-2.645 3.575-3.4a9.879 9.879 0 0 1 4.622-1.134c1.686 0 3.168.407 4.447 1.22 1.308.785 2.34 1.934 3.096 3.445.756 1.512 1.134 3.358 1.134 5.538 0 2.151-.378 3.997-1.134 5.537-.756 1.512-1.788 2.675-3.096 3.489-1.279.784-2.761 1.177-4.447 1.177a9.875 9.875 0 0 1-4.622-1.134c-1.453-.785-2.645-1.933-3.575-3.444-.902-1.512-1.352-3.387-1.352-5.625Zm6.933 0c0 1.018.218 1.905.654 2.661a4.336 4.336 0 0 0 1.744 1.656 5.118 5.118 0 0 0 2.398.567c.756 0 1.482-.174 2.18-.523a4.644 4.644 0 0 0 1.788-1.657c.465-.727.697-1.628.697-2.703 0-.814-.145-1.526-.436-2.137a4.175 4.175 0 0 0-1.09-1.526 4.365 4.365 0 0 0-1.482-.915 4.764 4.764 0 0 0-1.657-.306 5.12 5.12 0 0 0-2.398.567 4.34 4.34 0 0 0-1.744 1.657c-.436.727-.654 1.613-.654 2.66Zm33.894-1.918c0-1.191-.232-2.107-.697-2.747-.436-.64-1.178-.959-2.224-.959-.698 0-1.308.145-1.831.436a3 3 0 0 0-1.221 1.265c-.291.552-.436 1.22-.436 2.005V110h-6.628V89.943h6.628v3.008c.581-1.104 1.366-1.962 2.354-2.572 1.018-.61 2.268-.916 3.75-.916 2.5 0 4.317.669 5.45 2.006 1.134 1.337 1.701 3.212 1.701 5.625V110h-6.846V97.791Z"/><rect width="196.571" height="54.533" x=".5" y="277.5" fill="#1E2128" stroke="#244582" rx="27.267"/><path fill="#fff" d="M60.629 304.898h2.145l5.644 7.79h-2.37l-5.42-7.79Zm-2.823-8.015h1.92v15.805h-1.92v-15.805Zm1.061 1.693v-1.693h3.23c1.023 0 1.933.195 2.731.587.813.376 1.453.918 1.92 1.625.48.708.722 1.551.722 2.529 0 .963-.241 1.806-.723 2.529-.466.707-1.106 1.257-1.919 1.648-.798.376-1.708.565-2.732.565h-3.229v-1.694h3.23c.676 0 1.271-.12 1.783-.361a2.758 2.758 0 0 0 1.219-1.039c.301-.451.452-1.001.452-1.648s-.15-1.197-.452-1.648a2.758 2.758 0 0 0-1.22-1.039c-.511-.241-1.105-.361-1.783-.361h-3.229Zm15.48 14.337c-.964 0-1.822-.225-2.575-.677a4.877 4.877 0 0 1-1.738-1.919c-.406-.813-.61-1.754-.61-2.823 0-1.083.211-2.032.633-2.844a4.77 4.77 0 0 1 1.806-1.897c.782-.452 1.686-.677 2.71-.677 1.023 0 1.896.218 2.618.654.738.422 1.302 1.032 1.694 1.829.391.798.587 1.746.587 2.845 0 .106-.008.218-.023.339v.203h-8.873v-1.535h7.45l-.722 1.038c.045-.075.09-.188.136-.338a1.62 1.62 0 0 0 .067-.407c0-.617-.128-1.151-.383-1.603a2.656 2.656 0 0 0-1.016-1.061c-.437-.256-.949-.384-1.536-.384-.692 0-1.287.151-1.784.452-.481.286-.857.707-1.128 1.264-.256.542-.392 1.212-.407 2.01 0 .812.128 1.505.384 2.077.256.572.632 1.008 1.129 1.309.497.301 1.099.452 1.806.452.708 0 1.332-.151 1.874-.452.542-.316 1.001-.79 1.377-1.422l1.468.926c-.542.873-1.227 1.535-2.054 1.987-.813.436-1.777.654-2.89.654Zm8.03-3.409c.21.316.45.61.722.881.27.27.58.489.926.654.36.151.752.226 1.174.226.511 0 .91-.113 1.196-.339.301-.24.452-.564.452-.97 0-.362-.12-.663-.361-.904a2.613 2.613 0 0 0-.88-.632c-.362-.18-.746-.346-1.152-.497-.452-.18-.911-.391-1.378-.632a3.989 3.989 0 0 1-1.151-.971c-.301-.406-.452-.91-.452-1.512 0-.617.158-1.129.474-1.536a2.968 2.968 0 0 1 1.265-.903 4.648 4.648 0 0 1 1.625-.293c.557 0 1.077.09 1.558.271.497.18.934.421 1.31.722s.67.647.88 1.039l-1.445.925a3.533 3.533 0 0 0-1.083-.97 2.727 2.727 0 0 0-1.445-.384c-.377 0-.7.083-.971.248-.271.166-.407.422-.407.768 0 .271.106.512.316.722.211.211.482.399.813.565.331.165.678.323 1.039.474a12.94 12.94 0 0 1 1.648.79c.497.271.888.602 1.174.994.301.391.452.895.452 1.512 0 .903-.332 1.656-.994 2.258-.647.602-1.505.903-2.574.903-.692 0-1.317-.12-1.874-.361a4.843 4.843 0 0 1-1.422-.971 4.664 4.664 0 0 1-.858-1.196l1.422-.881Zm12.696 3.409c-.964 0-1.822-.225-2.574-.677a4.877 4.877 0 0 1-1.739-1.919c-.406-.813-.61-1.754-.61-2.823 0-1.083.211-2.032.633-2.844a4.77 4.77 0 0 1 1.806-1.897c.783-.452 1.686-.677 2.71-.677 1.023 0 1.896.218 2.618.654.738.422 1.302 1.032 1.694 1.829.391.798.587 1.746.587 2.845 0 .106-.008.218-.023.339v.203h-8.873v-1.535h7.45l-.722 1.038c.046-.075.09-.188.136-.338.045-.166.068-.301.068-.407 0-.617-.128-1.151-.384-1.603a2.656 2.656 0 0 0-1.016-1.061c-.437-.256-.949-.384-1.536-.384-.692 0-1.287.151-1.783.452-.482.286-.858.707-1.13 1.264-.255.542-.39 1.212-.406 2.01 0 .812.128 1.505.384 2.077.256.572.632 1.008 1.13 1.309.496.301 1.098.452 1.805.452.708 0 1.332-.151 1.874-.452.542-.316 1.001-.79 1.378-1.422l1.467.926c-.542.873-1.227 1.535-2.054 1.987-.813.436-1.777.654-2.89.654Zm8.413-3.432c0 .392.091.73.271 1.016.196.286.459.505.791.655.346.136.737.203 1.174.203.557 0 1.053-.113 1.49-.338a2.611 2.611 0 0 0 1.467-2.394l.362 1.355c0 .662-.204 1.212-.61 1.648-.391.437-.881.76-1.468.971a4.928 4.928 0 0 1-1.716.316 4.217 4.217 0 0 1-1.783-.384 3.33 3.33 0 0 1-1.31-1.151c-.331-.497-.497-1.099-.497-1.806 0-1.009.354-1.814 1.062-2.416.722-.617 1.723-.926 3.003-.926.752 0 1.377.09 1.874.271.511.166.918.361 1.219.587.301.211.504.384.609.519v1.062a5.29 5.29 0 0 0-1.625-.768 6.218 6.218 0 0 0-1.784-.248c-.587 0-1.069.075-1.445.225-.361.151-.632.362-.813.633a1.71 1.71 0 0 0-.271.97Zm-.271-4.786-.88-1.332c.391-.286.926-.572 1.603-.858.692-.286 1.52-.429 2.484-.429.812 0 1.52.128 2.122.384.617.24 1.091.594 1.422 1.061.347.466.52 1.038.52 1.716v7.451h-1.807v-7.203c0-.361-.06-.655-.18-.881a1.35 1.35 0 0 0-.52-.564 2.203 2.203 0 0 0-.745-.293 4.32 4.32 0 0 0-.903-.091c-.512 0-.978.06-1.4.181-.406.12-.752.263-1.038.429a7.85 7.85 0 0 0-.678.429Zm12.135-2.394v10.387h-1.806v-10.387h1.806Zm3.138 1.987a2.81 2.81 0 0 0-.654-.383c-.196-.091-.444-.136-.745-.136-.452 0-.806.113-1.062.339-.256.226-.436.534-.542.925-.09.392-.135.836-.135 1.333h-.813c0-.828.143-1.558.429-2.191.301-.647.685-1.159 1.152-1.535.466-.376.94-.564 1.422-.564.376 0 .723.052 1.039.158.331.09.632.278.903.564l-.994 1.49Zm3.277 3.206c0 .723.151 1.363.452 1.92a3.7 3.7 0 0 0 1.264 1.332 3.562 3.562 0 0 0 1.829.474c.557 0 1.076-.083 1.558-.248a4.602 4.602 0 0 0 1.287-.7c.361-.301.617-.618.767-.949v2.258c-.361.422-.88.753-1.558.994a6.341 6.341 0 0 1-2.054.338c-1.009 0-1.919-.233-2.732-.7a5.272 5.272 0 0 1-1.942-1.919c-.466-.828-.7-1.761-.7-2.8 0-1.053.234-1.986.7-2.799a5.272 5.272 0 0 1 1.942-1.919c.813-.467 1.723-.7 2.732-.7.707 0 1.392.12 2.054.361.678.226 1.197.549 1.558.971v2.258c-.15-.347-.406-.663-.767-.949a4.209 4.209 0 0 0-1.287-.677 4.394 4.394 0 0 0-1.558-.271c-.678 0-1.287.158-1.829.474-.527.316-.948.76-1.264 1.332-.301.557-.452 1.197-.452 1.919Zm11.775-12.418v17.612h-1.806v-17.612h1.806Zm4.855 11.29c0-.858-.188-1.506-.565-1.942-.361-.437-.91-.655-1.648-.655-.527 0-.993.113-1.4.339-.391.226-.7.534-.925.925a2.767 2.767 0 0 0-.317 1.333h-.587c0-.828.159-1.558.475-2.191.316-.647.745-1.159 1.287-1.535.556-.376 1.196-.564 1.919-.564.722 0 1.347.15 1.874.451.542.301.956.753 1.242 1.355.301.602.451 1.355.451 2.258v6.548h-1.806v-6.322Z"/><rect width="221.134" height="54.533" x="164.965" y="355.461" fill="#1E2128" stroke="#244582" rx="27.267"/><path fill="#fff" d="M227.031 374.902h1.919v10.612c0 1.084.294 1.957.881 2.619.587.662 1.445.994 2.574.994 1.129 0 1.987-.332 2.574-.994.587-.662.88-1.535.88-2.619v-10.612h1.92v10.612c0 .783-.128 1.505-.384 2.168a4.623 4.623 0 0 1-1.084 1.715 4.917 4.917 0 0 1-1.693 1.129c-.663.271-1.4.407-2.213.407-.813 0-1.55-.136-2.213-.407a5.161 5.161 0 0 1-1.716-1.129 5.036 5.036 0 0 1-1.083-1.715 6.299 6.299 0 0 1-.362-2.168v-10.612Zm14.563 12.621c.21.317.451.61.722.881.271.271.58.489.926.655.361.15.753.226 1.174.226.512 0 .911-.113 1.197-.339.301-.241.451-.565.451-.971 0-.361-.12-.662-.361-.903a2.582 2.582 0 0 0-.881-.632 11.55 11.55 0 0 0-1.151-.497 15.719 15.719 0 0 1-1.377-.632 4 4 0 0 1-1.152-.971c-.301-.406-.451-.911-.451-1.513 0-.617.158-1.129.474-1.535a2.948 2.948 0 0 1 1.264-.903 4.629 4.629 0 0 1 1.626-.294c.557 0 1.076.091 1.558.271a4.6 4.6 0 0 1 1.309.723c.376.301.67.647.881 1.038l-1.445.926a3.556 3.556 0 0 0-1.084-.971 2.726 2.726 0 0 0-1.445-.384c-.376 0-.7.083-.971.249-.271.165-.406.421-.406.767 0 .271.105.512.316.723.211.211.481.399.813.564.331.166.677.324 1.038.474a12.89 12.89 0 0 1 1.648.791c.497.271.888.602 1.174.993.302.391.452.896.452 1.513 0 .903-.331 1.656-.993 2.258-.648.602-1.506.903-2.574.903-.693 0-1.317-.121-1.874-.361a4.872 4.872 0 0 1-1.423-.971 4.7 4.7 0 0 1-.858-1.197l1.423-.881Zm12.696 3.41c-.963 0-1.821-.226-2.574-.678a4.872 4.872 0 0 1-1.739-1.919c-.406-.813-.609-1.753-.609-2.822 0-1.084.211-2.032.632-2.845a4.769 4.769 0 0 1 1.806-1.896c.783-.452 1.686-.678 2.71-.678 1.023 0 1.896.218 2.619.655.737.421 1.302 1.031 1.693 1.829.392.798.587 1.746.587 2.845 0 .105-.007.218-.022.338v.204h-8.874v-1.536h7.451l-.722 1.039a1.55 1.55 0 0 0 .135-.339c.045-.165.068-.301.068-.406 0-.617-.128-1.152-.384-1.603a2.641 2.641 0 0 0-1.016-1.061c-.436-.256-.948-.384-1.535-.384-.693 0-1.287.15-1.784.451-.482.286-.858.708-1.129 1.265-.256.542-.391 1.211-.406 2.009 0 .813.128 1.505.384 2.077.255.572.632 1.009 1.128 1.31.497.301 1.099.451 1.807.451.707 0 1.332-.15 1.874-.451.542-.316 1.001-.79 1.377-1.423l1.468.926c-.542.873-1.227 1.535-2.055 1.987-.813.437-1.776.655-2.89.655Zm9.407-10.612v10.386h-1.806v-10.386h1.806Zm3.139 1.987a2.808 2.808 0 0 0-.655-.384c-.196-.09-.444-.135-.745-.135-.452 0-.806.113-1.062.338-.255.226-.436.535-.541.926a5.901 5.901 0 0 0-.136 1.332h-.813c0-.828.143-1.558.429-2.19.301-.647.685-1.159 1.152-1.535.466-.377.941-.565 1.422-.565.377 0 .723.053 1.039.158.331.091.632.279.903.565l-.993 1.49Zm10.737-5.599v-1.807h7.067v1.807h-7.067Zm0 6.321v-1.806h6.841v1.806h-6.841Zm-1.061-8.128h1.919v15.805h-1.919v-15.805Zm11.176-1.806h1.807v17.611h-1.807v-17.611Zm4.301 12.418c0-1.054.233-1.987.7-2.8a5.284 5.284 0 0 1 1.941-1.919c.813-.466 1.724-.7 2.732-.7 1.024 0 1.935.234 2.732.7a5.119 5.119 0 0 1 1.92 1.919c.481.813.722 1.746.722 2.8 0 1.039-.241 1.972-.722 2.8a5.112 5.112 0 0 1-1.92 1.919c-.797.467-1.708.7-2.732.7-1.008 0-1.919-.233-2.732-.7a5.277 5.277 0 0 1-1.941-1.919c-.467-.828-.7-1.761-.7-2.8Zm1.829 0c0 .723.15 1.362.451 1.919a3.702 3.702 0 0 0 1.265 1.332 3.558 3.558 0 0 0 1.828.474c.678 0 1.28-.158 1.807-.474a3.464 3.464 0 0 0 1.264-1.332c.316-.557.474-1.196.474-1.919 0-.722-.158-1.362-.474-1.919a3.268 3.268 0 0 0-1.264-1.332c-.527-.316-1.129-.474-1.807-.474-.677 0-1.287.158-1.828.474-.527.316-.949.76-1.265 1.332-.301.557-.451 1.197-.451 1.919Zm9.488-5.193h2.032l2.597 6.751 2.822-7.541 3.025 7.586 2.62-6.796h2.032l-4.516 11.176-3.138-7.563-2.958 7.563-4.516-11.176Z"/><rect width="251.036" height="54.533" x="379.622" y="430.219" fill="#1E2128" stroke="#244582" rx="27.267"/><path fill="#fff" d="m465.479 461.288 4.109-11.628h2.145l-6.209 16.595-4.741-12.282-4.742 12.282-6.209-16.595h2.145l4.2 11.628 4.606-12.418 4.696 12.418Zm8.179-10.499c0-.346.12-.64.361-.881a1.25 1.25 0 0 1 .88-.361c.347 0 .64.121.881.361.241.241.361.535.361.881 0 .331-.12.625-.361.881-.241.24-.534.361-.881.361a1.25 1.25 0 0 1-.88-.361 1.249 1.249 0 0 1-.361-.881Zm.338 4.29h1.807v10.386h-1.807v-10.386Zm7.333 0v10.386h-1.806v-10.386h1.806Zm3.138 1.987a2.804 2.804 0 0 0-.654-.384c-.196-.09-.445-.136-.746-.136-.451 0-.805.113-1.061.339-.256.226-.436.534-.542.926-.09.391-.135.835-.135 1.332h-.813c0-.828.143-1.558.429-2.19.301-.647.685-1.159 1.152-1.535.466-.377.94-.565 1.422-.565.376 0 .723.053 1.039.158.331.09.632.279.903.565l-.994 1.49Zm6.483 8.625c-.963 0-1.821-.226-2.574-.678a4.87 4.87 0 0 1-1.738-1.919c-.407-.813-.61-1.753-.61-2.822 0-1.084.211-2.032.632-2.845a4.778 4.778 0 0 1 1.806-1.897c.783-.451 1.686-.677 2.71-.677 1.023 0 1.896.218 2.619.655.738.421 1.302 1.031 1.693 1.829.392.797.587 1.746.587 2.845 0 .105-.007.218-.022.338v.203h-8.873v-1.535h7.45l-.722 1.039c.045-.076.09-.188.135-.339.045-.166.068-.301.068-.406 0-.618-.128-1.152-.384-1.603a2.65 2.65 0 0 0-1.016-1.062c-.436-.256-.948-.383-1.535-.383-.693 0-1.287.15-1.784.451-.481.286-.858.708-1.129 1.264-.256.542-.391 1.212-.406 2.01 0 .813.128 1.505.384 2.077.256.572.632 1.009 1.129 1.31.496.301 1.098.451 1.806.451.707 0 1.332-.15 1.874-.451.542-.316 1.001-.791 1.377-1.423l1.468.926c-.542.873-1.227 1.535-2.055 1.987-.813.436-1.776.655-2.89.655Zm6.811-10.612h5.193v1.693h-5.193v-1.693Zm5.012-5.058c-.15-.256-.331-.414-.542-.474a1.573 1.573 0 0 0-.564-.113.9.9 0 0 0-.587.203c-.151.121-.271.332-.361.633-.091.301-.136.7-.136 1.196v13.999h-1.806v-14.224c0-.828.12-1.506.361-2.033.241-.526.58-.918 1.016-1.174.452-.271.994-.406 1.626-.406.331 0 .624.045.88.135.256.091.474.204.655.339a1.8 1.8 0 0 1 .452.429l-.994 1.49Zm4.045 5.058v10.386h-1.807v-10.386h1.807Zm3.138 1.987a2.787 2.787 0 0 0-.655-.384c-.195-.09-.444-.136-.745-.136-.451 0-.805.113-1.061.339-.256.226-.436.534-.542.926-.09.391-.135.835-.135 1.332h-.813c0-.828.143-1.558.429-2.19.301-.647.685-1.159 1.151-1.535.467-.377.941-.565 1.423-.565.376 0 .722.053 1.038.158.332.09.633.279.903.565l-.993 1.49Zm3.607 5.193c0 .391.091.73.271 1.016.196.286.459.504.791.655.346.135.737.203 1.174.203.557 0 1.053-.113 1.49-.339a2.604 2.604 0 0 0 1.467-2.393l.362 1.354c0 .663-.203 1.212-.61 1.649-.391.436-.88.76-1.467.971a4.951 4.951 0 0 1-1.716.316 4.219 4.219 0 0 1-1.784-.384 3.34 3.34 0 0 1-1.31-1.152c-.331-.496-.496-1.099-.496-1.806 0-1.008.353-1.814 1.061-2.416.722-.617 1.723-.926 3.003-.926.752 0 1.377.091 1.874.271.511.166.918.362 1.219.587.301.211.504.384.61.52v1.061a5.352 5.352 0 0 0-1.626-.768 6.253 6.253 0 0 0-1.784-.248c-.587 0-1.068.075-1.445.226-.361.15-.632.361-.813.632-.18.271-.271.594-.271.971Zm-.27-4.787-.881-1.332c.391-.286.926-.572 1.603-.858.692-.286 1.52-.429 2.484-.429.812 0 1.52.128 2.122.384.617.241 1.091.594 1.422 1.061.347.467.52 1.039.52 1.716v7.451h-1.807v-7.203c0-.361-.06-.654-.18-.88a1.357 1.357 0 0 0-.519-.565 2.217 2.217 0 0 0-.746-.293 4.39 4.39 0 0 0-.903-.09c-.511 0-.978.06-1.4.18a4.858 4.858 0 0 0-1.038.429 8.152 8.152 0 0 0-.677.429Zm24.552 1.445v6.548h-1.806v-6.322c0-.888-.166-1.543-.497-1.964-.316-.422-.813-.633-1.49-.633-.497 0-.926.106-1.287.317-.361.195-.64.489-.835.88-.196.391-.294.858-.294 1.4v6.322h-1.806v-6.322c0-.888-.166-1.543-.497-1.964-.316-.422-.813-.633-1.49-.633-.497 0-.926.106-1.287.317-.361.195-.64.489-.835.88-.196.391-.294.858-.294 1.4v6.322h-1.806v-10.386h1.806v1.513c.316-.587.708-1.024 1.174-1.31.482-.286 1.046-.429 1.694-.429.722 0 1.339.173 1.851.519.527.332.911.806 1.151 1.423.362-.647.813-1.129 1.355-1.445.542-.331 1.159-.497 1.852-.497.707 0 1.309.158 1.806.474.497.316.873.783 1.129 1.4.271.602.406 1.332.406 2.19Zm7.412 6.774c-.963 0-1.821-.226-2.574-.678a4.87 4.87 0 0 1-1.738-1.919c-.407-.813-.61-1.753-.61-2.822 0-1.084.211-2.032.632-2.845a4.778 4.778 0 0 1 1.806-1.897c.783-.451 1.686-.677 2.71-.677 1.023 0 1.896.218 2.619.655.737.421 1.302 1.031 1.693 1.829.392.797.587 1.746.587 2.845 0 .105-.007.218-.022.338v.203h-8.874v-1.535h7.451l-.722 1.039c.045-.076.09-.188.135-.339.045-.166.068-.301.068-.406 0-.618-.128-1.152-.384-1.603a2.65 2.65 0 0 0-1.016-1.062c-.436-.256-.948-.383-1.535-.383-.693 0-1.287.15-1.784.451-.482.286-.858.708-1.129 1.264-.256.542-.391 1.212-.406 2.01 0 .813.128 1.505.384 2.077.255.572.632 1.009 1.129 1.31.496.301 1.098.451 1.806.451.707 0 1.332-.15 1.874-.451.542-.316 1.001-.791 1.377-1.423l1.468.926c-.542.873-1.227 1.535-2.055 1.987-.813.436-1.776.655-2.89.655Zm8.03-3.41c.211.316.451.61.722.881.271.271.58.489.926.655.361.15.753.225 1.174.225.512 0 .911-.112 1.197-.338.301-.241.451-.565.451-.971 0-.361-.12-.662-.361-.903a2.588 2.588 0 0 0-.88-.632 11.34 11.34 0 0 0-1.152-.497 16.158 16.158 0 0 1-1.377-.632 4 4 0 0 1-1.152-.971c-.301-.407-.451-.911-.451-1.513 0-.617.158-1.129.474-1.535a2.954 2.954 0 0 1 1.264-.903 4.629 4.629 0 0 1 1.626-.294c.557 0 1.076.09 1.558.271.497.181.933.421 1.309.722.377.302.67.648.881 1.039l-1.445.926a3.531 3.531 0 0 0-1.084-.971 2.726 2.726 0 0 0-1.445-.384c-.376 0-.7.083-.971.248-.271.166-.406.422-.406.768 0 .271.105.512.316.723.211.21.482.399.813.564.331.166.677.324 1.038.474a12.97 12.97 0 0 1 1.649.79c.496.271.888.603 1.174.994.301.391.451.896.451 1.513 0 .903-.331 1.655-.993 2.257-.647.603-1.505.904-2.574.904-.693 0-1.317-.121-1.874-.362a4.87 4.87 0 0 1-1.423-.97 4.7 4.7 0 0 1-.858-1.197l1.423-.881Z"/><rect width="279.871" height="54.533" x="922.141" y="584.002" fill="#1E2128" stroke="#244582" rx="27.267"/><path fill="#fff" d="M1001.41 603.445h1.92v15.805h-1.92v-15.805Zm4.74 15.805h-3.68v-1.919h3.68c.89 0 1.7-.136 2.44-.407a5.459 5.459 0 0 0 1.89-1.196c.53-.527.94-1.159 1.22-1.897.29-.737.43-1.565.43-2.483 0-.919-.14-1.746-.43-2.484a5.069 5.069 0 0 0-1.22-1.874 5.056 5.056 0 0 0-1.89-1.197c-.74-.286-1.55-.429-2.44-.429h-3.68v-1.919h3.68c1.53 0 2.9.331 4.09.994a7.207 7.207 0 0 1 2.8 2.777c.67 1.174 1.01 2.551 1.01 4.132 0 1.58-.34 2.965-1.01 4.154a7.26 7.26 0 0 1-2.8 2.755c-1.19.662-2.56.993-4.09.993Zm14.51.226c-.96 0-1.82-.226-2.57-.678a4.845 4.845 0 0 1-1.74-1.919c-.41-.813-.61-1.753-.61-2.822 0-1.084.21-2.032.63-2.845a4.778 4.778 0 0 1 1.81-1.896c.78-.452 1.68-.678 2.71-.678 1.02 0 1.89.218 2.61.655a4.147 4.147 0 0 1 1.7 1.829c.39.798.59 1.746.59 2.845 0 .105-.01.218-.03.338v.204h-8.87v-1.536h7.45l-.72 1.039c.04-.075.09-.188.13-.339.05-.165.07-.301.07-.406 0-.617-.13-1.152-.38-1.603a2.625 2.625 0 0 0-1.02-1.061c-.44-.256-.95-.384-1.53-.384-.7 0-1.29.15-1.79.451-.48.286-.86.708-1.13 1.265-.25.542-.39 1.211-.4 2.009 0 .813.12 1.505.38 2.077.26.572.63 1.009 1.13 1.31.5.301 1.1.451 1.81.451.7 0 1.33-.15 1.87-.451.54-.316 1-.79 1.38-1.423l1.46.926c-.54.873-1.22 1.535-2.05 1.987-.81.437-1.78.655-2.89.655Zm5.58-10.612h2.03l2.93 7.338 2.94-7.338h2.03l-4.97 11.176-4.96-11.176Zm15.32 10.612c-.96 0-1.82-.226-2.57-.678a4.845 4.845 0 0 1-1.74-1.919c-.41-.813-.61-1.753-.61-2.822 0-1.084.21-2.032.63-2.845a4.778 4.778 0 0 1 1.81-1.896c.78-.452 1.68-.678 2.71-.678 1.02 0 1.89.218 2.62.655.73.421 1.3 1.031 1.69 1.829.39.798.59 1.746.59 2.845 0 .105-.01.218-.02.338v.204h-8.88v-1.536h7.45l-.72 1.039c.05-.075.09-.188.14-.339.04-.165.06-.301.06-.406 0-.617-.12-1.152-.38-1.603a2.625 2.625 0 0 0-1.02-1.061c-.43-.256-.94-.384-1.53-.384-.69 0-1.29.15-1.79.451-.48.286-.85.708-1.12 1.265-.26.542-.4 1.211-.41 2.009 0 .813.13 1.505.38 2.077.26.572.64 1.009 1.13 1.31.5.301 1.1.451 1.81.451s1.33-.15 1.87-.451c.54-.316 1-.79 1.38-1.423l1.47.926c-.54.873-1.23 1.535-2.06 1.987-.81.437-1.77.655-2.89.655Zm7.6-17.837h1.81v17.611h-1.81v-17.611Zm4.3 12.418c0-1.054.24-1.987.7-2.8a5.308 5.308 0 0 1 1.95-1.919c.81-.466 1.72-.7 2.73-.7 1.02 0 1.93.234 2.73.7a5.155 5.155 0 0 1 1.92 1.919c.48.813.72 1.746.72 2.8 0 1.039-.24 1.972-.72 2.8a5.155 5.155 0 0 1-1.92 1.919c-.8.466-1.71.7-2.73.7-1.01 0-1.92-.234-2.73-.7a5.308 5.308 0 0 1-1.95-1.919c-.46-.828-.7-1.761-.7-2.8Zm1.83 0c0 .723.15 1.362.45 1.919.32.557.74 1.001 1.27 1.332.54.316 1.15.474 1.83.474.67 0 1.28-.158 1.8-.474.55-.331.97-.775 1.27-1.332.31-.557.47-1.196.47-1.919 0-.723-.16-1.362-.47-1.919a3.224 3.224 0 0 0-1.27-1.332c-.52-.316-1.13-.474-1.8-.474-.68 0-1.29.158-1.83.474-.53.316-.95.76-1.27 1.332-.3.557-.45 1.196-.45 1.919Zm13.1 10.16h-1.81v-15.353h1.81v15.353Zm8.69-10.16c0 1.114-.23 2.077-.7 2.89-.47.813-1.09 1.437-1.88 1.874-.76.437-1.62.655-2.57.655-.86 0-1.62-.218-2.28-.655-.65-.437-1.16-1.061-1.54-1.874-.36-.813-.54-1.776-.54-2.89 0-1.129.18-2.092.54-2.89.38-.813.89-1.438 1.54-1.874.66-.437 1.42-.655 2.28-.655.95 0 1.81.218 2.57.655.79.436 1.41 1.061 1.88 1.874.47.798.7 1.761.7 2.89Zm-1.83 0c0-.798-.17-1.475-.5-2.032a3.11 3.11 0 0 0-1.28-1.264 3.667 3.667 0 0 0-1.77-.429c-.52 0-1.04.143-1.55.429-.51.286-.94.707-1.27 1.264-.33.557-.49 1.234-.49 2.032s.16 1.475.49 2.032c.33.557.76.978 1.27 1.264.51.286 1.03.429 1.55.429.65 0 1.24-.143 1.77-.429a3.11 3.11 0 0 0 1.28-1.264c.33-.557.5-1.234.5-2.032Zm18.54-1.355v6.548h-1.8v-6.322c0-.888-.17-1.543-.5-1.964-.32-.422-.81-.632-1.49-.632-.5 0-.93.105-1.29.316-.36.195-.64.489-.83.88-.2.392-.3.858-.3 1.4v6.322h-1.8v-6.322c0-.888-.17-1.543-.5-1.964-.31-.422-.81-.632-1.49-.632-.5 0-.92.105-1.29.316-.36.195-.64.489-.83.88-.2.392-.29.858-.29 1.4v6.322h-1.81v-10.386h1.81v1.513c.31-.587.7-1.024 1.17-1.31.48-.286 1.05-.429 1.69-.429.73 0 1.34.173 1.85.52.53.331.91.805 1.16 1.422.36-.647.81-1.129 1.35-1.445.54-.331 1.16-.497 1.85-.497.71 0 1.31.158 1.81.474.49.316.87.783 1.13 1.4.27.602.4 1.332.4 2.19Zm7.42 6.774c-.97 0-1.83-.226-2.58-.678a4.845 4.845 0 0 1-1.74-1.919c-.4-.813-.61-1.753-.61-2.822 0-1.084.21-2.032.64-2.845a4.688 4.688 0 0 1 1.8-1.896c.78-.452 1.69-.678 2.71-.678s1.9.218 2.62.655c.74.421 1.3 1.031 1.69 1.829.39.798.59 1.746.59 2.845 0 .105-.01.218-.02.338v.204h-8.88v-1.536h7.46l-.73 1.039c.05-.075.09-.188.14-.339.04-.165.07-.301.07-.406 0-.617-.13-1.152-.39-1.603a2.667 2.667 0 0 0-1.01-1.061c-.44-.256-.95-.384-1.54-.384-.69 0-1.29.15-1.78.451-.48.286-.86.708-1.13 1.265-.26.542-.39 1.211-.41 2.009 0 .813.13 1.505.39 2.077.25.572.63 1.009 1.12 1.31.5.301 1.1.451 1.81.451s1.33-.15 1.88-.451c.54-.316 1-.79 1.37-1.423l1.47.926c-.54.873-1.23 1.535-2.05 1.987-.82.437-1.78.655-2.89.655Zm14.26-6.548c0-.858-.19-1.505-.57-1.942-.37-.436-.92-.654-1.65-.654-.52 0-.99.112-1.4.338-.39.211-.7.512-.92.903-.21.392-.32.843-.32 1.355v6.322h-1.8v-10.386h1.8v1.626c.35-.633.78-1.099 1.29-1.4.53-.301 1.13-.452 1.81-.452 1.09 0 1.96.369 2.59 1.107.65.722.97 1.708.97 2.957v6.548h-1.8v-6.322Zm3.62-4.064h5.19v1.693h-5.19v-1.693Zm1.69-3.613h1.81v13.999h-1.81v-13.999Z"/><rect width="274.463" height="55.533" x="640.771" y="507.678" fill="#244582" rx="27.767"/><path fill="#fff" d="M732.693 527.883h1.92v10.611c0 1.084.293 1.957.88 2.62.587.662 1.445.993 2.574.993 1.129 0 1.987-.331 2.574-.993.587-.663.88-1.536.88-2.62v-10.611h1.92v10.611c0 .783-.128 1.506-.384 2.168a4.635 4.635 0 0 1-1.084 1.716 4.917 4.917 0 0 1-1.693 1.129c-.663.271-1.4.406-2.213.406-.813 0-1.55-.135-2.213-.406a5.161 5.161 0 0 1-1.716-1.129 5.066 5.066 0 0 1-1.083-1.716 6.295 6.295 0 0 1-.362-2.168v-10.611Zm14.247 0h1.919v15.805h-1.919v-15.805Zm12.303 0h1.919v15.805h-1.919v-15.805Zm4.742 15.805h-3.681v-1.92h3.681c.888 0 1.7-.135 2.438-.406a5.577 5.577 0 0 0 1.897-1.197 5.427 5.427 0 0 0 1.219-1.896c.286-.738.429-1.566.429-2.484 0-.918-.143-1.746-.429-2.484a5.203 5.203 0 0 0-1.219-1.874 5.168 5.168 0 0 0-1.897-1.196c-.738-.286-1.55-.429-2.438-.429h-3.681v-1.919h3.681c1.535 0 2.897.331 4.086.993a7.193 7.193 0 0 1 2.8 2.777c.677 1.174 1.016 2.552 1.016 4.132 0 1.581-.339 2.965-1.016 4.155a7.237 7.237 0 0 1-2.8 2.754c-1.189.662-2.551.994-4.086.994Zm14.51.225c-.963 0-1.821-.225-2.574-.677a4.877 4.877 0 0 1-1.738-1.919c-.407-.813-.61-1.754-.61-2.823 0-1.083.211-2.032.632-2.844a4.773 4.773 0 0 1 1.807-1.897c.782-.452 1.686-.677 2.709-.677 1.024 0 1.897.218 2.619.654.738.422 1.302 1.032 1.694 1.829.391.798.587 1.746.587 2.845 0 .106-.008.218-.023.339v.203h-8.873v-1.535h7.451l-.723 1.038c.045-.075.09-.188.136-.338a1.62 1.62 0 0 0 .067-.407c0-.617-.128-1.151-.384-1.603a2.647 2.647 0 0 0-1.016-1.061c-.436-.256-.948-.384-1.535-.384-.692 0-1.287.151-1.784.452-.481.286-.858.707-1.128 1.264-.256.542-.392 1.212-.407 2.01 0 .812.128 1.505.384 2.077.256.572.632 1.008 1.129 1.309.497.301 1.099.452 1.806.452.708 0 1.332-.151 1.874-.452.542-.316 1.001-.79 1.377-1.422l1.468.926c-.542.873-1.227 1.535-2.055 1.987-.812.436-1.776.654-2.89.654Zm8.03-3.409c.211.316.452.61.723.881.271.27.579.489.925.654.362.151.753.226 1.175.226.511 0 .91-.113 1.196-.339.301-.24.452-.564.452-.97a1.23 1.23 0 0 0-.361-.904 2.62 2.62 0 0 0-.881-.632c-.361-.18-.745-.346-1.152-.497-.451-.18-.91-.391-1.377-.632a3.993 3.993 0 0 1-1.151-.971c-.301-.406-.452-.91-.452-1.512 0-.617.158-1.129.474-1.536a2.968 2.968 0 0 1 1.265-.903 4.64 4.64 0 0 1 1.625-.293c.557 0 1.077.09 1.558.271.497.18.933.421 1.31.722.376.301.67.647.88 1.039l-1.445.925a3.536 3.536 0 0 0-1.083-.97 2.731 2.731 0 0 0-1.445-.384c-.377 0-.7.083-.971.248-.271.166-.407.422-.407.768 0 .271.106.512.316.722.211.211.482.399.813.565.331.165.677.323 1.039.474.602.241 1.151.504 1.648.79.497.271.888.602 1.174.994.301.391.452.895.452 1.512 0 .903-.332 1.656-.994 2.258-.647.602-1.505.903-2.574.903-.692 0-1.317-.12-1.874-.361a4.835 4.835 0 0 1-1.422-.971 4.678 4.678 0 0 1-.858-1.196l1.422-.881Zm8.678-11.492c0-.347.12-.64.361-.881.256-.241.549-.361.88-.361.347 0 .64.12.881.361s.361.534.361.881c0 .331-.12.624-.361.88a1.197 1.197 0 0 1-.881.361c-.331 0-.624-.12-.88-.361a1.246 1.246 0 0 1-.361-.88Zm.338 4.289h1.806v10.387h-1.806v-10.387Zm4.827 11.064h1.829c0 .497.135.956.406 1.377.271.437.655.783 1.151 1.039.497.271 1.084.406 1.762.406.526 0 1.046-.128 1.557-.384.512-.256.934-.662 1.265-1.219.346-.542.519-1.249.519-2.122v-10.161h1.806v10.161c0 1.189-.248 2.182-.745 2.98-.496.813-1.136 1.422-1.919 1.829a5.32 5.32 0 0 1-2.483.61c-1.009 0-1.905-.189-2.687-.565a4.35 4.35 0 0 1-1.807-1.603c-.436-.677-.654-1.46-.654-2.348Zm-.204-5.871c0-1.128.234-2.092.7-2.89a4.89 4.89 0 0 1 1.874-1.874 5.202 5.202 0 0 1 2.574-.654c.873 0 1.633.218 2.281.654.647.437 1.151 1.062 1.512 1.874.377.798.565 1.762.565 2.89 0 1.114-.188 2.078-.565 2.891-.361.812-.865 1.437-1.512 1.874-.648.436-1.408.654-2.281.654a5.202 5.202 0 0 1-2.574-.654 4.89 4.89 0 0 1-1.874-1.874c-.466-.813-.7-1.777-.7-2.891Zm1.829 0c0 .798.158 1.476.474 2.033a3.31 3.31 0 0 0 1.31 1.264 3.716 3.716 0 0 0 1.761.429c.527 0 1.046-.143 1.558-.429.512-.286.933-.708 1.264-1.264.332-.557.497-1.235.497-2.033 0-.602-.098-1.128-.293-1.58a3.423 3.423 0 0 0-.791-1.174 3.326 3.326 0 0 0-1.061-.723 3.002 3.002 0 0 0-1.174-.248c-.632 0-1.219.143-1.761.429a3.31 3.31 0 0 0-1.31 1.264c-.316.557-.474 1.235-.474 2.032Zm18.612-1.128c0-.858-.188-1.506-.565-1.942-.376-.437-.925-.655-1.648-.655-.527 0-.993.113-1.4.339-.391.21-.7.512-.925.903-.211.391-.316.843-.316 1.355v6.322h-1.807v-10.387h1.807v1.626c.346-.632.775-1.099 1.287-1.4.526-.301 1.128-.451 1.806-.451 1.099 0 1.964.368 2.596 1.106.648.723.971 1.708.971 2.958v6.548h-1.806v-6.322Z"/><circle cx="867.31" cy="446.027" r="48.69" fill="#244582"/><path fill="#fff" d="M874.476 413.842c.561.355.935.551 1.234.766a2.388 2.388 0 0 1 1.327 2.197c-.102 3.234 0 6.467 0 9.692.043.28.132.552.262.804.322-.057.635-.151.935-.281a2.566 2.566 0 0 1 2.879.505c.393.575.634 1.241.701 1.935.056 8.178.056 16.356.065 24.544v5.15c-.047.475.058.953.299 1.364.434.333.925.583 1.449.739l1.813.869c.17.078.345.147.523.206.645.177 1.028.523 1.028 1.177v16.058c0 .775-.467.71-1.018.71h-31.124c0-.318-.056-.589-.056-.851v-27.357a2.91 2.91 0 0 1 1.607-2.804 3.557 3.557 0 0 1 1.804 0c.447.113.88.276 1.29.486 0-.476.065-.776.075-1.065v-11.889c0-1.038.168-1.168 1.243-1.552a13.011 13.011 0 0 0 1.579-.878 4.163 4.163 0 0 1 1.43-.636c.879-.093.851-.589.851-1.131v-25.609c0-.196 0-.393.056-.739.776.543 1.495.991 2.14 1.524.169.14.15.505.15.776v23.104c0 .514.392.496.757.356a2.866 2.866 0 0 0 1.112-.543c.332-.332.542-.767.598-1.233.056-2.72 0-5.449 0-8.179V410.29c.683.467 1.253.832 1.786 1.243a1.522 1.522 0 0 1 .626 1.309v14.085c0 .935.168 1.869.271 2.869a9.258 9.258 0 0 1 1.626-.86c.57-.186.514-.542.514-.934v-13.179c0-.271 0-.542.056-1.075m-6.757 50.939c-.636-.346-1.197-.664-1.776-.935-.879-.439-1.776-.85-2.673-1.261-.225-.103-.468-.169-.701-.253a2.307 2.307 0 0 0-.215.682c0 1.589 0 3.178.065 4.767v2.197c0 .57.225.934.935.85.71-.084 1.458 0 2.187 0h13.029c.439 0 .935.075.935-.57v-7.047a.88.88 0 0 0-.224-.651.864.864 0 0 0-.627-.284 1.315 1.315 0 0 1-.458-.159c-.551-.29-1.075-.626-1.645-.878-.934-.421-1.869-.757-2.804-1.187-.934-.43-1.766-.991-2.692-1.43-.925-.44-1.869-.785-2.804-1.178-.457-.187-.934-.374-1.364-.598-.43-.225-1.038-.645-1.589-.935-.935-.411-1.869-.738-2.804-1.168-.935-.43-1.869-.991-2.804-1.477-.308-.168-.636-.308-.935-.477a.938.938 0 0 0-1.271.384c-.154.394-.243.81-.261 1.233v21.367c0 .99.112 1.102 1.187 1.102h24.964c.813 0 1.066-.252 1.056-.934v-10.225c0-.711-.467-1.01-1.009-1.29a6.38 6.38 0 0 0-.636-.178c-.233-.084-.458-.187-.691-.289a3.837 3.837 0 0 0-.159.71v8.477c0 .645-.215.813-.935.813h-20.17c-.747 0-.934-.196-.934-.86v-14.16c0-1.271 0-1.299 1.196-.822.935.355 1.776.766 2.636 1.196.86.43 1.729.991 2.617 1.44 1.177.588 2.383 1.131 3.664 1.729l-2.253 2.336m6.898-32.582c-.991.412-1.795.739-2.58 1.094-.542.243-1.047.551-1.589.804-.542.252-1.168.43-1.719.701-.935.448-1.739.934-2.655 1.392-.916.458-2 .701-2.888 1.215-.374.215-.935.449-.935 1.159.075 3.982 0 7.973.066 11.964a1.16 1.16 0 0 0 .439.785c.364.242.749.452 1.15.626.523.271 1.037.58 1.579.832.935.411 1.87.757 2.804 1.196 1.29.617 2.543 1.328 3.842 1.935 1.299.608 2.673 1.15 4 1.748.561.252 1.066.626 1.636.935.57.308 1.046.402 1.719.663v-27.423a2.492 2.492 0 0 0 0-.598 1.093 1.093 0 0 0-.623-.726 1.108 1.108 0 0 0-.956.035 1.634 1.634 0 0 0-.935 1.43c.056 6.944 0 13.889 0 20.833 0 .318 0 .626-.056 1.168a9.508 9.508 0 0 0-1.056-.682c-.935-.411-1.935-.776-2.888-1.168a17.729 17.729 0 0 1-1.337-.636 31.41 31.41 0 0 0-1.701-.86c-.579-.261-1.131-.42-1.682-.673-.552-.252-1.281-.71-1.982-.934-1.252-.43-1.532-.692-1.504-1.954.056-2.42.14-4.832.215-7.253a1.007 1.007 0 0 1 .056-.373.521.521 0 0 1 .187-.309 81.028 81.028 0 0 1 2.224-1.121l1.963-.935 2.402-1.131v9.113c-.402-.122-.72-.234-1.056-.309a1.534 1.534 0 0 1-1.309-1.495c0-.71 0-1.421-.056-2.122a.713.713 0 0 0-.42-.532c-.486-.066-1.58.934-1.589 1.458v3.785c0 .168 0 .439.131.486.841.421 1.71.813 2.589 1.178.598.252 1.233.448 1.869.691.43.178.841.421 1.28.589.365.119.737.219 1.113.299.129-.278.217-.574.261-.878V432.17"/></svg>