<svg xmlns="http://www.w3.org/2000/svg" width="1203" height="685" fill="none" viewBox="0 0 1203 685"><path fill="#fff" d="M374.976 23.0622V16.4782H399.131V23.0622H390.716V47H383.347V23.0622H374.976ZM408.443 12.99V47H401.815V12.99H408.443ZM414.852 34.7913C414.852 33.5995 414.634 32.6838 414.198 32.0443C413.762 31.4048 413.006 31.0851 411.931 31.0851C411.233 31.0851 410.623 31.2449 410.1 31.5647C409.576 31.8554 409.169 32.2769 408.879 32.8292C408.588 33.3524 408.443 34.0064 408.443 34.7913H407.309C407.309 33.1925 407.571 31.7536 408.094 30.4746C408.617 29.1665 409.402 28.1346 410.448 27.3788C411.524 26.594 412.89 26.2016 414.547 26.2016C416.204 26.2016 417.527 26.4922 418.515 27.0736C419.532 27.655 420.273 28.5125 420.739 29.6462C421.204 30.7798 421.436 32.1751 421.436 33.832V47H414.852V34.7913ZM436.843 47.436C434.517 47.436 432.497 47.0145 430.782 46.1716C429.096 45.2995 427.788 44.0786 426.858 42.5089C425.927 40.9392 425.462 39.0934 425.462 36.9714C425.462 34.8203 425.913 32.96 426.814 31.3903C427.715 29.8206 429.009 28.6142 430.695 27.7713C432.41 26.9283 434.43 26.5068 436.755 26.5068C439.081 26.5068 441.043 26.9137 442.642 27.7277C444.241 28.5125 445.461 29.6607 446.304 31.1723C447.147 32.6838 447.569 34.5151 447.569 36.6662C447.569 36.9859 447.569 37.3057 447.569 37.6254C447.569 37.9161 447.54 38.1632 447.482 38.3667H429.169V34.7041H441.552L439.982 36.7098C440.127 36.5063 440.244 36.2592 440.331 35.9685C440.447 35.6488 440.505 35.3872 440.505 35.1837C440.505 34.3116 440.345 33.5559 440.026 32.9164C439.706 32.2769 439.255 31.7827 438.674 31.4339C438.093 31.0851 437.409 30.9106 436.625 30.9106C435.636 30.9106 434.808 31.1287 434.139 31.5647C433.471 32.0007 432.962 32.6693 432.613 33.5704C432.293 34.4425 432.119 35.5471 432.09 36.8842C432.09 38.1051 432.264 39.1515 432.613 40.0236C432.962 40.8956 433.485 41.5642 434.183 42.0293C434.88 42.4653 435.738 42.6833 436.755 42.6833C437.918 42.6833 438.906 42.4653 439.72 42.0293C440.563 41.5933 441.232 40.9392 441.726 40.0672L447.612 41.5061C446.566 43.4827 445.142 44.9652 443.339 45.9535C441.566 46.9419 439.401 47.436 436.843 47.436ZM471.247 56.5926H464.663V26.9428H471.247V56.5926ZM487.642 36.9714C487.642 39.2969 487.177 41.259 486.246 42.8578C485.345 44.4565 484.168 45.6629 482.715 46.4768C481.29 47.2907 479.75 47.6976 478.093 47.6976C476.349 47.6976 474.837 47.2616 473.558 46.3896C472.308 45.4884 471.349 44.2385 470.68 42.6397C470.012 41.0119 469.677 39.1225 469.677 36.9714C469.677 34.7913 470.012 32.9018 470.68 31.3031C471.349 29.7043 472.308 28.4689 473.558 27.5968C474.837 26.6957 476.349 26.2452 478.093 26.2452C479.75 26.2452 481.29 26.6521 482.715 27.466C484.168 28.28 485.345 29.4863 486.246 31.0851C487.177 32.6547 487.642 34.6169 487.642 36.9714ZM480.709 36.9714C480.709 35.9249 480.491 35.0384 480.055 34.3116C479.619 33.5849 479.037 33.0326 478.311 32.6547C477.584 32.2769 476.785 32.0879 475.913 32.0879C475.157 32.0879 474.416 32.2769 473.689 32.6547C472.991 33.0036 472.41 33.5413 471.945 34.268C471.48 34.9948 471.247 35.8959 471.247 36.9714C471.247 38.0469 471.48 38.9481 471.945 39.6748C472.41 40.4015 472.991 40.9538 473.689 41.3317C474.416 41.6805 475.157 41.8549 475.913 41.8549C476.785 41.8549 477.584 41.6659 478.311 41.2881C479.037 40.9102 479.619 40.3579 480.055 39.6312C480.491 38.9045 480.709 38.0179 480.709 36.9714ZM498.114 26.9428V47H491.618V26.9428H498.114ZM503.914 33.7448C503.565 33.396 503.187 33.1198 502.78 32.9164C502.402 32.7129 501.922 32.6111 501.341 32.6111C500.702 32.6111 500.135 32.7856 499.641 33.1344C499.146 33.4832 498.768 33.9919 498.507 34.6605C498.245 35.329 498.114 36.143 498.114 37.1022L496.545 34.7913C496.545 33.1925 496.85 31.7682 497.46 30.5182C498.1 29.2683 498.928 28.28 499.946 27.5532C500.963 26.8265 502.024 26.4632 503.129 26.4632C503.855 26.4632 504.553 26.6085 505.222 26.8992C505.89 27.1899 506.399 27.5968 506.748 28.1201L503.914 33.7448ZM507.728 36.9714C507.728 34.8494 508.222 33.0036 509.211 31.4339C510.199 29.8642 511.565 28.6433 513.309 27.7713C515.053 26.8992 517.016 26.4632 519.196 26.4632C521.376 26.4632 523.323 26.8992 525.038 27.7713C526.782 28.6433 528.149 29.8642 529.137 31.4339C530.154 33.0036 530.663 34.8494 530.663 36.9714C530.663 39.0643 530.154 40.8956 529.137 42.4653C528.149 44.035 526.782 45.2559 525.038 46.1279C523.323 47 521.376 47.436 519.196 47.436C517.016 47.436 515.053 47 513.309 46.1279C511.565 45.2559 510.199 44.035 509.211 42.4653C508.222 40.8956 507.728 39.0643 507.728 36.9714ZM514.487 36.9714C514.487 38.0179 514.705 38.919 515.141 39.6748C515.577 40.4015 516.143 40.9683 516.841 41.3753C517.539 41.7822 518.324 41.9857 519.196 41.9857C520.039 41.9857 520.809 41.7822 521.507 41.3753C522.233 40.9683 522.8 40.4015 523.207 39.6748C523.643 38.919 523.861 38.0179 523.861 36.9714C523.861 35.9249 523.643 35.0238 523.207 34.268C522.8 33.5123 522.233 32.9309 521.507 32.5239C520.809 32.117 520.039 31.9135 519.196 31.9135C518.324 31.9135 517.539 32.117 516.841 32.5239C516.143 32.9309 515.577 33.5123 515.141 34.268C514.705 35.0238 514.487 35.9249 514.487 36.9714ZM540.162 36.9714C540.162 38.0469 540.394 38.9771 540.859 39.762C541.324 40.5177 541.964 41.1136 542.778 41.5497C543.621 41.9857 544.522 42.2037 545.481 42.2037C546.295 42.2037 547.065 42.0874 547.792 41.8549C548.548 41.5933 549.231 41.2445 549.841 40.8084C550.481 40.3724 551.004 39.8346 551.411 39.1951V45.6047C550.714 46.157 549.841 46.6076 548.795 46.9564C547.749 47.2761 546.47 47.436 544.958 47.436C542.749 47.436 540.758 47 538.984 46.1279C537.24 45.2559 535.86 44.035 534.842 42.4653C533.854 40.8956 533.36 39.0643 533.36 36.9714C533.36 34.8494 533.854 33.0181 534.842 31.4775C535.86 29.9078 537.24 28.6869 538.984 27.8149C540.758 26.9428 542.749 26.5068 544.958 26.5068C546.47 26.5068 547.749 26.6812 548.795 27.03C549.841 27.3498 550.714 27.7567 551.411 28.2509V34.7041C551.004 34.0646 550.466 33.5268 549.798 33.0908C549.158 32.6547 548.461 32.3205 547.705 32.0879C546.949 31.8554 546.208 31.7391 545.481 31.7391C544.522 31.7391 543.621 31.9716 542.778 32.4367C541.964 32.9018 541.324 33.5268 540.859 34.3116C540.394 35.0965 540.162 35.9831 540.162 36.9714ZM566.373 47.436C564.048 47.436 562.027 47.0145 560.312 46.1716C558.626 45.2995 557.318 44.0786 556.388 42.5089C555.458 40.9392 554.993 39.0934 554.993 36.9714C554.993 34.8203 555.443 32.96 556.344 31.3903C557.245 29.8206 558.539 28.6142 560.225 27.7713C561.94 26.9283 563.96 26.5068 566.286 26.5068C568.611 26.5068 570.573 26.9137 572.172 27.7277C573.771 28.5125 574.992 29.6607 575.835 31.1723C576.678 32.6838 577.099 34.5151 577.099 36.6662C577.099 36.9859 577.099 37.3057 577.099 37.6254C577.099 37.9161 577.07 38.1632 577.012 38.3667H558.699V34.7041H571.082L569.512 36.7098C569.658 36.5063 569.774 36.2592 569.861 35.9685C569.977 35.6488 570.036 35.3872 570.036 35.1837C570.036 34.3116 569.876 33.5559 569.556 32.9164C569.236 32.2769 568.786 31.7827 568.204 31.4339C567.623 31.0851 566.94 30.9106 566.155 30.9106C565.167 30.9106 564.338 31.1287 563.67 31.5647C563.001 32.0007 562.492 32.6693 562.144 33.5704C561.824 34.4425 561.649 35.5471 561.62 36.8842C561.62 38.1051 561.795 39.1515 562.144 40.0236C562.492 40.8956 563.016 41.5642 563.713 42.0293C564.411 42.4653 565.268 42.6833 566.286 42.6833C567.449 42.6833 568.437 42.4653 569.251 42.0293C570.094 41.5933 570.762 40.9392 571.256 40.0672L577.143 41.5061C576.096 43.4827 574.672 44.9652 572.87 45.9535C571.097 46.9419 568.931 47.436 566.373 47.436ZM582.255 39.7184C583.272 40.5613 584.188 41.2299 585.002 41.7241C585.845 42.1892 586.586 42.5235 587.226 42.7269C587.865 42.9014 588.417 42.9886 588.882 42.9886C589.551 42.9886 590.045 42.8432 590.365 42.5525C590.685 42.2619 590.845 41.884 590.845 41.4189C590.845 40.9828 590.714 40.6195 590.452 40.3288C590.191 40.0091 589.74 39.7038 589.1 39.4131C588.49 39.1225 587.647 38.8172 586.572 38.4975C585.612 38.1487 584.697 37.7417 583.825 37.2766C582.982 36.7825 582.284 36.1284 581.732 35.3145C581.179 34.5006 580.903 33.4541 580.903 32.1751C580.903 30.9542 581.223 29.9223 581.862 29.0793C582.531 28.2363 583.418 27.5968 584.522 27.1608C585.656 26.7248 586.949 26.5068 588.403 26.5068C589.566 26.5068 590.641 26.6376 591.629 26.8992C592.647 27.1608 593.592 27.5096 594.464 27.9457C595.365 28.3817 596.208 28.8904 596.993 29.4718L594.638 33.7448C593.795 32.96 592.836 32.3205 591.76 31.8263C590.685 31.3031 589.696 31.0414 588.795 31.0414C588.185 31.0414 587.72 31.1577 587.4 31.3903C587.109 31.6228 586.964 31.928 586.964 32.3059C586.964 32.742 587.138 33.1053 587.487 33.396C587.865 33.6867 588.388 33.9628 589.057 34.2244C589.755 34.457 590.598 34.7622 591.586 35.1401C592.632 35.518 593.592 35.954 594.464 36.4482C595.365 36.9423 596.077 37.5673 596.6 38.3231C597.152 39.0789 597.429 40.0817 597.429 41.3317C597.429 43.4827 596.76 45.1106 595.423 46.2152C594.115 47.2907 592.269 47.8284 589.885 47.8284C588.432 47.8284 587.08 47.654 585.83 47.3052C584.609 46.9855 583.476 46.5494 582.429 45.9971C581.383 45.4158 580.409 44.7763 579.508 44.0786L582.255 39.7184ZM602.14 39.7184C603.157 40.5613 604.073 41.2299 604.887 41.7241C605.73 42.1892 606.471 42.5235 607.111 42.7269C607.75 42.9014 608.303 42.9886 608.768 42.9886C609.436 42.9886 609.93 42.8432 610.25 42.5525C610.57 42.2619 610.73 41.884 610.73 41.4189C610.73 40.9828 610.599 40.6195 610.337 40.3288C610.076 40.0091 609.625 39.7038 608.986 39.4131C608.375 39.1225 607.532 38.8172 606.457 38.4975C605.497 38.1487 604.582 37.7417 603.71 37.2766C602.867 36.7825 602.169 36.1284 601.617 35.3145C601.065 34.5006 600.788 33.4541 600.788 32.1751C600.788 30.9542 601.108 29.9223 601.748 29.0793C602.416 28.2363 603.303 27.5968 604.407 27.1608C605.541 26.7248 606.835 26.5068 608.288 26.5068C609.451 26.5068 610.526 26.6376 611.515 26.8992C612.532 27.1608 613.477 27.5096 614.349 27.9457C615.25 28.3817 616.093 28.8904 616.878 29.4718L614.523 33.7448C613.68 32.96 612.721 32.3205 611.645 31.8263C610.57 31.3031 609.582 31.0414 608.68 31.0414C608.07 31.0414 607.605 31.1577 607.285 31.3903C606.994 31.6228 606.849 31.928 606.849 32.3059C606.849 32.742 607.024 33.1053 607.372 33.396C607.75 33.6867 608.273 33.9628 608.942 34.2244C609.64 34.457 610.483 34.7622 611.471 35.1401C612.517 35.518 613.477 35.954 614.349 36.4482C615.25 36.9423 615.962 37.5673 616.485 38.3231C617.038 39.0789 617.314 40.0817 617.314 41.3317C617.314 43.4827 616.645 45.1106 615.308 46.2152C614 47.2907 612.154 47.8284 609.77 47.8284C608.317 47.8284 606.965 47.654 605.715 47.3052C604.495 46.9855 603.361 46.5494 602.314 45.9971C601.268 45.4158 600.294 44.7763 599.393 44.0786L602.14 39.7184ZM632.83 36.9714C632.83 34.8494 633.324 33.0036 634.313 31.4339C635.301 29.8642 636.667 28.6433 638.411 27.7713C640.155 26.8992 642.117 26.4632 644.298 26.4632C646.478 26.4632 648.425 26.8992 650.14 27.7713C651.884 28.6433 653.251 29.8642 654.239 31.4339C655.256 33.0036 655.765 34.8494 655.765 36.9714C655.765 39.0643 655.256 40.8956 654.239 42.4653C653.251 44.035 651.884 45.2559 650.14 46.1279C648.425 47 646.478 47.436 644.298 47.436C642.117 47.436 640.155 47 638.411 46.1279C636.667 45.2559 635.301 44.035 634.313 42.4653C633.324 40.8956 632.83 39.0643 632.83 36.9714ZM639.589 36.9714C639.589 38.0179 639.807 38.919 640.243 39.6748C640.679 40.4015 641.245 40.9683 641.943 41.3753C642.641 41.7822 643.426 41.9857 644.298 41.9857C645.141 41.9857 645.911 41.7822 646.609 41.3753C647.335 40.9683 647.902 40.4015 648.309 39.6748C648.745 38.919 648.963 38.0179 648.963 36.9714C648.963 35.9249 648.745 35.0238 648.309 34.268C647.902 33.5123 647.335 32.9309 646.609 32.5239C645.911 32.117 645.141 31.9135 644.298 31.9135C643.426 31.9135 642.641 32.117 641.943 32.5239C641.245 32.9309 640.679 33.5123 640.243 34.268C639.807 35.0238 639.589 35.9249 639.589 36.9714ZM657.938 26.9428H671.63V32.3931H657.938V26.9428ZM670.888 19.3123C670.598 18.9345 670.278 18.6583 669.929 18.4839C669.609 18.3095 669.261 18.2223 668.883 18.2223C668.447 18.2223 668.069 18.324 667.749 18.5275C667.458 18.731 667.226 19.0507 667.051 19.4868C666.877 19.9228 666.79 20.4896 666.79 21.1873V47H660.467V19.5304C660.467 18.0188 660.744 16.7253 661.296 15.6497C661.877 14.5742 662.72 13.7458 663.825 13.1644C664.958 12.583 666.354 12.2923 668.011 12.2923C669.028 12.2923 669.886 12.4231 670.583 12.6848C671.281 12.9173 671.877 13.208 672.371 13.5568C672.865 13.8766 673.257 14.1818 673.548 14.4725L670.888 19.3123ZM696.289 31.4339L694.458 47H686.697L691.624 14.9521L704.617 33.5704L717.655 14.9521L722.582 47H714.82L712.989 31.4339L704.617 44.1658L696.289 31.4339ZM726.228 19.3996C726.228 18.3531 726.606 17.5101 727.362 16.8706C728.117 16.202 729.018 15.8677 730.065 15.8677C731.14 15.8677 732.042 16.202 732.768 16.8706C733.524 17.5101 733.902 18.3531 733.902 19.3996C733.902 20.446 733.524 21.3035 732.768 21.9721C732.042 22.6407 731.14 22.975 730.065 22.975C729.018 22.975 728.117 22.6407 727.362 21.9721C726.606 21.3035 726.228 20.446 726.228 19.3996ZM726.882 26.9428H733.248V47H726.882V26.9428ZM751.708 34.7913C751.708 33.5995 751.475 32.6838 751.01 32.0443C750.574 31.4048 749.833 31.0851 748.786 31.0851C748.089 31.0851 747.478 31.2304 746.955 31.5211C746.432 31.8118 746.025 32.2333 745.734 32.7856C745.444 33.3379 745.298 34.0064 745.298 34.7913V47H738.671V26.9428H745.298V29.9514C745.88 28.8468 746.664 27.9893 747.653 27.3788C748.67 26.7684 749.92 26.4632 751.403 26.4632C753.903 26.4632 755.719 27.1317 756.853 28.4689C757.987 29.806 758.553 31.681 758.553 34.0936V47H751.708V34.7913ZM773.954 47.436C771.628 47.436 769.608 47.0145 767.893 46.1716C766.207 45.2995 764.899 44.0786 763.969 42.5089C763.039 40.9392 762.573 39.0934 762.573 36.9714C762.573 34.8203 763.024 32.96 763.925 31.3903C764.826 29.8206 766.12 28.6142 767.806 27.7713C769.521 26.9283 771.541 26.5068 773.866 26.5068C776.192 26.5068 778.154 26.9137 779.753 27.7277C781.352 28.5125 782.572 29.6607 783.415 31.1723C784.258 32.6838 784.68 34.5151 784.68 36.6662C784.68 36.9859 784.68 37.3057 784.68 37.6254C784.68 37.9161 784.651 38.1632 784.593 38.3667H766.28V34.7041H778.663L777.093 36.7098C777.238 36.5063 777.355 36.2592 777.442 35.9685C777.558 35.6488 777.616 35.3872 777.616 35.1837C777.616 34.3116 777.456 33.5559 777.137 32.9164C776.817 32.2769 776.366 31.7827 775.785 31.4339C775.204 31.0851 774.521 30.9106 773.736 30.9106C772.747 30.9106 771.919 31.1287 771.25 31.5647C770.582 32.0007 770.073 32.6693 769.724 33.5704C769.404 34.4425 769.23 35.5471 769.201 36.8842C769.201 38.1051 769.375 39.1515 769.724 40.0236C770.073 40.8956 770.596 41.5642 771.294 42.0293C771.992 42.4653 772.849 42.6833 773.866 42.6833C775.029 42.6833 776.018 42.4653 776.831 42.0293C777.674 41.5933 778.343 40.9392 778.837 40.0672L784.724 41.5061C783.677 43.4827 782.253 44.9652 780.45 45.9535C778.677 46.9419 776.512 47.436 773.954 47.436ZM789.388 16.4782H796.233L791.742 27.5968H787.033L789.388 16.4782ZM817.078 12.99H823.662V47H817.078V12.99ZM800.683 36.9714C800.683 34.7041 801.134 32.8001 802.035 31.2595C802.965 29.7188 804.157 28.5416 805.61 27.7277C807.064 26.9137 808.604 26.5068 810.232 26.5068C811.918 26.5068 813.401 26.9283 814.68 27.7713C815.988 28.6142 817.02 29.8206 817.775 31.3903C818.531 32.9309 818.909 34.7913 818.909 36.9714C818.909 39.1225 818.531 40.9828 817.775 42.5525C817.02 44.1222 815.988 45.3286 814.68 46.1716C813.401 47.0145 811.918 47.436 810.232 47.436C808.604 47.436 807.064 47.0291 805.61 46.2152C804.157 45.4012 802.965 44.224 802.035 42.6833C801.134 41.1136 800.683 39.2097 800.683 36.9714ZM807.616 36.9714C807.616 38.0179 807.834 38.9335 808.27 39.7184C808.706 40.4741 809.287 41.07 810.014 41.5061C810.741 41.913 811.54 42.1165 812.412 42.1165C813.168 42.1165 813.895 41.913 814.592 41.5061C815.319 41.0991 815.915 40.5177 816.38 39.762C816.845 38.9771 817.078 38.0469 817.078 36.9714C817.078 35.8959 816.845 34.9802 816.38 34.2244C815.915 33.4396 815.319 32.8437 814.592 32.4367C813.895 32.0298 813.168 31.8263 812.412 31.8263C811.54 31.8263 810.741 32.0443 810.014 32.4803C809.287 32.8873 808.706 33.4832 808.27 34.268C807.834 35.0238 807.616 35.9249 807.616 36.9714ZM448.52 79.4782H455.889V110H448.52V79.4782ZM453.142 85.5389V79.4782H459.116C461.703 79.4782 463.868 79.8851 465.612 80.6991C467.385 81.4839 468.723 82.6176 469.624 84.1001C470.525 85.5825 470.975 87.3703 470.975 89.4632C470.975 91.498 470.525 93.2711 469.624 94.7827C468.723 96.2652 467.385 97.4134 465.612 98.2273C463.868 99.0121 461.703 99.4046 459.116 99.4046H453.142V93.3438H459.116C460.598 93.3438 461.761 93.0095 462.604 92.3409C463.447 91.6724 463.868 90.7131 463.868 89.4632C463.868 88.1842 463.447 87.2104 462.604 86.5418C461.761 85.8732 460.598 85.5389 459.116 85.5389H453.142ZM480.678 89.9428V110H474.181V89.9428H480.678ZM486.477 96.7448C486.128 96.396 485.75 96.1198 485.343 95.9164C484.965 95.7129 484.486 95.6111 483.904 95.6111C483.265 95.6111 482.698 95.7856 482.204 96.1344C481.71 96.4832 481.332 96.9919 481.07 97.6605C480.808 98.329 480.678 99.143 480.678 100.102L479.108 97.7913C479.108 96.1925 479.413 94.7682 480.024 93.5182C480.663 92.2683 481.492 91.28 482.509 90.5532C483.526 89.8265 484.587 89.4632 485.692 89.4632C486.419 89.4632 487.116 89.6085 487.785 89.8992C488.453 90.1899 488.962 90.5968 489.311 91.1201L486.477 96.7448ZM490.291 99.9714C490.291 97.8494 490.786 96.0036 491.774 94.4339C492.762 92.8642 494.128 91.6433 495.873 90.7713C497.617 89.8992 499.579 89.4632 501.759 89.4632C503.939 89.4632 505.887 89.8992 507.602 90.7713C509.346 91.6433 510.712 92.8642 511.7 94.4339C512.718 96.0036 513.226 97.8494 513.226 99.9714C513.226 102.064 512.718 103.896 511.7 105.465C510.712 107.035 509.346 108.256 507.602 109.128C505.887 110 503.939 110.436 501.759 110.436C499.579 110.436 497.617 110 495.873 109.128C494.128 108.256 492.762 107.035 491.774 105.465C490.786 103.896 490.291 102.064 490.291 99.9714ZM497.05 99.9714C497.05 101.018 497.268 101.919 497.704 102.675C498.14 103.401 498.707 103.968 499.404 104.375C500.102 104.782 500.887 104.986 501.759 104.986C502.602 104.986 503.372 104.782 504.07 104.375C504.797 103.968 505.363 103.401 505.77 102.675C506.206 101.919 506.424 101.018 506.424 99.9714C506.424 98.9249 506.206 98.0238 505.77 97.268C505.363 96.5123 504.797 95.9309 504.07 95.5239C503.372 95.117 502.602 94.9135 501.759 94.9135C500.887 94.9135 500.102 95.117 499.404 95.5239C498.707 95.9309 498.14 96.5123 497.704 97.268C497.268 98.0238 497.05 98.9249 497.05 99.9714ZM532.405 75.99H538.989V110H532.405V75.99ZM516.01 99.9714C516.01 97.7041 516.461 95.8001 517.362 94.2595C518.292 92.7188 519.484 91.5416 520.937 90.7277C522.391 89.9137 523.931 89.5068 525.559 89.5068C527.245 89.5068 528.728 89.9283 530.007 90.7713C531.315 91.6142 532.347 92.8206 533.102 94.3903C533.858 95.9309 534.236 97.7913 534.236 99.9714C534.236 102.122 533.858 103.983 533.102 105.553C532.347 107.122 531.315 108.329 530.007 109.172C528.728 110.015 527.245 110.436 525.559 110.436C523.931 110.436 522.391 110.029 520.937 109.215C519.484 108.401 518.292 107.224 517.362 105.683C516.461 104.114 516.01 102.21 516.01 99.9714ZM522.943 99.9714C522.943 101.018 523.161 101.934 523.597 102.718C524.033 103.474 524.614 104.07 525.341 104.506C526.068 104.913 526.867 105.117 527.739 105.117C528.495 105.117 529.222 104.913 529.919 104.506C530.646 104.099 531.242 103.518 531.707 102.762C532.172 101.977 532.405 101.047 532.405 99.9714C532.405 98.8959 532.172 97.9802 531.707 97.2244C531.242 96.4396 530.646 95.8437 529.919 95.4367C529.222 95.0298 528.495 94.8263 527.739 94.8263C526.867 94.8263 526.068 95.0443 525.341 95.4803C524.614 95.8873 524.033 96.4832 523.597 97.268C523.161 98.0238 522.943 98.9249 522.943 99.9714ZM550.988 102.152C550.988 103.314 551.206 104.23 551.642 104.898C552.078 105.538 552.833 105.858 553.909 105.858C554.636 105.858 555.246 105.712 555.74 105.422C556.263 105.131 556.67 104.71 556.961 104.157C557.252 103.605 557.397 102.936 557.397 102.152V89.9428H563.981V110H557.397V106.991C556.787 108.067 555.987 108.924 554.999 109.564C554.011 110.174 552.775 110.48 551.293 110.48C548.793 110.48 546.962 109.811 545.799 108.474C544.665 107.108 544.098 105.233 544.098 102.849V89.9428H550.988V102.152ZM574.716 99.9714C574.716 101.047 574.948 101.977 575.414 102.762C575.879 103.518 576.518 104.114 577.332 104.55C578.175 104.986 579.076 105.204 580.035 105.204C580.849 105.204 581.62 105.087 582.346 104.855C583.102 104.593 583.785 104.244 584.396 103.808C585.035 103.372 585.558 102.835 585.965 102.195V108.605C585.268 109.157 584.396 109.608 583.349 109.956C582.303 110.276 581.024 110.436 579.512 110.436C577.303 110.436 575.312 110 573.539 109.128C571.794 108.256 570.414 107.035 569.396 105.465C568.408 103.896 567.914 102.064 567.914 99.9714C567.914 97.8494 568.408 96.0181 569.396 94.4775C570.414 92.9078 571.794 91.6869 573.539 90.8149C575.312 89.9428 577.303 89.5068 579.512 89.5068C581.024 89.5068 582.303 89.6812 583.349 90.03C584.396 90.3498 585.268 90.7567 585.965 91.2509V97.7041C585.558 97.0646 585.021 96.5268 584.352 96.0908C583.713 95.6547 583.015 95.3205 582.259 95.0879C581.503 94.8554 580.762 94.7391 580.035 94.7391C579.076 94.7391 578.175 94.9716 577.332 95.4367C576.518 95.9018 575.879 96.5268 575.414 97.3116C574.948 98.0965 574.716 98.9831 574.716 99.9714ZM588.37 89.9428H601.799V95.3931H588.37V89.9428ZM591.901 82.9664H598.224V110H591.901V82.9664ZM618.332 79.4782H625.919V110H618.332V79.4782ZM629.232 110H623.215V103.46H628.971C630.134 103.46 631.253 103.314 632.328 103.024C633.433 102.733 634.392 102.253 635.206 101.585C636.049 100.916 636.718 100.03 637.212 98.9249C637.706 97.7913 637.953 96.396 637.953 94.7391C637.953 93.0822 637.706 91.7014 637.212 90.5968C636.718 89.4632 636.049 88.5621 635.206 87.8935C634.392 87.2249 633.433 86.7453 632.328 86.4546C631.253 86.1639 630.134 86.0186 628.971 86.0186H623.215V79.4782H629.232C632.575 79.4782 635.468 80.1032 637.909 81.3531C640.351 82.603 642.241 84.3617 643.578 86.629C644.915 88.8963 645.583 91.5997 645.583 94.7391C645.583 97.8494 644.915 100.553 643.578 102.849C642.241 105.117 640.351 106.875 637.909 108.125C635.468 109.375 632.575 110 629.232 110ZM659.859 110.436C657.533 110.436 655.513 110.015 653.798 109.172C652.112 108.299 650.804 107.079 649.874 105.509C648.944 103.939 648.479 102.093 648.479 99.9714C648.479 97.8203 648.929 95.96 649.83 94.3903C650.731 92.8206 652.025 91.6142 653.711 90.7713C655.426 89.9283 657.446 89.5068 659.772 89.5068C662.097 89.5068 664.059 89.9137 665.658 90.7277C667.257 91.5125 668.478 92.6607 669.321 94.1723C670.164 95.6838 670.585 97.5151 670.585 99.6662C670.585 99.9859 670.585 100.306 670.585 100.625C670.585 100.916 670.556 101.163 670.498 101.367H652.185V97.7041H664.568L662.998 99.7098C663.144 99.5063 663.26 99.2592 663.347 98.9685C663.463 98.6488 663.521 98.3872 663.521 98.1837C663.521 97.3116 663.362 96.5559 663.042 95.9164C662.722 95.2769 662.271 94.7827 661.69 94.4339C661.109 94.0851 660.426 93.9106 659.641 93.9106C658.652 93.9106 657.824 94.1287 657.155 94.5647C656.487 95.0007 655.978 95.6693 655.629 96.5704C655.31 97.4425 655.135 98.5471 655.106 99.8842C655.106 101.105 655.281 102.152 655.629 103.024C655.978 103.896 656.501 104.564 657.199 105.029C657.897 105.465 658.754 105.683 659.772 105.683C660.934 105.683 661.923 105.465 662.737 105.029C663.58 104.593 664.248 103.939 664.742 103.067L670.629 104.506C669.582 106.483 668.158 107.965 666.356 108.954C664.582 109.942 662.417 110.436 659.859 110.436ZM675.741 102.718C676.758 103.561 677.674 104.23 678.488 104.724C679.331 105.189 680.072 105.523 680.711 105.727C681.351 105.901 681.903 105.989 682.368 105.989C683.037 105.989 683.531 105.843 683.851 105.553C684.171 105.262 684.33 104.884 684.33 104.419C684.33 103.983 684.2 103.619 683.938 103.329C683.676 103.009 683.226 102.704 682.586 102.413C681.976 102.122 681.133 101.817 680.057 101.497C679.098 101.149 678.182 100.742 677.31 100.277C676.467 99.7825 675.77 99.1284 675.217 98.3145C674.665 97.5006 674.389 96.4541 674.389 95.1751C674.389 93.9542 674.709 92.9223 675.348 92.0793C676.017 91.2363 676.903 90.5968 678.008 90.1608C679.142 89.7248 680.435 89.5068 681.889 89.5068C683.051 89.5068 684.127 89.6376 685.115 89.8992C686.133 90.1608 687.077 90.5096 687.949 90.9457C688.851 91.3817 689.694 91.8904 690.478 92.4718L688.124 96.7448C687.281 95.96 686.322 95.3205 685.246 94.8263C684.171 94.3031 683.182 94.0414 682.281 94.0414C681.671 94.0414 681.206 94.1577 680.886 94.3903C680.595 94.6228 680.45 94.928 680.45 95.3059C680.45 95.742 680.624 96.1053 680.973 96.396C681.351 96.6867 681.874 96.9628 682.543 97.2244C683.24 97.457 684.083 97.7622 685.072 98.1401C686.118 98.518 687.077 98.954 687.949 99.4482C688.851 99.9423 689.563 100.567 690.086 101.323C690.638 102.079 690.914 103.082 690.914 104.332C690.914 106.483 690.246 108.111 688.909 109.215C687.601 110.291 685.755 110.828 683.371 110.828C681.918 110.828 680.566 110.654 679.316 110.305C678.095 109.985 676.962 109.549 675.915 108.997C674.869 108.416 673.895 107.776 672.994 107.079L675.741 102.718ZM694.143 82.3996C694.143 81.3531 694.521 80.5101 695.277 79.8706C696.033 79.202 696.934 78.8677 697.98 78.8677C699.056 78.8677 699.957 79.202 700.684 79.8706C701.44 80.5101 701.817 81.3531 701.817 82.3996C701.817 83.446 701.44 84.3035 700.684 84.9721C699.957 85.6407 699.056 85.975 697.98 85.975C696.934 85.975 696.033 85.6407 695.277 84.9721C694.521 84.3035 694.143 83.446 694.143 82.3996ZM694.797 89.9428H701.163V110H694.797V89.9428ZM705.845 111.439H712.211C712.298 112.253 712.531 112.936 712.909 113.488C713.315 114.041 713.853 114.447 714.522 114.709C715.19 115 715.946 115.145 716.789 115.145C717.719 115.145 718.562 114.927 719.318 114.491C720.074 114.084 720.67 113.459 721.106 112.616C721.571 111.802 721.803 110.785 721.803 109.564V89.9428H728.126V109.564C728.126 112.122 727.617 114.2 726.6 115.799C725.611 117.398 724.289 118.561 722.632 119.287C720.975 120.043 719.115 120.421 717.051 120.421C714.58 120.421 712.531 120.043 710.903 119.287C709.304 118.532 708.098 117.471 707.284 116.104C706.47 114.767 705.99 113.212 705.845 111.439ZM705.409 99.7098C705.409 97.4425 705.859 95.553 706.761 94.0414C707.691 92.5299 708.883 91.3962 710.336 90.6404C711.789 89.8847 713.33 89.5068 714.958 89.5068C716.644 89.5068 718.126 89.9137 719.405 90.7277C720.713 91.5125 721.745 92.6607 722.501 94.1723C723.257 95.6838 723.635 97.5297 723.635 99.7098C723.635 101.861 723.257 103.707 722.501 105.247C721.745 106.759 720.713 107.922 719.405 108.736C718.126 109.52 716.644 109.913 714.958 109.913C713.33 109.913 711.789 109.535 710.336 108.779C708.883 107.994 707.691 106.846 706.761 105.335C705.859 103.823 705.409 101.948 705.409 99.7098ZM712.342 99.7098C712.342 100.727 712.56 101.614 712.996 102.37C713.432 103.096 714.013 103.649 714.74 104.026C715.467 104.404 716.266 104.593 717.138 104.593C717.894 104.593 718.62 104.419 719.318 104.07C720.045 103.692 720.641 103.14 721.106 102.413C721.571 101.686 721.803 100.785 721.803 99.7098C721.803 98.8959 721.658 98.1837 721.367 97.5733C721.106 96.9628 720.742 96.4541 720.277 96.0472C719.841 95.6402 719.347 95.335 718.795 95.1315C718.243 94.928 717.69 94.8263 717.138 94.8263C716.266 94.8263 715.467 95.0152 714.74 95.3931C714.013 95.771 713.432 96.3233 712.996 97.05C712.56 97.7767 712.342 98.6633 712.342 99.7098ZM746.236 97.7913C746.236 96.5995 746.004 95.6838 745.539 95.0443C745.103 94.4048 744.361 94.0851 743.315 94.0851C742.617 94.0851 742.007 94.2304 741.484 94.5211C740.96 94.8118 740.553 95.2333 740.263 95.7856C739.972 96.3379 739.827 97.0064 739.827 97.7913V110H733.199V89.9428H739.827V92.9514C740.408 91.8468 741.193 90.9893 742.181 90.3788C743.199 89.7684 744.449 89.4632 745.931 89.4632C748.431 89.4632 750.248 90.1317 751.381 91.4689C752.515 92.806 753.082 94.681 753.082 97.0936V110H746.236V97.7913Z"/><rect width="1" height="467.31" fill="url(#paint0_linear_324_1804)" transform="matrix(1 0 0 -1 35 684.311)"/><rect width="1" height="467.31" fill="url(#paint1_linear_324_1804)" transform="matrix(1 0 0 -1 223.197 684.311)"/><rect width="1" height="467.31" fill="url(#paint2_linear_324_1804)" transform="matrix(1 0 0 -1 411.395 684.311)"/><rect width="1" height="467.31" fill="url(#paint3_linear_324_1804)" transform="matrix(1 0 0 -1 599.59 684.311)"/><rect width="1" height="467.31" fill="url(#paint4_linear_324_1804)" transform="matrix(1 0 0 -1 787.787 684.311)"/><rect width="1" height="467.31" fill="url(#paint5_linear_324_1804)" transform="matrix(1 0 0 -1 975.984 684.311)"/><rect width="1" height="467.31" fill="url(#paint6_linear_324_1804)" transform="matrix(1 0 0 -1 1164.18 684.311)"/><rect width="196.571" height="54.533" x=".5" y="283.5" fill="#781B4D" fill-opacity=".15" stroke="#781B4D" rx="27.267"/><path fill="#fff" d="M60.6285 310.898H62.7735L68.418 318.688H66.0473L60.6285 310.898ZM57.8063 302.883H59.7254V318.688H57.8063V302.883ZM58.8674 304.576V302.883H62.0961C63.1197 302.883 64.0303 303.078 64.8281 303.47C65.6409 303.846 66.2806 304.388 66.7473 305.095C67.2289 305.803 67.4698 306.646 67.4698 307.624C67.4698 308.587 67.2289 309.43 66.7473 310.153C66.2806 310.86 65.6409 311.41 64.8281 311.801C64.0303 312.177 63.1197 312.366 62.0961 312.366H58.8674V310.672H62.0961C62.7735 310.672 63.368 310.552 63.8798 310.311C64.4066 310.07 64.8131 309.724 65.099 309.272C65.4001 308.821 65.5506 308.271 65.5506 307.624C65.5506 306.977 65.4001 306.427 65.099 305.976C64.8131 305.524 64.4066 305.178 63.8798 304.937C63.368 304.696 62.7735 304.576 62.0961 304.576H58.8674ZM74.3464 318.913C73.3831 318.913 72.5251 318.688 71.7725 318.236C71.035 317.769 70.4554 317.13 70.034 316.317C69.6276 315.504 69.4244 314.563 69.4244 313.494C69.4244 312.411 69.6351 311.462 70.0566 310.65C70.4931 309.837 71.0952 309.205 71.8628 308.753C72.6455 308.301 73.5487 308.076 74.5722 308.076C75.5958 308.076 76.4688 308.294 77.1913 308.73C77.9289 309.152 78.4933 309.762 78.8847 310.559C79.276 311.357 79.4717 312.305 79.4717 313.404C79.4717 313.51 79.4642 313.622 79.4491 313.743C79.4491 313.848 79.4491 313.916 79.4491 313.946H70.5759V312.411H78.0267L77.3042 313.449C77.3493 313.374 77.3945 313.261 77.4397 313.111C77.4848 312.945 77.5074 312.81 77.5074 312.704C77.5074 312.087 77.3794 311.553 77.1236 311.101C76.8827 310.65 76.5441 310.296 76.1075 310.04C75.671 309.784 75.1593 309.656 74.5722 309.656C73.8798 309.656 73.2853 309.807 72.7885 310.108C72.3069 310.394 71.9306 310.815 71.6596 311.372C71.4037 311.914 71.2683 312.584 71.2532 313.382C71.2532 314.194 71.3812 314.887 71.637 315.459C71.8929 316.031 72.2692 316.467 72.766 316.768C73.2627 317.069 73.8648 317.22 74.5722 317.22C75.2797 317.22 75.9043 317.069 76.4462 316.768C76.9881 316.452 77.4472 315.978 77.8235 315.346L79.2911 316.272C78.7492 317.145 78.0643 317.807 77.2365 318.259C76.4236 318.695 75.4603 318.913 74.3464 318.913ZM82.3764 315.504C82.5871 315.82 82.8279 316.114 83.0989 316.385C83.3698 316.655 83.6784 316.874 84.0246 317.039C84.3858 317.19 84.7772 317.265 85.1986 317.265C85.7104 317.265 86.1093 317.152 86.3953 316.926C86.6963 316.686 86.8469 316.362 86.8469 315.956C86.8469 315.594 86.7264 315.293 86.4856 315.052C86.2598 314.797 85.9663 314.586 85.6051 314.42C85.2438 314.24 84.86 314.074 84.4536 313.923C84.002 313.743 83.5429 313.532 83.0763 313.291C82.6247 313.035 82.2409 312.712 81.9248 312.32C81.6238 311.914 81.4732 311.41 81.4732 310.808C81.4732 310.191 81.6313 309.679 81.9474 309.272C82.2785 308.866 82.7 308.565 83.2118 308.369C83.7386 308.174 84.2805 308.076 84.8374 308.076C85.3943 308.076 85.9136 308.166 86.3953 308.347C86.892 308.527 87.3285 308.768 87.7048 309.069C88.0811 309.37 88.3747 309.716 88.5854 310.108L87.1404 311.033C86.8544 310.642 86.4931 310.318 86.0566 310.063C85.6352 309.807 85.1535 309.679 84.6116 309.679C84.2353 309.679 83.9117 309.762 83.6407 309.927C83.3698 310.093 83.2343 310.349 83.2343 310.695C83.2343 310.966 83.3397 311.207 83.5504 311.417C83.7612 311.628 84.0321 311.816 84.3632 311.982C84.6944 312.147 85.0406 312.305 85.4018 312.456C86.0039 312.697 86.5533 312.96 87.0501 313.246C87.5468 313.517 87.9381 313.848 88.2241 314.24C88.5252 314.631 88.6757 315.135 88.6757 315.752C88.6757 316.655 88.3445 317.408 87.6823 318.01C87.035 318.612 86.177 318.913 85.1083 318.913C84.4159 318.913 83.7913 318.793 83.2343 318.552C82.6774 318.296 82.2033 317.973 81.8119 317.581C81.4356 317.19 81.1496 316.791 80.9539 316.385L82.3764 315.504ZM95.0726 318.913C94.1092 318.913 93.2513 318.688 92.4987 318.236C91.7611 317.769 91.1816 317.13 90.7601 316.317C90.3537 315.504 90.1505 314.563 90.1505 313.494C90.1505 312.411 90.3612 311.462 90.7827 310.65C91.2192 309.837 91.8213 309.205 92.589 308.753C93.3717 308.301 94.2748 308.076 95.2984 308.076C96.3219 308.076 97.1949 308.294 97.9174 308.73C98.655 309.152 99.2195 309.762 99.6108 310.559C100.002 311.357 100.198 312.305 100.198 313.404C100.198 313.51 100.19 313.622 100.175 313.743C100.175 313.848 100.175 313.916 100.175 313.946H91.302V312.411H98.7528L98.0303 313.449C98.0755 313.374 98.1206 313.261 98.1658 313.111C98.211 312.945 98.2335 312.81 98.2335 312.704C98.2335 312.087 98.1056 311.553 97.8497 311.101C97.6089 310.65 97.2702 310.296 96.8337 310.04C96.3972 309.784 95.8854 309.656 95.2984 309.656C94.606 309.656 94.0114 309.807 93.5147 310.108C93.033 310.394 92.6567 310.815 92.3858 311.372C92.1299 311.914 91.9944 312.584 91.9794 313.382C91.9794 314.194 92.1073 314.887 92.3632 315.459C92.6191 316.031 92.9954 316.467 93.4921 316.768C93.9888 317.069 94.5909 317.22 95.2984 317.22C96.0058 317.22 96.6305 317.069 97.1724 316.768C97.7142 316.452 98.1733 315.978 98.5496 315.346L100.017 316.272C99.4753 317.145 98.7905 317.807 97.9626 318.259C97.1498 318.695 96.1864 318.913 95.0726 318.913ZM103.486 315.481C103.486 315.873 103.577 316.211 103.757 316.497C103.953 316.783 104.216 317.002 104.548 317.152C104.894 317.288 105.285 317.355 105.722 317.355C106.279 317.355 106.775 317.242 107.212 317.017C107.663 316.791 108.017 316.475 108.273 316.068C108.544 315.647 108.679 315.165 108.679 314.623L109.041 315.978C109.041 316.64 108.837 317.19 108.431 317.626C108.04 318.063 107.55 318.386 106.963 318.597C106.391 318.808 105.819 318.913 105.247 318.913C104.615 318.913 104.021 318.785 103.464 318.529C102.922 318.259 102.485 317.875 102.154 317.378C101.823 316.881 101.657 316.279 101.657 315.572C101.657 314.563 102.011 313.758 102.719 313.156C103.441 312.539 104.442 312.23 105.722 312.23C106.474 312.23 107.099 312.32 107.596 312.501C108.107 312.667 108.514 312.862 108.815 313.088C109.116 313.299 109.319 313.472 109.424 313.607V314.669C108.898 314.307 108.356 314.051 107.799 313.901C107.242 313.735 106.647 313.653 106.015 313.653C105.428 313.653 104.946 313.728 104.57 313.878C104.209 314.029 103.938 314.24 103.757 314.511C103.577 314.781 103.486 315.105 103.486 315.481ZM103.215 310.695L102.335 309.363C102.726 309.077 103.261 308.791 103.938 308.505C104.63 308.219 105.458 308.076 106.422 308.076C107.234 308.076 107.942 308.204 108.544 308.46C109.161 308.7 109.635 309.054 109.966 309.521C110.313 309.987 110.486 310.559 110.486 311.237V318.688H108.679V311.485C108.679 311.124 108.619 310.83 108.499 310.604C108.378 310.364 108.205 310.175 107.979 310.04C107.769 309.905 107.52 309.807 107.234 309.747C106.948 309.686 106.647 309.656 106.331 309.656C105.819 309.656 105.353 309.716 104.931 309.837C104.525 309.957 104.179 310.1 103.893 310.266C103.607 310.431 103.381 310.574 103.215 310.695ZM115.35 308.301V318.688H113.544V308.301H115.35ZM118.488 310.288C118.248 310.108 118.029 309.98 117.834 309.905C117.638 309.814 117.39 309.769 117.089 309.769C116.637 309.769 116.283 309.882 116.027 310.108C115.771 310.334 115.591 310.642 115.485 311.033C115.395 311.425 115.35 311.869 115.35 312.366H114.537C114.537 311.538 114.68 310.808 114.966 310.175C115.267 309.528 115.651 309.016 116.118 308.64C116.584 308.264 117.058 308.076 117.54 308.076C117.916 308.076 118.263 308.128 118.579 308.234C118.91 308.324 119.211 308.512 119.482 308.798L118.488 310.288ZM121.765 313.494C121.765 314.217 121.916 314.857 122.217 315.414C122.533 315.971 122.954 316.415 123.481 316.746C124.023 317.062 124.632 317.22 125.31 317.22C125.867 317.22 126.386 317.137 126.868 316.972C127.364 316.791 127.793 316.558 128.155 316.272C128.516 315.971 128.772 315.654 128.922 315.323V317.581C128.561 318.003 128.042 318.334 127.364 318.575C126.702 318.8 126.017 318.913 125.31 318.913C124.301 318.913 123.391 318.68 122.578 318.213C121.765 317.747 121.118 317.107 120.636 316.294C120.17 315.466 119.936 314.533 119.936 313.494C119.936 312.441 120.17 311.508 120.636 310.695C121.118 309.882 121.765 309.242 122.578 308.776C123.391 308.309 124.301 308.076 125.31 308.076C126.017 308.076 126.702 308.196 127.364 308.437C128.042 308.663 128.561 308.986 128.922 309.408V311.666C128.772 311.319 128.516 311.003 128.155 310.717C127.793 310.431 127.364 310.206 126.868 310.04C126.386 309.859 125.867 309.769 125.31 309.769C124.632 309.769 124.023 309.927 123.481 310.243C122.954 310.559 122.533 311.003 122.217 311.575C121.916 312.132 121.765 312.772 121.765 313.494ZM133.54 301.076V318.688H131.734V301.076H133.54ZM138.395 312.366C138.395 311.508 138.207 310.86 137.83 310.424C137.469 309.987 136.92 309.769 136.182 309.769C135.655 309.769 135.189 309.882 134.782 310.108C134.391 310.334 134.082 310.642 133.857 311.033C133.646 311.425 133.54 311.869 133.54 312.366H132.953C132.953 311.538 133.112 310.808 133.428 310.175C133.744 309.528 134.173 309.016 134.715 308.64C135.271 308.264 135.911 308.076 136.634 308.076C137.356 308.076 137.981 308.226 138.508 308.527C139.05 308.828 139.464 309.28 139.75 309.882C140.051 310.484 140.201 311.237 140.201 312.14V318.688H138.395V312.366Z"/><rect width="221.134" height="54.533" x="164.965" y="361.461" fill="#781B4D" fill-opacity=".15" stroke="#781B4D" rx="27.267"/><path fill="#fff" d="M227.031 380.902H228.95V391.514C228.95 392.598 229.244 393.471 229.831 394.133C230.418 394.795 231.276 395.127 232.405 395.127C233.534 395.127 234.392 394.795 234.979 394.133C235.566 393.471 235.859 392.598 235.859 391.514V380.902H237.779V391.514C237.779 392.297 237.651 393.019 237.395 393.682C237.154 394.344 236.793 394.916 236.311 395.397C235.844 395.879 235.28 396.255 234.618 396.526C233.955 396.797 233.218 396.933 232.405 396.933C231.592 396.933 230.855 396.797 230.192 396.526C229.53 396.255 228.958 395.879 228.476 395.397C228.01 394.916 227.648 394.344 227.393 393.682C227.152 393.019 227.031 392.297 227.031 391.514V380.902ZM241.594 393.523C241.804 393.84 242.045 394.133 242.316 394.404C242.587 394.675 242.896 394.893 243.242 395.059C243.603 395.209 243.995 395.285 244.416 395.285C244.928 395.285 245.327 395.172 245.613 394.946C245.914 394.705 246.064 394.381 246.064 393.975C246.064 393.614 245.944 393.313 245.703 393.072C245.477 392.816 245.184 392.605 244.822 392.44C244.461 392.259 244.077 392.094 243.671 391.943C243.219 391.762 242.76 391.552 242.294 391.311C241.842 391.055 241.458 390.731 241.142 390.34C240.841 389.934 240.691 389.429 240.691 388.827C240.691 388.21 240.849 387.698 241.165 387.292C241.496 386.885 241.917 386.584 242.429 386.389C242.956 386.193 243.498 386.095 244.055 386.095C244.612 386.095 245.131 386.186 245.613 386.366C246.109 386.547 246.546 386.788 246.922 387.089C247.298 387.39 247.592 387.736 247.803 388.127L246.358 389.053C246.072 388.662 245.71 388.338 245.274 388.082C244.853 387.826 244.371 387.698 243.829 387.698C243.453 387.698 243.129 387.781 242.858 387.947C242.587 388.112 242.452 388.368 242.452 388.714C242.452 388.985 242.557 389.226 242.768 389.437C242.979 389.648 243.249 389.836 243.581 390.001C243.912 390.167 244.258 390.325 244.619 390.475C245.221 390.716 245.771 390.98 246.267 391.266C246.764 391.537 247.155 391.868 247.441 392.259C247.743 392.65 247.893 393.155 247.893 393.772C247.893 394.675 247.562 395.428 246.9 396.03C246.252 396.632 245.394 396.933 244.326 396.933C243.633 396.933 243.009 396.812 242.452 396.572C241.895 396.316 241.421 395.992 241.029 395.601C240.653 395.209 240.367 394.81 240.171 394.404L241.594 393.523ZM254.29 396.933C253.327 396.933 252.469 396.707 251.716 396.255C250.978 395.789 250.399 395.149 249.977 394.336C249.571 393.523 249.368 392.583 249.368 391.514C249.368 390.43 249.579 389.482 250 388.669C250.437 387.856 251.039 387.224 251.806 386.773C252.589 386.321 253.492 386.095 254.516 386.095C255.539 386.095 256.412 386.313 257.135 386.75C257.872 387.171 258.437 387.781 258.828 388.579C259.22 389.377 259.415 390.325 259.415 391.424C259.415 391.529 259.408 391.642 259.393 391.762C259.393 391.868 259.393 391.935 259.393 391.966H250.519V390.43H257.97L257.248 391.469C257.293 391.394 257.338 391.281 257.383 391.13C257.428 390.965 257.451 390.829 257.451 390.724C257.451 390.107 257.323 389.572 257.067 389.121C256.826 388.669 256.488 388.315 256.051 388.06C255.615 387.804 255.103 387.676 254.516 387.676C253.823 387.676 253.229 387.826 252.732 388.127C252.25 388.413 251.874 388.835 251.603 389.392C251.347 389.934 251.212 390.603 251.197 391.401C251.197 392.214 251.325 392.906 251.581 393.478C251.836 394.05 252.213 394.487 252.709 394.788C253.206 395.089 253.808 395.239 254.516 395.239C255.223 395.239 255.848 395.089 256.39 394.788C256.932 394.472 257.391 393.998 257.767 393.365L259.235 394.291C258.693 395.164 258.008 395.826 257.18 396.278C256.367 396.715 255.404 396.933 254.29 396.933ZM263.697 386.321V396.707H261.891V386.321H263.697ZM266.836 388.308C266.595 388.127 266.376 387.999 266.181 387.924C265.985 387.834 265.737 387.789 265.436 387.789C264.984 387.789 264.63 387.902 264.374 388.127C264.119 388.353 263.938 388.662 263.833 389.053C263.742 389.444 263.697 389.888 263.697 390.385H262.884C262.884 389.557 263.027 388.827 263.313 388.195C263.614 387.548 263.998 387.036 264.465 386.66C264.931 386.283 265.406 386.095 265.887 386.095C266.264 386.095 266.61 386.148 266.926 386.253C267.257 386.344 267.558 386.532 267.829 386.818L266.836 388.308ZM277.573 382.709V380.902H284.64V382.709H277.573ZM277.573 389.03V387.224H284.414V389.03H277.573ZM276.512 380.902H278.431V396.707H276.512V380.902ZM287.688 379.096H289.495V396.707H287.688V379.096ZM291.989 391.514C291.989 390.46 292.222 389.527 292.689 388.714C293.17 387.902 293.818 387.262 294.63 386.795C295.443 386.329 296.354 386.095 297.362 386.095C298.386 386.095 299.297 386.329 300.094 386.795C300.907 387.262 301.547 387.902 302.014 388.714C302.495 389.527 302.736 390.46 302.736 391.514C302.736 392.553 302.495 393.486 302.014 394.314C301.547 395.127 300.907 395.766 300.094 396.233C299.297 396.7 298.386 396.933 297.362 396.933C296.354 396.933 295.443 396.7 294.63 396.233C293.818 395.766 293.17 395.127 292.689 394.314C292.222 393.486 291.989 392.553 291.989 391.514ZM293.818 391.514C293.818 392.237 293.968 392.876 294.269 393.433C294.585 393.99 295.007 394.434 295.534 394.765C296.075 395.081 296.685 395.239 297.362 395.239C298.04 395.239 298.642 395.081 299.169 394.765C299.711 394.434 300.132 393.99 300.433 393.433C300.749 392.876 300.907 392.237 300.907 391.514C300.907 390.792 300.749 390.152 300.433 389.595C300.132 389.023 299.711 388.579 299.169 388.263C298.642 387.947 298.04 387.789 297.362 387.789C296.685 387.789 296.075 387.947 295.534 388.263C295.007 388.579 294.585 389.023 294.269 389.595C293.968 390.152 293.818 390.792 293.818 391.514ZM303.306 386.321H305.338L307.935 393.072L310.757 385.531L313.782 393.117L316.402 386.321H318.434L313.918 397.497L310.78 389.934L307.822 397.497L303.306 386.321Z"/><rect width="251.036" height="54.533" x="379.621" y="436.219" fill="#781B4D" fill-opacity=".15" stroke="#781B4D" rx="27.267"/><path fill="#fff" d="M465.478 467.288L469.587 455.66H471.732L465.523 472.255L460.782 459.973L456.04 472.255L449.831 455.66H451.976L456.176 467.288L460.782 454.87L465.478 467.288ZM473.657 456.789C473.657 456.443 473.777 456.149 474.018 455.908C474.274 455.668 474.567 455.547 474.898 455.547C475.245 455.547 475.538 455.668 475.779 455.908C476.02 456.149 476.14 456.443 476.14 456.789C476.14 457.12 476.02 457.414 475.779 457.67C475.538 457.91 475.245 458.031 474.898 458.031C474.567 458.031 474.274 457.91 474.018 457.67C473.777 457.414 473.657 457.12 473.657 456.789ZM473.995 461.079H475.802V471.465H473.995V461.079ZM481.328 461.079V471.465H479.522V461.079H481.328ZM484.466 463.066C484.225 462.885 484.007 462.757 483.812 462.682C483.616 462.592 483.368 462.546 483.066 462.546C482.615 462.546 482.261 462.659 482.005 462.885C481.749 463.111 481.569 463.419 481.463 463.811C481.373 464.202 481.328 464.646 481.328 465.143H480.515C480.515 464.315 480.658 463.585 480.944 462.953C481.245 462.306 481.629 461.794 482.096 461.418C482.562 461.041 483.036 460.853 483.518 460.853C483.894 460.853 484.241 460.906 484.557 461.011C484.888 461.101 485.189 461.29 485.46 461.576L484.466 463.066ZM490.949 471.691C489.986 471.691 489.128 471.465 488.375 471.013C487.638 470.547 487.058 469.907 486.637 469.094C486.23 468.281 486.027 467.341 486.027 466.272C486.027 465.188 486.238 464.24 486.659 463.427C487.096 462.614 487.698 461.982 488.465 461.53C489.248 461.079 490.151 460.853 491.175 460.853C492.198 460.853 493.071 461.071 493.794 461.508C494.532 461.929 495.096 462.539 495.487 463.337C495.879 464.134 496.074 465.083 496.074 466.182C496.074 466.287 496.067 466.4 496.052 466.52C496.052 466.626 496.052 466.693 496.052 466.723H487.179V465.188H494.629L493.907 466.227C493.952 466.151 493.997 466.039 494.042 465.888C494.087 465.722 494.11 465.587 494.11 465.482C494.11 464.864 493.982 464.33 493.726 463.879C493.485 463.427 493.147 463.073 492.71 462.817C492.274 462.561 491.762 462.434 491.175 462.434C490.482 462.434 489.888 462.584 489.391 462.885C488.91 463.171 488.533 463.593 488.262 464.149C488.006 464.691 487.871 465.361 487.856 466.159C487.856 466.972 487.984 467.664 488.24 468.236C488.496 468.808 488.872 469.245 489.369 469.546C489.865 469.847 490.467 469.997 491.175 469.997C491.882 469.997 492.507 469.847 493.049 469.546C493.591 469.23 494.05 468.755 494.426 468.123L495.894 469.049C495.352 469.922 494.667 470.584 493.839 471.036C493.026 471.472 492.063 471.691 490.949 471.691ZM497.76 461.079H502.953V462.772H497.76V461.079ZM502.772 456.021C502.622 455.765 502.441 455.607 502.23 455.547C502.035 455.472 501.846 455.434 501.666 455.434C501.44 455.434 501.244 455.502 501.079 455.637C500.928 455.758 500.808 455.969 500.718 456.27C500.627 456.571 500.582 456.97 500.582 457.466V471.465H498.776V457.241C498.776 456.413 498.896 455.735 499.137 455.208C499.378 454.682 499.717 454.29 500.153 454.034C500.605 453.763 501.147 453.628 501.779 453.628C502.11 453.628 502.403 453.673 502.659 453.763C502.915 453.854 503.133 453.967 503.314 454.102C503.51 454.238 503.66 454.381 503.766 454.531L502.772 456.021ZM506.817 461.079V471.465H505.01V461.079H506.817ZM509.955 463.066C509.714 462.885 509.496 462.757 509.3 462.682C509.105 462.592 508.856 462.546 508.555 462.546C508.104 462.546 507.75 462.659 507.494 462.885C507.238 463.111 507.058 463.419 506.952 463.811C506.862 464.202 506.817 464.646 506.817 465.143H506.004C506.004 464.315 506.147 463.585 506.433 462.953C506.734 462.306 507.118 461.794 507.584 461.418C508.051 461.041 508.525 460.853 509.007 460.853C509.383 460.853 509.729 460.906 510.045 461.011C510.377 461.101 510.678 461.29 510.949 461.576L509.955 463.066ZM513.562 468.259C513.562 468.65 513.653 468.989 513.833 469.275C514.029 469.561 514.293 469.779 514.624 469.93C514.97 470.065 515.361 470.133 515.798 470.133C516.355 470.133 516.851 470.02 517.288 469.794C517.739 469.568 518.093 469.252 518.349 468.846C518.62 468.424 518.755 467.943 518.755 467.401L519.117 468.755C519.117 469.418 518.914 469.967 518.507 470.404C518.116 470.84 517.627 471.164 517.04 471.375C516.468 471.585 515.896 471.691 515.324 471.691C514.691 471.691 514.097 471.563 513.54 471.307C512.998 471.036 512.562 470.652 512.23 470.155C511.899 469.659 511.734 469.056 511.734 468.349C511.734 467.341 512.087 466.535 512.795 465.933C513.517 465.316 514.518 465.007 515.798 465.007C516.55 465.007 517.175 465.098 517.672 465.278C518.184 465.444 518.59 465.64 518.891 465.865C519.192 466.076 519.395 466.249 519.501 466.385V467.446C518.974 467.085 518.432 466.829 517.875 466.678C517.318 466.513 516.723 466.43 516.091 466.43C515.504 466.43 515.023 466.505 514.646 466.656C514.285 466.806 514.014 467.017 513.833 467.288C513.653 467.559 513.562 467.882 513.562 468.259ZM513.292 463.472L512.411 462.14C512.802 461.854 513.337 461.568 514.014 461.282C514.706 460.996 515.534 460.853 516.498 460.853C517.31 460.853 518.018 460.981 518.62 461.237C519.237 461.478 519.711 461.831 520.042 462.298C520.389 462.765 520.562 463.337 520.562 464.014V471.465H518.755V464.262C518.755 463.901 518.695 463.608 518.575 463.382C518.454 463.141 518.281 462.953 518.056 462.817C517.845 462.682 517.596 462.584 517.31 462.524C517.024 462.464 516.723 462.434 516.407 462.434C515.896 462.434 515.429 462.494 515.007 462.614C514.601 462.735 514.255 462.878 513.969 463.043C513.683 463.209 513.457 463.352 513.292 463.472ZM537.844 464.917V471.465H536.038V465.143C536.038 464.255 535.872 463.6 535.541 463.179C535.225 462.757 534.728 462.546 534.051 462.546C533.554 462.546 533.125 462.652 532.764 462.863C532.403 463.058 532.124 463.352 531.929 463.743C531.733 464.134 531.635 464.601 531.635 465.143V471.465H529.829V465.143C529.829 464.255 529.663 463.6 529.332 463.179C529.016 462.757 528.519 462.546 527.842 462.546C527.345 462.546 526.916 462.652 526.555 462.863C526.194 463.058 525.915 463.352 525.72 463.743C525.524 464.134 525.426 464.601 525.426 465.143V471.465H523.62V461.079H525.426V462.592C525.742 462.005 526.134 461.568 526.6 461.282C527.082 460.996 527.646 460.853 528.294 460.853C529.016 460.853 529.633 461.026 530.145 461.372C530.672 461.704 531.056 462.178 531.296 462.795C531.658 462.148 532.109 461.666 532.651 461.35C533.193 461.019 533.81 460.853 534.503 460.853C535.21 460.853 535.812 461.011 536.309 461.327C536.806 461.643 537.182 462.11 537.438 462.727C537.709 463.329 537.844 464.059 537.844 464.917ZM545.256 471.691C544.293 471.691 543.435 471.465 542.682 471.013C541.945 470.547 541.365 469.907 540.944 469.094C540.537 468.281 540.334 467.341 540.334 466.272C540.334 465.188 540.545 464.24 540.966 463.427C541.403 462.614 542.005 461.982 542.772 461.53C543.555 461.079 544.458 460.853 545.482 460.853C546.505 460.853 547.378 461.071 548.101 461.508C548.838 461.929 549.403 462.539 549.794 463.337C550.186 464.134 550.381 465.083 550.381 466.182C550.381 466.287 550.374 466.4 550.359 466.52C550.359 466.626 550.359 466.693 550.359 466.723H541.485V465.188H548.936L548.214 466.227C548.259 466.151 548.304 466.039 548.349 465.888C548.394 465.722 548.417 465.587 548.417 465.482C548.417 464.864 548.289 464.33 548.033 463.879C547.792 463.427 547.454 463.073 547.017 462.817C546.581 462.561 546.069 462.434 545.482 462.434C544.789 462.434 544.195 462.584 543.698 462.885C543.216 463.171 542.84 463.593 542.569 464.149C542.313 464.691 542.178 465.361 542.163 466.159C542.163 466.972 542.291 467.664 542.547 468.236C542.803 468.808 543.179 469.245 543.676 469.546C544.172 469.847 544.774 469.997 545.482 469.997C546.189 469.997 546.814 469.847 547.356 469.546C547.898 469.23 548.357 468.755 548.733 468.123L550.201 469.049C549.659 469.922 548.974 470.584 548.146 471.036C547.333 471.472 546.37 471.691 545.256 471.691ZM553.286 468.281C553.497 468.597 553.738 468.891 554.008 469.162C554.279 469.433 554.588 469.651 554.934 469.817C555.295 469.967 555.687 470.042 556.108 470.042C556.62 470.042 557.019 469.93 557.305 469.704C557.606 469.463 557.756 469.139 557.756 468.733C557.756 468.372 557.636 468.071 557.395 467.83C557.169 467.574 556.876 467.363 556.515 467.198C556.153 467.017 555.77 466.851 555.363 466.701C554.912 466.52 554.452 466.309 553.986 466.069C553.534 465.813 553.15 465.489 552.834 465.098C552.533 464.691 552.383 464.187 552.383 463.585C552.383 462.968 552.541 462.456 552.857 462.05C553.188 461.643 553.61 461.342 554.121 461.147C554.648 460.951 555.19 460.853 555.747 460.853C556.304 460.853 556.823 460.943 557.305 461.124C557.802 461.305 558.238 461.545 558.614 461.846C558.991 462.148 559.284 462.494 559.495 462.885L558.05 463.811C557.764 463.419 557.403 463.096 556.966 462.84C556.545 462.584 556.063 462.456 555.521 462.456C555.145 462.456 554.821 462.539 554.55 462.704C554.279 462.87 554.144 463.126 554.144 463.472C554.144 463.743 554.249 463.984 554.46 464.195C554.671 464.405 554.942 464.594 555.273 464.759C555.604 464.925 555.95 465.083 556.311 465.233C556.914 465.474 557.463 465.737 557.96 466.023C558.456 466.294 558.848 466.626 559.134 467.017C559.435 467.408 559.585 467.913 559.585 468.53C559.585 469.433 559.254 470.185 558.592 470.787C557.945 471.39 557.087 471.691 556.018 471.691C555.326 471.691 554.701 471.57 554.144 471.329C553.587 471.073 553.113 470.75 552.721 470.359C552.345 469.967 552.059 469.568 551.864 469.162L553.286 468.281Z"/><rect width="279.871" height="54.533" x="922.141" y="590.002" fill="#781B4D" fill-opacity=".15" stroke="#781B4D" rx="27.267"/><path fill="#fff" d="M1001.41 609.445H1003.33V625.25H1001.41V609.445ZM1006.15 625.25H1002.47V623.331H1006.15C1007.04 623.331 1007.85 623.195 1008.59 622.924C1009.33 622.638 1009.96 622.24 1010.48 621.728C1011.01 621.201 1011.42 620.569 1011.7 619.831C1011.99 619.094 1012.13 618.266 1012.13 617.348C1012.13 616.429 1011.99 615.602 1011.7 614.864C1011.42 614.126 1011.01 613.502 1010.48 612.99C1009.96 612.463 1009.33 612.064 1008.59 611.793C1007.85 611.507 1007.04 611.364 1006.15 611.364H1002.47V609.445H1006.15C1007.68 609.445 1009.05 609.776 1010.24 610.439C1011.43 611.101 1012.36 612.027 1013.04 613.216C1013.71 614.39 1014.05 615.767 1014.05 617.348C1014.05 618.928 1013.71 620.313 1013.04 621.502C1012.36 622.676 1011.43 623.594 1010.24 624.257C1009.05 624.919 1007.68 625.25 1006.15 625.25ZM1020.66 625.476C1019.7 625.476 1018.84 625.25 1018.09 624.798C1017.35 624.332 1016.77 623.692 1016.35 622.879C1015.94 622.066 1015.74 621.126 1015.74 620.057C1015.74 618.973 1015.95 618.025 1016.37 617.212C1016.81 616.399 1017.41 615.767 1018.18 615.316C1018.96 614.864 1019.86 614.638 1020.89 614.638C1021.91 614.638 1022.78 614.856 1023.5 615.293C1024.24 615.714 1024.81 616.324 1025.2 617.122C1025.59 617.92 1025.79 618.868 1025.79 619.967C1025.79 620.072 1025.78 620.185 1025.76 620.305C1025.76 620.411 1025.76 620.478 1025.76 620.509H1016.89V618.973H1024.34L1023.62 620.012C1023.66 619.937 1023.71 619.824 1023.75 619.673C1023.8 619.508 1023.82 619.372 1023.82 619.267C1023.82 618.65 1023.69 618.115 1023.44 617.664C1023.2 617.212 1022.86 616.858 1022.42 616.603C1021.98 616.347 1021.47 616.219 1020.89 616.219C1020.19 616.219 1019.6 616.369 1019.1 616.67C1018.62 616.956 1018.24 617.378 1017.97 617.935C1017.72 618.477 1017.58 619.146 1017.57 619.944C1017.57 620.757 1017.69 621.449 1017.95 622.021C1018.21 622.593 1018.58 623.03 1019.08 623.331C1019.58 623.632 1020.18 623.782 1020.89 623.782C1021.59 623.782 1022.22 623.632 1022.76 623.331C1023.3 623.015 1023.76 622.541 1024.14 621.908L1025.6 622.834C1025.06 623.707 1024.38 624.369 1023.55 624.821C1022.74 625.258 1021.77 625.476 1020.66 625.476ZM1026.24 614.864H1028.27L1031.2 622.202L1034.14 614.864H1036.17L1031.2 626.04L1026.24 614.864ZM1041.56 625.476C1040.6 625.476 1039.74 625.25 1038.99 624.798C1038.25 624.332 1037.67 623.692 1037.25 622.879C1036.84 622.066 1036.64 621.126 1036.64 620.057C1036.64 618.973 1036.85 618.025 1037.27 617.212C1037.71 616.399 1038.31 615.767 1039.08 615.316C1039.86 614.864 1040.76 614.638 1041.79 614.638C1042.81 614.638 1043.68 614.856 1044.41 615.293C1045.14 615.714 1045.71 616.324 1046.1 617.122C1046.49 617.92 1046.69 618.868 1046.69 619.967C1046.69 620.072 1046.68 620.185 1046.67 620.305C1046.67 620.411 1046.67 620.478 1046.67 620.509H1037.79V618.973H1045.24L1044.52 620.012C1044.57 619.937 1044.61 619.824 1044.66 619.673C1044.7 619.508 1044.72 619.372 1044.72 619.267C1044.72 618.65 1044.6 618.115 1044.34 617.664C1044.1 617.212 1043.76 616.858 1043.32 616.603C1042.89 616.347 1042.38 616.219 1041.79 616.219C1041.1 616.219 1040.5 616.369 1040 616.67C1039.52 616.956 1039.15 617.378 1038.88 617.935C1038.62 618.477 1038.48 619.146 1038.47 619.944C1038.47 620.757 1038.6 621.449 1038.85 622.021C1039.11 622.593 1039.49 623.03 1039.98 623.331C1040.48 623.632 1041.08 623.782 1041.79 623.782C1042.5 623.782 1043.12 623.632 1043.66 623.331C1044.2 623.015 1044.66 622.541 1045.04 621.908L1046.51 622.834C1045.97 623.707 1045.28 624.369 1044.45 624.821C1043.64 625.258 1042.68 625.476 1041.56 625.476ZM1049.16 607.639H1050.97V625.25H1049.16V607.639ZM1053.46 620.057C1053.46 619.003 1053.7 618.07 1054.16 617.257C1054.65 616.444 1055.29 615.805 1056.11 615.338C1056.92 614.872 1057.83 614.638 1058.84 614.638C1059.86 614.638 1060.77 614.872 1061.57 615.338C1062.38 615.805 1063.02 616.444 1063.49 617.257C1063.97 618.07 1064.21 619.003 1064.21 620.057C1064.21 621.096 1063.97 622.029 1063.49 622.857C1063.02 623.67 1062.38 624.309 1061.57 624.776C1060.77 625.242 1059.86 625.476 1058.84 625.476C1057.83 625.476 1056.92 625.242 1056.11 624.776C1055.29 624.309 1054.65 623.67 1054.16 622.857C1053.7 622.029 1053.46 621.096 1053.46 620.057ZM1055.29 620.057C1055.29 620.78 1055.44 621.419 1055.74 621.976C1056.06 622.533 1056.48 622.977 1057.01 623.308C1057.55 623.624 1058.16 623.782 1058.84 623.782C1059.51 623.782 1060.12 623.624 1060.64 623.308C1061.19 622.977 1061.61 622.533 1061.91 621.976C1062.22 621.419 1062.38 620.78 1062.38 620.057C1062.38 619.334 1062.22 618.695 1061.91 618.138C1061.61 617.566 1061.19 617.122 1060.64 616.806C1060.12 616.49 1059.51 616.332 1058.84 616.332C1058.16 616.332 1057.55 616.49 1057.01 616.806C1056.48 617.122 1056.06 617.566 1055.74 618.138C1055.44 618.695 1055.29 619.334 1055.29 620.057ZM1068.39 630.217H1066.58V614.864H1068.39V630.217ZM1077.08 620.057C1077.08 621.171 1076.85 622.134 1076.38 622.947C1075.91 623.76 1075.29 624.384 1074.5 624.821C1073.74 625.258 1072.88 625.476 1071.93 625.476C1071.07 625.476 1070.31 625.258 1069.65 624.821C1069 624.384 1068.49 623.76 1068.11 622.947C1067.75 622.134 1067.57 621.171 1067.57 620.057C1067.57 618.928 1067.75 617.965 1068.11 617.167C1068.49 616.354 1069 615.729 1069.65 615.293C1070.31 614.856 1071.07 614.638 1071.93 614.638C1072.88 614.638 1073.74 614.856 1074.5 615.293C1075.29 615.729 1075.91 616.354 1076.38 617.167C1076.85 617.965 1077.08 618.928 1077.08 620.057ZM1075.25 620.057C1075.25 619.259 1075.08 618.582 1074.75 618.025C1074.44 617.468 1074.01 617.047 1073.47 616.761C1072.94 616.475 1072.35 616.332 1071.7 616.332C1071.18 616.332 1070.66 616.475 1070.15 616.761C1069.64 617.047 1069.21 617.468 1068.88 618.025C1068.55 618.582 1068.39 619.259 1068.39 620.057C1068.39 620.855 1068.55 621.532 1068.88 622.089C1069.21 622.646 1069.64 623.067 1070.15 623.353C1070.66 623.639 1071.18 623.782 1071.7 623.782C1072.35 623.782 1072.94 623.639 1073.47 623.353C1074.01 623.067 1074.44 622.646 1074.75 622.089C1075.08 621.532 1075.25 620.855 1075.25 620.057ZM1093.79 618.702V625.25H1091.99V618.928C1091.99 618.04 1091.82 617.385 1091.49 616.964C1091.17 616.542 1090.68 616.332 1090 616.332C1089.5 616.332 1089.07 616.437 1088.71 616.648C1088.35 616.843 1088.07 617.137 1087.88 617.528C1087.68 617.92 1087.58 618.386 1087.58 618.928V625.25H1085.78V618.928C1085.78 618.04 1085.61 617.385 1085.28 616.964C1084.97 616.542 1084.47 616.332 1083.79 616.332C1083.29 616.332 1082.87 616.437 1082.5 616.648C1082.14 616.843 1081.86 617.137 1081.67 617.528C1081.47 617.92 1081.38 618.386 1081.38 618.928V625.25H1079.57V614.864H1081.38V616.377C1081.69 615.79 1082.08 615.353 1082.55 615.067C1083.03 614.781 1083.6 614.638 1084.24 614.638C1084.97 614.638 1085.58 614.811 1086.09 615.158C1086.62 615.489 1087 615.963 1087.25 616.58C1087.61 615.933 1088.06 615.451 1088.6 615.135C1089.14 614.804 1089.76 614.638 1090.45 614.638C1091.16 614.638 1091.76 614.796 1092.26 615.112C1092.75 615.428 1093.13 615.895 1093.39 616.512C1093.66 617.114 1093.79 617.844 1093.79 618.702ZM1101.21 625.476C1100.24 625.476 1099.38 625.25 1098.63 624.798C1097.89 624.332 1097.31 623.692 1096.89 622.879C1096.49 622.066 1096.28 621.126 1096.28 620.057C1096.28 618.973 1096.49 618.025 1096.92 617.212C1097.35 616.399 1097.95 615.767 1098.72 615.316C1099.5 614.864 1100.41 614.638 1101.43 614.638C1102.45 614.638 1103.33 614.856 1104.05 615.293C1104.79 615.714 1105.35 616.324 1105.74 617.122C1106.13 617.92 1106.33 618.868 1106.33 619.967C1106.33 620.072 1106.32 620.185 1106.31 620.305C1106.31 620.411 1106.31 620.478 1106.31 620.509H1097.43V618.973H1104.89L1104.16 620.012C1104.21 619.937 1104.25 619.824 1104.3 619.673C1104.34 619.508 1104.37 619.372 1104.37 619.267C1104.37 618.65 1104.24 618.115 1103.98 617.664C1103.74 617.212 1103.4 616.858 1102.97 616.603C1102.53 616.347 1102.02 616.219 1101.43 616.219C1100.74 616.219 1100.14 616.369 1099.65 616.67C1099.17 616.956 1098.79 617.378 1098.52 617.935C1098.26 618.477 1098.13 619.146 1098.11 619.944C1098.11 620.757 1098.24 621.449 1098.5 622.021C1098.75 622.593 1099.13 623.03 1099.62 623.331C1100.12 623.632 1100.72 623.782 1101.43 623.782C1102.14 623.782 1102.76 623.632 1103.31 623.331C1103.85 623.015 1104.31 622.541 1104.68 621.908L1106.15 622.834C1105.61 623.707 1104.92 624.369 1104.1 624.821C1103.28 625.258 1102.32 625.476 1101.21 625.476ZM1115.47 618.928C1115.47 618.07 1115.28 617.423 1114.9 616.986C1114.53 616.55 1113.98 616.332 1113.25 616.332C1112.73 616.332 1112.26 616.444 1111.85 616.67C1111.46 616.881 1111.15 617.182 1110.93 617.573C1110.72 617.965 1110.61 618.416 1110.61 618.928V625.25H1108.81V614.864H1110.61V616.49C1110.96 615.857 1111.39 615.391 1111.9 615.09C1112.43 614.789 1113.03 614.638 1113.71 614.638C1114.8 614.638 1115.67 615.007 1116.3 615.745C1116.95 616.467 1117.27 617.453 1117.27 618.702V625.25H1115.47V618.928ZM1119.09 614.864H1124.28V616.557H1119.09V614.864ZM1120.78 611.251H1122.59V625.25H1120.78V611.251Z"/><rect width="274.463" height="55.533" x="640.77" y="513.678" fill="#781B4D" rx="27.767"/><path fill="#fff" d="M732.693 533.883H734.613V544.494C734.613 545.578 734.906 546.451 735.493 547.114C736.08 547.776 736.938 548.107 738.067 548.107C739.196 548.107 740.054 547.776 740.641 547.114C741.228 546.451 741.521 545.578 741.521 544.494V533.883H743.441V544.494C743.441 545.277 743.313 546 743.057 546.662C742.816 547.324 742.455 547.896 741.973 548.378C741.506 548.86 740.942 549.236 740.28 549.507C739.617 549.778 738.88 549.913 738.067 549.913C737.254 549.913 736.517 549.778 735.854 549.507C735.192 549.236 734.62 548.86 734.138 548.378C733.672 547.896 733.311 547.324 733.055 546.662C732.814 546 732.693 545.277 732.693 544.494V533.883ZM746.94 533.883H748.859V549.688H746.94V533.883ZM759.243 533.883H761.162V549.688H759.243V533.883ZM763.985 549.688H760.304V547.768H763.985C764.873 547.768 765.685 547.633 766.423 547.362C767.161 547.076 767.793 546.677 768.32 546.165C768.846 545.638 769.253 545.006 769.539 544.269C769.825 543.531 769.968 542.703 769.968 541.785C769.968 540.867 769.825 540.039 769.539 539.301C769.253 538.564 768.846 537.939 768.32 537.427C767.793 536.901 767.161 536.502 766.423 536.231C765.685 535.945 764.873 535.802 763.985 535.802H760.304V533.883H763.985C765.52 533.883 766.882 534.214 768.071 534.876C769.26 535.538 770.194 536.464 770.871 537.653C771.548 538.827 771.887 540.205 771.887 541.785C771.887 543.366 771.548 544.75 770.871 545.94C770.194 547.114 769.26 548.032 768.071 548.694C766.882 549.356 765.52 549.688 763.985 549.688ZM778.495 549.913C777.532 549.913 776.674 549.688 775.921 549.236C775.184 548.769 774.604 548.13 774.183 547.317C773.776 546.504 773.573 545.563 773.573 544.494C773.573 543.411 773.784 542.462 774.205 541.65C774.642 540.837 775.244 540.205 776.012 539.753C776.794 539.301 777.698 539.076 778.721 539.076C779.745 539.076 780.618 539.294 781.34 539.73C782.078 540.152 782.642 540.762 783.034 541.559C783.425 542.357 783.621 543.305 783.621 544.404C783.621 544.51 783.613 544.622 783.598 544.743C783.598 544.848 783.598 544.916 783.598 544.946H774.725V543.411H782.176L781.453 544.449C781.498 544.374 781.543 544.261 781.589 544.111C781.634 543.945 781.656 543.81 781.656 543.704C781.656 543.087 781.528 542.553 781.272 542.101C781.032 541.65 780.693 541.296 780.256 541.04C779.82 540.784 779.308 540.656 778.721 540.656C778.029 540.656 777.434 540.807 776.937 541.108C776.456 541.394 776.079 541.815 775.809 542.372C775.553 542.914 775.417 543.584 775.402 544.382C775.402 545.194 775.53 545.887 775.786 546.459C776.042 547.031 776.418 547.467 776.915 547.768C777.412 548.069 778.014 548.22 778.721 548.22C779.429 548.22 780.053 548.069 780.595 547.768C781.137 547.452 781.596 546.978 781.972 546.346L783.44 547.272C782.898 548.145 782.213 548.807 781.385 549.259C780.573 549.695 779.609 549.913 778.495 549.913ZM786.525 546.504C786.736 546.82 786.977 547.114 787.248 547.385C787.519 547.655 787.827 547.874 788.173 548.039C788.535 548.19 788.926 548.265 789.348 548.265C789.859 548.265 790.258 548.152 790.544 547.926C790.845 547.686 790.996 547.362 790.996 546.956C790.996 546.594 790.875 546.293 790.635 546.052C790.409 545.797 790.115 545.586 789.754 545.42C789.393 545.24 789.009 545.074 788.602 544.923C788.151 544.743 787.692 544.532 787.225 544.291C786.774 544.035 786.39 543.712 786.074 543.32C785.773 542.914 785.622 542.41 785.622 541.808C785.622 541.191 785.78 540.679 786.096 540.272C786.427 539.866 786.849 539.565 787.361 539.369C787.887 539.174 788.429 539.076 788.986 539.076C789.543 539.076 790.063 539.166 790.544 539.347C791.041 539.527 791.477 539.768 791.854 540.069C792.23 540.37 792.524 540.716 792.734 541.108L791.289 542.033C791.003 541.642 790.642 541.318 790.206 541.063C789.784 540.807 789.302 540.679 788.761 540.679C788.384 540.679 788.061 540.762 787.79 540.927C787.519 541.093 787.383 541.349 787.383 541.695C787.383 541.966 787.489 542.207 787.699 542.417C787.91 542.628 788.181 542.816 788.512 542.982C788.843 543.147 789.189 543.305 789.551 543.456C790.153 543.697 790.702 543.96 791.199 544.246C791.696 544.517 792.087 544.848 792.373 545.24C792.674 545.631 792.825 546.135 792.825 546.752C792.825 547.655 792.493 548.408 791.831 549.01C791.184 549.612 790.326 549.913 789.257 549.913C788.565 549.913 787.94 549.793 787.383 549.552C786.826 549.296 786.352 548.973 785.961 548.581C785.585 548.19 785.299 547.791 785.103 547.385L786.525 546.504ZM795.203 535.012C795.203 534.665 795.323 534.372 795.564 534.131C795.82 533.89 796.113 533.77 796.444 533.77C796.791 533.77 797.084 533.89 797.325 534.131C797.566 534.372 797.686 534.665 797.686 535.012C797.686 535.343 797.566 535.636 797.325 535.892C797.084 536.133 796.791 536.253 796.444 536.253C796.113 536.253 795.82 536.133 795.564 535.892C795.323 535.636 795.203 535.343 795.203 535.012ZM795.541 539.301H797.347V549.688H795.541V539.301ZM800.368 550.365H802.197C802.197 550.862 802.332 551.321 802.603 551.742C802.874 552.179 803.258 552.525 803.754 552.781C804.251 553.052 804.838 553.187 805.516 553.187C806.042 553.187 806.562 553.059 807.073 552.803C807.585 552.547 808.007 552.141 808.338 551.584C808.684 551.042 808.857 550.335 808.857 549.462V539.301H810.663V549.462C810.663 550.651 810.415 551.644 809.918 552.442C809.422 553.255 808.782 553.864 807.999 554.271C807.216 554.677 806.389 554.881 805.516 554.881C804.507 554.881 803.611 554.692 802.829 554.316C802.061 553.94 801.459 553.405 801.022 552.713C800.586 552.036 800.368 551.253 800.368 550.365ZM800.164 544.494C800.164 543.366 800.398 542.402 800.864 541.604C801.331 540.792 801.956 540.167 802.738 539.73C803.521 539.294 804.379 539.076 805.312 539.076C806.185 539.076 806.945 539.294 807.593 539.73C808.24 540.167 808.744 540.792 809.105 541.604C809.482 542.402 809.67 543.366 809.67 544.494C809.67 545.608 809.482 546.572 809.105 547.385C808.744 548.197 808.24 548.822 807.593 549.259C806.945 549.695 806.185 549.913 805.312 549.913C804.379 549.913 803.521 549.695 802.738 549.259C801.956 548.822 801.331 548.197 800.864 547.385C800.398 546.572 800.164 545.608 800.164 544.494ZM801.993 544.494C801.993 545.292 802.151 545.97 802.467 546.527C802.799 547.083 803.235 547.505 803.777 547.791C804.319 548.077 804.906 548.22 805.538 548.22C806.065 548.22 806.584 548.077 807.096 547.791C807.608 547.505 808.029 547.083 808.36 546.527C808.692 545.97 808.857 545.292 808.857 544.494C808.857 543.892 808.759 543.366 808.564 542.914C808.368 542.447 808.105 542.056 807.773 541.74C807.457 541.424 807.104 541.183 806.712 541.017C806.321 540.852 805.929 540.769 805.538 540.769C804.906 540.769 804.319 540.912 803.777 541.198C803.235 541.484 802.799 541.906 802.467 542.462C802.151 543.019 801.993 543.697 801.993 544.494ZM820.605 543.366C820.605 542.508 820.417 541.86 820.04 541.424C819.664 540.987 819.115 540.769 818.392 540.769C817.865 540.769 817.399 540.882 816.992 541.108C816.601 541.318 816.292 541.62 816.067 542.011C815.856 542.402 815.751 542.854 815.751 543.366V549.688H813.944V539.301H815.751V540.927C816.097 540.295 816.526 539.828 817.038 539.527C817.564 539.226 818.166 539.076 818.844 539.076C819.943 539.076 820.808 539.444 821.44 540.182C822.088 540.905 822.411 541.89 822.411 543.14V549.688H820.605V543.366Z"/><rect width="1" height="1129" fill="#D9D9D9" transform="matrix(0 -1 -1 0 1164 685)"/><defs><linearGradient id="paint0_linear_324_1804" x1=".5" x2=".5" y1="0" y2="467.31" gradientUnits="userSpaceOnUse"><stop stop-color="#D9D9D9"/><stop offset="1" stop-color="#D9D9D9" stop-opacity="0"/></linearGradient><linearGradient id="paint1_linear_324_1804" x1=".5" x2=".5" y1="0" y2="467.31" gradientUnits="userSpaceOnUse"><stop stop-color="#D9D9D9"/><stop offset="1" stop-color="#D9D9D9" stop-opacity="0"/></linearGradient><linearGradient id="paint2_linear_324_1804" x1=".5" x2=".5" y1="0" y2="467.31" gradientUnits="userSpaceOnUse"><stop stop-color="#D9D9D9"/><stop offset="1" stop-color="#D9D9D9" stop-opacity="0"/></linearGradient><linearGradient id="paint3_linear_324_1804" x1=".5" x2=".5" y1="0" y2="467.31" gradientUnits="userSpaceOnUse"><stop stop-color="#D9D9D9"/><stop offset="1" stop-color="#D9D9D9" stop-opacity="0"/></linearGradient><linearGradient id="paint4_linear_324_1804" x1=".5" x2=".5" y1="0" y2="467.31" gradientUnits="userSpaceOnUse"><stop stop-color="#D9D9D9"/><stop offset="1" stop-color="#D9D9D9" stop-opacity="0"/></linearGradient><linearGradient id="paint5_linear_324_1804" x1=".5" x2=".5" y1="0" y2="467.31" gradientUnits="userSpaceOnUse"><stop stop-color="#D9D9D9"/><stop offset="1" stop-color="#D9D9D9" stop-opacity="0"/></linearGradient><linearGradient id="paint6_linear_324_1804" x1=".5" x2=".5" y1="0" y2="467.31" gradientUnits="userSpaceOnUse"><stop stop-color="#D9D9D9"/><stop offset="1" stop-color="#D9D9D9" stop-opacity="0"/></linearGradient></defs></svg>