<svg xmlns="http://www.w3.org/2000/svg" width="1253" height="657" fill="none"><path fill="url(#a)" d="M-54 489h1307v1H-54z"/><path fill="#1F1F1F" d="M202.869 638.315v-1.406h9.819v1.406h-4.117V650h-1.585v-11.685h-4.117Zm13.569 5.779V650h-1.508v-13.091h1.508v4.807h.128c.23-.507.575-.91 1.035-1.208.465-.303 1.083-.454 1.854-.454.669 0 1.255.134 1.758.403.503.264.893.671 1.17 1.221.281.545.422 1.24.422 2.083V650h-1.509v-6.136c0-.78-.202-1.383-.607-1.809-.401-.431-.957-.646-1.669-.646a2.78 2.78 0 0 0-1.329.313 2.294 2.294 0 0 0-.921.914c-.221.401-.332.887-.332 1.458Zm13.243 6.111c-.946 0-1.762-.209-2.448-.627a4.207 4.207 0 0 1-1.579-1.764c-.367-.759-.55-1.641-.55-2.646 0-1.006.183-1.892.55-2.659.371-.772.886-1.373 1.547-1.803.664-.435 1.44-.652 2.326-.652.512 0 1.017.085 1.515.256.499.17.953.447 1.362.831.409.379.735.882.978 1.508.243.627.364 1.398.364 2.314v.639h-7.568v-1.304h6.034c0-.554-.111-1.048-.332-1.483a2.517 2.517 0 0 0-.934-1.029c-.4-.251-.873-.377-1.419-.377-.601 0-1.12.149-1.559.448a2.945 2.945 0 0 0-1.004 1.15c-.234.473-.351.98-.351 1.521v.87c0 .741.127 1.37.383 1.885.26.512.62.902 1.08 1.17.461.264.995.396 1.605.396.396 0 .754-.055 1.074-.166.323-.115.603-.285.837-.511a2.33 2.33 0 0 0 .543-.857l1.458.409a3.237 3.237 0 0 1-.774 1.304 3.764 3.764 0 0 1-1.342.87c-.533.204-1.131.307-1.796.307Zm15.13 0c-.818 0-1.541-.207-2.167-.62-.627-.418-1.117-1.006-1.47-1.765-.354-.762-.531-1.664-.531-2.704 0-1.031.177-1.926.531-2.684.353-.759.846-1.345 1.476-1.758.631-.413 1.36-.62 2.186-.62.639 0 1.144.107 1.515.32.375.208.661.447.857.715.2.265.356.482.466.652h.128v-4.832h1.509V650h-1.458v-1.509h-.179c-.11.179-.268.405-.473.678-.204.268-.496.509-.875.722-.38.209-.885.314-1.515.314Zm.204-1.356c.605 0 1.117-.157 1.534-.473.418-.319.735-.76.953-1.323.217-.566.326-1.221.326-1.962 0-.733-.107-1.374-.32-1.924-.213-.554-.528-.984-.946-1.291-.417-.311-.933-.467-1.547-.467-.639 0-1.172.164-1.598.492-.422.324-.739.765-.952 1.323-.209.554-.313 1.177-.313 1.867 0 .699.106 1.334.319 1.905.218.566.537 1.018.959 1.355.426.332.955.498 1.585.498Zm7.268 1.151v-9.818h1.509V650h-1.509Zm.767-11.455c-.294 0-.548-.1-.761-.3a.967.967 0 0 1-.313-.722.97.97 0 0 1 .313-.723c.213-.2.467-.3.761-.3s.546.1.754.3c.213.201.32.441.32.723a.956.956 0 0 1-.32.722c-.208.2-.46.3-.754.3Zm11.533 1.637L260.952 650h-1.534l-3.631-9.818h1.637l2.71 7.824h.102l2.711-7.824h1.636Zm5.756 10.023c-.946 0-1.762-.209-2.448-.627a4.207 4.207 0 0 1-1.579-1.764c-.367-.759-.55-1.641-.55-2.646 0-1.006.183-1.892.55-2.659.371-.772.886-1.373 1.547-1.803.665-.435 1.44-.652 2.327-.652.511 0 1.016.085 1.514.256.499.17.953.447 1.362.831.409.379.735.882.978 1.508.243.627.364 1.398.364 2.314v.639h-7.568v-1.304h6.034c0-.554-.111-1.048-.332-1.483a2.522 2.522 0 0 0-.933-1.029c-.401-.251-.874-.377-1.419-.377-.601 0-1.121.149-1.56.448a2.945 2.945 0 0 0-1.004 1.15c-.234.473-.351.98-.351 1.521v.87c0 .741.128 1.37.383 1.885.26.512.62.902 1.081 1.17.46.264.995.396 1.604.396.396 0 .754-.055 1.074-.166a2.29 2.29 0 0 0 .837-.511c.235-.23.416-.516.544-.857l1.457.409a3.226 3.226 0 0 1-.774 1.304 3.764 3.764 0 0 1-1.342.87c-.533.204-1.131.307-1.796.307Zm6.36-.205v-9.818h1.457v1.483h.103c.179-.486.503-.88.971-1.183a2.865 2.865 0 0 1 1.586-.454c.11 0 .249.003.415.007.166.004.292.01.377.019v1.534a4.176 4.176 0 0 0-.351-.057 3.445 3.445 0 0 0-.569-.045c-.478 0-.904.1-1.279.3-.37.196-.665.469-.882.818a2.21 2.21 0 0 0-.319 1.183V650h-1.509Zm13.652-7.619-1.355.383a2.51 2.51 0 0 0-.377-.658 1.831 1.831 0 0 0-.665-.537c-.281-.141-.642-.211-1.08-.211-.601 0-1.102.138-1.503.415-.396.273-.594.62-.594 1.042 0 .375.136.672.409.889.273.217.699.398 1.278.543l1.458.358c.878.213 1.532.539 1.962.978.431.435.646.995.646 1.681 0 .563-.162 1.066-.486 1.509-.32.443-.767.792-1.342 1.048-.576.256-1.245.384-2.007.384-1.002 0-1.831-.218-2.487-.652-.656-.435-1.072-1.07-1.246-1.905l1.431-.358c.137.528.395.924.774 1.189.383.264.884.396 1.502.396.703 0 1.261-.149 1.675-.447.417-.303.626-.665.626-1.087 0-.341-.119-.627-.358-.857-.238-.234-.605-.409-1.099-.524l-1.637-.383c-.899-.213-1.559-.544-1.981-.991-.418-.452-.627-1.016-.627-1.694 0-.554.156-1.044.467-1.47.315-.426.744-.761 1.285-1.004.545-.243 1.163-.364 1.854-.364.971 0 1.734.213 2.288.639.558.426.954.989 1.189 1.688Zm6.566 7.824c-.946 0-1.762-.209-2.448-.627a4.207 4.207 0 0 1-1.579-1.764c-.366-.759-.55-1.641-.55-2.646 0-1.006.184-1.892.55-2.659.371-.772.886-1.373 1.547-1.803.665-.435 1.44-.652 2.327-.652.511 0 1.016.085 1.515.256.498.17.952.447 1.361.831.409.379.735.882.978 1.508.243.627.364 1.398.364 2.314v.639h-7.568v-1.304h6.034c0-.554-.11-1.048-.332-1.483a2.508 2.508 0 0 0-.933-1.029c-.401-.251-.874-.377-1.419-.377-.601 0-1.121.149-1.56.448a2.945 2.945 0 0 0-1.004 1.15c-.234.473-.351.98-.351 1.521v.87c0 .741.128 1.37.383 1.885.26.512.62.902 1.081 1.17.46.264.995.396 1.604.396.396 0 .754-.055 1.074-.166a2.29 2.29 0 0 0 .837-.511c.235-.23.416-.516.544-.857l1.457.409a3.224 3.224 0 0 1-.773 1.304c-.363.371-.81.661-1.343.87-.532.204-1.131.307-1.796.307Z"/><path stroke="#8A8A8A" d="M346 508v63.484a8 8 0 0 1-8 8h-75a8 8 0 0 0-8 8V617"/><circle cx="347.5" cy="492.5" r="16.5" fill="#DC1C17"/><circle cx="347.5" cy="492.5" r="7.5" fill="#fff"/><rect width="157" height="40" x="174" y="617" fill="#fff" rx="20"/><path fill="#1F1F1F" d="M211.694 629.194h1.919v10.613c0 1.083.293 1.957.88 2.619.588.662 1.446.993 2.575.993 1.129 0 1.987-.331 2.574-.993.587-.662.88-1.536.88-2.619v-10.613h1.92v10.613c0 .782-.128 1.505-.384 2.167a4.619 4.619 0 0 1-1.084 1.716 4.911 4.911 0 0 1-1.694 1.129c-.662.271-1.4.407-2.212.407-.813 0-1.551-.136-2.213-.407a5.141 5.141 0 0 1-1.716-1.129 5.033 5.033 0 0 1-1.084-1.716 6.293 6.293 0 0 1-.361-2.167v-10.613Zm14.563 12.622c.211.316.452.61.723.881.271.271.579.489.925.655.362.15.753.225 1.175.225.511 0 .91-.112 1.196-.338.301-.241.452-.565.452-.971 0-.361-.121-.663-.361-.903a2.608 2.608 0 0 0-.881-.633c-.361-.18-.745-.346-1.152-.496-.451-.181-.91-.392-1.377-.633a3.997 3.997 0 0 1-1.152-.971c-.301-.406-.451-.91-.451-1.512 0-.618.158-1.129.474-1.536a2.968 2.968 0 0 1 1.265-.903 4.62 4.62 0 0 1 1.625-.294c.557 0 1.077.091 1.558.271.497.181.934.422 1.31.723s.67.647.881 1.039l-1.446.925a3.552 3.552 0 0 0-1.083-.971 2.74 2.74 0 0 0-1.446-.383c-.376 0-.699.082-.97.248-.271.166-.407.421-.407.768 0 .271.105.511.316.722.211.211.482.399.813.565.331.165.678.323 1.039.474.602.241 1.151.504 1.648.79.497.271.888.602 1.174.994.301.391.452.895.452 1.513 0 .903-.331 1.655-.994 2.258-.647.602-1.505.903-2.574.903-.692 0-1.317-.121-1.874-.361a4.854 4.854 0 0 1-1.422-.971 4.65 4.65 0 0 1-.858-1.197l1.422-.881Zm12.697 3.41c-.963 0-1.821-.226-2.574-.678a4.88 4.88 0 0 1-1.739-1.919c-.406-.813-.609-1.754-.609-2.822 0-1.084.211-2.033.632-2.845a4.771 4.771 0 0 1 1.806-1.897c.783-.452 1.686-.678 2.71-.678s1.897.219 2.619.655c.738.422 1.302 1.031 1.694 1.829.391.798.587 1.746.587 2.845 0 .106-.008.219-.023.339v.203h-8.874v-1.535h7.452l-.723 1.038c.045-.075.091-.188.136-.338a1.62 1.62 0 0 0 .067-.407c0-.617-.127-1.151-.383-1.603a2.66 2.66 0 0 0-1.016-1.061c-.437-.256-.949-.384-1.536-.384-.692 0-1.287.151-1.784.452-.481.286-.858.707-1.129 1.264-.256.542-.391 1.212-.406 2.01 0 .813.128 1.505.384 2.077.256.572.632 1.009 1.129 1.31.496.301 1.099.451 1.806.451.708 0 1.332-.15 1.874-.451.542-.316 1.001-.791 1.378-1.423l1.467.926c-.542.873-1.227 1.535-2.054 1.987-.813.437-1.777.655-2.891.655Zm9.408-10.613V645h-1.806v-10.387h1.806Zm3.139 1.987a2.86 2.86 0 0 0-.655-.384c-.196-.09-.444-.135-.745-.135-.452 0-.806.113-1.061.339-.256.225-.437.534-.542.925a5.917 5.917 0 0 0-.136 1.333h-.813c0-.828.143-1.558.429-2.191.301-.647.685-1.159 1.152-1.535.467-.376.941-.565 1.422-.565.377 0 .723.053 1.039.158.331.091.632.279.903.565l-.993 1.49Zm8.774-1.987h5.193v1.694h-5.193v-1.694Zm5.013-5.058c-.151-.256-.332-.414-.542-.474a1.578 1.578 0 0 0-.565-.113.901.901 0 0 0-.587.203c-.15.121-.271.332-.361.633-.09.301-.136.7-.136 1.196v14h-1.806v-14.225c0-.828.12-1.506.361-2.033.241-.526.58-.918 1.016-1.174.452-.271.994-.406 1.626-.406.331 0 .625.045.881.135.256.091.474.203.655.339.195.135.346.278.451.429l-.993 1.49Zm2.238-2.167h1.806V645h-1.806v-17.612Zm4.301 12.419c0-1.054.233-1.987.7-2.8a5.282 5.282 0 0 1 1.942-1.92c.813-.466 1.723-.7 2.732-.7 1.024 0 1.934.234 2.732.7a5.105 5.105 0 0 1 1.919 1.92c.482.813.723 1.746.723 2.8 0 1.038-.241 1.972-.723 2.8a5.109 5.109 0 0 1-1.919 1.919c-.798.466-1.708.7-2.732.7-1.009 0-1.919-.234-2.732-.7a5.287 5.287 0 0 1-1.942-1.919c-.467-.828-.7-1.762-.7-2.8Zm1.829 0c0 .722.15 1.362.451 1.919a3.71 3.71 0 0 0 1.265 1.332 3.565 3.565 0 0 0 1.829.474c.677 0 1.279-.158 1.806-.474a3.467 3.467 0 0 0 1.265-1.332c.316-.557.474-1.197.474-1.919 0-.723-.158-1.363-.474-1.92a3.27 3.27 0 0 0-1.265-1.332c-.527-.316-1.129-.474-1.806-.474s-1.287.158-1.829.474c-.527.316-.948.76-1.265 1.332-.301.557-.451 1.197-.451 1.92Zm9.489-5.194h2.032l2.597 6.752 2.822-7.542 3.026 7.587 2.619-6.797h2.033l-4.516 11.177-3.139-7.564-2.958 7.564-4.516-11.177Z"/><circle cx="799.5" cy="492.5" r="16.5" fill="#E55454" fill-opacity=".28"/><circle cx="799.5" cy="492.5" r="7.5" fill="#fff"/><path stroke="#EEEFF3" d="M800 509v62.5a8 8 0 0 1-8 8h-75a8 8 0 0 0-8 8v29"/><rect width="175" height="40" x="621" y="617" fill="#DC1C17" rx="20"/><path fill="#fff" d="M660.558 629.194h3.816v10.342c0 .797.211 1.445.632 1.942.422.496 1.054.745 1.897.745.858 0 1.498-.249 1.919-.745.422-.497.633-1.145.633-1.942v-10.342h3.816v10.613c0 .993-.166 1.859-.497 2.596a4.727 4.727 0 0 1-1.355 1.829 5.931 5.931 0 0 1-2.032 1.062 8.286 8.286 0 0 1-2.484.361 8.286 8.286 0 0 1-2.484-.361 6.218 6.218 0 0 1-2.032-1.062 5.045 5.045 0 0 1-1.355-1.829c-.316-.737-.474-1.603-.474-2.596v-10.613Zm15.403 1.513c0-.542.196-.979.588-1.31a2.042 2.042 0 0 1 1.4-.519c.556 0 1.023.173 1.399.519.392.331.588.768.588 1.31s-.196.986-.588 1.332c-.376.346-.843.519-1.399.519a2.042 2.042 0 0 1-1.4-.519c-.392-.346-.588-.79-.588-1.332Zm.339 3.906h3.297V645H676.3v-10.387Zm20.755-7.225h3.41V645h-3.41v-17.612Zm-8.49 12.419c0-1.175.233-2.161.7-2.958.482-.798 1.099-1.408 1.852-1.829a4.817 4.817 0 0 1 2.393-.633c.873 0 1.641.219 2.303.655.678.437 1.212 1.061 1.603 1.874.392.798.587 1.762.587 2.891 0 1.114-.195 2.077-.587 2.89-.391.813-.925 1.437-1.603 1.874-.662.437-1.43.655-2.303.655a4.826 4.826 0 0 1-2.393-.632c-.753-.422-1.37-1.032-1.852-1.829-.467-.813-.7-1.799-.7-2.958Zm3.59 0c0 .542.113 1.016.339 1.422.226.392.527.7.903.926.376.211.79.316 1.242.316.391 0 .768-.105 1.129-.316a2.54 2.54 0 0 0 .926-.903c.241-.407.361-.888.361-1.445s-.12-1.032-.361-1.423a2.492 2.492 0 0 0-.926-.926 2.217 2.217 0 0 0-1.129-.316c-.452 0-.866.113-1.242.339a2.328 2.328 0 0 0-.903.926c-.226.391-.339.858-.339 1.4Zm16.239 5.419c-1.204 0-2.25-.218-3.138-.655a4.947 4.947 0 0 1-2.032-1.897c-.482-.813-.723-1.769-.723-2.867 0-1.114.233-2.078.7-2.891.467-.813 1.137-1.437 2.01-1.874.888-.436 1.934-.655 3.138-.655 1.205 0 2.221.211 3.049.633a4.264 4.264 0 0 1 1.896 1.783c.437.783.655 1.732.655 2.846v.496c0 .151-.015.279-.045.384h-9.484v-1.897h6.413l-.813 1.039a1.29 1.29 0 0 0 .181-.384c.06-.165.09-.301.09-.406 0-.452-.083-.843-.248-1.174a1.824 1.824 0 0 0-.7-.768c-.301-.181-.655-.271-1.061-.271-.512 0-.941.113-1.288.339-.346.225-.609.572-.79 1.038-.165.452-.256 1.024-.271 1.716 0 .633.091 1.175.271 1.626.181.452.452.798.813 1.039.361.226.805.339 1.332.339.602 0 1.114-.113 1.536-.339a2.5 2.5 0 0 0 1.038-1.016l3.049.745c-.542 1.024-1.28 1.791-2.213 2.303-.918.512-2.04.768-3.365.768Zm8.225-3.997c.527.437 1.001.783 1.423 1.039.436.241.82.414 1.151.519.331.09.617.136.858.136.346 0 .602-.076.768-.226a.755.755 0 0 0 .248-.587.812.812 0 0 0-.203-.565c-.135-.165-.369-.323-.7-.474a9.393 9.393 0 0 0-1.31-.474c-.496-.181-.97-.391-1.422-.632a3.332 3.332 0 0 1-1.084-1.016c-.286-.422-.429-.964-.429-1.626 0-.632.166-1.167.497-1.603.346-.437.805-.768 1.377-.994.587-.226 1.257-.339 2.01-.339.602 0 1.159.068 1.671.204a7.317 7.317 0 0 1 1.467.542c.467.225.904.489 1.31.79l-1.219 2.213a5.605 5.605 0 0 0-1.491-.994c-.556-.271-1.068-.406-1.535-.406-.316 0-.557.06-.723.18a.58.58 0 0 0-.225.475c0 .225.09.414.271.564.195.151.466.294.813.429.361.12.797.279 1.309.474a9.688 9.688 0 0 1 1.49.678c.467.256.836.579 1.107.971.286.391.429.91.429 1.558 0 1.114-.346 1.957-1.039 2.529-.677.557-1.633.835-2.867.835a7.77 7.77 0 0 1-2.1-.271 8.235 8.235 0 0 1-1.762-.677 11.893 11.893 0 0 1-1.512-.994l1.422-2.258Zm9.53-10.522c0-.542.196-.979.587-1.31a2.044 2.044 0 0 1 1.4-.519c.557 0 1.024.173 1.4.519.391.331.587.768.587 1.31s-.196.986-.587 1.332c-.376.346-.843.519-1.4.519a2.044 2.044 0 0 1-1.4-.519c-.391-.346-.587-.79-.587-1.332Zm.339 3.906h3.296V645h-3.296v-10.387Zm5.721 11.132h3.296c.046.422.166.775.362 1.061.21.286.489.497.835.633.346.15.738.225 1.174.225a2.57 2.57 0 0 0 1.31-.338c.391-.211.7-.535.926-.971.241-.422.361-.949.361-1.581v-10.161h3.274v10.161c0 1.325-.263 2.401-.79 3.229-.512.828-1.197 1.43-2.055 1.807-.858.391-1.821.587-2.89.587-1.28 0-2.341-.196-3.184-.587-.828-.392-1.453-.941-1.874-1.649-.422-.692-.67-1.498-.745-2.416Zm-.226-6.074c0-1.174.233-2.153.7-2.935.482-.783 1.099-1.37 1.852-1.762a5.117 5.117 0 0 1 2.393-.587c.873 0 1.641.211 2.303.633.678.406 1.212 1.001 1.603 1.783.392.783.587 1.739.587 2.868 0 1.114-.195 2.07-.587 2.868-.391.783-.925 1.385-1.603 1.806-.662.407-1.43.61-2.303.61a5.117 5.117 0 0 1-2.393-.587c-.753-.407-1.37-1.001-1.852-1.784-.467-.783-.7-1.754-.7-2.913Zm3.59 0c0 .527.113.986.339 1.377.226.377.527.663.903.859.376.195.79.293 1.242.293.391 0 .768-.09 1.129-.271.376-.196.685-.482.926-.858s.361-.843.361-1.4c0-.421-.075-.79-.226-1.106a2.163 2.163 0 0 0-.564-.791 2.285 2.285 0 0 0-.768-.474 2.476 2.476 0 0 0-.858-.158c-.452 0-.866.098-1.242.294a2.242 2.242 0 0 0-.903.858c-.226.376-.339.835-.339 1.377Zm17.553-.993c0-.618-.121-1.092-.361-1.423-.226-.331-.61-.497-1.152-.497-.361 0-.677.076-.948.226a1.57 1.57 0 0 0-.633.655c-.15.286-.225.632-.225 1.039V645h-3.433v-10.387h3.433v1.558a3.369 3.369 0 0 1 1.219-1.332c.527-.316 1.174-.474 1.942-.474 1.294 0 2.235.346 2.822 1.038.587.693.881 1.664.881 2.913V645h-3.545v-6.322Z"/><path stroke="#8A8A8A" d="m975.509 476.93-.295-62.5a8 8 0 0 1 7.962-8.037l74.994-.354c4.42-.021 7.99-3.62 7.97-8.038l-.14-29"/><circle cx="974.5" cy="489.5" r="16.5" fill="#DC1C17"/><circle cx="974.5" cy="489.5" r="7.5" fill="#fff"/><rect width="193" height="40" x="975" y="329" fill="#fff" rx="20"/><path fill="#1F1F1F" d="M1016.81 341.194h1.92V357h-1.92v-15.806Zm4.74 15.806h-3.68v-1.919h3.68c.89 0 1.7-.136 2.44-.407a5.569 5.569 0 0 0 1.89-1.196c.53-.527.94-1.16 1.22-1.897.29-.738.43-1.566.43-2.484 0-.918-.14-1.746-.43-2.484a5.077 5.077 0 0 0-1.22-1.874 5.137 5.137 0 0 0-1.89-1.197c-.74-.286-1.55-.429-2.44-.429h-3.68v-1.919h3.68c1.53 0 2.9.331 4.09.994a7.274 7.274 0 0 1 2.8 2.777c.67 1.174 1.01 2.551 1.01 4.132 0 1.581-.34 2.966-1.01 4.155a7.319 7.319 0 0 1-2.8 2.754c-1.19.663-2.56.994-4.09.994Zm14.51.226c-.96 0-1.82-.226-2.57-.678a4.845 4.845 0 0 1-1.74-1.919c-.41-.813-.61-1.754-.61-2.822 0-1.084.21-2.033.63-2.845a4.78 4.78 0 0 1 1.81-1.897c.78-.452 1.68-.678 2.71-.678 1.02 0 1.89.219 2.62.655.73.422 1.3 1.031 1.69 1.829.39.798.59 1.746.59 2.845 0 .106-.01.219-.03.339v.203h-8.87v-1.535h7.45l-.72 1.038c.04-.075.09-.188.13-.338.05-.166.07-.301.07-.407 0-.617-.13-1.151-.38-1.603a2.637 2.637 0 0 0-1.02-1.061c-.44-.256-.95-.384-1.53-.384-.7 0-1.29.151-1.79.452-.48.286-.86.707-1.13 1.264-.25.542-.39 1.212-.4 2.01 0 .813.12 1.505.38 2.077.26.572.63 1.009 1.13 1.31.5.301 1.1.451 1.81.451.7 0 1.33-.15 1.87-.451.54-.316 1-.791 1.38-1.423l1.47.926c-.55.873-1.23 1.535-2.06 1.987-.81.437-1.78.655-2.89.655Zm5.58-10.613h2.03l2.93 7.339 2.94-7.339h2.03l-4.97 11.177-4.96-11.177Zm10.4 5.194c0-1.054.24-1.987.7-2.8a5.284 5.284 0 0 1 1.94-1.92c.82-.466 1.73-.7 2.74-.7 1.02 0 1.93.234 2.73.7a5.157 5.157 0 0 1 1.92 1.92c.48.813.72 1.746.72 2.8 0 1.038-.24 1.972-.72 2.8a5.162 5.162 0 0 1-1.92 1.919c-.8.466-1.71.7-2.73.7-1.01 0-1.92-.234-2.74-.7a5.29 5.29 0 0 1-1.94-1.919c-.46-.828-.7-1.762-.7-2.8Zm1.83 0c0 .722.15 1.362.45 1.919.32.557.74 1.001 1.27 1.332.54.316 1.15.474 1.83.474.67 0 1.28-.158 1.8-.474.54-.331.97-.775 1.27-1.332.31-.557.47-1.197.47-1.919 0-.723-.16-1.363-.47-1.92a3.288 3.288 0 0 0-1.27-1.332c-.52-.316-1.13-.474-1.8-.474-.68 0-1.29.158-1.83.474-.53.316-.95.76-1.27 1.332-.3.557-.45 1.197-.45 1.92Zm11.4-12.419h1.81V357h-1.81v-17.612Zm6.9 22.58h-1.81v-15.355h1.81v15.355Zm8.69-10.161c0 1.114-.23 2.077-.7 2.89a4.84 4.84 0 0 1-1.87 1.874c-.77.437-1.63.655-2.58.655-.85 0-1.61-.218-2.28-.655-.64-.437-1.16-1.061-1.53-1.874-.36-.813-.54-1.776-.54-2.89 0-1.129.18-2.093.54-2.891.37-.813.89-1.437 1.53-1.874.67-.436 1.43-.655 2.28-.655.95 0 1.81.219 2.58.655a4.84 4.84 0 0 1 1.87 1.874c.47.798.7 1.762.7 2.891Zm-1.83 0c0-.798-.16-1.476-.49-2.033a3.193 3.193 0 0 0-1.29-1.264 3.627 3.627 0 0 0-1.76-.429c-.53 0-1.05.143-1.56.429-.51.286-.93.707-1.26 1.264-.34.557-.5 1.235-.5 2.033 0 .797.16 1.475.5 2.032.33.557.75.978 1.26 1.264.51.286 1.03.429 1.56.429.65 0 1.23-.143 1.76-.429.54-.286.97-.707 1.29-1.264.33-.557.49-1.235.49-2.032Zm18.55-1.355V357h-1.81v-6.322c0-.889-.16-1.543-.49-1.965-.32-.421-.82-.632-1.5-.632-.49 0-.92.105-1.28.316-.36.196-.64.489-.84.881-.19.391-.29.858-.29 1.4V357h-1.81v-6.322c0-.889-.16-1.543-.49-1.965-.32-.421-.82-.632-1.49-.632-.5 0-.93.105-1.29.316-.36.196-.64.489-.84.881-.19.391-.29.858-.29 1.4V357h-1.81v-10.387h1.81v1.513c.32-.587.71-1.024 1.17-1.31.49-.286 1.05-.429 1.7-.429.72 0 1.34.174 1.85.52.53.331.91.805 1.15 1.422.36-.647.81-1.129 1.36-1.445.54-.331 1.15-.497 1.85-.497.7 0 1.31.158 1.8.475.5.316.88.782 1.13 1.4.27.602.41 1.332.41 2.19Zm7.41 6.774c-.96 0-1.82-.226-2.57-.678a4.845 4.845 0 0 1-1.74-1.919c-.41-.813-.61-1.754-.61-2.822 0-1.084.21-2.033.63-2.845a4.78 4.78 0 0 1 1.81-1.897c.78-.452 1.68-.678 2.71-.678 1.02 0 1.89.219 2.62.655.73.422 1.3 1.031 1.69 1.829.39.798.59 1.746.59 2.845 0 .106-.01.219-.03.339v.203h-8.87v-1.535h7.45l-.72 1.038c.04-.075.09-.188.13-.338.05-.166.07-.301.07-.407 0-.617-.13-1.151-.38-1.603a2.637 2.637 0 0 0-1.02-1.061c-.43-.256-.95-.384-1.53-.384-.7 0-1.29.151-1.79.452-.48.286-.86.707-1.13 1.264-.25.542-.39 1.212-.4 2.01 0 .813.13 1.505.38 2.077.26.572.63 1.009 1.13 1.31.5.301 1.1.451 1.81.451.7 0 1.33-.15 1.87-.451.54-.316 1-.791 1.38-1.423l1.47.926c-.55.873-1.23 1.535-2.06 1.987-.81.437-1.78.655-2.89.655Zm14.26-6.548c0-.858-.18-1.506-.56-1.942-.38-.437-.93-.655-1.65-.655-.53 0-.99.113-1.4.339-.39.21-.7.511-.93.903-.21.391-.31.843-.31 1.355V357h-1.81v-10.387h1.81v1.626c.34-.632.77-1.099 1.29-1.4.52-.301 1.12-.452 1.8-.452 1.1 0 1.97.369 2.6 1.107.65.722.97 1.708.97 2.958V357h-1.81v-6.322Zm3.63-4.065h5.19v1.694h-5.19v-1.694Zm1.69-3.613h1.8v14h-1.8v-14Z"/><path stroke="#8A8A8A" d="m524.509 479.93-.295-62.5a8 8 0 0 1 7.962-8.037l74.999-.354a8 8 0 0 0 7.962-8.038l-.137-29"/><circle cx="523.5" cy="492.5" r="16.5" fill="#DC1C17"/><circle cx="523.5" cy="492.5" r="7.5" fill="#fff"/><rect width="157" height="40" x="537" y="332" fill="#fff" rx="20"/><path fill="#1F1F1F" d="m576.874 355.823 4.109-11.629h2.145l-6.209 16.596-4.742-12.283-4.742 12.283-6.209-16.596h2.145l4.2 11.629 4.606-12.419 4.697 12.419Zm8.179-10.5c0-.346.12-.64.361-.881.256-.24.55-.361.881-.361.346 0 .64.121.881.361.24.241.361.535.361.881 0 .331-.121.625-.361.881-.241.24-.535.361-.881.361-.331 0-.625-.121-.881-.361a1.249 1.249 0 0 1-.361-.881Zm.339 4.29h1.806V360h-1.806v-10.387Zm7.333 0V360h-1.807v-10.387h1.807Zm3.139 1.987a2.88 2.88 0 0 0-.655-.384c-.196-.09-.444-.135-.745-.135-.452 0-.806.113-1.062.339-.256.225-.436.534-.542.925-.09.392-.135.836-.135 1.333h-.813c0-.828.143-1.558.429-2.191.301-.647.685-1.159 1.152-1.535.466-.376.94-.565 1.422-.565.376 0 .723.053 1.039.158.331.091.632.279.903.565l-.993 1.49Zm6.483 8.626c-.964 0-1.822-.226-2.574-.678a4.872 4.872 0 0 1-1.739-1.919c-.406-.813-.61-1.754-.61-2.822 0-1.084.211-2.033.633-2.845a4.758 4.758 0 0 1 1.806-1.897c.783-.452 1.686-.678 2.71-.678 1.023 0 1.896.219 2.619.655a4.16 4.16 0 0 1 1.693 1.829c.392.798.587 1.746.587 2.845 0 .106-.007.219-.022.339v.203h-8.874v-1.535h7.451l-.722 1.038a1.56 1.56 0 0 0 .135-.338c.045-.166.068-.301.068-.407 0-.617-.128-1.151-.384-1.603a2.654 2.654 0 0 0-1.016-1.061c-.437-.256-.948-.384-1.535-.384-.693 0-1.287.151-1.784.452-.482.286-.858.707-1.129 1.264-.256.542-.392 1.212-.407 2.01 0 .813.128 1.505.384 2.077.256.572.632 1.009 1.129 1.31.497.301 1.099.451 1.807.451.707 0 1.332-.15 1.874-.451.542-.316 1.001-.791 1.377-1.423l1.468.926c-.542.873-1.227 1.535-2.055 1.987-.813.437-1.776.655-2.89.655Zm13.581-10.613h5.193v1.694h-5.193v-1.694Zm5.012-5.058c-.15-.256-.331-.414-.542-.474a1.57 1.57 0 0 0-.564-.113.9.9 0 0 0-.587.203c-.151.121-.271.332-.361.633-.091.301-.136.7-.136 1.196v14h-1.806v-14.225c0-.828.12-1.506.361-2.033.241-.526.58-.918 1.016-1.174.452-.271.994-.406 1.626-.406.331 0 .625.045.88.135.256.091.475.203.655.339.196.135.347.278.452.429l-.994 1.49Zm4.045 5.058V360h-1.806v-10.387h1.806Zm3.139 1.987a2.86 2.86 0 0 0-.655-.384c-.196-.09-.444-.135-.745-.135-.452 0-.806.113-1.061.339-.256.225-.437.534-.542.925a5.917 5.917 0 0 0-.136 1.333h-.813c0-.828.143-1.558.429-2.191.301-.647.685-1.159 1.152-1.535.467-.376.941-.565 1.422-.565.377 0 .723.053 1.039.158.331.091.632.279.903.565l-.993 1.49Zm3.607 5.194c0 .391.091.73.271 1.016.196.286.46.504.791.655.346.135.737.203 1.174.203.557 0 1.054-.113 1.49-.339a2.614 2.614 0 0 0 1.468-2.393l.361 1.354c0 .663-.203 1.212-.609 1.649-.392.436-.881.76-1.468.971a4.951 4.951 0 0 1-1.716.316 4.219 4.219 0 0 1-1.784-.384 3.34 3.34 0 0 1-1.31-1.152c-.331-.496-.496-1.099-.496-1.806 0-1.009.353-1.814 1.061-2.416.722-.617 1.723-.926 3.003-.926.753 0 1.377.09 1.874.271.512.166.918.361 1.219.587.301.211.505.384.61.519v1.062a5.329 5.329 0 0 0-1.626-.768 6.213 6.213 0 0 0-1.784-.248c-.587 0-1.068.075-1.445.225-.361.151-.632.362-.813.633-.18.271-.271.594-.271.971Zm-.27-4.787-.881-1.333c.391-.286.926-.572 1.603-.858.693-.286 1.52-.429 2.484-.429.813 0 1.52.128 2.122.384.618.241 1.092.595 1.423 1.062.346.466.519 1.038.519 1.716V360h-1.806v-7.203c0-.361-.06-.655-.181-.881a1.341 1.341 0 0 0-.519-.564 2.213 2.213 0 0 0-.745-.294 4.39 4.39 0 0 0-.903-.09c-.512 0-.979.06-1.4.181-.407.12-.753.263-1.039.429a7.656 7.656 0 0 0-.677.429Zm24.554 1.445V360h-1.806v-6.322c0-.889-.166-1.543-.497-1.965-.316-.421-.813-.632-1.49-.632-.497 0-.926.105-1.287.316-.362.196-.64.489-.836.881-.196.391-.293.858-.293 1.4V360h-1.807v-6.322c0-.889-.165-1.543-.497-1.965-.316-.421-.812-.632-1.49-.632-.497 0-.926.105-1.287.316-.361.196-.64.489-.835.881-.196.391-.294.858-.294 1.4V360h-1.806v-10.387h1.806v1.513c.316-.587.708-1.024 1.174-1.31.482-.286 1.046-.429 1.694-.429.722 0 1.339.174 1.851.52.527.331.911.805 1.152 1.422.361-.647.813-1.129 1.355-1.445.542-.331 1.159-.497 1.851-.497.708 0 1.31.158 1.807.475.496.316.873.782 1.129 1.4.271.602.406 1.332.406 2.19Zm7.412 6.774c-.963 0-1.821-.226-2.574-.678a4.87 4.87 0 0 1-1.738-1.919c-.407-.813-.61-1.754-.61-2.822 0-1.084.211-2.033.632-2.845a4.767 4.767 0 0 1 1.807-1.897c.782-.452 1.686-.678 2.709-.678 1.024 0 1.897.219 2.62.655a4.16 4.16 0 0 1 1.693 1.829c.391.798.587 1.746.587 2.845 0 .106-.007.219-.022.339v.203h-8.874v-1.535h7.451l-.723 1.038c.046-.075.091-.188.136-.338.045-.166.068-.301.068-.407 0-.617-.128-1.151-.384-1.603a2.66 2.66 0 0 0-1.016-1.061c-.437-.256-.949-.384-1.536-.384-.692 0-1.287.151-1.784.452-.481.286-.858.707-1.129 1.264-.255.542-.391 1.212-.406 2.01 0 .813.128 1.505.384 2.077.256.572.632 1.009 1.129 1.31.497.301 1.099.451 1.806.451.708 0 1.332-.15 1.874-.451.542-.316 1.001-.791 1.378-1.423l1.467.926c-.541.873-1.226 1.535-2.054 1.987-.813.437-1.777.655-2.891.655Z"/><path stroke="#8A8A8A" d="m70.509 477.93-.295-62.5a8 8 0 0 1 7.962-8.037l74.999-.354a8 8 0 0 0 7.962-8.038l-.137-29"/><circle cx="69.5" cy="492.5" r="16.5" fill="#DC1C17"/><circle cx="69.5" cy="492.5" r="7.5" fill="#fff"/><rect width="172" height="40" x="79" y="332" fill="#fff" rx="20"/><path fill="#1F1F1F" d="M123.629 352.21h2.145l5.645 7.79h-2.371l-5.419-7.79Zm-2.823-8.016h1.92V360h-1.92v-15.806Zm1.062 1.694v-1.694h3.229c1.023 0 1.934.196 2.732.587.813.376 1.452.918 1.919 1.626.482.707.723 1.55.723 2.529 0 .963-.241 1.806-.723 2.529-.467.707-1.106 1.257-1.919 1.648-.798.376-1.709.565-2.732.565h-3.229v-1.694h3.229c.677 0 1.272-.12 1.783-.361a2.76 2.76 0 0 0 1.22-1.039c.301-.451.451-1.001.451-1.648s-.15-1.197-.451-1.649a2.764 2.764 0 0 0-1.22-1.038c-.511-.241-1.106-.361-1.783-.361h-3.229Zm15.48 14.338c-.964 0-1.822-.226-2.574-.678a4.872 4.872 0 0 1-1.739-1.919c-.406-.813-.61-1.754-.61-2.822 0-1.084.211-2.033.633-2.845a4.758 4.758 0 0 1 1.806-1.897c.783-.452 1.686-.678 2.71-.678 1.023 0 1.896.219 2.619.655.738.422 1.302 1.031 1.693 1.829.392.798.587 1.746.587 2.845 0 .106-.007.219-.022.339v.203h-8.874v-1.535h7.451l-.722 1.038a1.56 1.56 0 0 0 .135-.338c.045-.166.068-.301.068-.407 0-.617-.128-1.151-.384-1.603a2.654 2.654 0 0 0-1.016-1.061c-.436-.256-.948-.384-1.535-.384-.693 0-1.287.151-1.784.452-.482.286-.858.707-1.129 1.264-.256.542-.392 1.212-.407 2.01 0 .813.128 1.505.384 2.077.256.572.632 1.009 1.129 1.31.497.301 1.099.451 1.807.451.707 0 1.332-.15 1.874-.451.542-.316 1.001-.791 1.377-1.423l1.468.926c-.542.873-1.227 1.535-2.055 1.987-.813.437-1.776.655-2.89.655Zm8.03-3.41c.211.316.452.61.723.881.271.271.579.489.926.655.361.15.752.225 1.174.225.512 0 .911-.112 1.197-.338.301-.241.451-.565.451-.971 0-.361-.12-.663-.361-.903a2.598 2.598 0 0 0-.881-.633c-.361-.18-.745-.346-1.151-.496a15.886 15.886 0 0 1-1.378-.633 3.993 3.993 0 0 1-1.151-.971c-.301-.406-.452-.91-.452-1.512 0-.618.158-1.129.474-1.536a2.974 2.974 0 0 1 1.265-.903 4.629 4.629 0 0 1 1.626-.294c.557 0 1.076.091 1.558.271a4.6 4.6 0 0 1 1.309.723c.377.301.67.647.881 1.039l-1.445.925a3.556 3.556 0 0 0-1.084-.971 2.737 2.737 0 0 0-1.445-.383c-.377 0-.7.082-.971.248-.271.166-.407.421-.407.768 0 .271.106.511.317.722.21.211.481.399.812.565.332.165.678.323 1.039.474a12.89 12.89 0 0 1 1.648.79c.497.271.889.602 1.175.994.301.391.451.895.451 1.513 0 .903-.331 1.655-.993 2.258-.648.602-1.506.903-2.574.903-.693 0-1.318-.121-1.875-.361a4.854 4.854 0 0 1-1.422-.971 4.7 4.7 0 0 1-.858-1.197l1.422-.881Zm12.698 3.41c-.964 0-1.822-.226-2.575-.678a4.87 4.87 0 0 1-1.738-1.919c-.407-.813-.61-1.754-.61-2.822 0-1.084.211-2.033.632-2.845a4.767 4.767 0 0 1 1.807-1.897c.783-.452 1.686-.678 2.709-.678 1.024 0 1.897.219 2.62.655a4.16 4.16 0 0 1 1.693 1.829c.392.798.587 1.746.587 2.845 0 .106-.007.219-.022.339v.203h-8.874v-1.535h7.451l-.722 1.038a1.56 1.56 0 0 0 .135-.338c.045-.166.068-.301.068-.407 0-.617-.128-1.151-.384-1.603a2.66 2.66 0 0 0-1.016-1.061c-.437-.256-.949-.384-1.536-.384-.692 0-1.287.151-1.783.452-.482.286-.858.707-1.129 1.264-.256.542-.392 1.212-.407 2.01 0 .813.128 1.505.384 2.077.256.572.632 1.009 1.129 1.31.497.301 1.099.451 1.806.451.708 0 1.333-.15 1.875-.451.541-.316 1.001-.791 1.377-1.423l1.468.926c-.542.873-1.227 1.535-2.055 1.987-.813.437-1.776.655-2.89.655Zm8.414-3.432c0 .391.09.73.271 1.016.196.286.459.504.79.655.346.135.738.203 1.174.203.557 0 1.054-.113 1.491-.339a2.604 2.604 0 0 0 1.467-2.393l.362 1.354c0 .663-.204 1.212-.61 1.649-.391.436-.881.76-1.468.971a4.951 4.951 0 0 1-1.716.316 4.222 4.222 0 0 1-1.784-.384 3.337 3.337 0 0 1-1.309-1.152c-.331-.496-.497-1.099-.497-1.806 0-1.009.354-1.814 1.061-2.416.723-.617 1.724-.926 3.003-.926.753 0 1.378.09 1.875.271.511.166.918.361 1.219.587.301.211.504.384.61.519v1.062a5.329 5.329 0 0 0-1.626-.768 6.218 6.218 0 0 0-1.784-.248c-.587 0-1.069.075-1.445.225-.361.151-.632.362-.813.633-.181.271-.271.594-.271.971Zm-.271-4.787-.881-1.333c.392-.286.926-.572 1.604-.858.692-.286 1.52-.429 2.483-.429.813 0 1.521.128 2.123.384.617.241 1.091.595 1.422 1.062.347.466.52 1.038.52 1.716V360h-1.807v-7.203c0-.361-.06-.655-.18-.881a1.35 1.35 0 0 0-.52-.564 2.204 2.204 0 0 0-.745-.294 4.39 4.39 0 0 0-.903-.09c-.512 0-.978.06-1.4.181-.406.12-.753.263-1.039.429a7.809 7.809 0 0 0-.677.429Zm12.136-2.394V360h-1.807v-10.387h1.807Zm3.138 1.987a2.86 2.86 0 0 0-.655-.384c-.195-.09-.444-.135-.745-.135-.451 0-.805.113-1.061.339-.256.225-.437.534-.542.925-.09.392-.135.836-.135 1.333h-.813c0-.828.143-1.558.429-2.191.301-.647.685-1.159 1.151-1.535.467-.376.941-.565 1.423-.565.376 0 .722.053 1.038.158.332.091.633.279.904.565l-.994 1.49Zm3.277 3.207c0 .722.151 1.362.452 1.919a3.7 3.7 0 0 0 1.264 1.332 3.565 3.565 0 0 0 1.829.474c.557 0 1.076-.082 1.558-.248a4.574 4.574 0 0 0 1.287-.7c.361-.301.617-.617.768-.948v2.258c-.361.421-.881.752-1.558.993a6.317 6.317 0 0 1-2.055.339c-1.008 0-1.919-.234-2.732-.7a5.287 5.287 0 0 1-1.942-1.919c-.467-.828-.7-1.762-.7-2.8 0-1.054.233-1.987.7-2.8a5.282 5.282 0 0 1 1.942-1.92c.813-.466 1.724-.7 2.732-.7.708 0 1.393.121 2.055.362.677.225 1.197.549 1.558.971v2.258c-.151-.347-.407-.663-.768-.949a4.164 4.164 0 0 0-1.287-.677 4.394 4.394 0 0 0-1.558-.271c-.677 0-1.287.158-1.829.474-.527.316-.948.76-1.264 1.332-.301.557-.452 1.197-.452 1.92Zm11.776-12.419V360h-1.806v-17.612h1.806Zm4.855 11.29c0-.858-.188-1.506-.564-1.942-.362-.437-.911-.655-1.649-.655-.527 0-.993.113-1.4.339-.391.225-.7.534-.925.925a2.767 2.767 0 0 0-.317 1.333h-.587c0-.828.158-1.558.475-2.191.316-.647.745-1.159 1.287-1.535.557-.376 1.196-.565 1.919-.565.722 0 1.347.151 1.874.452.542.301.956.753 1.242 1.355.301.602.452 1.355.452 2.258V360h-1.807v-6.322Z"/><path fill="#fff" d="M373.976 23.062v-6.584h24.155v6.584h-8.415V47h-7.369V23.062h-8.371Zm33.467-10.072V47h-6.628V12.99h6.628Zm6.409 21.801c0-1.191-.218-2.107-.654-2.747-.436-.64-1.192-.959-2.267-.959-.698 0-1.308.16-1.831.48-.524.29-.931.712-1.221 1.264-.291.523-.436 1.177-.436 1.962h-1.134c0-1.598.262-3.037.785-4.316.523-1.309 1.308-2.34 2.354-3.096 1.076-.785 2.442-1.177 4.099-1.177s2.98.29 3.968.872c1.017.581 1.758 1.438 2.224 2.572.465 1.134.697 2.53.697 4.186V47h-6.584V34.791Zm21.991 12.645c-2.326 0-4.346-.422-6.061-1.264-1.686-.872-2.994-2.093-3.924-3.663-.931-1.57-1.396-3.416-1.396-5.538 0-2.15.451-4.011 1.352-5.58.901-1.57 2.195-2.777 3.881-3.62 1.715-.843 3.735-1.264 6.06-1.264 2.326 0 4.288.407 5.887 1.22 1.599.785 2.819 1.934 3.662 3.445.843 1.512 1.265 3.343 1.265 5.494v.96c0 .29-.029.537-.087.74h-18.313v-3.662h12.383l-1.57 2.006c.145-.204.262-.45.349-.742.116-.32.174-.58.174-.784 0-.872-.16-1.628-.479-2.268a3.524 3.524 0 0 0-1.352-1.482c-.581-.349-1.265-.523-2.049-.523-.989 0-1.817.218-2.486.654-.668.436-1.177 1.104-1.526 2.005-.32.873-.494 1.977-.523 3.314 0 1.221.174 2.267.523 3.14.349.872.872 1.54 1.57 2.005.697.436 1.555.654 2.572.654 1.163 0 2.151-.218 2.965-.654.843-.436 1.512-1.09 2.006-1.962l5.886 1.44c-1.046 1.976-2.47 3.458-4.273 4.447-1.773.988-3.938 1.482-6.496 1.482Zm34.404 9.157h-6.584v-29.65h6.584v29.65Zm16.395-19.622c0 2.326-.465 4.288-1.396 5.887-.901 1.599-2.078 2.805-3.531 3.619a9.161 9.161 0 0 1-4.622 1.22c-1.744 0-3.256-.435-4.535-1.307-1.25-.902-2.209-2.151-2.878-3.75-.668-1.628-1.003-3.517-1.003-5.669 0-2.18.335-4.07 1.003-5.668.669-1.599 1.628-2.834 2.878-3.706 1.279-.901 2.791-1.352 4.535-1.352a9.16 9.16 0 0 1 4.622 1.221c1.453.814 2.63 2.02 3.531 3.62.931 1.569 1.396 3.53 1.396 5.885Zm-6.933 0c0-1.046-.218-1.933-.654-2.66a4.346 4.346 0 0 0-1.744-1.656 5.12 5.12 0 0 0-2.398-.567c-.756 0-1.497.189-2.224.567-.698.349-1.279.886-1.744 1.613-.465.727-.698 1.628-.698 2.703 0 1.076.233 1.977.698 2.704.465.727 1.046 1.279 1.744 1.657a5.09 5.09 0 0 0 2.224.523 5.12 5.12 0 0 0 2.398-.567 4.346 4.346 0 0 0 1.744-1.657c.436-.727.654-1.613.654-2.66Zm17.405-10.028V47h-6.496V26.943h6.496Zm5.8 6.802a4.362 4.362 0 0 0-1.134-.829c-.378-.203-.858-.305-1.439-.305a2.88 2.88 0 0 0-1.7.523c-.495.35-.873.858-1.134 1.526-.262.669-.393 1.483-.393 2.442l-1.569-2.31c0-1.6.305-3.024.915-4.274.64-1.25 1.468-2.238 2.486-2.965 1.017-.727 2.078-1.09 3.183-1.09.726 0 1.424.145 2.093.436.668.29 1.177.698 1.526 1.221l-2.834 5.625Zm3.814 3.226c0-2.122.494-3.967 1.483-5.537.988-1.57 2.354-2.79 4.098-3.663 1.744-.872 3.707-1.308 5.887-1.308 2.18 0 4.127.436 5.842 1.308 1.744.872 3.111 2.093 4.099 3.663 1.017 1.57 1.526 3.415 1.526 5.537 0 2.093-.509 3.925-1.526 5.494-.988 1.57-2.355 2.79-4.099 3.663-1.715.872-3.662 1.308-5.842 1.308-2.18 0-4.143-.436-5.887-1.308-1.744-.872-3.11-2.093-4.098-3.663-.989-1.57-1.483-3.4-1.483-5.494Zm6.759 0c0 1.047.218 1.948.654 2.704a4.762 4.762 0 0 0 1.7 1.7c.698.407 1.483.61 2.355.61.843 0 1.613-.203 2.311-.61a4.352 4.352 0 0 0 1.7-1.7c.436-.756.654-1.657.654-2.704 0-1.046-.218-1.947-.654-2.703a4.279 4.279 0 0 0-1.7-1.744 4.505 4.505 0 0 0-2.311-.61c-.872 0-1.657.203-2.355.61s-1.264.988-1.7 1.744c-.436.756-.654 1.657-.654 2.703Zm25.675 0c0 1.076.232 2.006.697 2.791a4.948 4.948 0 0 0 1.919 1.788 5.8 5.8 0 0 0 2.703.654 7.54 7.54 0 0 0 2.311-.35 7.994 7.994 0 0 0 2.049-1.046 5.526 5.526 0 0 0 1.57-1.613v6.41c-.697.552-1.57 1.003-2.616 1.351-1.046.32-2.325.48-3.837.48-2.209 0-4.2-.436-5.974-1.308-1.744-.872-3.124-2.093-4.142-3.663-.988-1.57-1.482-3.4-1.482-5.494 0-2.122.494-3.953 1.482-5.493 1.018-1.57 2.398-2.791 4.142-3.663 1.774-.872 3.765-1.308 5.974-1.308 1.512 0 2.791.174 3.837.523 1.046.32 1.919.727 2.616 1.22v6.454a5.342 5.342 0 0 0-1.613-1.613 7.728 7.728 0 0 0-2.093-1.003 7.54 7.54 0 0 0-2.224-.349 5.51 5.51 0 0 0-2.703.698 5.165 5.165 0 0 0-1.919 1.875c-.465.785-.697 1.671-.697 2.66Zm26.211 10.465c-2.325 0-4.346-.422-6.061-1.264-1.686-.872-2.994-2.093-3.924-3.663-.93-1.57-1.395-3.416-1.395-5.538 0-2.15.45-4.011 1.351-5.58.901-1.57 2.195-2.777 3.881-3.62 1.715-.843 3.735-1.264 6.061-1.264 2.325 0 4.287.407 5.886 1.22 1.599.785 2.82 1.934 3.663 3.445.843 1.512 1.264 3.343 1.264 5.494v.96c0 .29-.029.537-.087.74h-18.313v-3.662h12.383l-1.57 2.006c.146-.204.262-.45.349-.742.116-.32.175-.58.175-.784 0-.872-.16-1.628-.48-2.268a3.518 3.518 0 0 0-1.352-1.482c-.581-.349-1.264-.523-2.049-.523-.988 0-1.817.218-2.485.654-.669.436-1.178 1.104-1.526 2.005-.32.873-.495 1.977-.524 3.314 0 1.221.175 2.267.524 3.14.348.872.872 1.54 1.569 2.005.698.436 1.555.654 2.573.654 1.163 0 2.151-.218 2.965-.654.843-.436 1.511-1.09 2.005-1.962l5.887 1.44c-1.047 1.976-2.471 3.458-4.273 4.447-1.773.988-3.939 1.482-6.497 1.482Zm15.882-7.718c1.017.843 1.933 1.512 2.747 2.006.843.465 1.584.8 2.224 1.003.639.174 1.191.262 1.656.262.669 0 1.163-.146 1.483-.436.32-.291.48-.669.48-1.134 0-.436-.131-.8-.393-1.09-.261-.32-.712-.625-1.352-.916-.61-.29-1.453-.596-2.528-.915a21.235 21.235 0 0 1-2.747-1.221 6.427 6.427 0 0 1-2.093-1.962c-.553-.814-.829-1.86-.829-3.14 0-1.22.32-2.253.959-3.096.669-.843 1.556-1.482 2.66-1.918 1.134-.436 2.427-.654 3.881-.654 1.163 0 2.238.13 3.226.392 1.018.262 1.963.61 2.835 1.047a15.76 15.76 0 0 1 2.529 1.526l-2.355 4.273a10.817 10.817 0 0 0-2.878-1.919c-1.075-.523-2.064-.785-2.965-.785-.61 0-1.075.117-1.395.35a1.115 1.115 0 0 0-.436.915c0 .436.174.8.523 1.09.378.29.901.567 1.57.828.698.233 1.541.538 2.529.916a18.75 18.75 0 0 1 2.878 1.308c.901.494 1.613 1.12 2.136 1.875.552.756.829 1.759.829 3.009 0 2.15-.669 3.779-2.006 4.883-1.308 1.076-3.154 1.613-5.538 1.613-1.453 0-2.805-.174-4.055-.523a15.88 15.88 0 0 1-3.401-1.308 23.043 23.043 0 0 1-2.921-1.918l2.747-4.36Zm19.885 0c1.017.843 1.933 1.512 2.747 2.006.843.465 1.584.8 2.224 1.003.639.174 1.192.262 1.657.262.668 0 1.162-.146 1.482-.436.32-.291.48-.669.48-1.134 0-.436-.131-.8-.393-1.09-.261-.32-.712-.625-1.351-.916-.611-.29-1.454-.596-2.529-.915a21.235 21.235 0 0 1-2.747-1.221 6.427 6.427 0 0 1-2.093-1.962c-.552-.814-.829-1.86-.829-3.14 0-1.22.32-2.253.96-3.096.668-.843 1.555-1.482 2.659-1.918 1.134-.436 2.428-.654 3.881-.654 1.163 0 2.238.13 3.227.392 1.017.262 1.962.61 2.834 1.047a15.76 15.76 0 0 1 2.529 1.526l-2.355 4.273a10.817 10.817 0 0 0-2.878-1.919c-1.075-.523-2.063-.785-2.965-.785-.61 0-1.075.117-1.395.35a1.115 1.115 0 0 0-.436.915c0 .436.175.8.523 1.09.378.29.901.567 1.57.828.698.233 1.541.538 2.529.916a18.75 18.75 0 0 1 2.878 1.308c.901.494 1.613 1.12 2.136 1.875.553.756.829 1.759.829 3.009 0 2.15-.669 3.779-2.006 4.883-1.308 1.076-3.154 1.613-5.538 1.613-1.453 0-2.805-.174-4.055-.523a15.9 15.9 0 0 1-3.401-1.308 23.043 23.043 0 0 1-2.921-1.918l2.747-4.36Zm30.69-2.747c0-2.122.494-3.967 1.483-5.537.988-1.57 2.354-2.79 4.098-3.663 1.744-.872 3.706-1.308 5.887-1.308 2.18 0 4.127.436 5.842 1.308 1.744.872 3.111 2.093 4.099 3.663 1.017 1.57 1.526 3.415 1.526 5.537 0 2.093-.509 3.925-1.526 5.494-.988 1.57-2.355 2.79-4.099 3.663-1.715.872-3.662 1.308-5.842 1.308-2.181 0-4.143-.436-5.887-1.308-1.744-.872-3.11-2.093-4.098-3.663-.989-1.57-1.483-3.4-1.483-5.494Zm6.759 0c0 1.047.218 1.948.654 2.704a4.762 4.762 0 0 0 1.7 1.7c.698.407 1.483.61 2.355.61.843 0 1.613-.203 2.311-.61a4.352 4.352 0 0 0 1.7-1.7c.436-.756.654-1.657.654-2.704 0-1.046-.218-1.947-.654-2.703a4.279 4.279 0 0 0-1.7-1.744 4.505 4.505 0 0 0-2.311-.61c-.872 0-1.657.203-2.355.61s-1.264.988-1.7 1.744c-.436.756-.654 1.657-.654 2.703Zm18.349-10.028h13.692v5.45h-13.692v-5.45Zm12.95-7.63c-.29-.378-.61-.655-.959-.83a2.149 2.149 0 0 0-1.046-.26c-.436 0-.814.101-1.134.305-.291.203-.523.523-.698.959-.174.436-.261 1.003-.261 1.7V47h-6.323V19.53c0-1.511.277-2.805.829-3.88a5.958 5.958 0 0 1 2.529-2.486c1.133-.581 2.529-.872 4.186-.872 1.017 0 1.875.131 2.572.393.698.232 1.294.523 1.788.872.494.32.886.625 1.177.915l-2.66 4.84Zm25.401 12.12L693.458 47h-7.761l4.927-32.048 12.993 18.618 13.038-18.618L721.582 47h-7.762l-1.831-15.566-8.372 12.732-8.328-12.732ZM725.228 19.4c0-1.047.378-1.89 1.134-2.53.755-.668 1.656-1.002 2.703-1.002 1.075 0 1.977.334 2.703 1.003.756.64 1.134 1.482 1.134 2.529 0 1.046-.378 1.904-1.134 2.572-.726.669-1.628 1.003-2.703 1.003-1.047 0-1.948-.334-2.703-1.003-.756-.669-1.134-1.526-1.134-2.572Zm.654 7.543h6.366V47h-6.366V26.943Zm24.826 7.848c0-1.191-.233-2.107-.698-2.747-.436-.64-1.177-.959-2.224-.959-.697 0-1.308.145-1.831.436a3.02 3.02 0 0 0-1.221 1.265c-.29.552-.436 1.22-.436 2.005V47h-6.627V26.943h6.627v3.008c.582-1.104 1.366-1.962 2.355-2.572 1.017-.61 2.267-.916 3.75-.916 2.5 0 4.316.669 5.45 2.006 1.134 1.337 1.7 3.212 1.7 5.625V47h-6.845V34.791Zm22.246 12.645c-2.326 0-4.346-.422-6.061-1.264-1.686-.872-2.994-2.093-3.924-3.663-.93-1.57-1.396-3.416-1.396-5.538 0-2.15.451-4.011 1.352-5.58.901-1.57 2.195-2.777 3.881-3.62 1.715-.843 3.735-1.264 6.06-1.264 2.326 0 4.288.407 5.887 1.22 1.599.785 2.819 1.934 3.662 3.445.843 1.512 1.265 3.343 1.265 5.494v.96c0 .29-.029.537-.087.74H765.28v-3.662h12.383l-1.57 2.006c.145-.204.262-.45.349-.742.116-.32.174-.58.174-.784 0-.872-.16-1.628-.479-2.268a3.524 3.524 0 0 0-1.352-1.482c-.581-.349-1.264-.523-2.049-.523-.989 0-1.817.218-2.486.654-.668.436-1.177 1.104-1.526 2.005-.32.873-.494 1.977-.523 3.314 0 1.221.174 2.267.523 3.14.349.872.872 1.54 1.57 2.005.698.436 1.555.654 2.572.654 1.163 0 2.152-.218 2.965-.654.843-.436 1.512-1.09 2.006-1.962l5.887 1.44c-1.047 1.976-2.471 3.458-4.274 4.447-1.773.988-3.938 1.482-6.496 1.482Zm15.434-30.958h6.845l-4.491 11.119h-4.709l2.355-11.119Zm27.69-3.488h6.584V47h-6.584V12.99Zm-16.395 23.981c0-2.267.451-4.17 1.352-5.711.93-1.541 2.122-2.718 3.575-3.532a9.318 9.318 0 0 1 4.622-1.221c1.686 0 3.169.421 4.448 1.264 1.308.843 2.34 2.05 3.095 3.62.756 1.54 1.134 3.4 1.134 5.58 0 2.152-.378 4.012-1.134 5.582-.755 1.57-1.787 2.776-3.095 3.619-1.279.843-2.762 1.264-4.448 1.264a9.319 9.319 0 0 1-4.622-1.22c-1.453-.815-2.645-1.992-3.575-3.533-.901-1.57-1.352-3.473-1.352-5.712Zm6.933 0c0 1.047.218 1.963.654 2.747a4.9 4.9 0 0 0 1.744 1.788c.727.407 1.526.61 2.398.61.756 0 1.483-.203 2.18-.61.727-.407 1.323-.988 1.788-1.744.465-.785.698-1.715.698-2.79 0-1.076-.233-1.992-.698-2.748-.465-.784-1.061-1.38-1.788-1.787a4.265 4.265 0 0 0-2.18-.61c-.872 0-1.671.217-2.398.653-.727.407-1.308 1.003-1.744 1.788-.436.756-.654 1.657-.654 2.703ZM447.52 79.478h7.369V110h-7.369V79.478Zm4.622 6.06v-6.06h5.974c2.587 0 4.752.407 6.496 1.221 1.773.785 3.111 1.919 4.012 3.401.901 1.483 1.351 3.27 1.351 5.363 0 2.035-.45 3.808-1.351 5.32-.901 1.482-2.239 2.63-4.012 3.444-1.744.785-3.909 1.178-6.496 1.178h-5.974v-6.061h5.974c1.482 0 2.645-.334 3.488-1.003.843-.669 1.264-1.628 1.264-2.878 0-1.279-.421-2.253-1.264-2.921-.843-.669-2.006-1.003-3.488-1.003h-5.974Zm27.536 4.405V110h-6.497V89.943h6.497Zm5.799 6.802a4.362 4.362 0 0 0-1.134-.829c-.378-.203-.857-.305-1.439-.305a2.88 2.88 0 0 0-1.7.523c-.494.35-.872.858-1.134 1.526-.262.669-.392 1.483-.392 2.442l-1.57-2.31c0-1.6.305-3.024.916-4.274.639-1.25 1.468-2.238 2.485-2.965 1.017-.727 2.078-1.09 3.183-1.09.727 0 1.424.146 2.093.436.668.29 1.177.698 1.526 1.221l-2.834 5.625Zm3.814 3.226c0-2.122.495-3.967 1.483-5.537.988-1.57 2.354-2.79 4.099-3.663 1.744-.872 3.706-1.308 5.886-1.308s4.128.436 5.843 1.308c1.744.872 3.11 2.093 4.098 3.663 1.018 1.57 1.526 3.415 1.526 5.537 0 2.093-.508 3.925-1.526 5.494-.988 1.57-2.354 2.791-4.098 3.663-1.715.872-3.663 1.308-5.843 1.308s-4.142-.436-5.886-1.308c-1.745-.872-3.111-2.093-4.099-3.663-.988-1.569-1.483-3.401-1.483-5.494Zm6.759 0c0 1.047.218 1.948.654 2.704a4.774 4.774 0 0 0 1.7 1.7c.698.407 1.483.611 2.355.611.843 0 1.613-.204 2.311-.611a4.349 4.349 0 0 0 1.7-1.7c.436-.756.654-1.657.654-2.704 0-1.046-.218-1.947-.654-2.703a4.273 4.273 0 0 0-1.7-1.744 4.505 4.505 0 0 0-2.311-.61c-.872 0-1.657.203-2.355.61-.697.407-1.264.988-1.7 1.744-.436.756-.654 1.657-.654 2.703Zm35.355-23.981h6.584V110h-6.584V75.99ZM515.01 99.971c0-2.267.451-4.17 1.352-5.712.93-1.54 2.122-2.717 3.575-3.531a9.318 9.318 0 0 1 4.622-1.221c1.686 0 3.169.421 4.448 1.264 1.308.843 2.34 2.05 3.095 3.62.756 1.54 1.134 3.4 1.134 5.58 0 2.151-.378 4.012-1.134 5.582-.755 1.569-1.787 2.776-3.095 3.619-1.279.843-2.762 1.264-4.448 1.264a9.318 9.318 0 0 1-4.622-1.221c-1.453-.814-2.645-1.991-3.575-3.532-.901-1.569-1.352-3.473-1.352-5.712Zm6.933 0c0 1.047.218 1.963.654 2.747a4.897 4.897 0 0 0 1.744 1.788 4.825 4.825 0 0 0 2.398.611c.756 0 1.483-.204 2.18-.611.727-.407 1.323-.988 1.788-1.744.465-.785.698-1.715.698-2.79 0-1.076-.233-1.992-.698-2.748-.465-.784-1.061-1.38-1.788-1.787a4.265 4.265 0 0 0-2.18-.61c-.872 0-1.671.217-2.398.653-.727.407-1.308 1.003-1.744 1.788-.436.756-.654 1.657-.654 2.703Zm28.045 2.181c0 1.162.218 2.078.654 2.746.436.64 1.191.96 2.267.96.727 0 1.337-.146 1.831-.436.523-.291.93-.712 1.221-1.265.291-.552.436-1.221.436-2.005v-12.21h6.584V110h-6.584v-3.009c-.61 1.076-1.41 1.933-2.398 2.573-.988.61-2.224.916-3.706.916-2.5 0-4.331-.669-5.494-2.006-1.134-1.366-1.701-3.241-1.701-5.625V89.943h6.89v12.209Zm23.728-2.18c0 1.075.232 2.005.698 2.79a4.943 4.943 0 0 0 1.918 1.788 5.8 5.8 0 0 0 2.703.654 7.55 7.55 0 0 0 2.311-.349 8.035 8.035 0 0 0 2.05-1.047 5.528 5.528 0 0 0 1.569-1.613v6.41c-.697.552-1.569 1.003-2.616 1.351-1.046.32-2.325.48-3.837.48-2.209 0-4.2-.436-5.973-1.308-1.745-.872-3.125-2.093-4.143-3.663-.988-1.569-1.482-3.401-1.482-5.494 0-2.122.494-3.953 1.482-5.493 1.018-1.57 2.398-2.791 4.143-3.663 1.773-.872 3.764-1.308 5.973-1.308 1.512 0 2.791.174 3.837.523 1.047.32 1.919.727 2.616 1.22v6.454a5.331 5.331 0 0 0-1.613-1.613 7.714 7.714 0 0 0-2.093-1.003 7.54 7.54 0 0 0-2.224-.349 5.51 5.51 0 0 0-2.703.698 5.163 5.163 0 0 0-1.918 1.875c-.466.785-.698 1.671-.698 2.66Zm13.654-10.03h13.429v5.451H587.37v-5.45Zm3.531-6.976h6.323V110h-6.323V82.966Zm26.431-3.488h7.587V110h-7.587V79.478Zm10.9 30.522h-6.017v-6.54h5.756c1.163 0 2.282-.146 3.357-.436 1.105-.291 2.064-.771 2.878-1.439.843-.669 1.512-1.555 2.006-2.66.494-1.134.741-2.529.741-4.186s-.247-3.038-.741-4.142c-.494-1.134-1.163-2.035-2.006-2.703-.814-.67-1.773-1.149-2.878-1.44a12.804 12.804 0 0 0-3.357-.435h-5.756v-6.54h6.017c3.343 0 6.236.624 8.677 1.874 2.442 1.25 4.332 3.009 5.669 5.276 1.337 2.267 2.005 4.97 2.005 8.11 0 3.11-.668 5.814-2.005 8.11-1.337 2.268-3.227 4.026-5.669 5.276-2.441 1.25-5.334 1.875-8.677 1.875Zm30.627.436c-2.326 0-4.346-.421-6.061-1.264-1.686-.873-2.994-2.093-3.924-3.663-.93-1.57-1.395-3.416-1.395-5.538 0-2.15.45-4.011 1.351-5.58.901-1.57 2.195-2.777 3.881-3.62 1.715-.843 3.735-1.264 6.061-1.264 2.325 0 4.287.407 5.886 1.22 1.599.785 2.82 1.934 3.663 3.445.843 1.512 1.264 3.343 1.264 5.494v.959c0 .291-.029.538-.087.742h-18.313v-3.663h12.383l-1.57 2.006c.146-.204.262-.45.349-.741.116-.32.174-.582.174-.785 0-.872-.159-1.628-.479-2.268a3.524 3.524 0 0 0-1.352-1.482c-.581-.349-1.264-.523-2.049-.523-.989 0-1.817.218-2.486.654-.668.436-1.177 1.104-1.526 2.005-.319.873-.494 1.977-.523 3.314 0 1.221.175 2.268.523 3.14.349.872.872 1.54 1.57 2.005.698.436 1.555.654 2.573.654 1.162 0 2.151-.218 2.965-.654.843-.436 1.511-1.09 2.005-1.962l5.887 1.439c-1.047 1.977-2.471 3.459-4.273 4.448-1.774.988-3.939 1.482-6.497 1.482Zm15.882-7.718c1.017.843 1.933 1.512 2.747 2.006.843.465 1.584.799 2.223 1.003.64.174 1.192.262 1.657.262.669 0 1.163-.146 1.483-.436.32-.291.479-.669.479-1.134 0-.436-.13-.8-.392-1.09-.262-.32-.712-.625-1.352-.916-.61-.291-1.453-.596-2.529-.916a21.197 21.197 0 0 1-2.747-1.22 6.442 6.442 0 0 1-2.093-1.963c-.552-.813-.828-1.86-.828-3.139 0-1.22.32-2.253.959-3.096.669-.843 1.555-1.482 2.66-1.918 1.134-.436 2.427-.654 3.881-.654 1.162 0 2.238.13 3.226.392 1.018.262 1.962.61 2.834 1.047.902.436 1.745.944 2.529 1.526l-2.354 4.273a10.817 10.817 0 0 0-2.878-1.919c-1.075-.523-2.064-.785-2.965-.785-.61 0-1.075.117-1.395.35a1.115 1.115 0 0 0-.436.915c0 .436.174.8.523 1.09.378.29.901.567 1.57.828.697.233 1.54.538 2.529.916 1.046.378 2.005.814 2.877 1.308.902.494 1.614 1.119 2.137 1.875.552.756.828 1.759.828 3.009 0 2.151-.668 3.779-2.005 4.883-1.308 1.076-3.154 1.613-5.538 1.613-1.453 0-2.805-.174-4.055-.523a15.912 15.912 0 0 1-3.401-1.308 23.084 23.084 0 0 1-2.921-1.918l2.747-4.361ZM693.143 82.4c0-1.047.378-1.89 1.134-2.53.756-.668 1.657-1.002 2.703-1.002 1.076 0 1.977.334 2.704 1.003.756.64 1.133 1.482 1.133 2.529 0 1.046-.377 1.903-1.133 2.572-.727.669-1.628 1.003-2.704 1.003-1.046 0-1.947-.334-2.703-1.003-.756-.668-1.134-1.526-1.134-2.572Zm.654 7.543h6.366V110h-6.366V89.943Zm11.048 21.496h6.366c.087.814.32 1.497.698 2.049.406.553.944.959 1.613 1.221.668.291 1.424.436 2.267.436.93 0 1.773-.218 2.529-.654.756-.407 1.352-1.032 1.788-1.875.465-.814.697-1.831.697-3.052V89.943h6.323v19.621c0 2.558-.509 4.636-1.526 6.235-.989 1.599-2.311 2.762-3.968 3.488-1.657.756-3.517 1.134-5.581 1.134-2.471 0-4.52-.378-6.148-1.134-1.599-.755-2.805-1.816-3.619-3.183-.814-1.337-1.294-2.892-1.439-4.665Zm-.436-11.73c0-2.267.45-4.156 1.352-5.668.93-1.511 2.122-2.645 3.575-3.4a9.879 9.879 0 0 1 4.622-1.134c1.686 0 3.168.407 4.447 1.22 1.308.785 2.34 1.934 3.096 3.445.756 1.512 1.134 3.358 1.134 5.538 0 2.151-.378 3.997-1.134 5.537-.756 1.512-1.788 2.675-3.096 3.489-1.279.784-2.761 1.177-4.447 1.177a9.875 9.875 0 0 1-4.622-1.134c-1.453-.785-2.645-1.933-3.575-3.444-.902-1.512-1.352-3.387-1.352-5.625Zm6.933 0c0 1.018.218 1.905.654 2.661a4.336 4.336 0 0 0 1.744 1.656 5.118 5.118 0 0 0 2.398.567c.756 0 1.482-.174 2.18-.523a4.644 4.644 0 0 0 1.788-1.657c.465-.727.697-1.628.697-2.703 0-.814-.145-1.526-.436-2.137a4.175 4.175 0 0 0-1.09-1.526 4.365 4.365 0 0 0-1.482-.915 4.764 4.764 0 0 0-1.657-.306 5.12 5.12 0 0 0-2.398.567 4.34 4.34 0 0 0-1.744 1.657c-.436.727-.654 1.613-.654 2.66Zm33.894-1.918c0-1.191-.232-2.107-.697-2.747-.436-.64-1.178-.959-2.224-.959-.698 0-1.308.145-1.831.436a3 3 0 0 0-1.221 1.265c-.291.552-.436 1.22-.436 2.005V110h-6.628V89.943h6.628v3.008c.581-1.104 1.366-1.962 2.354-2.572 1.018-.61 2.268-.916 3.75-.916 2.5 0 4.317.669 5.45 2.006 1.134 1.337 1.701 3.212 1.701 5.625V110h-6.846V97.791Z"/><defs><linearGradient id="a" x1="-54" x2="1236.5" y1="489.955" y2="489.992" gradientUnits="userSpaceOnUse"><stop stop-color="#fff"/><stop offset="1" stop-color="#fff" stop-opacity="0"/></linearGradient></defs></svg>