<svg xmlns="http://www.w3.org/2000/svg" width="1253" height="657" fill="none" viewBox="0 0 1253 657"><rect width="1307" height="1" x="-54" y="489" fill="url(#paint0_linear_465_130)"/><path fill="#1F1F1F" d="M202.869 638.315V636.909H212.688V638.315H208.571V650H206.986V638.315H202.869ZM216.438 644.094V650H214.93V636.909H216.438V641.716H216.566C216.796 641.209 217.141 640.806 217.601 640.508C218.066 640.205 218.684 640.054 219.455 640.054C220.124 640.054 220.71 640.188 221.213 640.457C221.716 640.721 222.106 641.128 222.383 641.678C222.664 642.223 222.805 642.918 222.805 643.761V650H221.296V643.864C221.296 643.084 221.094 642.481 220.689 642.055C220.288 641.624 219.732 641.409 219.02 641.409C218.526 641.409 218.083 641.513 217.691 641.722C217.303 641.931 216.996 642.236 216.77 642.636C216.549 643.037 216.438 643.523 216.438 644.094ZM229.681 650.205C228.735 650.205 227.919 649.996 227.233 649.578C226.551 649.156 226.025 648.568 225.654 647.814C225.287 647.055 225.104 646.173 225.104 645.168C225.104 644.162 225.287 643.276 225.654 642.509C226.025 641.737 226.54 641.136 227.201 640.706C227.865 640.271 228.641 640.054 229.527 640.054C230.039 640.054 230.544 640.139 231.042 640.31C231.541 640.48 231.995 640.757 232.404 641.141C232.813 641.52 233.139 642.023 233.382 642.649C233.625 643.276 233.746 644.047 233.746 644.963V645.602H226.178V644.298H232.212C232.212 643.744 232.101 643.25 231.88 642.815C231.662 642.381 231.351 642.038 230.946 641.786C230.546 641.535 230.073 641.409 229.527 641.409C228.926 641.409 228.407 641.558 227.968 641.857C227.533 642.151 227.199 642.534 226.964 643.007C226.73 643.48 226.613 643.987 226.613 644.528V645.398C226.613 646.139 226.74 646.768 226.996 647.283C227.256 647.795 227.616 648.185 228.076 648.453C228.537 648.717 229.071 648.849 229.681 648.849C230.077 648.849 230.435 648.794 230.755 648.683C231.078 648.568 231.358 648.398 231.592 648.172C231.826 647.942 232.007 647.656 232.135 647.315L233.593 647.724C233.439 648.219 233.181 648.653 232.819 649.028C232.457 649.399 232.01 649.689 231.477 649.898C230.944 650.102 230.346 650.205 229.681 650.205ZM244.811 650.205C243.993 650.205 243.27 649.998 242.644 649.585C242.017 649.167 241.527 648.579 241.174 647.82C240.82 647.058 240.643 646.156 240.643 645.116C240.643 644.085 240.82 643.19 241.174 642.432C241.527 641.673 242.02 641.087 242.65 640.674C243.281 640.261 244.01 640.054 244.836 640.054C245.475 640.054 245.98 640.161 246.351 640.374C246.726 640.582 247.012 640.821 247.208 641.089C247.408 641.354 247.564 641.571 247.674 641.741H247.802V636.909H249.311V650H247.853V648.491H247.674C247.564 648.67 247.406 648.896 247.201 649.169C246.997 649.437 246.705 649.678 246.326 649.891C245.946 650.1 245.441 650.205 244.811 650.205ZM245.015 648.849C245.62 648.849 246.132 648.692 246.549 648.376C246.967 648.057 247.284 647.616 247.502 647.053C247.719 646.487 247.828 645.832 247.828 645.091C247.828 644.358 247.721 643.717 247.508 643.167C247.295 642.613 246.98 642.183 246.562 641.876C246.145 641.565 245.629 641.409 245.015 641.409C244.376 641.409 243.843 641.573 243.417 641.901C242.995 642.225 242.678 642.666 242.465 643.224C242.256 643.778 242.152 644.401 242.152 645.091C242.152 645.79 242.258 646.425 242.471 646.996C242.689 647.562 243.008 648.014 243.43 648.351C243.856 648.683 244.385 648.849 245.015 648.849ZM252.283 650V640.182H253.792V650H252.283ZM253.05 638.545C252.756 638.545 252.502 638.445 252.289 638.245C252.081 638.045 251.976 637.804 251.976 637.523C251.976 637.241 252.081 637.001 252.289 636.8C252.502 636.6 252.756 636.5 253.05 636.5C253.344 636.5 253.596 636.6 253.804 636.8C254.017 637.001 254.124 637.241 254.124 637.523C254.124 637.804 254.017 638.045 253.804 638.245C253.596 638.445 253.344 638.545 253.05 638.545ZM264.583 640.182L260.952 650H259.418L255.787 640.182H257.424L260.134 648.006H260.236L262.947 640.182H264.583ZM270.339 650.205C269.393 650.205 268.577 649.996 267.891 649.578C267.209 649.156 266.683 648.568 266.312 647.814C265.945 647.055 265.762 646.173 265.762 645.168C265.762 644.162 265.945 643.276 266.312 642.509C266.683 641.737 267.198 641.136 267.859 640.706C268.524 640.271 269.299 640.054 270.186 640.054C270.697 640.054 271.202 640.139 271.7 640.31C272.199 640.48 272.653 640.757 273.062 641.141C273.471 641.52 273.797 642.023 274.04 642.649C274.283 643.276 274.404 644.047 274.404 644.963V645.602H266.836V644.298H272.87C272.87 643.744 272.759 643.25 272.538 642.815C272.32 642.381 272.009 642.038 271.605 641.786C271.204 641.535 270.731 641.409 270.186 641.409C269.585 641.409 269.065 641.558 268.626 641.857C268.191 642.151 267.857 642.534 267.622 643.007C267.388 643.48 267.271 643.987 267.271 644.528V645.398C267.271 646.139 267.399 646.768 267.654 647.283C267.914 647.795 268.274 648.185 268.735 648.453C269.195 648.717 269.73 648.849 270.339 648.849C270.735 648.849 271.093 648.794 271.413 648.683C271.737 648.568 272.016 648.398 272.25 648.172C272.485 647.942 272.666 647.656 272.794 647.315L274.251 647.724C274.097 648.219 273.84 648.653 273.477 649.028C273.115 649.399 272.668 649.689 272.135 649.898C271.602 650.102 271.004 650.205 270.339 650.205ZM276.699 650V640.182H278.156V641.665H278.259C278.438 641.179 278.762 640.785 279.23 640.482C279.699 640.18 280.227 640.028 280.816 640.028C280.926 640.028 281.065 640.031 281.231 640.035C281.397 640.039 281.523 640.045 281.608 640.054V641.588C281.557 641.575 281.44 641.556 281.257 641.531C281.078 641.501 280.888 641.486 280.688 641.486C280.21 641.486 279.784 641.586 279.409 641.786C279.039 641.982 278.744 642.255 278.527 642.604C278.314 642.95 278.208 643.344 278.208 643.787V650H276.699ZM290.351 642.381L288.996 642.764C288.911 642.538 288.785 642.319 288.619 642.106C288.457 641.888 288.235 641.71 287.954 641.569C287.673 641.428 287.312 641.358 286.874 641.358C286.273 641.358 285.772 641.496 285.371 641.773C284.975 642.046 284.777 642.393 284.777 642.815C284.777 643.19 284.913 643.487 285.186 643.704C285.459 643.921 285.885 644.102 286.464 644.247L287.922 644.605C288.8 644.818 289.454 645.144 289.884 645.583C290.315 646.018 290.53 646.578 290.53 647.264C290.53 647.827 290.368 648.33 290.044 648.773C289.724 649.216 289.277 649.565 288.702 649.821C288.126 650.077 287.457 650.205 286.695 650.205C285.693 650.205 284.864 649.987 284.208 649.553C283.552 649.118 283.136 648.483 282.962 647.648L284.393 647.29C284.53 647.818 284.788 648.214 285.167 648.479C285.55 648.743 286.051 648.875 286.669 648.875C287.372 648.875 287.93 648.726 288.344 648.428C288.761 648.125 288.97 647.763 288.97 647.341C288.97 647 288.851 646.714 288.612 646.484C288.374 646.25 288.007 646.075 287.513 645.96L285.876 645.577C284.977 645.364 284.317 645.033 283.895 644.586C283.477 644.134 283.268 643.57 283.268 642.892C283.268 642.338 283.424 641.848 283.735 641.422C284.05 640.996 284.479 640.661 285.02 640.418C285.565 640.175 286.183 640.054 286.874 640.054C287.845 640.054 288.608 640.267 289.162 640.693C289.72 641.119 290.116 641.682 290.351 642.381ZM296.917 650.205C295.971 650.205 295.155 649.996 294.469 649.578C293.787 649.156 293.261 648.568 292.89 647.814C292.524 647.055 292.34 646.173 292.34 645.168C292.34 644.162 292.524 643.276 292.89 642.509C293.261 641.737 293.776 641.136 294.437 640.706C295.102 640.271 295.877 640.054 296.764 640.054C297.275 640.054 297.78 640.139 298.279 640.31C298.777 640.48 299.231 640.757 299.64 641.141C300.049 641.52 300.375 642.023 300.618 642.649C300.861 643.276 300.982 644.047 300.982 644.963V645.602H293.414V644.298H299.448C299.448 643.744 299.338 643.25 299.116 642.815C298.899 642.381 298.588 642.038 298.183 641.786C297.782 641.535 297.309 641.409 296.764 641.409C296.163 641.409 295.643 641.558 295.204 641.857C294.769 642.151 294.435 642.534 294.2 643.007C293.966 643.48 293.849 643.987 293.849 644.528V645.398C293.849 646.139 293.977 646.768 294.232 647.283C294.492 647.795 294.852 648.185 295.313 648.453C295.773 648.717 296.308 648.849 296.917 648.849C297.313 648.849 297.671 648.794 297.991 648.683C298.315 648.568 298.594 648.398 298.828 648.172C299.063 647.942 299.244 647.656 299.372 647.315L300.829 647.724C300.676 648.219 300.418 648.653 300.056 649.028C299.693 649.399 299.246 649.689 298.713 649.898C298.181 650.102 297.582 650.205 296.917 650.205Z"/><path stroke="#8A8A8A" d="M346 508V571.484C346 575.902 342.418 579.484 338 579.484H263C258.582 579.484 255 583.065 255 587.484V617"/><circle cx="347.5" cy="492.5" r="16.5" fill="#DC1C17"/><circle cx="347.5" cy="492.5" r="7.5" fill="#fff"/><rect width="157" height="40" x="174" y="617" fill="#fff" rx="20"/><path fill="#1F1F1F" d="M211.694 629.194H213.613V639.807C213.613 640.89 213.906 641.764 214.493 642.426C215.081 643.088 215.939 643.419 217.068 643.419C218.197 643.419 219.055 643.088 219.642 642.426C220.229 641.764 220.522 640.89 220.522 639.807V629.194H222.442V639.807C222.442 640.589 222.314 641.312 222.058 641.974C221.817 642.637 221.456 643.209 220.974 643.69C220.507 644.172 219.943 644.548 219.28 644.819C218.618 645.09 217.88 645.226 217.068 645.226C216.255 645.226 215.517 645.09 214.855 644.819C214.192 644.548 213.62 644.172 213.139 643.69C212.672 643.209 212.311 642.637 212.055 641.974C211.814 641.312 211.694 640.589 211.694 639.807V629.194ZM226.257 641.816C226.468 642.132 226.709 642.426 226.98 642.697C227.251 642.968 227.559 643.186 227.905 643.352C228.267 643.502 228.658 643.577 229.08 643.577C229.591 643.577 229.99 643.465 230.276 643.239C230.577 642.998 230.728 642.674 230.728 642.268C230.728 641.907 230.607 641.605 230.367 641.365C230.141 641.109 229.847 640.898 229.486 640.732C229.125 640.552 228.741 640.386 228.334 640.236C227.883 640.055 227.424 639.844 226.957 639.603C226.505 639.347 226.122 639.024 225.805 638.632C225.504 638.226 225.354 637.722 225.354 637.12C225.354 636.502 225.512 635.991 225.828 635.584C226.159 635.178 226.581 634.877 227.093 634.681C227.619 634.485 228.161 634.387 228.718 634.387C229.275 634.387 229.795 634.478 230.276 634.658C230.773 634.839 231.21 635.08 231.586 635.381C231.962 635.682 232.256 636.028 232.467 636.42L231.021 637.345C230.735 636.954 230.374 636.63 229.938 636.374C229.516 636.119 229.034 635.991 228.492 635.991C228.116 635.991 227.793 636.073 227.522 636.239C227.251 636.405 227.115 636.66 227.115 637.007C227.115 637.278 227.22 637.518 227.431 637.729C227.642 637.94 227.913 638.128 228.244 638.294C228.575 638.459 228.922 638.617 229.283 638.768C229.885 639.009 230.434 639.272 230.931 639.558C231.428 639.829 231.819 640.16 232.105 640.552C232.406 640.943 232.557 641.447 232.557 642.065C232.557 642.968 232.226 643.72 231.563 644.323C230.916 644.925 230.058 645.226 228.989 645.226C228.297 645.226 227.672 645.105 227.115 644.865C226.558 644.609 226.084 644.285 225.693 643.894C225.316 643.502 225.03 643.103 224.835 642.697L226.257 641.816ZM238.954 645.226C237.991 645.226 237.133 645 236.38 644.548C235.643 644.082 235.063 643.442 234.641 642.629C234.235 641.816 234.032 640.875 234.032 639.807C234.032 638.723 234.243 637.774 234.664 636.962C235.101 636.149 235.703 635.516 236.47 635.065C237.253 634.613 238.156 634.387 239.18 634.387C240.204 634.387 241.077 634.606 241.799 635.042C242.537 635.464 243.101 636.073 243.493 636.871C243.884 637.669 244.08 638.617 244.08 639.716C244.08 639.822 244.072 639.935 244.057 640.055C244.057 640.16 244.057 640.228 244.057 640.258H235.183V638.723H242.635L241.912 639.761C241.957 639.686 242.003 639.573 242.048 639.423C242.093 639.257 242.115 639.122 242.115 639.016C242.115 638.399 241.988 637.865 241.732 637.413C241.491 636.962 241.152 636.608 240.716 636.352C240.279 636.096 239.767 635.968 239.18 635.968C238.488 635.968 237.893 636.119 237.396 636.42C236.915 636.706 236.538 637.127 236.267 637.684C236.011 638.226 235.876 638.896 235.861 639.694C235.861 640.507 235.989 641.199 236.245 641.771C236.501 642.343 236.877 642.78 237.374 643.081C237.87 643.382 238.473 643.532 239.18 643.532C239.888 643.532 240.512 643.382 241.054 643.081C241.596 642.765 242.055 642.29 242.432 641.658L243.899 642.584C243.357 643.457 242.672 644.119 241.845 644.571C241.032 645.008 240.068 645.226 238.954 645.226ZM248.362 634.613V645H246.556V634.613H248.362ZM251.501 636.6C251.26 636.42 251.042 636.292 250.846 636.216C250.65 636.126 250.402 636.081 250.101 636.081C249.649 636.081 249.295 636.194 249.04 636.42C248.784 636.645 248.603 636.954 248.498 637.345C248.407 637.737 248.362 638.181 248.362 638.678H247.549C247.549 637.85 247.692 637.12 247.978 636.487C248.279 635.84 248.663 635.328 249.13 634.952C249.597 634.576 250.071 634.387 250.552 634.387C250.929 634.387 251.275 634.44 251.591 634.545C251.922 634.636 252.223 634.824 252.494 635.11L251.501 636.6ZM260.275 634.613H265.468V636.307H260.275V634.613ZM265.288 629.555C265.137 629.299 264.956 629.141 264.746 629.081C264.55 629.006 264.362 628.968 264.181 628.968C263.955 628.968 263.76 629.036 263.594 629.171C263.444 629.292 263.323 629.503 263.233 629.804C263.143 630.105 263.097 630.504 263.097 631V645H261.291V630.775C261.291 629.947 261.411 629.269 261.652 628.742C261.893 628.216 262.232 627.824 262.668 627.568C263.12 627.297 263.662 627.162 264.294 627.162C264.625 627.162 264.919 627.207 265.175 627.297C265.431 627.388 265.649 627.5 265.83 627.636C266.025 627.771 266.176 627.914 266.281 628.065L265.288 629.555ZM267.526 627.388H269.332V645H267.526V627.388ZM271.827 639.807C271.827 638.753 272.06 637.82 272.527 637.007C273.009 636.194 273.656 635.554 274.469 635.087C275.282 634.621 276.192 634.387 277.201 634.387C278.225 634.387 279.135 634.621 279.933 635.087C280.746 635.554 281.386 636.194 281.852 637.007C282.334 637.82 282.575 638.753 282.575 639.807C282.575 640.845 282.334 641.779 281.852 642.607C281.386 643.419 280.746 644.059 279.933 644.526C279.135 644.992 278.225 645.226 277.201 645.226C276.192 645.226 275.282 644.992 274.469 644.526C273.656 644.059 273.009 643.419 272.527 642.607C272.06 641.779 271.827 640.845 271.827 639.807ZM273.656 639.807C273.656 640.529 273.806 641.169 274.107 641.726C274.424 642.283 274.845 642.727 275.372 643.058C275.914 643.374 276.524 643.532 277.201 643.532C277.878 643.532 278.48 643.374 279.007 643.058C279.549 642.727 279.971 642.283 280.272 641.726C280.588 641.169 280.746 640.529 280.746 639.807C280.746 639.084 280.588 638.444 280.272 637.887C279.971 637.315 279.549 636.871 279.007 636.555C278.48 636.239 277.878 636.081 277.201 636.081C276.524 636.081 275.914 636.239 275.372 636.555C274.845 636.871 274.424 637.315 274.107 637.887C273.806 638.444 273.656 639.084 273.656 639.807ZM283.145 634.613H285.177L287.774 641.365L290.596 633.823L293.622 641.41L296.241 634.613H298.274L293.758 645.79L290.619 638.226L287.661 645.79L283.145 634.613Z"/><circle cx="799.5" cy="492.5" r="16.5" fill="#E55454" fill-opacity=".28"/><circle cx="799.5" cy="492.5" r="7.5" fill="#fff"/><path stroke="#EEEFF3" d="M800 509V571.5C800 575.918 796.418 579.5 792 579.5H717C712.582 579.5 709 583.082 709 587.5V616.5"/><rect width="175" height="40" x="621" y="617" fill="#DC1C17" rx="20"/><path fill="#fff" d="M660.558 629.194H664.374V639.536C664.374 640.333 664.585 640.981 665.006 641.478C665.428 641.974 666.06 642.223 666.903 642.223C667.761 642.223 668.401 641.974 668.822 641.478C669.244 640.981 669.455 640.333 669.455 639.536V629.194H673.271V639.807C673.271 640.8 673.105 641.666 672.774 642.403C672.458 643.141 672.006 643.751 671.419 644.232C670.847 644.699 670.17 645.053 669.387 645.294C668.619 645.534 667.791 645.655 666.903 645.655C666.015 645.655 665.187 645.534 664.419 645.294C663.651 645.053 662.974 644.699 662.387 644.232C661.815 643.751 661.363 643.141 661.032 642.403C660.716 641.666 660.558 640.8 660.558 639.807V629.194ZM675.961 630.707C675.961 630.165 676.157 629.728 676.549 629.397C676.94 629.051 677.407 628.878 677.949 628.878C678.505 628.878 678.972 629.051 679.348 629.397C679.74 629.728 679.936 630.165 679.936 630.707C679.936 631.249 679.74 631.693 679.348 632.039C678.972 632.385 678.505 632.558 677.949 632.558C677.407 632.558 676.94 632.385 676.549 632.039C676.157 631.693 675.961 631.249 675.961 630.707ZM676.3 634.613H679.597V645H676.3V634.613ZM697.055 627.388H700.465V645H697.055V627.388ZM688.565 639.807C688.565 638.632 688.798 637.646 689.265 636.849C689.747 636.051 690.364 635.441 691.117 635.02C691.869 634.598 692.667 634.387 693.51 634.387C694.383 634.387 695.151 634.606 695.813 635.042C696.491 635.479 697.025 636.103 697.416 636.916C697.808 637.714 698.003 638.678 698.003 639.807C698.003 640.921 697.808 641.884 697.416 642.697C697.025 643.51 696.491 644.134 695.813 644.571C695.151 645.008 694.383 645.226 693.51 645.226C692.667 645.226 691.869 645.015 691.117 644.594C690.364 644.172 689.747 643.562 689.265 642.765C688.798 641.952 688.565 640.966 688.565 639.807ZM692.155 639.807C692.155 640.349 692.268 640.823 692.494 641.229C692.72 641.621 693.021 641.929 693.397 642.155C693.773 642.366 694.187 642.471 694.639 642.471C695.03 642.471 695.407 642.366 695.768 642.155C696.144 641.944 696.453 641.643 696.694 641.252C696.935 640.845 697.055 640.364 697.055 639.807C697.055 639.25 696.935 638.775 696.694 638.384C696.453 637.978 696.144 637.669 695.768 637.458C695.407 637.248 695.03 637.142 694.639 637.142C694.187 637.142 693.773 637.255 693.397 637.481C693.021 637.692 692.72 638 692.494 638.407C692.268 638.798 692.155 639.265 692.155 639.807ZM708.394 645.226C707.19 645.226 706.144 645.008 705.256 644.571C704.383 644.119 703.705 643.487 703.224 642.674C702.742 641.861 702.501 640.905 702.501 639.807C702.501 638.693 702.734 637.729 703.201 636.916C703.668 636.103 704.338 635.479 705.211 635.042C706.099 634.606 707.145 634.387 708.349 634.387C709.554 634.387 710.57 634.598 711.398 635.02C712.226 635.426 712.858 636.021 713.294 636.803C713.731 637.586 713.949 638.535 713.949 639.649C713.949 639.814 713.949 639.98 713.949 640.145C713.949 640.296 713.934 640.424 713.904 640.529H704.42V638.632H710.833L710.02 639.671C710.095 639.566 710.156 639.438 710.201 639.287C710.261 639.122 710.291 638.986 710.291 638.881C710.291 638.429 710.208 638.038 710.043 637.707C709.877 637.375 709.644 637.12 709.343 636.939C709.042 636.758 708.688 636.668 708.282 636.668C707.77 636.668 707.341 636.781 706.994 637.007C706.648 637.232 706.385 637.579 706.204 638.045C706.039 638.497 705.948 639.069 705.933 639.761C705.933 640.394 706.024 640.936 706.204 641.387C706.385 641.839 706.656 642.185 707.017 642.426C707.378 642.652 707.822 642.765 708.349 642.765C708.951 642.765 709.463 642.652 709.885 642.426C710.321 642.2 710.668 641.861 710.923 641.41L713.972 642.155C713.43 643.179 712.692 643.946 711.759 644.458C710.841 644.97 709.719 645.226 708.394 645.226ZM716.619 641.229C717.146 641.666 717.62 642.012 718.042 642.268C718.478 642.509 718.862 642.682 719.193 642.787C719.524 642.877 719.81 642.923 720.051 642.923C720.397 642.923 720.653 642.847 720.819 642.697C720.985 642.546 721.067 642.351 721.067 642.11C721.067 641.884 721 641.696 720.864 641.545C720.729 641.38 720.495 641.222 720.164 641.071C719.848 640.921 719.411 640.762 718.854 640.597C718.358 640.416 717.884 640.206 717.432 639.965C716.995 639.709 716.634 639.37 716.348 638.949C716.062 638.527 715.919 637.985 715.919 637.323C715.919 636.691 716.085 636.156 716.416 635.72C716.762 635.283 717.221 634.952 717.793 634.726C718.38 634.5 719.05 634.387 719.803 634.387C720.405 634.387 720.962 634.455 721.474 634.591C722.001 634.726 722.49 634.907 722.941 635.133C723.408 635.358 723.845 635.622 724.251 635.923L723.032 638.136C722.595 637.729 722.098 637.398 721.541 637.142C720.985 636.871 720.473 636.736 720.006 636.736C719.69 636.736 719.449 636.796 719.283 636.916C719.133 637.037 719.058 637.195 719.058 637.391C719.058 637.616 719.148 637.805 719.329 637.955C719.524 638.106 719.795 638.249 720.142 638.384C720.503 638.504 720.939 638.663 721.451 638.858C721.993 639.054 722.49 639.28 722.941 639.536C723.408 639.792 723.777 640.115 724.048 640.507C724.334 640.898 724.477 641.417 724.477 642.065C724.477 643.179 724.131 644.022 723.438 644.594C722.761 645.151 721.805 645.429 720.571 645.429C719.818 645.429 719.118 645.339 718.471 645.158C717.838 644.992 717.251 644.767 716.709 644.481C716.167 644.18 715.663 643.848 715.197 643.487L716.619 641.229ZM726.149 630.707C726.149 630.165 726.345 629.728 726.736 629.397C727.128 629.051 727.594 628.878 728.136 628.878C728.693 628.878 729.16 629.051 729.536 629.397C729.927 629.728 730.123 630.165 730.123 630.707C730.123 631.249 729.927 631.693 729.536 632.039C729.16 632.385 728.693 632.558 728.136 632.558C727.594 632.558 727.128 632.385 726.736 632.039C726.345 631.693 726.149 631.249 726.149 630.707ZM726.488 634.613H729.784V645H726.488V634.613ZM732.209 645.745H735.505C735.551 646.167 735.671 646.52 735.867 646.806C736.077 647.092 736.356 647.303 736.702 647.439C737.048 647.589 737.44 647.664 737.876 647.664C738.358 647.664 738.795 647.552 739.186 647.326C739.577 647.115 739.886 646.791 740.112 646.355C740.353 645.933 740.473 645.406 740.473 644.774V634.613H743.747V644.774C743.747 646.099 743.484 647.175 742.957 648.003C742.445 648.831 741.76 649.433 740.902 649.81C740.044 650.201 739.081 650.397 738.012 650.397C736.732 650.397 735.671 650.201 734.828 649.81C734 649.418 733.375 648.869 732.954 648.161C732.532 647.469 732.284 646.663 732.209 645.745ZM731.983 639.671C731.983 638.497 732.216 637.518 732.683 636.736C733.165 635.953 733.782 635.366 734.535 634.974C735.287 634.583 736.085 634.387 736.928 634.387C737.801 634.387 738.569 634.598 739.231 635.02C739.909 635.426 740.443 636.021 740.834 636.803C741.226 637.586 741.421 638.542 741.421 639.671C741.421 640.785 741.226 641.741 740.834 642.539C740.443 643.322 739.909 643.924 739.231 644.345C738.569 644.752 737.801 644.955 736.928 644.955C736.085 644.955 735.287 644.759 734.535 644.368C733.782 643.961 733.165 643.367 732.683 642.584C732.216 641.801 731.983 640.83 731.983 639.671ZM735.573 639.671C735.573 640.198 735.686 640.657 735.912 641.048C736.138 641.425 736.439 641.711 736.815 641.907C737.191 642.102 737.605 642.2 738.057 642.2C738.448 642.2 738.825 642.11 739.186 641.929C739.562 641.733 739.871 641.447 740.112 641.071C740.353 640.695 740.473 640.228 740.473 639.671C740.473 639.25 740.398 638.881 740.247 638.565C740.112 638.249 739.924 637.985 739.683 637.774C739.457 637.564 739.201 637.406 738.915 637.3C738.629 637.195 738.343 637.142 738.057 637.142C737.605 637.142 737.191 637.24 736.815 637.436C736.439 637.631 736.138 637.917 735.912 638.294C735.686 638.67 735.573 639.129 735.573 639.671ZM753.126 638.678C753.126 638.06 753.005 637.586 752.765 637.255C752.539 636.924 752.155 636.758 751.613 636.758C751.252 636.758 750.936 636.834 750.665 636.984C750.394 637.135 750.183 637.353 750.032 637.639C749.882 637.925 749.807 638.271 749.807 638.678V645H746.374V634.613H749.807V636.171C750.108 635.599 750.514 635.155 751.026 634.839C751.553 634.523 752.2 634.365 752.968 634.365C754.262 634.365 755.203 634.711 755.79 635.403C756.377 636.096 756.671 637.067 756.671 638.316V645H753.126V638.678Z"/><path stroke="#8A8A8A" d="M975.509 476.93L975.214 414.43C975.193 410.012 978.758 406.414 983.176 406.393L1058.17 406.039C1062.59 406.018 1066.16 402.419 1066.14 398.001L1066 369.001"/><circle cx="974.5" cy="489.5" r="16.5" fill="#DC1C17"/><circle cx="974.5" cy="489.5" r="7.5" fill="#fff"/><rect width="193" height="40" x="975" y="329" fill="#fff" rx="20"/><path fill="#1F1F1F" d="M1016.81 341.194H1018.73V357H1016.81V341.194ZM1021.55 357H1017.87V355.081H1021.55C1022.44 355.081 1023.25 354.945 1023.99 354.674C1024.72 354.388 1025.36 353.989 1025.88 353.478C1026.41 352.951 1026.82 352.318 1027.1 351.581C1027.39 350.843 1027.53 350.015 1027.53 349.097C1027.53 348.179 1027.39 347.351 1027.1 346.613C1026.82 345.876 1026.41 345.251 1025.88 344.739C1025.36 344.212 1024.72 343.813 1023.99 343.542C1023.25 343.256 1022.44 343.113 1021.55 343.113H1017.87V341.194H1021.55C1023.08 341.194 1024.45 341.525 1025.64 342.188C1026.82 342.85 1027.76 343.776 1028.44 344.965C1029.11 346.139 1029.45 347.516 1029.45 349.097C1029.45 350.678 1029.11 352.063 1028.44 353.252C1027.76 354.426 1026.82 355.344 1025.64 356.006C1024.45 356.669 1023.08 357 1021.55 357ZM1036.06 357.226C1035.1 357.226 1034.24 357 1033.49 356.548C1032.75 356.082 1032.17 355.442 1031.75 354.629C1031.34 353.816 1031.14 352.875 1031.14 351.807C1031.14 350.723 1031.35 349.774 1031.77 348.962C1032.21 348.149 1032.81 347.516 1033.58 347.065C1034.36 346.613 1035.26 346.387 1036.29 346.387C1037.31 346.387 1038.18 346.606 1038.91 347.042C1039.64 347.464 1040.21 348.073 1040.6 348.871C1040.99 349.669 1041.19 350.617 1041.19 351.716C1041.19 351.822 1041.18 351.935 1041.16 352.055C1041.16 352.16 1041.16 352.228 1041.16 352.258H1032.29V350.723H1039.74L1039.02 351.761C1039.06 351.686 1039.11 351.573 1039.15 351.423C1039.2 351.257 1039.22 351.122 1039.22 351.016C1039.22 350.399 1039.09 349.865 1038.84 349.413C1038.6 348.962 1038.26 348.608 1037.82 348.352C1037.38 348.096 1036.87 347.968 1036.29 347.968C1035.59 347.968 1035 348.119 1034.5 348.42C1034.02 348.706 1033.64 349.127 1033.37 349.684C1033.12 350.226 1032.98 350.896 1032.97 351.694C1032.97 352.507 1033.09 353.199 1033.35 353.771C1033.61 354.343 1033.98 354.78 1034.48 355.081C1034.98 355.382 1035.58 355.532 1036.29 355.532C1036.99 355.532 1037.62 355.382 1038.16 355.081C1038.7 354.765 1039.16 354.29 1039.54 353.658L1041.01 354.584C1040.46 355.457 1039.78 356.119 1038.95 356.571C1038.14 357.008 1037.17 357.226 1036.06 357.226ZM1041.64 346.613H1043.67L1046.6 353.952L1049.54 346.613H1051.57L1046.6 357.79L1041.64 346.613ZM1052.04 351.807C1052.04 350.753 1052.28 349.82 1052.74 349.007C1053.22 348.194 1053.87 347.554 1054.68 347.087C1055.5 346.621 1056.41 346.387 1057.42 346.387C1058.44 346.387 1059.35 346.621 1060.15 347.087C1060.96 347.554 1061.6 348.194 1062.07 349.007C1062.55 349.82 1062.79 350.753 1062.79 351.807C1062.79 352.845 1062.55 353.779 1062.07 354.607C1061.6 355.419 1060.96 356.059 1060.15 356.526C1059.35 356.992 1058.44 357.226 1057.42 357.226C1056.41 357.226 1055.5 356.992 1054.68 356.526C1053.87 356.059 1053.22 355.419 1052.74 354.607C1052.28 353.779 1052.04 352.845 1052.04 351.807ZM1053.87 351.807C1053.87 352.529 1054.02 353.169 1054.32 353.726C1054.64 354.283 1055.06 354.727 1055.59 355.058C1056.13 355.374 1056.74 355.532 1057.42 355.532C1058.09 355.532 1058.7 355.374 1059.22 355.058C1059.76 354.727 1060.19 354.283 1060.49 353.726C1060.8 353.169 1060.96 352.529 1060.96 351.807C1060.96 351.084 1060.8 350.444 1060.49 349.887C1060.19 349.315 1059.76 348.871 1059.22 348.555C1058.7 348.239 1058.09 348.081 1057.42 348.081C1056.74 348.081 1056.13 348.239 1055.59 348.555C1055.06 348.871 1054.64 349.315 1054.32 349.887C1054.02 350.444 1053.87 351.084 1053.87 351.807ZM1065.27 339.388H1067.08V357H1065.27V339.388ZM1072.17 361.968H1070.36V346.613H1072.17V361.968ZM1080.86 351.807C1080.86 352.921 1080.63 353.884 1080.16 354.697C1079.7 355.51 1079.07 356.134 1078.29 356.571C1077.52 357.008 1076.66 357.226 1075.71 357.226C1074.86 357.226 1074.1 357.008 1073.43 356.571C1072.79 356.134 1072.27 355.51 1071.9 354.697C1071.54 353.884 1071.36 352.921 1071.36 351.807C1071.36 350.678 1071.54 349.714 1071.9 348.916C1072.27 348.103 1072.79 347.479 1073.43 347.042C1074.1 346.606 1074.86 346.387 1075.71 346.387C1076.66 346.387 1077.52 346.606 1078.29 347.042C1079.07 347.479 1079.7 348.103 1080.16 348.916C1080.63 349.714 1080.86 350.678 1080.86 351.807ZM1079.03 351.807C1079.03 351.009 1078.87 350.331 1078.54 349.774C1078.22 349.217 1077.79 348.796 1077.25 348.51C1076.72 348.224 1076.14 348.081 1075.49 348.081C1074.96 348.081 1074.44 348.224 1073.93 348.51C1073.42 348.796 1073 349.217 1072.67 349.774C1072.33 350.331 1072.17 351.009 1072.17 351.807C1072.17 352.604 1072.33 353.282 1072.67 353.839C1073 354.396 1073.42 354.817 1073.93 355.103C1074.44 355.389 1074.96 355.532 1075.49 355.532C1076.14 355.532 1076.72 355.389 1077.25 355.103C1077.79 354.817 1078.22 354.396 1078.54 353.839C1078.87 353.282 1079.03 352.604 1079.03 351.807ZM1097.58 350.452V357H1095.77V350.678C1095.77 349.789 1095.61 349.135 1095.28 348.713C1094.96 348.292 1094.46 348.081 1093.78 348.081C1093.29 348.081 1092.86 348.186 1092.5 348.397C1092.14 348.593 1091.86 348.886 1091.66 349.278C1091.47 349.669 1091.37 350.136 1091.37 350.678V357H1089.56V350.678C1089.56 349.789 1089.4 349.135 1089.07 348.713C1088.75 348.292 1088.25 348.081 1087.58 348.081C1087.08 348.081 1086.65 348.186 1086.29 348.397C1085.93 348.593 1085.65 348.886 1085.45 349.278C1085.26 349.669 1085.16 350.136 1085.16 350.678V357H1083.35V346.613H1085.16V348.126C1085.48 347.539 1085.87 347.102 1086.33 346.816C1086.82 346.53 1087.38 346.387 1088.03 346.387C1088.75 346.387 1089.37 346.561 1089.88 346.907C1090.41 347.238 1090.79 347.712 1091.03 348.329C1091.39 347.682 1091.84 347.2 1092.39 346.884C1092.93 346.553 1093.54 346.387 1094.24 346.387C1094.94 346.387 1095.55 346.545 1096.04 346.862C1096.54 347.178 1096.92 347.644 1097.17 348.262C1097.44 348.864 1097.58 349.594 1097.58 350.452ZM1104.99 357.226C1104.03 357.226 1103.17 357 1102.42 356.548C1101.68 356.082 1101.1 355.442 1100.68 354.629C1100.27 353.816 1100.07 352.875 1100.07 351.807C1100.07 350.723 1100.28 349.774 1100.7 348.962C1101.14 348.149 1101.74 347.516 1102.51 347.065C1103.29 346.613 1104.19 346.387 1105.22 346.387C1106.24 346.387 1107.11 346.606 1107.84 347.042C1108.57 347.464 1109.14 348.073 1109.53 348.871C1109.92 349.669 1110.12 350.617 1110.12 351.716C1110.12 351.822 1110.11 351.935 1110.09 352.055C1110.09 352.16 1110.09 352.228 1110.09 352.258H1101.22V350.723H1108.67L1107.95 351.761C1107.99 351.686 1108.04 351.573 1108.08 351.423C1108.13 351.257 1108.15 351.122 1108.15 351.016C1108.15 350.399 1108.02 349.865 1107.77 349.413C1107.53 348.962 1107.19 348.608 1106.75 348.352C1106.32 348.096 1105.8 347.968 1105.22 347.968C1104.52 347.968 1103.93 348.119 1103.43 348.42C1102.95 348.706 1102.57 349.127 1102.3 349.684C1102.05 350.226 1101.91 350.896 1101.9 351.694C1101.9 352.507 1102.03 353.199 1102.28 353.771C1102.54 354.343 1102.91 354.78 1103.41 355.081C1103.91 355.382 1104.51 355.532 1105.22 355.532C1105.92 355.532 1106.55 355.382 1107.09 355.081C1107.63 354.765 1108.09 354.29 1108.47 353.658L1109.94 354.584C1109.39 355.457 1108.71 356.119 1107.88 356.571C1107.07 357.008 1106.1 357.226 1104.99 357.226ZM1119.25 350.678C1119.25 349.82 1119.07 349.172 1118.69 348.736C1118.31 348.299 1117.76 348.081 1117.04 348.081C1116.51 348.081 1116.05 348.194 1115.64 348.42C1115.25 348.63 1114.94 348.931 1114.71 349.323C1114.5 349.714 1114.4 350.166 1114.4 350.678V357H1112.59V346.613H1114.4V348.239C1114.74 347.607 1115.17 347.14 1115.69 346.839C1116.21 346.538 1116.81 346.387 1117.49 346.387C1118.59 346.387 1119.46 346.756 1120.09 347.494C1120.74 348.216 1121.06 349.202 1121.06 350.452V357H1119.25V350.678ZM1122.88 346.613H1128.07V348.307H1122.88V346.613ZM1124.57 343H1126.37V357H1124.57V343Z"/><path stroke="#8A8A8A" d="M524.509 479.93L524.214 417.43C524.193 413.012 527.758 409.414 532.176 409.393L607.175 409.039C611.593 409.018 615.158 405.419 615.137 401.001L615 372.001"/><circle cx="523.5" cy="492.5" r="16.5" fill="#DC1C17"/><circle cx="523.5" cy="492.5" r="7.5" fill="#fff"/><rect width="157" height="40" x="537" y="332" fill="#fff" rx="20"/><path fill="#1F1F1F" d="M576.874 355.823L580.983 344.194H583.128L576.919 360.79L572.177 348.507L567.435 360.79L561.226 344.194H563.371L567.571 355.823L572.177 343.404L576.874 355.823ZM585.053 345.323C585.053 344.977 585.173 344.683 585.414 344.442C585.67 344.202 585.964 344.081 586.295 344.081C586.641 344.081 586.935 344.202 587.176 344.442C587.416 344.683 587.537 344.977 587.537 345.323C587.537 345.654 587.416 345.948 587.176 346.204C586.935 346.444 586.641 346.565 586.295 346.565C585.964 346.565 585.67 346.444 585.414 346.204C585.173 345.948 585.053 345.654 585.053 345.323ZM585.392 349.613H587.198V360H585.392V349.613ZM592.725 349.613V360H590.918V349.613H592.725ZM595.864 351.6C595.623 351.42 595.404 351.292 595.209 351.216C595.013 351.126 594.765 351.081 594.464 351.081C594.012 351.081 593.658 351.194 593.402 351.42C593.146 351.645 592.966 351.954 592.86 352.345C592.77 352.737 592.725 353.181 592.725 353.678H591.912C591.912 352.85 592.055 352.12 592.341 351.487C592.642 350.84 593.026 350.328 593.493 349.952C593.959 349.576 594.433 349.387 594.915 349.387C595.291 349.387 595.638 349.44 595.954 349.545C596.285 349.636 596.586 349.824 596.857 350.11L595.864 351.6ZM602.347 360.226C601.383 360.226 600.525 360 599.773 359.548C599.035 359.082 598.456 358.442 598.034 357.629C597.628 356.816 597.424 355.875 597.424 354.807C597.424 353.723 597.635 352.774 598.057 351.962C598.493 351.149 599.095 350.516 599.863 350.065C600.646 349.613 601.549 349.387 602.573 349.387C603.596 349.387 604.469 349.606 605.192 350.042C605.929 350.464 606.494 351.073 606.885 351.871C607.277 352.669 607.472 353.617 607.472 354.716C607.472 354.822 607.465 354.935 607.45 355.055C607.45 355.16 607.45 355.228 607.45 355.258H598.576V353.723H606.027L605.305 354.761C605.35 354.686 605.395 354.573 605.44 354.423C605.485 354.257 605.508 354.122 605.508 354.016C605.508 353.399 605.38 352.865 605.124 352.413C604.883 351.962 604.545 351.608 604.108 351.352C603.671 351.096 603.16 350.968 602.573 350.968C601.88 350.968 601.286 351.119 600.789 351.42C600.307 351.706 599.931 352.127 599.66 352.684C599.404 353.226 599.268 353.896 599.253 354.694C599.253 355.507 599.381 356.199 599.637 356.771C599.893 357.343 600.269 357.78 600.766 358.081C601.263 358.382 601.865 358.532 602.573 358.532C603.28 358.532 603.905 358.382 604.447 358.081C604.989 357.765 605.448 357.29 605.824 356.658L607.292 357.584C606.75 358.457 606.065 359.119 605.237 359.571C604.424 360.008 603.461 360.226 602.347 360.226ZM615.928 349.613H621.121V351.307H615.928V349.613ZM620.94 344.555C620.79 344.299 620.609 344.141 620.398 344.081C620.203 344.006 620.015 343.968 619.834 343.968C619.608 343.968 619.412 344.036 619.247 344.171C619.096 344.292 618.976 344.503 618.886 344.804C618.795 345.105 618.75 345.504 618.75 346V360H616.944V345.775C616.944 344.947 617.064 344.269 617.305 343.742C617.546 343.216 617.885 342.824 618.321 342.568C618.773 342.297 619.315 342.162 619.947 342.162C620.278 342.162 620.572 342.207 620.827 342.297C621.083 342.388 621.302 342.5 621.482 342.636C621.678 342.771 621.829 342.914 621.934 343.065L620.94 344.555ZM624.985 349.613V360H623.179V349.613H624.985ZM628.124 351.6C627.883 351.42 627.665 351.292 627.469 351.216C627.273 351.126 627.025 351.081 626.724 351.081C626.272 351.081 625.918 351.194 625.663 351.42C625.407 351.645 625.226 351.954 625.121 352.345C625.03 352.737 624.985 353.181 624.985 353.678H624.172C624.172 352.85 624.315 352.12 624.601 351.487C624.902 350.84 625.286 350.328 625.753 349.952C626.22 349.576 626.694 349.387 627.175 349.387C627.552 349.387 627.898 349.44 628.214 349.545C628.545 349.636 628.846 349.824 629.117 350.11L628.124 351.6ZM631.731 356.794C631.731 357.185 631.822 357.524 632.002 357.81C632.198 358.096 632.462 358.314 632.793 358.465C633.139 358.6 633.53 358.668 633.967 358.668C634.524 358.668 635.021 358.555 635.457 358.329C635.909 358.103 636.263 357.787 636.518 357.381C636.789 356.959 636.925 356.478 636.925 355.936L637.286 357.29C637.286 357.953 637.083 358.502 636.677 358.939C636.285 359.375 635.796 359.699 635.209 359.91C634.637 360.12 634.065 360.226 633.493 360.226C632.86 360.226 632.266 360.098 631.709 359.842C631.167 359.571 630.73 359.187 630.399 358.69C630.068 358.194 629.903 357.591 629.903 356.884C629.903 355.875 630.256 355.07 630.964 354.468C631.686 353.851 632.687 353.542 633.967 353.542C634.72 353.542 635.344 353.632 635.841 353.813C636.353 353.979 636.759 354.174 637.06 354.4C637.361 354.611 637.565 354.784 637.67 354.919V355.981C637.143 355.619 636.601 355.364 636.044 355.213C635.487 355.047 634.893 354.965 634.26 354.965C633.673 354.965 633.192 355.04 632.815 355.19C632.454 355.341 632.183 355.552 632.002 355.823C631.822 356.094 631.731 356.417 631.731 356.794ZM631.461 352.007L630.58 350.674C630.971 350.388 631.506 350.102 632.183 349.816C632.876 349.53 633.703 349.387 634.667 349.387C635.48 349.387 636.187 349.515 636.789 349.771C637.407 350.012 637.881 350.366 638.212 350.833C638.558 351.299 638.731 351.871 638.731 352.549V360H636.925V352.797C636.925 352.436 636.865 352.142 636.744 351.916C636.624 351.676 636.451 351.487 636.225 351.352C636.014 351.216 635.766 351.119 635.48 351.058C635.194 350.998 634.893 350.968 634.577 350.968C634.065 350.968 633.598 351.028 633.177 351.149C632.77 351.269 632.424 351.412 632.138 351.578C631.852 351.743 631.626 351.886 631.461 352.007ZM656.015 353.452V360H654.209V353.678C654.209 352.789 654.043 352.135 653.712 351.713C653.396 351.292 652.899 351.081 652.222 351.081C651.725 351.081 651.296 351.186 650.935 351.397C650.573 351.593 650.295 351.886 650.099 352.278C649.903 352.669 649.806 353.136 649.806 353.678V360H647.999V353.678C647.999 352.789 647.834 352.135 647.502 351.713C647.186 351.292 646.69 351.081 646.012 351.081C645.515 351.081 645.086 351.186 644.725 351.397C644.364 351.593 644.085 351.886 643.89 352.278C643.694 352.669 643.596 353.136 643.596 353.678V360H641.79V349.613H643.596V351.126C643.912 350.539 644.304 350.102 644.77 349.816C645.252 349.53 645.816 349.387 646.464 349.387C647.186 349.387 647.803 349.561 648.315 349.907C648.842 350.238 649.226 350.712 649.467 351.329C649.828 350.682 650.28 350.2 650.822 349.884C651.364 349.553 651.981 349.387 652.673 349.387C653.381 349.387 653.983 349.545 654.48 349.862C654.976 350.178 655.353 350.644 655.609 351.262C655.88 351.864 656.015 352.594 656.015 353.452ZM663.427 360.226C662.464 360.226 661.606 360 660.853 359.548C660.116 359.082 659.536 358.442 659.115 357.629C658.708 356.816 658.505 355.875 658.505 354.807C658.505 353.723 658.716 352.774 659.137 351.962C659.574 351.149 660.176 350.516 660.944 350.065C661.726 349.613 662.63 349.387 663.653 349.387C664.677 349.387 665.55 349.606 666.273 350.042C667.01 350.464 667.575 351.073 667.966 351.871C668.357 352.669 668.553 353.617 668.553 354.716C668.553 354.822 668.546 354.935 668.531 355.055C668.531 355.16 668.531 355.228 668.531 355.258H659.657V353.723H667.108L666.385 354.761C666.431 354.686 666.476 354.573 666.521 354.423C666.566 354.257 666.589 354.122 666.589 354.016C666.589 353.399 666.461 352.865 666.205 352.413C665.964 351.962 665.625 351.608 665.189 351.352C664.752 351.096 664.24 350.968 663.653 350.968C662.961 350.968 662.366 351.119 661.869 351.42C661.388 351.706 661.011 352.127 660.74 352.684C660.485 353.226 660.349 353.896 660.334 354.694C660.334 355.507 660.462 356.199 660.718 356.771C660.974 357.343 661.35 357.78 661.847 358.081C662.344 358.382 662.946 358.532 663.653 358.532C664.361 358.532 664.985 358.382 665.527 358.081C666.069 357.765 666.528 357.29 666.905 356.658L668.372 357.584C667.831 358.457 667.146 359.119 666.318 359.571C665.505 360.008 664.541 360.226 663.427 360.226Z"/><path stroke="#8A8A8A" d="M70.5088 477.93L70.2137 415.43C70.1928 411.012 73.7576 407.414 78.1758 407.393L153.175 407.039C157.593 407.018 161.158 403.419 161.137 399.001L161 370.001"/><circle cx="69.5" cy="492.5" r="16.5" fill="#DC1C17"/><circle cx="69.5" cy="492.5" r="7.5" fill="#fff"/><rect width="172" height="40" x="79" y="332" fill="#fff" rx="20"/><path fill="#1F1F1F" d="M123.629 352.21H125.774L131.419 360H129.048L123.629 352.21ZM120.806 344.194H122.726V360H120.806V344.194ZM121.868 345.888V344.194H125.097C126.12 344.194 127.031 344.39 127.829 344.781C128.642 345.157 129.281 345.699 129.748 346.407C130.23 347.114 130.471 347.957 130.471 348.936C130.471 349.899 130.23 350.742 129.748 351.465C129.281 352.172 128.642 352.722 127.829 353.113C127.031 353.489 126.12 353.678 125.097 353.678H121.868V351.984H125.097C125.774 351.984 126.369 351.864 126.88 351.623C127.407 351.382 127.814 351.036 128.1 350.584C128.401 350.133 128.551 349.583 128.551 348.936C128.551 348.289 128.401 347.739 128.1 347.287C127.814 346.836 127.407 346.49 126.88 346.249C126.369 346.008 125.774 345.888 125.097 345.888H121.868ZM137.348 360.226C136.384 360.226 135.526 360 134.774 359.548C134.036 359.082 133.457 358.442 133.035 357.629C132.629 356.816 132.425 355.875 132.425 354.807C132.425 353.723 132.636 352.774 133.058 351.962C133.494 351.149 134.096 350.516 134.864 350.065C135.647 349.613 136.55 349.387 137.574 349.387C138.597 349.387 139.47 349.606 140.193 350.042C140.931 350.464 141.495 351.073 141.886 351.871C142.278 352.669 142.473 353.617 142.473 354.716C142.473 354.822 142.466 354.935 142.451 355.055C142.451 355.16 142.451 355.228 142.451 355.258H133.577V353.723H141.028L140.306 354.761C140.351 354.686 140.396 354.573 140.441 354.423C140.486 354.257 140.509 354.122 140.509 354.016C140.509 353.399 140.381 352.865 140.125 352.413C139.884 351.962 139.546 351.608 139.109 351.352C138.673 351.096 138.161 350.968 137.574 350.968C136.881 350.968 136.287 351.119 135.79 351.42C135.308 351.706 134.932 352.127 134.661 352.684C134.405 353.226 134.269 353.896 134.254 354.694C134.254 355.507 134.382 356.199 134.638 356.771C134.894 357.343 135.27 357.78 135.767 358.081C136.264 358.382 136.866 358.532 137.574 358.532C138.281 358.532 138.906 358.382 139.448 358.081C139.99 357.765 140.449 357.29 140.825 356.658L142.293 357.584C141.751 358.457 141.066 359.119 140.238 359.571C139.425 360.008 138.462 360.226 137.348 360.226ZM145.378 356.816C145.589 357.132 145.83 357.426 146.101 357.697C146.372 357.968 146.68 358.186 147.027 358.352C147.388 358.502 147.779 358.577 148.201 358.577C148.713 358.577 149.112 358.465 149.398 358.239C149.699 357.998 149.849 357.674 149.849 357.268C149.849 356.907 149.729 356.605 149.488 356.365C149.262 356.109 148.969 355.898 148.607 355.732C148.246 355.552 147.862 355.386 147.456 355.236C147.004 355.055 146.545 354.844 146.078 354.603C145.627 354.347 145.243 354.024 144.927 353.632C144.626 353.226 144.475 352.722 144.475 352.12C144.475 351.502 144.633 350.991 144.949 350.584C145.281 350.178 145.702 349.877 146.214 349.681C146.741 349.485 147.283 349.387 147.84 349.387C148.397 349.387 148.916 349.478 149.398 349.658C149.894 349.839 150.331 350.08 150.707 350.381C151.084 350.682 151.377 351.028 151.588 351.42L150.143 352.345C149.857 351.954 149.495 351.63 149.059 351.374C148.637 351.119 148.156 350.991 147.614 350.991C147.237 350.991 146.914 351.073 146.643 351.239C146.372 351.405 146.236 351.66 146.236 352.007C146.236 352.278 146.342 352.518 146.553 352.729C146.763 352.94 147.034 353.128 147.365 353.294C147.697 353.459 148.043 353.617 148.404 353.768C149.006 354.009 149.556 354.272 150.052 354.558C150.549 354.829 150.941 355.16 151.227 355.552C151.528 355.943 151.678 356.447 151.678 357.065C151.678 357.968 151.347 358.72 150.685 359.323C150.037 359.925 149.179 360.226 148.111 360.226C147.418 360.226 146.793 360.105 146.236 359.865C145.679 359.609 145.205 359.285 144.814 358.894C144.438 358.502 144.152 358.103 143.956 357.697L145.378 356.816ZM158.076 360.226C157.112 360.226 156.254 360 155.501 359.548C154.764 359.082 154.184 358.442 153.763 357.629C153.356 356.816 153.153 355.875 153.153 354.807C153.153 353.723 153.364 352.774 153.785 351.962C154.222 351.149 154.824 350.516 155.592 350.065C156.375 349.613 157.278 349.387 158.301 349.387C159.325 349.387 160.198 349.606 160.921 350.042C161.658 350.464 162.223 351.073 162.614 351.871C163.006 352.669 163.201 353.617 163.201 354.716C163.201 354.822 163.194 354.935 163.179 355.055C163.179 355.16 163.179 355.228 163.179 355.258H154.305V353.723H161.756L161.034 354.761C161.079 354.686 161.124 354.573 161.169 354.423C161.214 354.257 161.237 354.122 161.237 354.016C161.237 353.399 161.109 352.865 160.853 352.413C160.612 351.962 160.273 351.608 159.837 351.352C159.4 351.096 158.888 350.968 158.301 350.968C157.609 350.968 157.014 351.119 156.518 351.42C156.036 351.706 155.66 352.127 155.389 352.684C155.133 353.226 154.997 353.896 154.982 354.694C154.982 355.507 155.11 356.199 155.366 356.771C155.622 357.343 155.998 357.78 156.495 358.081C156.992 358.382 157.594 358.532 158.301 358.532C159.009 358.532 159.634 358.382 160.176 358.081C160.717 357.765 161.177 357.29 161.553 356.658L163.021 357.584C162.479 358.457 161.794 359.119 160.966 359.571C160.153 360.008 159.19 360.226 158.076 360.226ZM166.49 356.794C166.49 357.185 166.58 357.524 166.761 357.81C166.957 358.096 167.22 358.314 167.551 358.465C167.897 358.6 168.289 358.668 168.725 358.668C169.282 358.668 169.779 358.555 170.216 358.329C170.667 358.103 171.021 357.787 171.277 357.381C171.548 356.959 171.683 356.478 171.683 355.936L172.045 357.29C172.045 357.953 171.841 358.502 171.435 358.939C171.044 359.375 170.554 359.699 169.967 359.91C169.395 360.12 168.823 360.226 168.251 360.226C167.619 360.226 167.024 360.098 166.467 359.842C165.925 359.571 165.489 359.187 165.158 358.69C164.827 358.194 164.661 357.591 164.661 356.884C164.661 355.875 165.015 355.07 165.722 354.468C166.445 353.851 167.446 353.542 168.725 353.542C169.478 353.542 170.103 353.632 170.6 353.813C171.111 353.979 171.518 354.174 171.819 354.4C172.12 354.611 172.323 354.784 172.429 354.919V355.981C171.902 355.619 171.36 355.364 170.803 355.213C170.246 355.047 169.651 354.965 169.019 354.965C168.432 354.965 167.95 355.04 167.574 355.19C167.213 355.341 166.942 355.552 166.761 355.823C166.58 356.094 166.49 356.417 166.49 356.794ZM166.219 352.007L165.338 350.674C165.73 350.388 166.264 350.102 166.942 349.816C167.634 349.53 168.462 349.387 169.425 349.387C170.238 349.387 170.946 349.515 171.548 349.771C172.165 350.012 172.639 350.366 172.97 350.833C173.317 351.299 173.49 351.871 173.49 352.549V360H171.683V352.797C171.683 352.436 171.623 352.142 171.503 351.916C171.382 351.676 171.209 351.487 170.983 351.352C170.773 351.216 170.524 351.119 170.238 351.058C169.952 350.998 169.651 350.968 169.335 350.968C168.823 350.968 168.357 351.028 167.935 351.149C167.529 351.269 167.182 351.412 166.896 351.578C166.61 351.743 166.385 351.886 166.219 352.007ZM178.355 349.613V360H176.548V349.613H178.355ZM181.493 351.6C181.252 351.42 181.034 351.292 180.838 351.216C180.643 351.126 180.394 351.081 180.093 351.081C179.642 351.081 179.288 351.194 179.032 351.42C178.776 351.645 178.595 351.954 178.49 352.345C178.4 352.737 178.355 353.181 178.355 353.678H177.542C177.542 352.85 177.685 352.12 177.971 351.487C178.272 350.84 178.656 350.328 179.122 349.952C179.589 349.576 180.063 349.387 180.545 349.387C180.921 349.387 181.267 349.44 181.583 349.545C181.915 349.636 182.216 349.824 182.487 350.11L181.493 351.6ZM184.77 354.807C184.77 355.529 184.921 356.169 185.222 356.726C185.538 357.283 185.959 357.727 186.486 358.058C187.028 358.374 187.638 358.532 188.315 358.532C188.872 358.532 189.391 358.45 189.873 358.284C190.37 358.103 190.799 357.87 191.16 357.584C191.521 357.283 191.777 356.967 191.928 356.636V358.894C191.567 359.315 191.047 359.646 190.37 359.887C189.708 360.113 189.023 360.226 188.315 360.226C187.307 360.226 186.396 359.992 185.583 359.526C184.77 359.059 184.123 358.419 183.641 357.607C183.174 356.779 182.941 355.845 182.941 354.807C182.941 353.753 183.174 352.82 183.641 352.007C184.123 351.194 184.77 350.554 185.583 350.087C186.396 349.621 187.307 349.387 188.315 349.387C189.023 349.387 189.708 349.508 190.37 349.749C191.047 349.974 191.567 350.298 191.928 350.72V352.978C191.777 352.631 191.521 352.315 191.16 352.029C190.799 351.743 190.37 351.517 189.873 351.352C189.391 351.171 188.872 351.081 188.315 351.081C187.638 351.081 187.028 351.239 186.486 351.555C185.959 351.871 185.538 352.315 185.222 352.887C184.921 353.444 184.77 354.084 184.77 354.807ZM196.546 342.388V360H194.74V342.388H196.546ZM201.401 353.678C201.401 352.82 201.213 352.172 200.837 351.736C200.475 351.299 199.926 351.081 199.188 351.081C198.661 351.081 198.195 351.194 197.788 351.42C197.397 351.645 197.088 351.954 196.863 352.345C196.652 352.737 196.546 353.181 196.546 353.678H195.959C195.959 352.85 196.117 352.12 196.434 351.487C196.75 350.84 197.179 350.328 197.721 349.952C198.278 349.576 198.917 349.387 199.64 349.387C200.362 349.387 200.987 349.538 201.514 349.839C202.056 350.14 202.47 350.592 202.756 351.194C203.057 351.796 203.208 352.549 203.208 353.452V360H201.401V353.678Z"/><path fill="#fff" d="M373.976 23.0622V16.4782H398.131V23.0622H389.716V47H382.347V23.0622H373.976ZM407.443 12.99V47H400.815V12.99H407.443ZM413.852 34.7913C413.852 33.5995 413.634 32.6838 413.198 32.0443C412.762 31.4048 412.006 31.0851 410.931 31.0851C410.233 31.0851 409.623 31.2449 409.1 31.5647C408.576 31.8554 408.169 32.2769 407.879 32.8292C407.588 33.3524 407.443 34.0064 407.443 34.7913H406.309C406.309 33.1925 406.571 31.7536 407.094 30.4746C407.617 29.1665 408.402 28.1346 409.448 27.3788C410.524 26.594 411.89 26.2016 413.547 26.2016C415.204 26.2016 416.527 26.4922 417.515 27.0736C418.532 27.655 419.273 28.5125 419.739 29.6462C420.204 30.7798 420.436 32.1751 420.436 33.832V47H413.852V34.7913ZM435.843 47.436C433.517 47.436 431.497 47.0145 429.782 46.1716C428.096 45.2995 426.788 44.0786 425.858 42.5089C424.927 40.9392 424.462 39.0934 424.462 36.9714C424.462 34.8203 424.913 32.96 425.814 31.3903C426.715 29.8206 428.009 28.6142 429.695 27.7713C431.41 26.9283 433.43 26.5068 435.755 26.5068C438.081 26.5068 440.043 26.9137 441.642 27.7277C443.241 28.5125 444.461 29.6607 445.304 31.1723C446.147 32.6838 446.569 34.5151 446.569 36.6662C446.569 36.9859 446.569 37.3057 446.569 37.6254C446.569 37.9161 446.54 38.1632 446.482 38.3667H428.169V34.7041H440.552L438.982 36.7098C439.127 36.5063 439.244 36.2592 439.331 35.9685C439.447 35.6488 439.505 35.3872 439.505 35.1837C439.505 34.3116 439.345 33.5559 439.026 32.9164C438.706 32.2769 438.255 31.7827 437.674 31.4339C437.093 31.0851 436.409 30.9106 435.625 30.9106C434.636 30.9106 433.808 31.1287 433.139 31.5647C432.471 32.0007 431.962 32.6693 431.613 33.5704C431.293 34.4425 431.119 35.5471 431.09 36.8842C431.09 38.1051 431.264 39.1515 431.613 40.0236C431.962 40.8956 432.485 41.5642 433.183 42.0293C433.88 42.4653 434.738 42.6833 435.755 42.6833C436.918 42.6833 437.906 42.4653 438.72 42.0293C439.563 41.5933 440.232 40.9392 440.726 40.0672L446.612 41.5061C445.566 43.4827 444.142 44.9652 442.339 45.9535C440.566 46.9419 438.401 47.436 435.843 47.436ZM470.247 56.5926H463.663V26.9428H470.247V56.5926ZM486.642 36.9714C486.642 39.2969 486.177 41.259 485.246 42.8578C484.345 44.4565 483.168 45.6629 481.715 46.4768C480.29 47.2907 478.75 47.6976 477.093 47.6976C475.349 47.6976 473.837 47.2616 472.558 46.3896C471.308 45.4884 470.349 44.2385 469.68 42.6397C469.012 41.0119 468.677 39.1225 468.677 36.9714C468.677 34.7913 469.012 32.9018 469.68 31.3031C470.349 29.7043 471.308 28.4689 472.558 27.5968C473.837 26.6957 475.349 26.2452 477.093 26.2452C478.75 26.2452 480.29 26.6521 481.715 27.466C483.168 28.28 484.345 29.4863 485.246 31.0851C486.177 32.6547 486.642 34.6169 486.642 36.9714ZM479.709 36.9714C479.709 35.9249 479.491 35.0384 479.055 34.3116C478.619 33.5849 478.037 33.0326 477.311 32.6547C476.584 32.2769 475.785 32.0879 474.913 32.0879C474.157 32.0879 473.416 32.2769 472.689 32.6547C471.991 33.0036 471.41 33.5413 470.945 34.268C470.48 34.9948 470.247 35.8959 470.247 36.9714C470.247 38.0469 470.48 38.9481 470.945 39.6748C471.41 40.4015 471.991 40.9538 472.689 41.3317C473.416 41.6805 474.157 41.8549 474.913 41.8549C475.785 41.8549 476.584 41.6659 477.311 41.2881C478.037 40.9102 478.619 40.3579 479.055 39.6312C479.491 38.9045 479.709 38.0179 479.709 36.9714ZM497.114 26.9428V47H490.618V26.9428H497.114ZM502.914 33.7448C502.565 33.396 502.187 33.1198 501.78 32.9164C501.402 32.7129 500.922 32.6111 500.341 32.6111C499.702 32.6111 499.135 32.7856 498.641 33.1344C498.146 33.4832 497.768 33.9919 497.507 34.6605C497.245 35.329 497.114 36.143 497.114 37.1022L495.545 34.7913C495.545 33.1925 495.85 31.7682 496.46 30.5182C497.1 29.2683 497.928 28.28 498.946 27.5532C499.963 26.8265 501.024 26.4632 502.129 26.4632C502.855 26.4632 503.553 26.6085 504.222 26.8992C504.89 27.1899 505.399 27.5968 505.748 28.1201L502.914 33.7448ZM506.728 36.9714C506.728 34.8494 507.222 33.0036 508.211 31.4339C509.199 29.8642 510.565 28.6433 512.309 27.7713C514.053 26.8992 516.016 26.4632 518.196 26.4632C520.376 26.4632 522.323 26.8992 524.038 27.7713C525.782 28.6433 527.149 29.8642 528.137 31.4339C529.154 33.0036 529.663 34.8494 529.663 36.9714C529.663 39.0643 529.154 40.8956 528.137 42.4653C527.149 44.035 525.782 45.2559 524.038 46.1279C522.323 47 520.376 47.436 518.196 47.436C516.016 47.436 514.053 47 512.309 46.1279C510.565 45.2559 509.199 44.035 508.211 42.4653C507.222 40.8956 506.728 39.0643 506.728 36.9714ZM513.487 36.9714C513.487 38.0179 513.705 38.919 514.141 39.6748C514.577 40.4015 515.143 40.9683 515.841 41.3753C516.539 41.7822 517.324 41.9857 518.196 41.9857C519.039 41.9857 519.809 41.7822 520.507 41.3753C521.233 40.9683 521.8 40.4015 522.207 39.6748C522.643 38.919 522.861 38.0179 522.861 36.9714C522.861 35.9249 522.643 35.0238 522.207 34.268C521.8 33.5123 521.233 32.9309 520.507 32.5239C519.809 32.117 519.039 31.9135 518.196 31.9135C517.324 31.9135 516.539 32.117 515.841 32.5239C515.143 32.9309 514.577 33.5123 514.141 34.268C513.705 35.0238 513.487 35.9249 513.487 36.9714ZM539.162 36.9714C539.162 38.0469 539.394 38.9771 539.859 39.762C540.324 40.5177 540.964 41.1136 541.778 41.5497C542.621 41.9857 543.522 42.2037 544.481 42.2037C545.295 42.2037 546.065 42.0874 546.792 41.8549C547.548 41.5933 548.231 41.2445 548.841 40.8084C549.481 40.3724 550.004 39.8346 550.411 39.1951V45.6047C549.714 46.157 548.841 46.6076 547.795 46.9564C546.749 47.2761 545.47 47.436 543.958 47.436C541.749 47.436 539.758 47 537.984 46.1279C536.24 45.2559 534.86 44.035 533.842 42.4653C532.854 40.8956 532.36 39.0643 532.36 36.9714C532.36 34.8494 532.854 33.0181 533.842 31.4775C534.86 29.9078 536.24 28.6869 537.984 27.8149C539.758 26.9428 541.749 26.5068 543.958 26.5068C545.47 26.5068 546.749 26.6812 547.795 27.03C548.841 27.3498 549.714 27.7567 550.411 28.2509V34.7041C550.004 34.0646 549.466 33.5268 548.798 33.0908C548.158 32.6547 547.461 32.3205 546.705 32.0879C545.949 31.8554 545.208 31.7391 544.481 31.7391C543.522 31.7391 542.621 31.9716 541.778 32.4367C540.964 32.9018 540.324 33.5268 539.859 34.3116C539.394 35.0965 539.162 35.9831 539.162 36.9714ZM565.373 47.436C563.048 47.436 561.027 47.0145 559.312 46.1716C557.626 45.2995 556.318 44.0786 555.388 42.5089C554.458 40.9392 553.993 39.0934 553.993 36.9714C553.993 34.8203 554.443 32.96 555.344 31.3903C556.245 29.8206 557.539 28.6142 559.225 27.7713C560.94 26.9283 562.96 26.5068 565.286 26.5068C567.611 26.5068 569.573 26.9137 571.172 27.7277C572.771 28.5125 573.992 29.6607 574.835 31.1723C575.678 32.6838 576.099 34.5151 576.099 36.6662C576.099 36.9859 576.099 37.3057 576.099 37.6254C576.099 37.9161 576.07 38.1632 576.012 38.3667H557.699V34.7041H570.082L568.512 36.7098C568.658 36.5063 568.774 36.2592 568.861 35.9685C568.977 35.6488 569.036 35.3872 569.036 35.1837C569.036 34.3116 568.876 33.5559 568.556 32.9164C568.236 32.2769 567.786 31.7827 567.204 31.4339C566.623 31.0851 565.94 30.9106 565.155 30.9106C564.167 30.9106 563.338 31.1287 562.67 31.5647C562.001 32.0007 561.492 32.6693 561.144 33.5704C560.824 34.4425 560.649 35.5471 560.62 36.8842C560.62 38.1051 560.795 39.1515 561.144 40.0236C561.492 40.8956 562.016 41.5642 562.713 42.0293C563.411 42.4653 564.268 42.6833 565.286 42.6833C566.449 42.6833 567.437 42.4653 568.251 42.0293C569.094 41.5933 569.762 40.9392 570.256 40.0672L576.143 41.5061C575.096 43.4827 573.672 44.9652 571.87 45.9535C570.097 46.9419 567.931 47.436 565.373 47.436ZM581.255 39.7184C582.272 40.5613 583.188 41.2299 584.002 41.7241C584.845 42.1892 585.586 42.5235 586.226 42.7269C586.865 42.9014 587.417 42.9886 587.882 42.9886C588.551 42.9886 589.045 42.8432 589.365 42.5525C589.685 42.2619 589.845 41.884 589.845 41.4189C589.845 40.9828 589.714 40.6195 589.452 40.3288C589.191 40.0091 588.74 39.7038 588.1 39.4131C587.49 39.1225 586.647 38.8172 585.572 38.4975C584.612 38.1487 583.697 37.7417 582.825 37.2766C581.982 36.7825 581.284 36.1284 580.732 35.3145C580.179 34.5006 579.903 33.4541 579.903 32.1751C579.903 30.9542 580.223 29.9223 580.862 29.0793C581.531 28.2363 582.418 27.5968 583.522 27.1608C584.656 26.7248 585.949 26.5068 587.403 26.5068C588.566 26.5068 589.641 26.6376 590.629 26.8992C591.647 27.1608 592.592 27.5096 593.464 27.9457C594.365 28.3817 595.208 28.8904 595.993 29.4718L593.638 33.7448C592.795 32.96 591.836 32.3205 590.76 31.8263C589.685 31.3031 588.696 31.0414 587.795 31.0414C587.185 31.0414 586.72 31.1577 586.4 31.3903C586.109 31.6228 585.964 31.928 585.964 32.3059C585.964 32.742 586.138 33.1053 586.487 33.396C586.865 33.6867 587.388 33.9628 588.057 34.2244C588.755 34.457 589.598 34.7622 590.586 35.1401C591.632 35.518 592.592 35.954 593.464 36.4482C594.365 36.9423 595.077 37.5673 595.6 38.3231C596.152 39.0789 596.429 40.0817 596.429 41.3317C596.429 43.4827 595.76 45.1106 594.423 46.2152C593.115 47.2907 591.269 47.8284 588.885 47.8284C587.432 47.8284 586.08 47.654 584.83 47.3052C583.609 46.9855 582.476 46.5494 581.429 45.9971C580.383 45.4158 579.409 44.7763 578.508 44.0786L581.255 39.7184ZM601.14 39.7184C602.157 40.5613 603.073 41.2299 603.887 41.7241C604.73 42.1892 605.471 42.5235 606.111 42.7269C606.75 42.9014 607.303 42.9886 607.768 42.9886C608.436 42.9886 608.93 42.8432 609.25 42.5525C609.57 42.2619 609.73 41.884 609.73 41.4189C609.73 40.9828 609.599 40.6195 609.337 40.3288C609.076 40.0091 608.625 39.7038 607.986 39.4131C607.375 39.1225 606.532 38.8172 605.457 38.4975C604.497 38.1487 603.582 37.7417 602.71 37.2766C601.867 36.7825 601.169 36.1284 600.617 35.3145C600.065 34.5006 599.788 33.4541 599.788 32.1751C599.788 30.9542 600.108 29.9223 600.748 29.0793C601.416 28.2363 602.303 27.5968 603.407 27.1608C604.541 26.7248 605.835 26.5068 607.288 26.5068C608.451 26.5068 609.526 26.6376 610.515 26.8992C611.532 27.1608 612.477 27.5096 613.349 27.9457C614.25 28.3817 615.093 28.8904 615.878 29.4718L613.523 33.7448C612.68 32.96 611.721 32.3205 610.645 31.8263C609.57 31.3031 608.582 31.0414 607.68 31.0414C607.07 31.0414 606.605 31.1577 606.285 31.3903C605.994 31.6228 605.849 31.928 605.849 32.3059C605.849 32.742 606.024 33.1053 606.372 33.396C606.75 33.6867 607.273 33.9628 607.942 34.2244C608.64 34.457 609.483 34.7622 610.471 35.1401C611.517 35.518 612.477 35.954 613.349 36.4482C614.25 36.9423 614.962 37.5673 615.485 38.3231C616.038 39.0789 616.314 40.0817 616.314 41.3317C616.314 43.4827 615.645 45.1106 614.308 46.2152C613 47.2907 611.154 47.8284 608.77 47.8284C607.317 47.8284 605.965 47.654 604.715 47.3052C603.495 46.9855 602.361 46.5494 601.314 45.9971C600.268 45.4158 599.294 44.7763 598.393 44.0786L601.14 39.7184ZM631.83 36.9714C631.83 34.8494 632.324 33.0036 633.313 31.4339C634.301 29.8642 635.667 28.6433 637.411 27.7713C639.155 26.8992 641.117 26.4632 643.298 26.4632C645.478 26.4632 647.425 26.8992 649.14 27.7713C650.884 28.6433 652.251 29.8642 653.239 31.4339C654.256 33.0036 654.765 34.8494 654.765 36.9714C654.765 39.0643 654.256 40.8956 653.239 42.4653C652.251 44.035 650.884 45.2559 649.14 46.1279C647.425 47 645.478 47.436 643.298 47.436C641.117 47.436 639.155 47 637.411 46.1279C635.667 45.2559 634.301 44.035 633.313 42.4653C632.324 40.8956 631.83 39.0643 631.83 36.9714ZM638.589 36.9714C638.589 38.0179 638.807 38.919 639.243 39.6748C639.679 40.4015 640.245 40.9683 640.943 41.3753C641.641 41.7822 642.426 41.9857 643.298 41.9857C644.141 41.9857 644.911 41.7822 645.609 41.3753C646.335 40.9683 646.902 40.4015 647.309 39.6748C647.745 38.919 647.963 38.0179 647.963 36.9714C647.963 35.9249 647.745 35.0238 647.309 34.268C646.902 33.5123 646.335 32.9309 645.609 32.5239C644.911 32.117 644.141 31.9135 643.298 31.9135C642.426 31.9135 641.641 32.117 640.943 32.5239C640.245 32.9309 639.679 33.5123 639.243 34.268C638.807 35.0238 638.589 35.9249 638.589 36.9714ZM656.938 26.9428H670.63V32.3931H656.938V26.9428ZM669.888 19.3123C669.598 18.9345 669.278 18.6583 668.929 18.4839C668.609 18.3095 668.261 18.2223 667.883 18.2223C667.447 18.2223 667.069 18.324 666.749 18.5275C666.458 18.731 666.226 19.0507 666.051 19.4868C665.877 19.9228 665.79 20.4896 665.79 21.1873V47H659.467V19.5304C659.467 18.0188 659.744 16.7253 660.296 15.6497C660.877 14.5742 661.72 13.7458 662.825 13.1644C663.958 12.583 665.354 12.2923 667.011 12.2923C668.028 12.2923 668.886 12.4231 669.583 12.6848C670.281 12.9173 670.877 13.208 671.371 13.5568C671.865 13.8766 672.257 14.1818 672.548 14.4725L669.888 19.3123ZM695.289 31.4339L693.458 47H685.697L690.624 14.9521L703.617 33.5704L716.655 14.9521L721.582 47H713.82L711.989 31.4339L703.617 44.1658L695.289 31.4339ZM725.228 19.3996C725.228 18.3531 725.606 17.5101 726.362 16.8706C727.117 16.202 728.018 15.8677 729.065 15.8677C730.14 15.8677 731.042 16.202 731.768 16.8706C732.524 17.5101 732.902 18.3531 732.902 19.3996C732.902 20.446 732.524 21.3035 731.768 21.9721C731.042 22.6407 730.14 22.975 729.065 22.975C728.018 22.975 727.117 22.6407 726.362 21.9721C725.606 21.3035 725.228 20.446 725.228 19.3996ZM725.882 26.9428H732.248V47H725.882V26.9428ZM750.708 34.7913C750.708 33.5995 750.475 32.6838 750.01 32.0443C749.574 31.4048 748.833 31.0851 747.786 31.0851C747.089 31.0851 746.478 31.2304 745.955 31.5211C745.432 31.8118 745.025 32.2333 744.734 32.7856C744.444 33.3379 744.298 34.0064 744.298 34.7913V47H737.671V26.9428H744.298V29.9514C744.88 28.8468 745.664 27.9893 746.653 27.3788C747.67 26.7684 748.92 26.4632 750.403 26.4632C752.903 26.4632 754.719 27.1317 755.853 28.4689C756.987 29.806 757.553 31.681 757.553 34.0936V47H750.708V34.7913ZM772.954 47.436C770.628 47.436 768.608 47.0145 766.893 46.1716C765.207 45.2995 763.899 44.0786 762.969 42.5089C762.039 40.9392 761.573 39.0934 761.573 36.9714C761.573 34.8203 762.024 32.96 762.925 31.3903C763.826 29.8206 765.12 28.6142 766.806 27.7713C768.521 26.9283 770.541 26.5068 772.866 26.5068C775.192 26.5068 777.154 26.9137 778.753 27.7277C780.352 28.5125 781.572 29.6607 782.415 31.1723C783.258 32.6838 783.68 34.5151 783.68 36.6662C783.68 36.9859 783.68 37.3057 783.68 37.6254C783.68 37.9161 783.651 38.1632 783.593 38.3667H765.28V34.7041H777.663L776.093 36.7098C776.238 36.5063 776.355 36.2592 776.442 35.9685C776.558 35.6488 776.616 35.3872 776.616 35.1837C776.616 34.3116 776.456 33.5559 776.137 32.9164C775.817 32.2769 775.366 31.7827 774.785 31.4339C774.204 31.0851 773.521 30.9106 772.736 30.9106C771.747 30.9106 770.919 31.1287 770.25 31.5647C769.582 32.0007 769.073 32.6693 768.724 33.5704C768.404 34.4425 768.23 35.5471 768.201 36.8842C768.201 38.1051 768.375 39.1515 768.724 40.0236C769.073 40.8956 769.596 41.5642 770.294 42.0293C770.992 42.4653 771.849 42.6833 772.866 42.6833C774.029 42.6833 775.018 42.4653 775.831 42.0293C776.674 41.5933 777.343 40.9392 777.837 40.0672L783.724 41.5061C782.677 43.4827 781.253 44.9652 779.45 45.9535C777.677 46.9419 775.512 47.436 772.954 47.436ZM788.388 16.4782H795.233L790.742 27.5968H786.033L788.388 16.4782ZM816.078 12.99H822.662V47H816.078V12.99ZM799.683 36.9714C799.683 34.7041 800.134 32.8001 801.035 31.2595C801.965 29.7188 803.157 28.5416 804.61 27.7277C806.064 26.9137 807.604 26.5068 809.232 26.5068C810.918 26.5068 812.401 26.9283 813.68 27.7713C814.988 28.6142 816.02 29.8206 816.775 31.3903C817.531 32.9309 817.909 34.7913 817.909 36.9714C817.909 39.1225 817.531 40.9828 816.775 42.5525C816.02 44.1222 814.988 45.3286 813.68 46.1716C812.401 47.0145 810.918 47.436 809.232 47.436C807.604 47.436 806.064 47.0291 804.61 46.2152C803.157 45.4012 801.965 44.224 801.035 42.6833C800.134 41.1136 799.683 39.2097 799.683 36.9714ZM806.616 36.9714C806.616 38.0179 806.834 38.9335 807.27 39.7184C807.706 40.4741 808.287 41.07 809.014 41.5061C809.741 41.913 810.54 42.1165 811.412 42.1165C812.168 42.1165 812.895 41.913 813.592 41.5061C814.319 41.0991 814.915 40.5177 815.38 39.762C815.845 38.9771 816.078 38.0469 816.078 36.9714C816.078 35.8959 815.845 34.9802 815.38 34.2244C814.915 33.4396 814.319 32.8437 813.592 32.4367C812.895 32.0298 812.168 31.8263 811.412 31.8263C810.54 31.8263 809.741 32.0443 809.014 32.4803C808.287 32.8873 807.706 33.4832 807.27 34.268C806.834 35.0238 806.616 35.9249 806.616 36.9714ZM447.52 79.4782H454.889V110H447.52V79.4782ZM452.142 85.5389V79.4782H458.116C460.703 79.4782 462.868 79.8851 464.612 80.6991C466.385 81.4839 467.723 82.6176 468.624 84.1001C469.525 85.5825 469.975 87.3703 469.975 89.4632C469.975 91.498 469.525 93.2711 468.624 94.7827C467.723 96.2652 466.385 97.4134 464.612 98.2273C462.868 99.0121 460.703 99.4046 458.116 99.4046H452.142V93.3438H458.116C459.598 93.3438 460.761 93.0095 461.604 92.3409C462.447 91.6724 462.868 90.7131 462.868 89.4632C462.868 88.1842 462.447 87.2104 461.604 86.5418C460.761 85.8732 459.598 85.5389 458.116 85.5389H452.142ZM479.678 89.9428V110H473.181V89.9428H479.678ZM485.477 96.7448C485.128 96.396 484.75 96.1198 484.343 95.9164C483.965 95.7129 483.486 95.6111 482.904 95.6111C482.265 95.6111 481.698 95.7856 481.204 96.1344C480.71 96.4832 480.332 96.9919 480.07 97.6605C479.808 98.329 479.678 99.143 479.678 100.102L478.108 97.7913C478.108 96.1925 478.413 94.7682 479.024 93.5182C479.663 92.2683 480.492 91.28 481.509 90.5532C482.526 89.8265 483.587 89.4632 484.692 89.4632C485.419 89.4632 486.116 89.6085 486.785 89.8992C487.453 90.1899 487.962 90.5968 488.311 91.1201L485.477 96.7448ZM489.291 99.9714C489.291 97.8494 489.786 96.0036 490.774 94.4339C491.762 92.8642 493.128 91.6433 494.873 90.7713C496.617 89.8992 498.579 89.4632 500.759 89.4632C502.939 89.4632 504.887 89.8992 506.602 90.7713C508.346 91.6433 509.712 92.8642 510.7 94.4339C511.718 96.0036 512.226 97.8494 512.226 99.9714C512.226 102.064 511.718 103.896 510.7 105.465C509.712 107.035 508.346 108.256 506.602 109.128C504.887 110 502.939 110.436 500.759 110.436C498.579 110.436 496.617 110 494.873 109.128C493.128 108.256 491.762 107.035 490.774 105.465C489.786 103.896 489.291 102.064 489.291 99.9714ZM496.05 99.9714C496.05 101.018 496.268 101.919 496.704 102.675C497.14 103.401 497.707 103.968 498.404 104.375C499.102 104.782 499.887 104.986 500.759 104.986C501.602 104.986 502.372 104.782 503.07 104.375C503.797 103.968 504.363 103.401 504.77 102.675C505.206 101.919 505.424 101.018 505.424 99.9714C505.424 98.9249 505.206 98.0238 504.77 97.268C504.363 96.5123 503.797 95.9309 503.07 95.5239C502.372 95.117 501.602 94.9135 500.759 94.9135C499.887 94.9135 499.102 95.117 498.404 95.5239C497.707 95.9309 497.14 96.5123 496.704 97.268C496.268 98.0238 496.05 98.9249 496.05 99.9714ZM531.405 75.99H537.989V110H531.405V75.99ZM515.01 99.9714C515.01 97.7041 515.461 95.8001 516.362 94.2595C517.292 92.7188 518.484 91.5416 519.937 90.7277C521.391 89.9137 522.931 89.5068 524.559 89.5068C526.245 89.5068 527.728 89.9283 529.007 90.7713C530.315 91.6142 531.347 92.8206 532.102 94.3903C532.858 95.9309 533.236 97.7913 533.236 99.9714C533.236 102.122 532.858 103.983 532.102 105.553C531.347 107.122 530.315 108.329 529.007 109.172C527.728 110.015 526.245 110.436 524.559 110.436C522.931 110.436 521.391 110.029 519.937 109.215C518.484 108.401 517.292 107.224 516.362 105.683C515.461 104.114 515.01 102.21 515.01 99.9714ZM521.943 99.9714C521.943 101.018 522.161 101.934 522.597 102.718C523.033 103.474 523.614 104.07 524.341 104.506C525.068 104.913 525.867 105.117 526.739 105.117C527.495 105.117 528.222 104.913 528.919 104.506C529.646 104.099 530.242 103.518 530.707 102.762C531.172 101.977 531.405 101.047 531.405 99.9714C531.405 98.8959 531.172 97.9802 530.707 97.2244C530.242 96.4396 529.646 95.8437 528.919 95.4367C528.222 95.0298 527.495 94.8263 526.739 94.8263C525.867 94.8263 525.068 95.0443 524.341 95.4803C523.614 95.8873 523.033 96.4832 522.597 97.268C522.161 98.0238 521.943 98.9249 521.943 99.9714ZM549.988 102.152C549.988 103.314 550.206 104.23 550.642 104.898C551.078 105.538 551.833 105.858 552.909 105.858C553.636 105.858 554.246 105.712 554.74 105.422C555.263 105.131 555.67 104.71 555.961 104.157C556.252 103.605 556.397 102.936 556.397 102.152V89.9428H562.981V110H556.397V106.991C555.787 108.067 554.987 108.924 553.999 109.564C553.011 110.174 551.775 110.48 550.293 110.48C547.793 110.48 545.962 109.811 544.799 108.474C543.665 107.108 543.098 105.233 543.098 102.849V89.9428H549.988V102.152ZM573.716 99.9714C573.716 101.047 573.948 101.977 574.414 102.762C574.879 103.518 575.518 104.114 576.332 104.55C577.175 104.986 578.076 105.204 579.035 105.204C579.849 105.204 580.62 105.087 581.346 104.855C582.102 104.593 582.785 104.244 583.396 103.808C584.035 103.372 584.558 102.835 584.965 102.195V108.605C584.268 109.157 583.396 109.608 582.349 109.956C581.303 110.276 580.024 110.436 578.512 110.436C576.303 110.436 574.312 110 572.539 109.128C570.794 108.256 569.414 107.035 568.396 105.465C567.408 103.896 566.914 102.064 566.914 99.9714C566.914 97.8494 567.408 96.0181 568.396 94.4775C569.414 92.9078 570.794 91.6869 572.539 90.8149C574.312 89.9428 576.303 89.5068 578.512 89.5068C580.024 89.5068 581.303 89.6812 582.349 90.03C583.396 90.3498 584.268 90.7567 584.965 91.2509V97.7041C584.558 97.0646 584.021 96.5268 583.352 96.0908C582.713 95.6547 582.015 95.3205 581.259 95.0879C580.503 94.8554 579.762 94.7391 579.035 94.7391C578.076 94.7391 577.175 94.9716 576.332 95.4367C575.518 95.9018 574.879 96.5268 574.414 97.3116C573.948 98.0965 573.716 98.9831 573.716 99.9714ZM587.37 89.9428H600.799V95.3931H587.37V89.9428ZM590.901 82.9664H597.224V110H590.901V82.9664ZM617.332 79.4782H624.919V110H617.332V79.4782ZM628.232 110H622.215V103.46H627.971C629.134 103.46 630.253 103.314 631.328 103.024C632.433 102.733 633.392 102.253 634.206 101.585C635.049 100.916 635.718 100.03 636.212 98.9249C636.706 97.7913 636.953 96.396 636.953 94.7391C636.953 93.0822 636.706 91.7014 636.212 90.5968C635.718 89.4632 635.049 88.5621 634.206 87.8935C633.392 87.2249 632.433 86.7453 631.328 86.4546C630.253 86.1639 629.134 86.0186 627.971 86.0186H622.215V79.4782H628.232C631.575 79.4782 634.468 80.1032 636.909 81.3531C639.351 82.603 641.241 84.3617 642.578 86.629C643.915 88.8963 644.583 91.5997 644.583 94.7391C644.583 97.8494 643.915 100.553 642.578 102.849C641.241 105.117 639.351 106.875 636.909 108.125C634.468 109.375 631.575 110 628.232 110ZM658.859 110.436C656.533 110.436 654.513 110.015 652.798 109.172C651.112 108.299 649.804 107.079 648.874 105.509C647.944 103.939 647.479 102.093 647.479 99.9714C647.479 97.8203 647.929 95.96 648.83 94.3903C649.731 92.8206 651.025 91.6142 652.711 90.7713C654.426 89.9283 656.446 89.5068 658.772 89.5068C661.097 89.5068 663.059 89.9137 664.658 90.7277C666.257 91.5125 667.478 92.6607 668.321 94.1723C669.164 95.6838 669.585 97.5151 669.585 99.6662C669.585 99.9859 669.585 100.306 669.585 100.625C669.585 100.916 669.556 101.163 669.498 101.367H651.185V97.7041H663.568L661.998 99.7098C662.144 99.5063 662.26 99.2592 662.347 98.9685C662.463 98.6488 662.521 98.3872 662.521 98.1837C662.521 97.3116 662.362 96.5559 662.042 95.9164C661.722 95.2769 661.271 94.7827 660.69 94.4339C660.109 94.0851 659.426 93.9106 658.641 93.9106C657.652 93.9106 656.824 94.1287 656.155 94.5647C655.487 95.0007 654.978 95.6693 654.629 96.5704C654.31 97.4425 654.135 98.5471 654.106 99.8842C654.106 101.105 654.281 102.152 654.629 103.024C654.978 103.896 655.501 104.564 656.199 105.029C656.897 105.465 657.754 105.683 658.772 105.683C659.934 105.683 660.923 105.465 661.737 105.029C662.58 104.593 663.248 103.939 663.742 103.067L669.629 104.506C668.582 106.483 667.158 107.965 665.356 108.954C663.582 109.942 661.417 110.436 658.859 110.436ZM674.741 102.718C675.758 103.561 676.674 104.23 677.488 104.724C678.331 105.189 679.072 105.523 679.711 105.727C680.351 105.901 680.903 105.989 681.368 105.989C682.037 105.989 682.531 105.843 682.851 105.553C683.171 105.262 683.33 104.884 683.33 104.419C683.33 103.983 683.2 103.619 682.938 103.329C682.676 103.009 682.226 102.704 681.586 102.413C680.976 102.122 680.133 101.817 679.057 101.497C678.098 101.149 677.182 100.742 676.31 100.277C675.467 99.7825 674.77 99.1284 674.217 98.3145C673.665 97.5006 673.389 96.4541 673.389 95.1751C673.389 93.9542 673.709 92.9223 674.348 92.0793C675.017 91.2363 675.903 90.5968 677.008 90.1608C678.142 89.7248 679.435 89.5068 680.889 89.5068C682.051 89.5068 683.127 89.6376 684.115 89.8992C685.133 90.1608 686.077 90.5096 686.949 90.9457C687.851 91.3817 688.694 91.8904 689.478 92.4718L687.124 96.7448C686.281 95.96 685.322 95.3205 684.246 94.8263C683.171 94.3031 682.182 94.0414 681.281 94.0414C680.671 94.0414 680.206 94.1577 679.886 94.3903C679.595 94.6228 679.45 94.928 679.45 95.3059C679.45 95.742 679.624 96.1053 679.973 96.396C680.351 96.6867 680.874 96.9628 681.543 97.2244C682.24 97.457 683.083 97.7622 684.072 98.1401C685.118 98.518 686.077 98.954 686.949 99.4482C687.851 99.9423 688.563 100.567 689.086 101.323C689.638 102.079 689.914 103.082 689.914 104.332C689.914 106.483 689.246 108.111 687.909 109.215C686.601 110.291 684.755 110.828 682.371 110.828C680.918 110.828 679.566 110.654 678.316 110.305C677.095 109.985 675.962 109.549 674.915 108.997C673.869 108.416 672.895 107.776 671.994 107.079L674.741 102.718ZM693.143 82.3996C693.143 81.3531 693.521 80.5101 694.277 79.8706C695.033 79.202 695.934 78.8677 696.98 78.8677C698.056 78.8677 698.957 79.202 699.684 79.8706C700.44 80.5101 700.817 81.3531 700.817 82.3996C700.817 83.446 700.44 84.3035 699.684 84.9721C698.957 85.6407 698.056 85.975 696.98 85.975C695.934 85.975 695.033 85.6407 694.277 84.9721C693.521 84.3035 693.143 83.446 693.143 82.3996ZM693.797 89.9428H700.163V110H693.797V89.9428ZM704.845 111.439H711.211C711.298 112.253 711.531 112.936 711.909 113.488C712.315 114.041 712.853 114.447 713.522 114.709C714.19 115 714.946 115.145 715.789 115.145C716.719 115.145 717.562 114.927 718.318 114.491C719.074 114.084 719.67 113.459 720.106 112.616C720.571 111.802 720.803 110.785 720.803 109.564V89.9428H727.126V109.564C727.126 112.122 726.617 114.2 725.6 115.799C724.611 117.398 723.289 118.561 721.632 119.287C719.975 120.043 718.115 120.421 716.051 120.421C713.58 120.421 711.531 120.043 709.903 119.287C708.304 118.532 707.098 117.471 706.284 116.104C705.47 114.767 704.99 113.212 704.845 111.439ZM704.409 99.7098C704.409 97.4425 704.859 95.553 705.761 94.0414C706.691 92.5299 707.883 91.3962 709.336 90.6404C710.789 89.8847 712.33 89.5068 713.958 89.5068C715.644 89.5068 717.126 89.9137 718.405 90.7277C719.713 91.5125 720.745 92.6607 721.501 94.1723C722.257 95.6838 722.635 97.5297 722.635 99.7098C722.635 101.861 722.257 103.707 721.501 105.247C720.745 106.759 719.713 107.922 718.405 108.736C717.126 109.52 715.644 109.913 713.958 109.913C712.33 109.913 710.789 109.535 709.336 108.779C707.883 107.994 706.691 106.846 705.761 105.335C704.859 103.823 704.409 101.948 704.409 99.7098ZM711.342 99.7098C711.342 100.727 711.56 101.614 711.996 102.37C712.432 103.096 713.013 103.649 713.74 104.026C714.467 104.404 715.266 104.593 716.138 104.593C716.894 104.593 717.62 104.419 718.318 104.07C719.045 103.692 719.641 103.14 720.106 102.413C720.571 101.686 720.803 100.785 720.803 99.7098C720.803 98.8959 720.658 98.1837 720.367 97.5733C720.106 96.9628 719.742 96.4541 719.277 96.0472C718.841 95.6402 718.347 95.335 717.795 95.1315C717.243 94.928 716.69 94.8263 716.138 94.8263C715.266 94.8263 714.467 95.0152 713.74 95.3931C713.013 95.771 712.432 96.3233 711.996 97.05C711.56 97.7767 711.342 98.6633 711.342 99.7098ZM745.236 97.7913C745.236 96.5995 745.004 95.6838 744.539 95.0443C744.103 94.4048 743.361 94.0851 742.315 94.0851C741.617 94.0851 741.007 94.2304 740.484 94.5211C739.96 94.8118 739.553 95.2333 739.263 95.7856C738.972 96.3379 738.827 97.0064 738.827 97.7913V110H732.199V89.9428H738.827V92.9514C739.408 91.8468 740.193 90.9893 741.181 90.3788C742.199 89.7684 743.449 89.4632 744.931 89.4632C747.431 89.4632 749.248 90.1317 750.381 91.4689C751.515 92.806 752.082 94.681 752.082 97.0936V110H745.236V97.7913Z"/><defs><linearGradient id="paint0_linear_465_130" x1="-54" x2="1236.5" y1="489.955" y2="489.992" gradientUnits="userSpaceOnUse"><stop stop-color="#fff"/><stop offset="1" stop-color="#fff" stop-opacity="0"/></linearGradient></defs></svg>